<svg width="62" height="61" viewBox="0 0 62 61" fill="none" xmlns="http://www.w3.org/2000/svg">
<path fill-rule="evenodd" clip-rule="evenodd" d="M31.4666 3.20741C16.4165 3.20741 4.21595 15.4079 4.21595 30.458C4.21595 45.5081 16.4165 57.7086 31.4666 57.7086C46.5166 57.7086 58.7172 45.5081 58.7172 30.458C58.7172 15.4079 46.5166 3.20741 31.4666 3.20741ZM2.09253 30.458C2.09253 14.2352 15.2437 1.08398 31.4666 1.08398C47.6894 1.08398 60.8406 14.2352 60.8406 30.458C60.8406 46.6809 47.6894 59.8321 31.4666 59.8321C15.2437 59.8321 2.09253 46.6809 2.09253 30.458Z" fill="#0B3B3D"/>
<mask id="mask0" mask-type="alpha" maskUnits="userSpaceOnUse" x="16" y="22" width="30" height="27">
<path d="M42.7355 24.4962C38.912 21.5008 34.6137 23.6573 30.9711 23.6573C27.3286 23.6573 23.0286 21.5008 19.2068 24.4962C15.7 27.2434 14.5358 35.582 19.2661 42.9511C23.8047 50.0211 28.3814 47.6243 30.9711 47.6243C33.5608 47.6243 38.1376 50.0211 42.6762 42.9511C47.4065 35.582 46.2423 27.2434 42.7355 24.4962Z" fill="#C4C4C4"/>
</mask>
<g mask="url(#mask0)">
<path d="M45.3412 48.0162C45.6597 48.3348 46.1906 48.3348 46.5091 48.0162C46.8277 47.6977 46.8277 47.1668 46.5091 46.8483C46.1906 46.5297 45.6597 46.5297 45.3412 46.8483C45.0227 47.1668 45.0227 47.6977 45.3412 48.0162Z" fill="#0A3B3C"/>
<path d="M45.3412 44.194C45.6597 44.5125 46.1906 44.5125 46.5091 44.194C46.8277 43.8754 46.8277 43.3445 46.5091 43.026C46.1906 42.7075 45.6597 42.7075 45.3412 43.026C45.0227 43.3445 45.0227 43.8754 45.3412 44.194Z" fill="#0A3B3C"/>
<path d="M41.5184 44.194C41.837 44.5125 42.3678 44.5125 42.6864 44.194C43.0049 43.8754 43.0049 43.3445 42.6864 43.026C42.3678 42.7075 41.837 42.7075 41.5184 43.026C41.1999 43.3445 41.1999 43.8754 41.5184 44.194Z" fill="#0A3B3C"/>
<path d="M45.341 40.3717C45.6595 40.6902 46.1903 40.6902 46.5089 40.3717C46.8274 40.0532 46.8274 39.5223 46.5089 39.2037C46.1903 38.8852 45.6595 38.8852 45.341 39.2037C45.0224 39.5223 45.0224 40.0532 45.341 40.3717Z" fill="#0A3B3C"/>
<path d="M41.5184 48.0182C41.837 48.3367 42.3678 48.3367 42.6864 48.0182C43.0049 47.6996 43.0049 47.1688 42.6864 46.8502C42.3678 46.5317 41.837 46.5317 41.5184 46.8502C41.1999 47.1688 41.1999 47.6996 41.5184 48.0182Z" fill="#0A3B3C"/>
<path d="M37.6964 48.0182C38.015 48.3367 38.5459 48.3367 38.8645 48.0182C39.183 47.6996 39.183 47.1688 38.8645 46.8502C38.5459 46.5317 38.015 46.5317 37.6964 46.8502C37.3779 47.1688 37.3779 47.6996 37.6964 48.0182Z" fill="#0A3B3C"/>
<path d="M45.3414 48.0182C45.66 48.3367 46.1908 48.3367 46.5094 48.0182C46.8279 47.6996 46.8279 47.1688 46.5094 46.8502C46.1908 46.5317 45.66 46.5317 45.3414 46.8502C45.0229 47.1688 45.0229 47.6996 45.3414 48.0182Z" fill="#0A3B3C"/>
<path d="M41.5189 44.1959C41.8375 44.5144 42.3683 44.5144 42.6869 44.1959C43.0054 43.8774 43.0054 43.3465 42.6869 43.028C42.3683 42.7094 41.8375 42.7094 41.5189 43.028C41.2004 43.3465 41.2004 43.8774 41.5189 44.1959Z" fill="#0A3B3C"/>
<path d="M45.3412 32.6217C45.6597 32.9402 46.1906 32.9402 46.5091 32.6217C46.8277 32.3032 46.8277 31.7723 46.5091 31.4537C46.1906 31.1352 45.6597 31.1352 45.3412 31.4537C45.0227 31.7723 45.0227 32.3032 45.3412 32.6217Z" fill="#0A3B3C"/>
<path d="M45.3412 28.7994C45.6597 29.118 46.1906 29.118 46.5091 28.7994C46.8277 28.4809 46.8277 27.95 46.5091 27.6315C46.1906 27.3129 45.6597 27.3129 45.3412 27.6315C45.0227 27.95 45.0227 28.4809 45.3412 28.7994Z" fill="#0A3B3C"/>
<path d="M41.5184 28.7994C41.837 29.118 42.3678 29.118 42.6864 28.7994C43.0049 28.4809 43.0049 27.95 42.6864 27.6315C42.3678 27.3129 41.837 27.3129 41.5184 27.6315C41.1999 27.95 41.1999 28.4809 41.5184 28.7994Z" fill="#0A3B3C"/>
<path d="M45.341 24.9772C45.6595 25.2957 46.1903 25.2957 46.5089 24.9772C46.8274 24.6586 46.8274 24.1277 46.5089 23.8092C46.1903 23.4907 45.6595 23.4907 45.341 23.8092C45.0224 24.1277 45.0224 24.6586 45.341 24.9772Z" fill="#0A3B3C"/>
<path d="M41.5211 44.1959C41.8397 44.5144 42.3705 44.5144 42.6891 44.1959C43.0076 43.8774 43.0076 43.3465 42.6891 43.028C42.3705 42.7094 41.8397 42.7094 41.5211 43.028C41.2026 43.3465 41.2026 43.8774 41.5211 44.1959Z" fill="#0A3B3C"/>
<path d="M37.6986 40.3717C38.0171 40.6902 38.5481 40.6902 38.8667 40.3717C39.1852 40.0532 39.1852 39.5223 38.8667 39.2037C38.5481 38.8852 38.0171 38.8852 37.6986 39.2037C37.3801 39.5223 37.3801 40.0532 37.6986 40.3717Z" fill="#0A3B3C"/>
<path d="M45.3436 40.3717C45.6622 40.6902 46.193 40.6902 46.5116 40.3717C46.8301 40.0532 46.8301 39.5223 46.5116 39.2037C46.193 38.8852 45.6622 38.8852 45.3436 39.2037C45.0251 39.5223 45.0251 40.0532 45.3436 40.3717Z" fill="#0A3B3C"/>
<path d="M41.5211 36.444C41.8397 36.7625 42.3705 36.7625 42.6891 36.444C43.0076 36.1254 43.0076 35.5945 42.6891 35.276C42.3705 34.9575 41.8397 34.9575 41.5211 35.276C41.2026 35.7007 41.2026 36.1254 41.5211 36.444Z" fill="#0A3B3C"/>
<path d="M37.6986 36.444C38.0171 36.7625 38.5481 36.7625 38.8667 36.444C39.1852 36.1254 39.1852 35.5945 38.8667 35.276C38.5481 34.9575 38.0171 34.9575 37.6986 35.276C37.3801 35.7007 37.3801 36.1254 37.6986 36.444Z" fill="#0A3B3C"/>
<path d="M41.5211 40.3717C41.8397 40.6902 42.3705 40.6902 42.6891 40.3717C43.0076 40.0532 43.0076 39.5223 42.6891 39.2037C42.3705 38.8852 41.8397 38.8852 41.5211 39.2037C41.2026 39.5223 41.2026 40.0532 41.5211 40.3717Z" fill="#0A3B3C"/>
<path d="M41.5211 32.6217C41.8397 32.9402 42.3705 32.9402 42.6891 32.6217C43.0076 32.3032 43.0076 31.7723 42.6891 31.4537C42.3705 31.1352 41.8397 31.1352 41.5211 31.4537C41.2026 31.7723 41.2026 32.3032 41.5211 32.6217Z" fill="#0A3B3C"/>
<path d="M45.3436 36.444C45.6622 36.7625 46.193 36.7625 46.5116 36.444C46.8301 36.1254 46.8301 35.5945 46.5116 35.276C46.193 34.9575 45.6622 34.9575 45.3436 35.276C45.0251 35.7007 45.0251 36.1254 45.3436 36.444Z" fill="#0A3B3C"/>
<path d="M33.8758 36.444C34.1944 36.7625 34.7252 36.7625 35.0438 36.444C35.3623 36.1254 35.3623 35.5945 35.0438 35.276C34.7252 34.9575 34.1944 34.9575 33.8758 35.276C33.5573 35.5945 33.4511 36.1254 33.8758 36.444Z" fill="#0A3B3C"/>
<path d="M37.6986 32.6217C38.0171 32.9402 38.5481 32.9402 38.8667 32.6217C39.1852 32.3032 39.1852 31.7723 38.8667 31.4537C38.5481 31.1352 38.0171 31.1352 37.6986 31.4537C37.3801 31.7723 37.3801 32.3032 37.6986 32.6217Z" fill="#0A3B3C"/>
<path d="M45.3419 32.6217C45.6605 32.9402 46.1913 32.9402 46.5099 32.6217C46.8284 32.3032 46.8284 31.7723 46.5099 31.4537C46.1913 31.1352 45.6605 31.1352 45.3419 31.4537C45.0234 31.7723 45.0234 32.3032 45.3419 32.6217Z" fill="#0A3B3C"/>
<path d="M41.5204 28.7994C41.8389 29.118 42.3698 29.118 42.6883 28.7994C43.0069 28.4809 43.0069 27.95 42.6883 27.6315C42.3698 27.3129 41.8389 27.3129 41.5204 27.6315C41.2019 27.95 41.2019 28.4809 41.5204 28.7994Z" fill="#0A3B3C"/>
<path d="M29.9462 48.0162C30.2647 48.3348 30.7956 48.3348 31.1141 48.0162C31.4326 47.6977 31.4326 47.1668 31.1141 46.8483C30.7956 46.5297 30.2647 46.5297 29.9462 46.8483C29.6276 47.1668 29.6276 47.6977 29.9462 48.0162Z" fill="#0A3B3C"/>
<path d="M37.6969 48.0162C38.0154 48.3348 38.5464 48.3348 38.865 48.0162C39.1835 47.6977 39.1835 47.1668 38.865 46.8483C38.5464 46.5297 38.0154 46.5297 37.6969 46.8483C37.3784 47.1668 37.3784 47.6977 37.6969 48.0162Z" fill="#0A3B3C"/>
<path d="M33.8744 44.194C34.193 44.5125 34.7238 44.5125 35.0424 44.194C35.3609 43.8754 35.3609 43.3445 35.0424 43.026C34.7238 42.7075 34.193 42.7075 33.8744 43.026C33.4497 43.3445 33.4497 43.8754 33.8744 44.194Z" fill="#0A3B3C"/>
<path d="M29.9462 44.194C30.2647 44.5125 30.7956 44.5125 31.1141 44.194C31.4326 43.8754 31.4326 43.3445 31.1141 43.026C30.7956 42.7075 30.2647 42.7075 29.9462 43.026C29.6276 43.3445 29.6276 43.8754 29.9462 44.194Z" fill="#0A3B3C"/>
<path d="M33.8744 48.0162C34.193 48.3348 34.7238 48.3348 35.0424 48.0162C35.3609 47.6977 35.3609 47.1668 35.0424 46.8483C34.7238 46.5297 34.193 46.5297 33.8744 46.8483C33.4497 47.1668 33.4497 47.6977 33.8744 48.0162Z" fill="#0A3B3C"/>
<path d="M33.8744 40.3717C34.193 40.6902 34.7238 40.6902 35.0424 40.3717C35.3609 40.0532 35.3609 39.5223 35.0424 39.2037C34.7238 38.8852 34.193 38.8852 33.8744 39.2037C33.4497 39.5223 33.4497 40.0532 33.8744 40.3717Z" fill="#0A3B3C"/>
<path d="M37.6969 44.194C38.0154 44.5125 38.5464 44.5125 38.865 44.194C39.1835 43.8754 39.1835 43.3445 38.865 43.026C38.5464 42.7075 38.0154 42.7075 37.6969 43.026C37.3784 43.3445 37.3784 43.8754 37.6969 44.194Z" fill="#0A3B3C"/>
<path d="M26.1234 44.194C26.442 44.5125 26.9728 44.5125 27.2913 44.194C27.6099 43.8754 27.6099 43.3445 27.2913 43.026C26.9728 42.7075 26.442 42.7075 26.1234 43.026C25.8049 43.3445 25.8049 43.8754 26.1234 44.194Z" fill="#0A3B3C"/>
<path d="M29.9459 40.3717C30.2645 40.6902 30.7953 40.6902 31.1139 40.3717C31.4324 40.0532 31.4324 39.5223 31.1139 39.2037C30.7953 38.8852 30.2645 38.8852 29.9459 39.2037C29.6274 39.5223 29.6274 40.0532 29.9459 40.3717Z" fill="#0A3B3C"/>
<path d="M41.5184 44.194C41.837 44.5125 42.3678 44.5125 42.6864 44.194C43.0049 43.8754 43.0049 43.3445 42.6864 43.026C42.3678 42.7075 41.837 42.7075 41.5184 43.026C41.1999 43.3445 41.1999 43.8754 41.5184 44.194Z" fill="#0A3B3C"/>
<path d="M37.6964 40.3717C38.015 40.6902 38.5459 40.6902 38.8645 40.3717C39.183 40.0532 39.183 39.5223 38.8645 39.2037C38.5459 38.8852 38.015 38.8852 37.6964 39.2037C37.3779 39.5223 37.3779 40.0532 37.6964 40.3717Z" fill="#0A3B3C"/>
<path d="M33.8739 36.444C34.1924 36.7625 34.7233 36.7625 35.0418 36.444C35.3603 36.1254 35.3603 35.5945 35.0418 35.276C34.7233 34.9575 34.1924 34.9575 33.8739 35.276C33.5553 35.5945 33.4492 36.1254 33.8739 36.444Z" fill="#0A3B3C"/>
<path d="M26.1227 48.0182C26.4412 48.3367 26.9721 48.3367 27.2906 48.0182C27.6092 47.6996 27.6092 47.1688 27.2906 46.8502C26.9721 46.5317 26.4412 46.5317 26.1227 46.8502C25.8042 47.1688 25.8042 47.6996 26.1227 48.0182Z" fill="#0A3B3C"/>
<path d="M22.2999 48.0182C22.6185 48.3367 23.1495 48.3367 23.468 48.0182C23.7865 47.6996 23.7865 47.1688 23.468 46.8502C23.1495 46.5317 22.6185 46.5317 22.2999 46.8502C21.9814 47.1688 21.9814 47.6996 22.2999 48.0182Z" fill="#0A3B3C"/>
<path d="M29.9454 48.0182C30.264 48.3367 30.7948 48.3367 31.1134 48.0182C31.4319 47.6996 31.4319 47.1688 31.1134 46.8502C30.7948 46.5317 30.264 46.5317 29.9454 46.8502C29.6269 47.1688 29.6269 47.6996 29.9454 48.0182Z" fill="#0A3B3C"/>
<path d="M26.1229 44.1959C26.4415 44.5144 26.9723 44.5144 27.2909 44.1959C27.6094 43.8774 27.6094 43.3465 27.2909 43.028C26.9723 42.7094 26.4415 42.7094 26.1229 43.028C25.8044 43.3465 25.8044 43.8774 26.1229 44.1959Z" fill="#0A3B3C"/>
<path d="M41.5211 28.8014C41.8397 29.1199 42.3705 29.1199 42.6891 28.8014C43.0076 28.4828 43.0076 27.952 42.6891 27.6334C42.3705 27.3149 41.8397 27.3149 41.5211 27.6334C41.2026 27.952 41.2026 28.4828 41.5211 28.8014Z" fill="#0A3B3C"/>
<path d="M37.6986 24.9772C38.0171 25.2957 38.5481 25.2957 38.8667 24.9772C39.1852 24.6586 39.1852 24.1277 38.8667 23.8092C38.5481 23.4907 38.0171 23.4907 37.6986 23.8092C37.3801 24.1277 37.3801 24.6586 37.6986 24.9772Z" fill="#0A3B3C"/>
<path d="M45.3436 24.9772C45.6622 25.2957 46.193 25.2957 46.5116 24.9772C46.8301 24.6586 46.8301 24.1277 46.5116 23.8092C46.193 23.4907 45.6622 23.4907 45.3436 23.8092C45.0251 24.1277 45.0251 24.6586 45.3436 24.9772Z" fill="#0A3B3C"/>
<path d="M41.5211 24.9772C41.8397 25.2957 42.3705 25.2957 42.6891 24.9772C43.0076 24.6586 43.0076 24.1277 42.6891 23.8092C42.3705 23.4907 41.8397 23.4907 41.5211 23.8092C41.2026 24.1277 41.2026 24.6586 41.5211 24.9772Z" fill="#0A3B3C"/>
<path d="M33.8741 36.444C34.1926 36.7625 34.7235 36.7625 35.042 36.444C35.3606 36.1254 35.3606 35.5945 35.042 35.276C34.7235 34.9575 34.1926 34.9575 33.8741 35.276C33.5556 35.5945 33.4494 36.1254 33.8741 36.444Z" fill="#0A3B3C"/>
<path d="M29.9462 32.6217C30.2647 32.9402 30.7956 32.9402 31.1141 32.6217C31.4326 32.3032 31.4326 31.7723 31.1141 31.4537C30.7956 31.1352 30.2647 31.1352 29.9462 31.4537C29.6276 31.7723 29.6276 32.3032 29.9462 32.6217Z" fill="#0A3B3C"/>
<path d="M37.6969 32.6217C38.0154 32.9402 38.5464 32.9402 38.865 32.6217C39.1835 32.3032 39.1835 31.7723 38.865 31.4537C38.5464 31.1352 38.0154 31.1352 37.6969 31.4537C37.3784 31.7723 37.3784 32.3032 37.6969 32.6217Z" fill="#0A3B3C"/>
<path d="M33.8744 28.7994C34.193 29.118 34.7238 29.118 35.0424 28.7994C35.3609 28.4809 35.3609 27.95 35.0424 27.6315C34.7238 27.3129 34.193 27.3129 33.8744 27.6315C33.4497 27.95 33.4497 28.4809 33.8744 28.7994Z" fill="#0A3B3C"/>
<path d="M29.9462 28.7994C30.2647 29.118 30.7956 29.118 31.1141 28.7994C31.4326 28.4809 31.4326 27.95 31.1141 27.6315C30.7956 27.3129 30.2647 27.3129 29.9462 27.6315C29.6276 27.95 29.6276 28.4809 29.9462 28.7994Z" fill="#0A3B3C"/>
<path d="M33.8744 32.6217C34.193 32.9402 34.7238 32.9402 35.0424 32.6217C35.3609 32.3032 35.3609 31.7723 35.0424 31.4537C34.7238 31.1352 34.193 31.1352 33.8744 31.4537C33.4497 31.7723 33.4497 32.3032 33.8744 32.6217Z" fill="#0A3B3C"/>
<path d="M33.8744 24.9772C34.193 25.2957 34.7238 25.2957 35.0424 24.9772C35.3609 24.6586 35.3609 24.1277 35.0424 23.8092C34.7238 23.4907 34.193 23.4907 33.8744 23.8092C33.4497 24.1277 33.4497 24.6586 33.8744 24.9772Z" fill="#0A3B3C"/>
<path d="M37.6969 28.7994C38.0154 29.118 38.5464 29.118 38.865 28.7994C39.1835 28.4809 39.1835 27.95 38.865 27.6315C38.5464 27.3129 38.0154 27.3129 37.6969 27.6315C37.3784 27.95 37.3784 28.4809 37.6969 28.7994Z" fill="#0A3B3C"/>
<path d="M26.1234 28.7994C26.442 29.118 26.9728 29.118 27.2913 28.7994C27.6099 28.4809 27.6099 27.95 27.2913 27.6315C26.9728 27.3129 26.442 27.3129 26.1234 27.6315C25.8049 27.95 25.8049 28.4809 26.1234 28.7994Z" fill="#0A3B3C"/>
<path d="M29.9459 24.9772C30.2645 25.2957 30.7953 25.2957 31.1139 24.9772C31.4324 24.6586 31.4324 24.1277 31.1139 23.8092C30.7953 23.4907 30.2645 23.4907 29.9459 23.8092C29.6274 24.1277 29.6274 24.6586 29.9459 24.9772Z" fill="#0A3B3C"/>
<path d="M41.5184 28.7994C41.837 29.118 42.3678 29.118 42.6864 28.7994C43.0049 28.4809 43.0049 27.95 42.6864 27.6315C42.3678 27.3129 41.837 27.3129 41.5184 27.6315C41.1999 27.95 41.1999 28.4809 41.5184 28.7994Z" fill="#0A3B3C"/>
<path d="M37.6964 24.9772C38.015 25.2957 38.5459 25.2957 38.8645 24.9772C39.183 24.6586 39.183 24.1277 38.8645 23.8092C38.5459 23.4907 38.015 23.4907 37.6964 23.8092C37.3779 24.1277 37.3779 24.6586 37.6964 24.9772Z" fill="#0A3B3C"/>
<path d="M26.1227 44.1959C26.4412 44.5144 26.9721 44.5144 27.2906 44.1959C27.6092 43.8774 27.6092 43.3465 27.2906 43.028C26.9721 42.7094 26.4412 42.7094 26.1227 43.028C25.8042 43.3465 25.8042 43.8774 26.1227 44.1959Z" fill="#0A3B3C"/>
<path d="M22.3002 40.3717C22.6187 40.6902 23.1497 40.6902 23.4682 40.3717C23.7868 40.0532 23.7868 39.5223 23.4682 39.2037C23.1497 38.8852 22.6187 38.8852 22.3002 39.2037C21.9816 39.5223 21.9816 40.0532 22.3002 40.3717Z" fill="#0A3B3C"/>
<path d="M29.9452 40.3717C30.2637 40.6902 30.7946 40.6902 31.1131 40.3717C31.4317 40.0532 31.4317 39.5223 31.1131 39.2037C30.7946 38.8852 30.2637 38.8852 29.9452 39.2037C29.6267 39.5223 29.6267 40.0532 29.9452 40.3717Z" fill="#0A3B3C"/>
<path d="M26.1227 36.444C26.4412 36.7625 26.9721 36.7625 27.2906 36.444C27.6092 36.1254 27.6092 35.5945 27.2906 35.276C26.9721 34.9575 26.4412 34.9575 26.1227 35.276C25.8042 35.7007 25.8042 36.1254 26.1227 36.444Z" fill="#0A3B3C"/>
<path d="M22.3002 36.444C22.6187 36.7625 23.1497 36.7625 23.4682 36.444C23.7868 36.1254 23.7868 35.5945 23.4682 35.276C23.1497 34.9575 22.6187 34.9575 22.3002 35.276C21.9816 35.7007 21.9816 36.1254 22.3002 36.444Z" fill="#0A3B3C"/>
<path d="M26.1227 40.3717C26.4412 40.6902 26.9721 40.6902 27.2906 40.3717C27.6092 40.0532 27.6092 39.5223 27.2906 39.2037C26.9721 38.8852 26.4412 38.8852 26.1227 39.2037C25.8042 39.5223 25.8042 40.0532 26.1227 40.3717Z" fill="#0A3B3C"/>
<path d="M26.1227 32.6217C26.4412 32.9402 26.9721 32.9402 27.2906 32.6217C27.6092 32.3032 27.6092 31.7723 27.2906 31.4537C26.9721 31.1352 26.4412 31.1352 26.1227 31.4537C25.8042 31.7723 25.8042 32.3032 26.1227 32.6217Z" fill="#0A3B3C"/>
<path d="M29.9452 36.444C30.2637 36.7625 30.7946 36.7625 31.1131 36.444C31.4317 36.1254 31.4317 35.5945 31.1131 35.276C30.7946 34.9575 30.2637 34.9575 29.9452 35.276C29.6267 35.7007 29.6267 36.1254 29.9452 36.444Z" fill="#0A3B3C"/>
<path d="M18.3717 36.444C18.6902 36.7625 19.2211 36.7625 19.5396 36.444C19.8582 36.1254 19.8582 35.5945 19.5396 35.276C19.2211 34.9575 18.6902 34.9575 18.3717 35.276C18.0532 35.7007 18.0532 36.1254 18.3717 36.444Z" fill="#0A3B3C"/>
<path d="M22.2999 32.6217C22.6185 32.9402 23.1495 32.9402 23.468 32.6217C23.7865 32.3032 23.7865 31.7723 23.468 31.4537C23.1495 31.1352 22.6185 31.1352 22.2999 31.4537C21.9814 31.7723 21.9814 32.3032 22.2999 32.6217Z" fill="#0A3B3C"/>
<path d="M33.8739 36.444C34.1924 36.7625 34.7233 36.7625 35.0418 36.444C35.3603 36.1254 35.3603 35.5945 35.0418 35.276C34.7233 34.9575 34.1924 34.9575 33.8739 35.276C33.5553 35.5945 33.4492 36.1254 33.8739 36.444Z" fill="#0A3B3C"/>
<path d="M29.9454 32.6217C30.264 32.9402 30.7948 32.9402 31.1134 32.6217C31.4319 32.3032 31.4319 31.7723 31.1134 31.4537C30.7948 31.1352 30.264 31.1352 29.9454 31.4537C29.6269 31.7723 29.6269 32.3032 29.9454 32.6217Z" fill="#0A3B3C"/>
<path d="M26.1229 28.7994C26.4415 29.118 26.9723 29.118 27.2909 28.7994C27.6094 28.4809 27.6094 27.95 27.2909 27.6315C26.9723 27.3129 26.4415 27.3129 26.1229 27.6315C25.8044 27.95 25.8044 28.4809 26.1229 28.7994Z" fill="#0A3B3C"/>
<path d="M22.3007 48.0162C22.6192 48.3348 23.1502 48.3348 23.4687 48.0162C23.7873 47.6977 23.7873 47.1668 23.4687 46.8483C23.1502 46.5297 22.6192 46.5297 22.3007 46.8483C21.9821 47.1668 21.9821 47.6977 22.3007 48.0162Z" fill="#0A3B3C"/>
<path d="M18.3724 44.194C18.691 44.5125 19.2218 44.5125 19.5404 44.194C19.8589 43.8754 19.8589 43.3445 19.5404 43.026C19.2218 42.7075 18.691 42.7075 18.3724 43.026C18.0539 43.3445 18.0539 43.8754 18.3724 44.194Z" fill="#0A3B3C"/>
<path d="M18.3724 48.0162C18.691 48.3348 19.2218 48.3348 19.5404 48.0162C19.8589 47.6977 19.8589 47.1668 19.5404 46.8483C19.2218 46.5297 18.691 46.5297 18.3724 46.8483C18.0539 47.1668 18.0539 47.6977 18.3724 48.0162Z" fill="#0A3B3C"/>
<path d="M18.3724 40.3717C18.691 40.6902 19.2218 40.6902 19.5404 40.3717C19.8589 40.0532 19.8589 39.5223 19.5404 39.2037C19.2218 38.8852 18.691 38.8852 18.3724 39.2037C18.0539 39.5223 18.0539 40.0532 18.3724 40.3717Z" fill="#0A3B3C"/>
<path d="M22.3007 44.194C22.6192 44.5125 23.1502 44.5125 23.4687 44.194C23.7873 43.8754 23.7873 43.3445 23.4687 43.026C23.1502 42.7075 22.6192 42.7075 22.3007 43.026C21.9821 43.3445 21.9821 43.8754 22.3007 44.194Z" fill="#0A3B3C"/>
<path d="M26.1239 44.194C26.4424 44.5125 26.9733 44.5125 27.2918 44.194C27.6104 43.8754 27.6104 43.3445 27.2918 43.026C26.9733 42.7075 26.4424 42.7075 26.1239 43.026C25.8054 43.3445 25.8054 43.8754 26.1239 44.194Z" fill="#0A3B3C"/>
<path d="M22.3014 40.3717C22.6199 40.6902 23.1509 40.6902 23.4695 40.3717C23.788 40.0532 23.788 39.5223 23.4695 39.2037C23.1509 38.8852 22.6199 38.8852 22.3014 39.2037C21.9829 39.5223 21.9829 40.0532 22.3014 40.3717Z" fill="#0A3B3C"/>
<path d="M18.3732 36.444C18.6917 36.7625 19.2226 36.7625 19.5411 36.444C19.8596 36.1254 19.8596 35.5945 19.5411 35.276C19.2226 34.9575 18.6917 34.9575 18.3732 35.276C18.0546 35.7007 18.0546 36.1254 18.3732 36.444Z" fill="#0A3B3C"/>
<path d="M26.1227 28.8014C26.4412 29.1199 26.9721 29.1199 27.2906 28.8014C27.6092 28.4828 27.6092 27.952 27.2906 27.6334C26.9721 27.3149 26.4412 27.3149 26.1227 27.6334C25.8042 27.952 25.8042 28.4828 26.1227 28.8014Z" fill="#0A3B3C"/>
<path d="M22.3002 24.9791C22.6187 25.2977 23.1497 25.2977 23.4682 24.9791C23.7868 24.6606 23.7868 24.1297 23.4682 23.8112C23.1497 23.4926 22.6187 23.4926 22.3002 23.8112C21.9816 24.1297 21.9816 24.6606 22.3002 24.9791Z" fill="#0A3B3C"/>
<path d="M29.9452 24.9791C30.2637 25.2977 30.7946 25.2977 31.1131 24.9791C31.4317 24.6606 31.4317 24.1297 31.1131 23.8112C30.7946 23.4926 30.2637 23.4926 29.9452 23.8112C29.6267 24.1297 29.6267 24.6606 29.9452 24.9791Z" fill="#0A3B3C"/>
<path d="M26.1227 24.9791C26.4412 25.2977 26.9721 25.2977 27.2906 24.9791C27.6092 24.6606 27.6092 24.1297 27.2906 23.8112C26.9721 23.4926 26.4412 23.4926 26.1227 23.8112C25.8042 24.1297 25.8042 24.6606 26.1227 24.9791Z" fill="#0A3B3C"/>
<path d="M18.3724 36.444C18.691 36.7625 19.2218 36.7625 19.5404 36.444C19.8589 36.1254 19.8589 35.5945 19.5404 35.276C19.2218 34.9575 18.691 34.9575 18.3724 35.276C18.0539 35.7007 18.0539 36.1254 18.3724 36.444Z" fill="#0A3B3C"/>
<path d="M22.3007 32.6217C22.6192 32.9402 23.1502 32.9402 23.4687 32.6217C23.7873 32.3032 23.7873 31.7723 23.4687 31.4537C23.1502 31.1352 22.6192 31.1352 22.3007 31.4537C21.9821 31.7723 21.9821 32.3032 22.3007 32.6217Z" fill="#0A3B3C"/>
<path d="M18.3724 28.7994C18.691 29.118 19.2218 29.118 19.5404 28.7994C19.8589 28.4809 19.8589 27.95 19.5404 27.6315C19.2218 27.3129 18.691 27.3129 18.3724 27.6315C18.0539 27.95 18.0539 28.4809 18.3724 28.7994Z" fill="#0A3B3C"/>
<path d="M18.3724 32.6217C18.691 32.9402 19.2218 32.9402 19.5404 32.6217C19.8589 32.3032 19.8589 31.7723 19.5404 31.4537C19.2218 31.1352 18.691 31.1352 18.3724 31.4537C18.0539 31.7723 18.0539 32.3032 18.3724 32.6217Z" fill="#0A3B3C"/>
<path d="M18.3724 24.9772C18.691 25.2957 19.2218 25.2957 19.5404 24.9772C19.8589 24.6586 19.8589 24.1277 19.5404 23.8092C19.2218 23.4907 18.691 23.4907 18.3724 23.8092C18.0539 24.1277 18.0539 24.6586 18.3724 24.9772Z" fill="#0A3B3C"/>
<path d="M22.3007 28.7994C22.6192 29.118 23.1502 29.118 23.4687 28.7994C23.7873 28.4809 23.7873 27.95 23.4687 27.6315C23.1502 27.3129 22.6192 27.3129 22.3007 27.6315C21.9821 27.95 21.9821 28.4809 22.3007 28.7994Z" fill="#0A3B3C"/>
<path d="M26.1239 28.7994C26.4424 29.118 26.9733 29.118 27.2918 28.7994C27.6104 28.4809 27.6104 27.95 27.2918 27.6315C26.9733 27.3129 26.4424 27.3129 26.1239 27.6315C25.8054 27.95 25.8054 28.4809 26.1239 28.7994Z" fill="#0A3B3C"/>
<path d="M22.3014 24.9772C22.6199 25.2957 23.1509 25.2957 23.4695 24.9772C23.788 24.6586 23.788 24.1277 23.4695 23.8092C23.1509 23.4907 22.6199 23.4907 22.3014 23.8092C21.9829 24.1277 21.9829 24.6586 22.3014 24.9772Z" fill="#0A3B3C"/>
<path d="M18.3717 36.444C18.6902 36.7625 19.2211 36.7625 19.5396 36.444C19.8582 36.1254 19.8582 35.5945 19.5396 35.276C19.2211 34.9575 18.6902 34.9575 18.3717 35.276C18.0532 35.7007 18.0532 36.1254 18.3717 36.444Z" fill="#0A3B3C"/>
</g>
<path d="M42.7355 24.4962C38.912 21.5008 34.6137 23.6573 30.9711 23.6573C27.3286 23.6573 23.0286 21.5008 19.2068 24.4962C15.7 27.2434 14.5358 35.582 19.2661 42.9511C23.8047 50.0212 28.3814 47.6243 30.9711 47.6243C33.5608 47.6243 38.1376 50.0212 42.6762 42.9511C47.4065 35.582 46.2423 27.2434 42.7355 24.4962Z" stroke="#0B3B3D" stroke-width="1.90223" stroke-miterlimit="10" stroke-linecap="square"/>
<path fill-rule="evenodd" clip-rule="evenodd" d="M39.3409 13.4639C37.5982 13.6727 35.9899 14.3542 34.7643 15.394C33.2807 16.6529 32.4929 18.3161 32.4929 20.0019V21.6978C34.2356 21.4891 35.844 20.8076 37.0695 19.7677C38.5531 18.5089 39.3409 16.8457 39.3409 15.1599V13.4639ZM33.2875 13.6535C35.2228 12.0113 37.813 11.1133 40.4823 11.1133H41.6236V15.1599C41.6236 17.5835 40.4874 19.8613 38.5464 21.5083C36.611 23.1504 34.0208 24.0485 31.3515 24.0485H30.2102V20.0019C30.2102 17.5783 31.3464 15.3004 33.2875 13.6535Z" fill="#0B3B3D"/>
<path fill-rule="evenodd" clip-rule="evenodd" d="M24.1712 15.1613C24.3524 14.5576 24.9887 14.215 25.5924 14.3961C27.5789 14.9921 29.201 16.4451 30.313 18.1186C31.4249 19.7921 32.1051 21.801 32.1051 23.659C32.1051 24.2894 31.5941 24.8004 30.9637 24.8004C30.3334 24.8004 29.8224 24.2894 29.8224 23.659C29.8224 22.3213 29.3172 20.7447 28.4117 19.3819C27.5063 18.0192 26.2787 16.9852 24.9365 16.5825C24.3327 16.4014 23.9901 15.7651 24.1712 15.1613Z" fill="#0B3B3D"/>
</svg>
