<svg width="62" height="62" viewBox="0 0 62 62" fill="none" xmlns="http://www.w3.org/2000/svg">
<path fill-rule="evenodd" clip-rule="evenodd" d="M31.2678 3.23558C15.9148 3.23558 3.46874 15.6817 3.46874 31.0347C3.46874 46.3877 15.9148 58.8338 31.2678 58.8338C46.6209 58.8338 59.0669 46.3877 59.0669 31.0347C59.0669 15.6817 46.6209 3.23558 31.2678 3.23558ZM1.23901 31.0347C1.23901 14.4502 14.6834 1.00586 31.2678 1.00586C47.8523 1.00586 61.2967 14.4502 61.2967 31.0347C61.2967 47.6191 47.8523 61.0635 31.2678 61.0635C14.6834 61.0635 1.23901 47.6191 1.23901 31.0347Z" fill="#0B3B3D"/>
<path d="M39.2333 19.3884C41.6078 19.3884 43.5865 20.3103 45.1696 22.0515C46.2579 23.1782 46.8515 24.7147 47.3462 26.6608C47.8409 29.6312 47.2473 32.1919 45.4664 34.855C43.9823 37.1085 42.1025 39.157 39.629 41.308C37.1555 43.459 34.3853 45.4051 31.2192 47.2488C31.1203 47.2488 31.1203 47.2488 31.1203 47.3513C31.0214 47.3513 31.0214 47.3513 30.9224 47.2488C26.9649 44.893 24.3925 42.9469 22.018 40.8983C20.336 39.3619 18.4562 37.5182 16.8732 35.1623C15.587 33.2162 14.9933 31.1676 14.8944 28.9142C14.7955 26.6608 15.488 24.4074 16.9721 22.3588C18.3572 20.6175 20.1381 19.6957 22.3148 19.4908C22.6116 19.4908 22.9084 19.4908 23.1063 19.4908C24.8872 19.4908 26.3713 19.9005 27.6575 20.72C28.449 21.2321 29.0426 21.8467 29.5373 22.4612L29.6362 22.5637L31.2678 24.1879L32.7033 22.4612C34.1874 20.5151 36.1662 19.4908 38.8375 19.3884H39.2333ZM39.2333 17.3398H38.8375C35.6715 17.4423 33.0991 18.7738 31.2192 21.1297C30.6256 20.3103 29.7352 19.4908 28.8447 18.8763C27.1628 17.852 25.2829 17.3398 23.2052 17.3398C22.9084 17.3398 22.5127 17.3398 22.2158 17.3398C19.4456 17.6471 17.17 18.9787 15.488 21.0273C13.7071 23.3831 12.9156 26.0462 13.0146 28.9142C13.1135 31.4749 13.905 33.9332 15.2902 36.1866C16.8732 38.7473 18.9509 40.7959 20.7318 42.3323C23.3042 44.6881 26.2723 46.7367 30.032 48.9901C30.4277 49.195 30.7246 49.2974 31.1203 49.2974H31.2192C31.615 49.2974 31.8129 49.195 32.2086 48.9901C35.4736 47.1464 38.3428 45.0978 41.0141 42.8444C43.6855 40.591 45.5653 38.44 47.1483 35.9817C49.226 32.8065 49.9186 29.6312 49.325 26.2511C48.8303 23.9977 48.0388 22.0515 46.7526 20.6175C44.6749 18.4665 42.2014 17.3398 39.2333 17.3398Z" fill="#0B3B3D"/>
<mask id="mask0" mask-type="alpha" maskUnits="userSpaceOnUse" x="14" y="19" width="34" height="29">
<path d="M39.2329 19.3887C41.6074 19.3887 43.5862 20.3105 45.1692 22.0518C46.2575 23.1785 46.8511 24.7149 47.3458 26.6611C47.8405 29.6315 47.2469 32.1922 45.466 34.8553C43.9819 37.1087 42.1021 39.1573 39.6286 41.3083C37.1552 43.4593 34.3849 45.4054 31.2189 47.2491C31.1199 47.2491 31.1199 47.2491 31.1199 47.3515C31.021 47.3515 31.021 47.3515 30.9221 47.2491C26.9645 44.8933 24.3921 42.9471 22.0176 40.8986C20.3357 39.3621 18.4558 37.5184 16.8728 35.1626C15.5866 33.2165 14.993 31.1679 14.894 28.9145C14.7951 26.6611 15.4877 24.4076 16.9717 22.3591C18.3569 20.6178 20.1378 19.696 22.3144 19.4911C22.6112 19.4911 22.9081 19.4911 23.1059 19.4911C24.8868 19.4911 26.3709 19.9008 27.6571 20.7202C28.4486 21.2324 29.0422 21.8469 29.5369 22.4615L29.6359 22.5639L31.2674 24.1882L32.7029 22.4615C34.187 20.5154 36.1658 19.4911 38.8371 19.3887H39.2329Z" fill="#C4C4C4"/>
</mask>
<g mask="url(#mask0)">
<path d="M45.2575 45.4947C45.576 45.8133 46.1069 45.8133 46.4254 45.4947C46.7439 45.1762 46.7439 44.6453 46.4254 44.3268C46.1069 44.0083 45.576 44.0083 45.2575 44.3268C44.9389 44.6453 44.9389 45.1762 45.2575 45.4947Z" fill="#0A3B3C"/>
<path d="M45.2575 41.6725C45.576 41.991 46.1069 41.991 46.4254 41.6725C46.7439 41.3539 46.7439 40.8231 46.4254 40.5045C46.1069 40.186 45.576 40.186 45.2575 40.5045C44.9389 40.8231 44.9389 41.3539 45.2575 41.6725Z" fill="#0A3B3C"/>
<path d="M41.4347 41.6725C41.7532 41.991 42.2841 41.991 42.6026 41.6725C42.9212 41.3539 42.9212 40.8231 42.6026 40.5045C42.2841 40.186 41.7532 40.186 41.4347 40.5045C41.1162 40.8231 41.1162 41.3539 41.4347 41.6725Z" fill="#0A3B3C"/>
<path d="M45.2572 37.8502C45.5757 38.1687 46.1066 38.1687 46.4251 37.8502C46.7437 37.5317 46.7437 37.0008 46.4251 36.6823C46.1066 36.3637 45.5757 36.3637 45.2572 36.6823C44.9387 37.0008 44.9387 37.5317 45.2572 37.8502Z" fill="#0A3B3C"/>
<path d="M41.4347 45.4967C41.7532 45.8152 42.2841 45.8152 42.6026 45.4967C42.9212 45.1782 42.9212 44.6473 42.6026 44.3287C42.2841 44.0102 41.7532 44.0102 41.4347 44.3287C41.1162 44.6473 41.1162 45.1782 41.4347 45.4967Z" fill="#0A3B3C"/>
<path d="M37.6127 45.4967C37.9312 45.8152 38.4622 45.8152 38.7807 45.4967C39.0993 45.1782 39.0993 44.6473 38.7807 44.3287C38.4622 44.0102 37.9312 44.0102 37.6127 44.3287C37.2941 44.6473 37.2941 45.1782 37.6127 45.4967Z" fill="#0A3B3C"/>
<path d="M45.2577 45.4967C45.5762 45.8152 46.1071 45.8152 46.4256 45.4967C46.7442 45.1782 46.7442 44.6473 46.4256 44.3287C46.1071 44.0102 45.5762 44.0102 45.2577 44.3287C44.9392 44.6473 44.9392 45.1782 45.2577 45.4967Z" fill="#0A3B3C"/>
<path d="M41.4352 41.6744C41.7537 41.993 42.2846 41.993 42.6031 41.6744C42.9216 41.3559 42.9216 40.825 42.6031 40.5065C42.2846 40.1879 41.7537 40.1879 41.4352 40.5065C41.1167 40.825 41.1167 41.3559 41.4352 41.6744Z" fill="#0A3B3C"/>
<path d="M45.2575 30.1002C45.576 30.4187 46.1069 30.4187 46.4254 30.1002C46.7439 29.7817 46.7439 29.2508 46.4254 28.9323C46.1069 28.6137 45.576 28.6137 45.2575 28.9323C44.9389 29.2508 44.9389 29.7817 45.2575 30.1002Z" fill="#0A3B3C"/>
<path d="M45.2575 26.2779C45.576 26.5965 46.1069 26.5965 46.4254 26.2779C46.7439 25.9594 46.7439 25.4285 46.4254 25.11C46.1069 24.7915 45.576 24.7915 45.2575 25.11C44.9389 25.4285 44.9389 25.9594 45.2575 26.2779Z" fill="#0A3B3C"/>
<path d="M41.4347 26.2779C41.7532 26.5965 42.2841 26.5965 42.6026 26.2779C42.9212 25.9594 42.9212 25.4285 42.6026 25.11C42.2841 24.7915 41.7532 24.7915 41.4347 25.11C41.1162 25.4285 41.1162 25.9594 41.4347 26.2779Z" fill="#0A3B3C"/>
<path d="M45.2572 22.4557C45.5757 22.7742 46.1066 22.7742 46.4251 22.4557C46.7437 22.1371 46.7437 21.6063 46.4251 21.2877C46.1066 20.9692 45.5757 20.9692 45.2572 21.2877C44.9387 21.6063 44.9387 22.1371 45.2572 22.4557Z" fill="#0A3B3C"/>
<path d="M41.4374 41.6744C41.7559 41.993 42.2868 41.993 42.6053 41.6744C42.9238 41.3559 42.9238 40.825 42.6053 40.5065C42.2868 40.1879 41.7559 40.1879 41.4374 40.5065C41.1189 40.825 41.1189 41.3559 41.4374 41.6744Z" fill="#0A3B3C"/>
<path d="M37.6149 37.8502C37.9334 38.1687 38.4644 38.1687 38.7829 37.8502C39.1015 37.5317 39.1015 37.0008 38.7829 36.6823C38.4644 36.3637 37.9334 36.3637 37.6149 36.6823C37.2963 37.0008 37.2963 37.5317 37.6149 37.8502Z" fill="#0A3B3C"/>
<path d="M45.2599 37.8502C45.5784 38.1687 46.1093 38.1687 46.4278 37.8502C46.7464 37.5317 46.7464 37.0008 46.4278 36.6823C46.1093 36.3637 45.5784 36.3637 45.2599 36.6823C44.9414 37.0008 44.9414 37.5317 45.2599 37.8502Z" fill="#0A3B3C"/>
<path d="M41.4374 33.9225C41.7559 34.241 42.2868 34.241 42.6053 33.9225C42.9238 33.6039 42.9238 33.0731 42.6053 32.7545C42.2868 32.436 41.7559 32.436 41.4374 32.7545C41.1189 33.1792 41.1189 33.6039 41.4374 33.9225Z" fill="#0A3B3C"/>
<path d="M37.6149 33.9225C37.9334 34.241 38.4644 34.241 38.7829 33.9225C39.1015 33.6039 39.1015 33.0731 38.7829 32.7545C38.4644 32.436 37.9334 32.436 37.6149 32.7545C37.2963 33.1792 37.2963 33.6039 37.6149 33.9225Z" fill="#0A3B3C"/>
<path d="M41.4374 37.8502C41.7559 38.1687 42.2868 38.1687 42.6053 37.8502C42.9238 37.5317 42.9238 37.0008 42.6053 36.6823C42.2868 36.3637 41.7559 36.3637 41.4374 36.6823C41.1189 37.0008 41.1189 37.5317 41.4374 37.8502Z" fill="#0A3B3C"/>
<path d="M41.4374 30.1002C41.7559 30.4187 42.2868 30.4187 42.6053 30.1002C42.9238 29.7817 42.9238 29.2508 42.6053 28.9323C42.2868 28.6137 41.7559 28.6137 41.4374 28.9323C41.1189 29.2508 41.1189 29.7817 41.4374 30.1002Z" fill="#0A3B3C"/>
<path d="M45.2599 33.9225C45.5784 34.241 46.1093 34.241 46.4278 33.9225C46.7464 33.6039 46.7464 33.0731 46.4278 32.7545C46.1093 32.436 45.5784 32.436 45.2599 32.7545C44.9414 33.1792 44.9414 33.6039 45.2599 33.9225Z" fill="#0A3B3C"/>
<path d="M33.7921 33.9225C34.1106 34.241 34.6415 34.241 34.96 33.9225C35.2785 33.6039 35.2785 33.0731 34.96 32.7545C34.6415 32.436 34.1106 32.436 33.7921 32.7545C33.4736 33.0731 33.3674 33.6039 33.7921 33.9225Z" fill="#0A3B3C"/>
<path d="M37.6149 30.1002C37.9334 30.4187 38.4644 30.4187 38.7829 30.1002C39.1015 29.7817 39.1015 29.2508 38.7829 28.9323C38.4644 28.6137 37.9334 28.6137 37.6149 28.9323C37.2963 29.2508 37.2963 29.7817 37.6149 30.1002Z" fill="#0A3B3C"/>
<path d="M45.2582 30.1002C45.5767 30.4187 46.1076 30.4187 46.4261 30.1002C46.7446 29.7817 46.7446 29.2508 46.4261 28.9323C46.1076 28.6137 45.5767 28.6137 45.2582 28.9323C44.9397 29.2508 44.9397 29.7817 45.2582 30.1002Z" fill="#0A3B3C"/>
<path d="M41.4367 26.2779C41.7552 26.5965 42.286 26.5965 42.6046 26.2779C42.9231 25.9594 42.9231 25.4285 42.6046 25.11C42.286 24.7915 41.7552 24.7915 41.4367 25.11C41.1181 25.4285 41.1181 25.9594 41.4367 26.2779Z" fill="#0A3B3C"/>
<path d="M29.8624 45.4947C30.181 45.8133 30.7118 45.8133 31.0304 45.4947C31.3489 45.1762 31.3489 44.6453 31.0304 44.3268C30.7118 44.0083 30.181 44.0083 29.8624 44.3268C29.5439 44.6453 29.5439 45.1762 29.8624 45.4947Z" fill="#0A3B3C"/>
<path d="M37.6132 45.4947C37.9317 45.8133 38.4627 45.8133 38.7812 45.4947C39.0998 45.1762 39.0998 44.6453 38.7812 44.3268C38.4627 44.0083 37.9317 44.0083 37.6132 44.3268C37.2946 44.6453 37.2946 45.1762 37.6132 45.4947Z" fill="#0A3B3C"/>
<path d="M33.7907 41.6725C34.1092 41.991 34.6401 41.991 34.9586 41.6725C35.2772 41.3539 35.2772 40.8231 34.9586 40.5045C34.6401 40.186 34.1092 40.186 33.7907 40.5045C33.366 40.8231 33.366 41.3539 33.7907 41.6725Z" fill="#0A3B3C"/>
<path d="M29.8624 41.6725C30.181 41.991 30.7118 41.991 31.0304 41.6725C31.3489 41.3539 31.3489 40.8231 31.0304 40.5045C30.7118 40.186 30.181 40.186 29.8624 40.5045C29.5439 40.8231 29.5439 41.3539 29.8624 41.6725Z" fill="#0A3B3C"/>
<path d="M33.7907 45.4947C34.1092 45.8133 34.6401 45.8133 34.9586 45.4947C35.2772 45.1762 35.2772 44.6453 34.9586 44.3268C34.6401 44.0083 34.1092 44.0083 33.7907 44.3268C33.366 44.6453 33.366 45.1762 33.7907 45.4947Z" fill="#0A3B3C"/>
<path d="M33.7907 37.8502C34.1092 38.1687 34.6401 38.1687 34.9586 37.8502C35.2772 37.5317 35.2772 37.0008 34.9586 36.6823C34.6401 36.3637 34.1092 36.3637 33.7907 36.6823C33.366 37.0008 33.366 37.5317 33.7907 37.8502Z" fill="#0A3B3C"/>
<path d="M37.6132 41.6725C37.9317 41.991 38.4627 41.991 38.7812 41.6725C39.0998 41.3539 39.0998 40.8231 38.7812 40.5045C38.4627 40.186 37.9317 40.186 37.6132 40.5045C37.2946 40.8231 37.2946 41.3539 37.6132 41.6725Z" fill="#0A3B3C"/>
<path d="M26.0397 41.6725C26.3582 41.991 26.8891 41.991 27.2076 41.6725C27.5261 41.3539 27.5261 40.8231 27.2076 40.5045C26.8891 40.186 26.3582 40.186 26.0397 40.5045C25.7211 40.8231 25.7211 41.3539 26.0397 41.6725Z" fill="#0A3B3C"/>
<path d="M29.8622 37.8502C30.1807 38.1687 30.7116 38.1687 31.0301 37.8502C31.3486 37.5317 31.3486 37.0008 31.0301 36.6823C30.7116 36.3637 30.1807 36.3637 29.8622 36.6823C29.5437 37.0008 29.5437 37.5317 29.8622 37.8502Z" fill="#0A3B3C"/>
<path d="M41.4347 41.6725C41.7532 41.991 42.2841 41.991 42.6026 41.6725C42.9212 41.3539 42.9212 40.8231 42.6026 40.5045C42.2841 40.186 41.7532 40.186 41.4347 40.5045C41.1162 40.8231 41.1162 41.3539 41.4347 41.6725Z" fill="#0A3B3C"/>
<path d="M37.6127 37.8502C37.9312 38.1687 38.4622 38.1687 38.7807 37.8502C39.0993 37.5317 39.0993 37.0008 38.7807 36.6823C38.4622 36.3637 37.9312 36.3637 37.6127 36.6823C37.2941 37.0008 37.2941 37.5317 37.6127 37.8502Z" fill="#0A3B3C"/>
<path d="M33.7901 33.9225C34.1087 34.241 34.6395 34.241 34.9581 33.9225C35.2766 33.6039 35.2766 33.0731 34.9581 32.7545C34.6395 32.436 34.1087 32.436 33.7901 32.7545C33.4716 33.0731 33.3654 33.6039 33.7901 33.9225Z" fill="#0A3B3C"/>
<path d="M26.0389 45.4967C26.3575 45.8152 26.8883 45.8152 27.2069 45.4967C27.5254 45.1782 27.5254 44.6473 27.2069 44.3287C26.8883 44.0102 26.3575 44.0102 26.0389 44.3287C25.7204 44.6473 25.7204 45.1782 26.0389 45.4967Z" fill="#0A3B3C"/>
<path d="M22.2162 45.4967C22.5347 45.8152 23.0657 45.8152 23.3843 45.4967C23.7028 45.1782 23.7028 44.6473 23.3843 44.3287C23.0657 44.0102 22.5347 44.0102 22.2162 44.3287C21.8977 44.6473 21.8977 45.1782 22.2162 45.4967Z" fill="#0A3B3C"/>
<path d="M29.8617 45.4967C30.1802 45.8152 30.7111 45.8152 31.0296 45.4967C31.3482 45.1782 31.3482 44.6473 31.0296 44.3287C30.7111 44.0102 30.1802 44.0102 29.8617 44.3287C29.5432 44.6473 29.5432 45.1782 29.8617 45.4967Z" fill="#0A3B3C"/>
<path d="M26.0392 41.6744C26.3577 41.993 26.8886 41.993 27.2071 41.6744C27.5257 41.3559 27.5257 40.825 27.2071 40.5065C26.8886 40.1879 26.3577 40.1879 26.0392 40.5065C25.7207 40.825 25.7207 41.3559 26.0392 41.6744Z" fill="#0A3B3C"/>
<path d="M41.4374 26.2799C41.7559 26.5984 42.2868 26.5984 42.6053 26.2799C42.9238 25.9614 42.9238 25.4305 42.6053 25.1119C42.2868 24.7934 41.7559 24.7934 41.4374 25.1119C41.1189 25.4305 41.1189 25.9614 41.4374 26.2799Z" fill="#0A3B3C"/>
<path d="M37.6149 22.4557C37.9334 22.7742 38.4644 22.7742 38.7829 22.4557C39.1015 22.1371 39.1015 21.6063 38.7829 21.2877C38.4644 20.9692 37.9334 20.9692 37.6149 21.2877C37.2963 21.6063 37.2963 22.1371 37.6149 22.4557Z" fill="#0A3B3C"/>
<path d="M45.2599 22.4557C45.5784 22.7742 46.1093 22.7742 46.4278 22.4557C46.7464 22.1371 46.7464 21.6063 46.4278 21.2877C46.1093 20.9692 45.5784 20.9692 45.2599 21.2877C44.9414 21.6063 44.9414 22.1371 45.2599 22.4557Z" fill="#0A3B3C"/>
<path d="M41.4374 22.4557C41.7559 22.7742 42.2868 22.7742 42.6053 22.4557C42.9238 22.1371 42.9238 21.6063 42.6053 21.2877C42.2868 20.9692 41.7559 20.9692 41.4374 21.2877C41.1189 21.6063 41.1189 22.1371 41.4374 22.4557Z" fill="#0A3B3C"/>
<path d="M33.7904 33.9225C34.1089 34.241 34.6398 34.241 34.9583 33.9225C35.2768 33.6039 35.2768 33.0731 34.9583 32.7545C34.6398 32.436 34.1089 32.436 33.7904 32.7545C33.4718 33.0731 33.3657 33.6039 33.7904 33.9225Z" fill="#0A3B3C"/>
<path d="M29.8624 30.1002C30.181 30.4187 30.7118 30.4187 31.0304 30.1002C31.3489 29.7817 31.3489 29.2508 31.0304 28.9323C30.7118 28.6137 30.181 28.6137 29.8624 28.9323C29.5439 29.2508 29.5439 29.7817 29.8624 30.1002Z" fill="#0A3B3C"/>
<path d="M37.6132 30.1002C37.9317 30.4187 38.4627 30.4187 38.7812 30.1002C39.0998 29.7817 39.0998 29.2508 38.7812 28.9323C38.4627 28.6137 37.9317 28.6137 37.6132 28.9323C37.2946 29.2508 37.2946 29.7817 37.6132 30.1002Z" fill="#0A3B3C"/>
<path d="M33.7907 26.2779C34.1092 26.5965 34.6401 26.5965 34.9586 26.2779C35.2772 25.9594 35.2772 25.4285 34.9586 25.11C34.6401 24.7915 34.1092 24.7915 33.7907 25.11C33.366 25.4285 33.366 25.9594 33.7907 26.2779Z" fill="#0A3B3C"/>
<path d="M29.8624 26.2779C30.181 26.5965 30.7118 26.5965 31.0304 26.2779C31.3489 25.9594 31.3489 25.4285 31.0304 25.11C30.7118 24.7915 30.181 24.7915 29.8624 25.11C29.5439 25.4285 29.5439 25.9594 29.8624 26.2779Z" fill="#0A3B3C"/>
<path d="M33.7907 30.1002C34.1092 30.4187 34.6401 30.4187 34.9586 30.1002C35.2772 29.7817 35.2772 29.2508 34.9586 28.9323C34.6401 28.6137 34.1092 28.6137 33.7907 28.9323C33.366 29.2508 33.366 29.7817 33.7907 30.1002Z" fill="#0A3B3C"/>
<path d="M33.7907 22.4557C34.1092 22.7742 34.6401 22.7742 34.9586 22.4557C35.2772 22.1371 35.2772 21.6063 34.9586 21.2877C34.6401 20.9692 34.1092 20.9692 33.7907 21.2877C33.366 21.6063 33.366 22.1371 33.7907 22.4557Z" fill="#0A3B3C"/>
<path d="M37.6132 26.2779C37.9317 26.5965 38.4627 26.5965 38.7812 26.2779C39.0998 25.9594 39.0998 25.4285 38.7812 25.11C38.4627 24.7915 37.9317 24.7915 37.6132 25.11C37.2946 25.4285 37.2946 25.9594 37.6132 26.2779Z" fill="#0A3B3C"/>
<path d="M26.0397 26.2779C26.3582 26.5965 26.8891 26.5965 27.2076 26.2779C27.5261 25.9594 27.5261 25.4285 27.2076 25.11C26.8891 24.7915 26.3582 24.7915 26.0397 25.11C25.7211 25.4285 25.7211 25.9594 26.0397 26.2779Z" fill="#0A3B3C"/>
<path d="M29.8622 22.4557C30.1807 22.7742 30.7116 22.7742 31.0301 22.4557C31.3486 22.1371 31.3486 21.6063 31.0301 21.2877C30.7116 20.9692 30.1807 20.9692 29.8622 21.2877C29.5437 21.6063 29.5437 22.1371 29.8622 22.4557Z" fill="#0A3B3C"/>
<path d="M41.4347 26.2779C41.7532 26.5965 42.2841 26.5965 42.6026 26.2779C42.9212 25.9594 42.9212 25.4285 42.6026 25.11C42.2841 24.7915 41.7532 24.7915 41.4347 25.11C41.1162 25.4285 41.1162 25.9594 41.4347 26.2779Z" fill="#0A3B3C"/>
<path d="M37.6127 22.4557C37.9312 22.7742 38.4622 22.7742 38.7807 22.4557C39.0993 22.1371 39.0993 21.6063 38.7807 21.2877C38.4622 20.9692 37.9312 20.9692 37.6127 21.2877C37.2941 21.6063 37.2941 22.1371 37.6127 22.4557Z" fill="#0A3B3C"/>
<path d="M26.0389 41.6744C26.3575 41.993 26.8883 41.993 27.2069 41.6744C27.5254 41.3559 27.5254 40.825 27.2069 40.5065C26.8883 40.1879 26.3575 40.1879 26.0389 40.5065C25.7204 40.825 25.7204 41.3559 26.0389 41.6744Z" fill="#0A3B3C"/>
<path d="M22.2164 37.8502C22.535 38.1687 23.066 38.1687 23.3845 37.8502C23.703 37.5317 23.703 37.0008 23.3845 36.6823C23.066 36.3637 22.535 36.3637 22.2164 36.6823C21.8979 37.0008 21.8979 37.5317 22.2164 37.8502Z" fill="#0A3B3C"/>
<path d="M29.8615 37.8502C30.18 38.1687 30.7109 38.1687 31.0294 37.8502C31.3479 37.5317 31.3479 37.0008 31.0294 36.6823C30.7109 36.3637 30.18 36.3637 29.8615 36.6823C29.5429 37.0008 29.5429 37.5317 29.8615 37.8502Z" fill="#0A3B3C"/>
<path d="M26.0389 33.9225C26.3575 34.241 26.8883 34.241 27.2069 33.9225C27.5254 33.6039 27.5254 33.0731 27.2069 32.7545C26.8883 32.436 26.3575 32.436 26.0389 32.7545C25.7204 33.1792 25.7204 33.6039 26.0389 33.9225Z" fill="#0A3B3C"/>
<path d="M22.2164 33.9225C22.535 34.241 23.066 34.241 23.3845 33.9225C23.703 33.6039 23.703 33.0731 23.3845 32.7545C23.066 32.436 22.535 32.436 22.2164 32.7545C21.8979 33.1792 21.8979 33.6039 22.2164 33.9225Z" fill="#0A3B3C"/>
<path d="M26.0389 37.8502C26.3575 38.1687 26.8883 38.1687 27.2069 37.8502C27.5254 37.5317 27.5254 37.0008 27.2069 36.6823C26.8883 36.3637 26.3575 36.3637 26.0389 36.6823C25.7204 37.0008 25.7204 37.5317 26.0389 37.8502Z" fill="#0A3B3C"/>
<path d="M26.0389 30.1002C26.3575 30.4187 26.8883 30.4187 27.2069 30.1002C27.5254 29.7817 27.5254 29.2508 27.2069 28.9323C26.8883 28.6137 26.3575 28.6137 26.0389 28.9323C25.7204 29.2508 25.7204 29.7817 26.0389 30.1002Z" fill="#0A3B3C"/>
<path d="M29.8615 33.9225C30.18 34.241 30.7109 34.241 31.0294 33.9225C31.3479 33.6039 31.3479 33.0731 31.0294 32.7545C30.7109 32.436 30.18 32.436 29.8615 32.7545C29.5429 33.1792 29.5429 33.6039 29.8615 33.9225Z" fill="#0A3B3C"/>
<path d="M18.288 33.9225C18.6065 34.241 19.1374 34.241 19.4559 33.9225C19.7744 33.6039 19.7744 33.0731 19.4559 32.7545C19.1374 32.436 18.6065 32.436 18.288 32.7545C17.9694 33.1792 17.9694 33.6039 18.288 33.9225Z" fill="#0A3B3C"/>
<path d="M22.2162 30.1002C22.5347 30.4187 23.0657 30.4187 23.3843 30.1002C23.7028 29.7817 23.7028 29.2508 23.3843 28.9323C23.0657 28.6137 22.5347 28.6137 22.2162 28.9323C21.8977 29.2508 21.8977 29.7817 22.2162 30.1002Z" fill="#0A3B3C"/>
<path d="M33.7901 33.9225C34.1087 34.241 34.6395 34.241 34.9581 33.9225C35.2766 33.6039 35.2766 33.0731 34.9581 32.7545C34.6395 32.436 34.1087 32.436 33.7901 32.7545C33.4716 33.0731 33.3654 33.6039 33.7901 33.9225Z" fill="#0A3B3C"/>
<path d="M29.8617 30.1002C30.1802 30.4187 30.7111 30.4187 31.0296 30.1002C31.3482 29.7817 31.3482 29.2508 31.0296 28.9323C30.7111 28.6137 30.1802 28.6137 29.8617 28.9323C29.5432 29.2508 29.5432 29.7817 29.8617 30.1002Z" fill="#0A3B3C"/>
<path d="M26.0392 26.2779C26.3577 26.5965 26.8886 26.5965 27.2071 26.2779C27.5257 25.9594 27.5257 25.4285 27.2071 25.11C26.8886 24.7915 26.3577 24.7915 26.0392 25.11C25.7207 25.4285 25.7207 25.9594 26.0392 26.2779Z" fill="#0A3B3C"/>
<path d="M14.4662 45.4947C14.7847 45.8133 15.3156 45.8133 15.6341 45.4947C15.9527 45.1762 15.9527 44.6453 15.6341 44.3268C15.3156 44.0083 14.7847 44.0083 14.4662 44.3268C14.1477 44.6453 14.1477 45.1762 14.4662 45.4947Z" fill="#0A3B3C"/>
<path d="M22.2169 45.4947C22.5355 45.8133 23.0665 45.8133 23.385 45.4947C23.7035 45.1762 23.7035 44.6453 23.385 44.3268C23.0665 44.0083 22.5355 44.0083 22.2169 44.3268C21.8984 44.6453 21.8984 45.1762 22.2169 45.4947Z" fill="#0A3B3C"/>
<path d="M18.2887 41.6725C18.6072 41.991 19.1381 41.991 19.4566 41.6725C19.7752 41.3539 19.7752 40.8231 19.4566 40.5045C19.1381 40.186 18.6072 40.186 18.2887 40.5045C17.9702 40.8231 17.9702 41.3539 18.2887 41.6725Z" fill="#0A3B3C"/>
<path d="M14.4662 41.6725C14.7847 41.991 15.3156 41.991 15.6341 41.6725C15.9527 41.3539 15.9527 40.8231 15.6341 40.5045C15.3156 40.186 14.7847 40.186 14.4662 40.5045C14.1477 40.8231 14.1477 41.3539 14.4662 41.6725Z" fill="#0A3B3C"/>
<path d="M18.2887 45.4947C18.6072 45.8133 19.1381 45.8133 19.4566 45.4947C19.7752 45.1762 19.7752 44.6453 19.4566 44.3268C19.1381 44.0083 18.6072 44.0083 18.2887 44.3268C17.9702 44.6453 17.9702 45.1762 18.2887 45.4947Z" fill="#0A3B3C"/>
<path d="M18.2887 37.8502C18.6072 38.1687 19.1381 38.1687 19.4566 37.8502C19.7752 37.5317 19.7752 37.0008 19.4566 36.6823C19.1381 36.3637 18.6072 36.3637 18.2887 36.6823C17.9702 37.0008 17.9702 37.5317 18.2887 37.8502Z" fill="#0A3B3C"/>
<path d="M22.2169 41.6725C22.5355 41.991 23.0665 41.991 23.385 41.6725C23.7035 41.3539 23.7035 40.8231 23.385 40.5045C23.0665 40.186 22.5355 40.186 22.2169 40.5045C21.8984 40.8231 21.8984 41.3539 22.2169 41.6725Z" fill="#0A3B3C"/>
<path d="M14.4674 37.8502C14.7859 38.1687 15.3168 38.1687 15.6353 37.8502C15.9539 37.5317 15.9539 37.0008 15.6353 36.6823C15.3168 36.3637 14.7859 36.3637 14.4674 36.6823C14.1489 37.0008 14.1489 37.5317 14.4674 37.8502Z" fill="#0A3B3C"/>
<path d="M26.0402 41.6725C26.3587 41.991 26.8896 41.991 27.2081 41.6725C27.5266 41.3539 27.5266 40.8231 27.2081 40.5045C26.8896 40.186 26.3587 40.186 26.0402 40.5045C25.7216 40.8231 25.7216 41.3539 26.0402 41.6725Z" fill="#0A3B3C"/>
<path d="M22.2177 37.8502C22.5362 38.1687 23.0672 38.1687 23.3857 37.8502C23.7042 37.5317 23.7042 37.0008 23.3857 36.6823C23.0672 36.3637 22.5362 36.3637 22.2177 36.6823C21.8991 37.0008 21.8991 37.5317 22.2177 37.8502Z" fill="#0A3B3C"/>
<path d="M18.2894 33.9225C18.608 34.241 19.1388 34.241 19.4574 33.9225C19.7759 33.6039 19.7759 33.0731 19.4574 32.7545C19.1388 32.436 18.608 32.436 18.2894 32.7545C17.9709 33.1792 17.9709 33.6039 18.2894 33.9225Z" fill="#0A3B3C"/>
<path d="M14.4662 45.4967C14.7847 45.8152 15.3156 45.8152 15.6341 45.4967C15.9527 45.1782 15.9527 44.6473 15.6341 44.3287C15.3156 44.0102 14.7847 44.0102 14.4662 44.3287C14.1477 44.6473 14.1477 45.1782 14.4662 45.4967Z" fill="#0A3B3C"/>
<path d="M26.0389 26.2799C26.3575 26.5984 26.8883 26.5984 27.2069 26.2799C27.5254 25.9614 27.5254 25.4305 27.2069 25.1119C26.8883 24.7934 26.3575 24.7934 26.0389 25.1119C25.7204 25.4305 25.7204 25.9614 26.0389 26.2799Z" fill="#0A3B3C"/>
<path d="M22.2164 22.4576C22.535 22.7762 23.066 22.7762 23.3845 22.4576C23.703 22.1391 23.703 21.6082 23.3845 21.2897C23.066 20.9711 22.535 20.9711 22.2164 21.2897C21.8979 21.6082 21.8979 22.1391 22.2164 22.4576Z" fill="#0A3B3C"/>
<path d="M29.8615 22.4576C30.18 22.7762 30.7109 22.7762 31.0294 22.4576C31.3479 22.1391 31.3479 21.6082 31.0294 21.2897C30.7109 20.9711 30.18 20.9711 29.8615 21.2897C29.5429 21.6082 29.5429 22.1391 29.8615 22.4576Z" fill="#0A3B3C"/>
<path d="M26.0389 22.4576C26.3575 22.7762 26.8883 22.7762 27.2069 22.4576C27.5254 22.1391 27.5254 21.6082 27.2069 21.2897C26.8883 20.9711 26.3575 20.9711 26.0389 21.2897C25.7204 21.6082 25.7204 22.1391 26.0389 22.4576Z" fill="#0A3B3C"/>
<path d="M18.2887 33.9225C18.6072 34.241 19.1381 34.241 19.4566 33.9225C19.7752 33.6039 19.7752 33.0731 19.4566 32.7545C19.1381 32.436 18.6072 32.436 18.2887 32.7545C17.9702 33.1792 17.9702 33.6039 18.2887 33.9225Z" fill="#0A3B3C"/>
<path d="M14.4662 30.1002C14.7847 30.4187 15.3156 30.4187 15.6341 30.1002C15.9527 29.7817 15.9527 29.2508 15.6341 28.9323C15.3156 28.6137 14.7847 28.6137 14.4662 28.9323C14.1477 29.2508 14.1477 29.7817 14.4662 30.1002Z" fill="#0A3B3C"/>
<path d="M22.2169 30.1002C22.5355 30.4187 23.0665 30.4187 23.385 30.1002C23.7035 29.7817 23.7035 29.2508 23.385 28.9323C23.0665 28.6137 22.5355 28.6137 22.2169 28.9323C21.8984 29.2508 21.8984 29.7817 22.2169 30.1002Z" fill="#0A3B3C"/>
<path d="M18.2887 26.2779C18.6072 26.5965 19.1381 26.5965 19.4566 26.2779C19.7752 25.9594 19.7752 25.4285 19.4566 25.11C19.1381 24.7915 18.6072 24.7915 18.2887 25.11C17.9702 25.4285 17.9702 25.9594 18.2887 26.2779Z" fill="#0A3B3C"/>
<path d="M14.4662 26.2779C14.7847 26.5965 15.3156 26.5965 15.6341 26.2779C15.9527 25.9594 15.9527 25.4285 15.6341 25.11C15.3156 24.7915 14.7847 24.7915 14.4662 25.11C14.1477 25.4285 14.1477 25.9594 14.4662 26.2779Z" fill="#0A3B3C"/>
<path d="M18.2887 30.1002C18.6072 30.4187 19.1381 30.4187 19.4566 30.1002C19.7752 29.7817 19.7752 29.2508 19.4566 28.9323C19.1381 28.6137 18.6072 28.6137 18.2887 28.9323C17.9702 29.2508 17.9702 29.7817 18.2887 30.1002Z" fill="#0A3B3C"/>
<path d="M18.2887 22.4557C18.6072 22.7742 19.1381 22.7742 19.4566 22.4557C19.7752 22.1371 19.7752 21.6063 19.4566 21.2877C19.1381 20.9692 18.6072 20.9692 18.2887 21.2877C17.9702 21.6063 17.9702 22.1371 18.2887 22.4557Z" fill="#0A3B3C"/>
<path d="M22.2169 26.2779C22.5355 26.5965 23.0665 26.5965 23.385 26.2779C23.7035 25.9594 23.7035 25.4285 23.385 25.11C23.0665 24.7915 22.5355 24.7915 22.2169 25.11C21.8984 25.4285 21.8984 25.9594 22.2169 26.2779Z" fill="#0A3B3C"/>
<path d="M14.4674 22.4557C14.7859 22.7742 15.3168 22.7742 15.6353 22.4557C15.9539 22.1371 15.9539 21.6063 15.6353 21.2877C15.3168 20.9692 14.7859 20.9692 14.4674 21.2877C14.1489 21.6063 14.1489 22.1371 14.4674 22.4557Z" fill="#0A3B3C"/>
<path d="M26.0402 26.2779C26.3587 26.5965 26.8896 26.5965 27.2081 26.2779C27.5266 25.9594 27.5266 25.4285 27.2081 25.11C26.8896 24.7915 26.3587 24.7915 26.0402 25.11C25.7216 25.4285 25.7216 25.9594 26.0402 26.2779Z" fill="#0A3B3C"/>
<path d="M22.2177 22.4557C22.5362 22.7742 23.0672 22.7742 23.3857 22.4557C23.7042 22.1371 23.7042 21.6063 23.3857 21.2877C23.0672 20.9692 22.5362 20.9692 22.2177 21.2877C21.8991 21.6063 21.8991 22.1371 22.2177 22.4557Z" fill="#0A3B3C"/>
<path d="M14.4664 37.8502C14.785 38.1687 15.3158 38.1687 15.6344 37.8502C15.9529 37.5317 15.9529 37.0008 15.6344 36.6823C15.3158 36.3637 14.785 36.3637 14.4664 36.6823C14.1479 37.0008 14.1479 37.5317 14.4664 37.8502Z" fill="#0A3B3C"/>
<path d="M14.4664 33.9225C14.785 34.241 15.3158 34.241 15.6344 33.9225C15.9529 33.6039 15.9529 33.0731 15.6344 32.7545C15.3158 32.436 14.785 32.436 14.4664 32.7545C14.1479 33.1792 14.1479 33.6039 14.4664 33.9225Z" fill="#0A3B3C"/>
<path d="M18.288 33.9225C18.6065 34.241 19.1374 34.241 19.4559 33.9225C19.7744 33.6039 19.7744 33.0731 19.4559 32.7545C19.1374 32.436 18.6065 32.436 18.288 32.7545C17.9694 33.1792 17.9694 33.6039 18.288 33.9225Z" fill="#0A3B3C"/>
<path d="M14.4662 30.1002C14.7847 30.4187 15.3156 30.4187 15.6341 30.1002C15.9527 29.7817 15.9527 29.2508 15.6341 28.9323C15.3156 28.6137 14.7847 28.6137 14.4662 28.9323C14.1477 29.2508 14.1477 29.7817 14.4662 30.1002Z" fill="#0A3B3C"/>
<path d="M14.4664 22.4537C14.785 22.7723 15.3158 22.7723 15.6344 22.4537C15.9529 22.1352 15.9529 21.6043 15.6344 21.2858C15.3158 20.9672 14.785 20.9672 14.4664 21.2858C14.1479 21.6043 14.1479 22.1352 14.4664 22.4537Z" fill="#0A3B3C"/>
</g>
</svg>
