<svg width="62" height="61" viewBox="0 0 62 61" fill="none" xmlns="http://www.w3.org/2000/svg">
<path fill-rule="evenodd" clip-rule="evenodd" d="M30.8111 2.73168C15.458 2.73168 3.01195 15.1778 3.01195 30.5308C3.01195 45.8838 15.458 58.3299 30.8111 58.3299C46.1641 58.3299 58.6101 45.8838 58.6101 30.5308C58.6101 15.1778 46.1641 2.73168 30.8111 2.73168ZM0.782227 30.5308C0.782227 13.9463 14.2266 0.501953 30.8111 0.501953C47.3955 0.501953 60.8399 13.9463 60.8399 30.5308C60.8399 47.1152 47.3955 60.5596 30.8111 60.5596C14.2266 60.5596 0.782227 47.1152 0.782227 30.5308Z" fill="#0B3B3D"/>
  <mask id="mask0" mask-type="alpha" maskUnits="userSpaceOnUse" x="18" y="16" width="25" height="32">
    <path d="M30.811 47.2697C30.811 47.2697 42.9853 41.1826 42.9853 32.0519V21.3993L30.811 16.834L18.6367 21.3993V32.0519C18.6367 41.1826 30.811 47.2697 30.811 47.2697Z" fill="#C4C4C4"/>
  </mask>
  <g mask="url(#mask0)">
    <path d="M63.9042 50.4557C64.2625 50.8141 64.8598 50.8141 65.2181 50.4557C65.5765 50.0974 65.5765 49.5001 65.2181 49.1418C64.8598 48.7834 64.2625 48.7834 63.9042 49.1418C63.5458 49.5001 63.5458 50.0974 63.9042 50.4557Z" fill="#0A3B3C"/>
    <path d="M59.4846 46.0361C59.843 46.3944 60.4402 46.3944 60.7985 46.0361C61.1569 45.6777 61.1569 45.0805 60.7985 44.7221C60.4402 44.3638 59.843 44.3638 59.4846 44.7221C59.1263 45.0805 59.1263 45.6777 59.4846 46.0361Z" fill="#0A3B3C"/>
    <path d="M68.2043 46.0361C68.5627 46.3944 69.1601 46.3944 69.5184 46.0361C69.8768 45.6777 69.8768 45.0805 69.5184 44.7221C69.1601 44.3638 68.5627 44.3638 68.2043 44.7221C67.846 45.0805 67.846 45.6777 68.2043 46.0361Z" fill="#0A3B3C"/>
    <path d="M63.9042 41.7359C64.2625 42.0942 64.8598 42.0942 65.2181 41.7359C65.5765 41.3775 65.5765 40.7803 65.2181 40.4219C64.8598 40.0636 64.2625 40.0636 63.9042 40.4219C63.5458 40.7803 63.5458 41.3775 63.9042 41.7359Z" fill="#0A3B3C"/>
    <path d="M59.4846 41.7359C59.843 42.0942 60.4402 42.0942 60.7985 41.7359C61.1569 41.3775 61.1569 40.7803 60.7985 40.4219C60.4402 40.0636 59.843 40.0636 59.4846 40.4219C59.1263 40.7803 59.1263 41.3775 59.4846 41.7359Z" fill="#0A3B3C"/>
    <path d="M63.9042 46.0361C64.2625 46.3944 64.8598 46.3944 65.2181 46.0361C65.5765 45.6777 65.5765 45.0805 65.2181 44.7221C64.8598 44.3638 64.2625 44.3638 63.9042 44.7221C63.5458 45.0805 63.5458 45.6777 63.9042 46.0361Z" fill="#0A3B3C"/>
    <path d="M63.9042 37.4357C64.2625 37.7941 64.8598 37.7941 65.2181 37.4357C65.5765 37.0774 65.5765 36.4801 65.2181 36.1218C64.8598 35.7634 64.2625 35.7634 63.9042 36.1218C63.5458 36.4801 63.5458 37.0774 63.9042 37.4357Z" fill="#0A3B3C"/>
    <path d="M68.2043 41.7359C68.5627 42.0942 69.1601 42.0942 69.5184 41.7359C69.8768 41.3775 69.8768 40.7803 69.5184 40.4219C69.1601 40.0636 68.5627 40.0636 68.2043 40.4219C67.846 40.7803 67.846 41.3775 68.2043 41.7359Z" fill="#0A3B3C"/>
    <path d="M55.1845 41.7359C55.5428 42.0942 56.14 42.0942 56.4984 41.7359C56.8567 41.3775 56.8567 40.7803 56.4984 40.4219C56.14 40.0636 55.5428 40.0636 55.1845 40.4219C54.8261 40.7803 54.8261 41.3775 55.1845 41.7359Z" fill="#0A3B3C"/>
    <path d="M59.4846 37.4357C59.843 37.7941 60.4402 37.7941 60.7985 37.4357C61.1569 37.0774 61.1569 36.4801 60.7985 36.1218C60.4402 35.7634 59.843 35.7634 59.4846 36.1218C59.1263 36.4801 59.1263 37.0774 59.4846 37.4357Z" fill="#0A3B3C"/>
    <path d="M72.5047 41.7359C72.863 42.0942 73.4602 42.0942 73.8186 41.7359C74.1769 41.3775 74.1769 40.7803 73.8186 40.4219C73.4602 40.0636 72.863 40.0636 72.5047 40.4219C72.1463 40.7803 72.1463 41.3775 72.5047 41.7359Z" fill="#0A3B3C"/>
    <path d="M68.2043 37.4357C68.5627 37.7941 69.1601 37.7941 69.5184 37.4357C69.8768 37.0774 69.8768 36.4801 69.5184 36.1218C69.1601 35.7634 68.5627 35.7634 68.2043 36.1218C67.846 36.4801 67.846 37.0774 68.2043 37.4357Z" fill="#0A3B3C"/>
    <path d="M63.9042 33.0161C64.2625 33.3744 64.8598 33.3744 65.2181 33.0161C65.5765 32.6577 65.5765 32.0605 65.2181 31.7021C64.8598 31.3438 64.2625 31.3438 63.9042 31.7021C63.5458 32.1799 63.5458 32.6577 63.9042 33.0161Z" fill="#0A3B3C"/>
    <path d="M55.1845 59.0561C55.5428 59.4144 56.14 59.4144 56.4984 59.0561C56.8567 58.6977 56.8567 58.1005 56.4984 57.7421C56.14 57.3838 55.5428 57.3838 55.1845 57.7421C54.8261 58.1005 54.8261 58.6977 55.1845 59.0561Z" fill="#0A3B3C"/>
    <path d="M50.8842 54.7559C51.2425 55.1142 51.8399 55.1142 52.1982 54.7559C52.5566 54.3975 52.5566 53.8003 52.1982 53.442C51.8399 53.0836 51.2425 53.0836 50.8842 53.442C50.5258 53.8003 50.5258 54.3975 50.8842 54.7559Z" fill="#0A3B3C"/>
    <path d="M59.4846 54.7559C59.843 55.1142 60.4402 55.1142 60.7985 54.7559C61.1569 54.3975 61.1569 53.8003 60.7985 53.442C60.4402 53.0836 59.843 53.0836 59.4846 53.442C59.1263 53.8003 59.1263 54.3975 59.4846 54.7559Z" fill="#0A3B3C"/>
    <path d="M55.1845 50.4557C55.5428 50.8141 56.14 50.8141 56.4984 50.4557C56.8567 50.0974 56.8567 49.5001 56.4984 49.1418C56.14 48.7834 55.5428 48.7834 55.1845 49.1418C54.8261 49.5001 54.8261 50.0974 55.1845 50.4557Z" fill="#0A3B3C"/>
    <path d="M50.8842 50.4557C51.2425 50.8141 51.8399 50.8141 52.1982 50.4557C52.5566 50.0974 52.5566 49.5001 52.1982 49.1418C51.8399 48.7834 51.2425 48.7834 50.8842 49.1418C50.5258 49.5001 50.5258 50.0974 50.8842 50.4557Z" fill="#0A3B3C"/>
    <path d="M55.1845 54.7559C55.5428 55.1142 56.14 55.1142 56.4984 54.7559C56.8567 54.3975 56.8567 53.8003 56.4984 53.442C56.14 53.0836 55.5428 53.0836 55.1845 53.442C54.8261 53.8003 54.8261 54.3975 55.1845 54.7559Z" fill="#0A3B3C"/>
    <path d="M55.1845 46.0361C55.5428 46.3944 56.14 46.3944 56.4984 46.0361C56.8567 45.6777 56.8567 45.0805 56.4984 44.7221C56.14 44.3638 55.5428 44.3638 55.1845 44.7221C54.8261 45.0805 54.8261 45.6777 55.1845 46.0361Z" fill="#0A3B3C"/>
    <path d="M59.4846 50.4557C59.843 50.8141 60.4402 50.8141 60.7985 50.4557C61.1569 50.0974 61.1569 49.5001 60.7985 49.1418C60.4402 48.7834 59.843 48.7834 59.4846 49.1418C59.1263 49.5001 59.1263 50.0974 59.4846 50.4557Z" fill="#0A3B3C"/>
    <path d="M46.5839 50.4557C46.9423 50.8141 47.5395 50.8141 47.8978 50.4557C48.2562 50.0974 48.2562 49.5001 47.8978 49.1418C47.5395 48.7834 46.9423 48.7834 46.5839 49.1418C46.1061 49.5001 46.1061 50.0974 46.5839 50.4557Z" fill="#0A3B3C"/>
    <path d="M50.8841 46.0361C51.2425 46.3944 51.8399 46.3944 52.1982 46.0361C52.5566 45.6777 52.5566 45.0805 52.1982 44.7221C51.8399 44.3638 51.2425 44.3638 50.8841 44.7221C50.5258 45.0805 50.5258 45.6777 50.8841 46.0361Z" fill="#0A3B3C"/>
    <path d="M63.9042 50.4557C64.2625 50.8141 64.8598 50.8141 65.2181 50.4557C65.5765 50.0974 65.5765 49.5001 65.2181 49.1418C64.8598 48.7834 64.2625 48.7834 63.9042 49.1418C63.5458 49.5001 63.5458 50.0974 63.9042 50.4557Z" fill="#0A3B3C"/>
    <path d="M59.4846 46.0361C59.843 46.3944 60.4402 46.3944 60.7985 46.0361C61.1569 45.6777 61.1569 45.0805 60.7985 44.7221C60.4402 44.3638 59.843 44.3638 59.4846 44.7221C59.1263 45.0805 59.1263 45.6777 59.4846 46.0361Z" fill="#0A3B3C"/>
    <path d="M55.1845 41.7359C55.5428 42.0942 56.14 42.0942 56.4984 41.7359C56.8567 41.3775 56.8567 40.7803 56.4984 40.4219C56.14 40.0636 55.5428 40.0636 55.1845 40.4219C54.8261 40.7803 54.8261 41.3775 55.1845 41.7359Z" fill="#0A3B3C"/>
    <path d="M46.5839 67.7759C46.9423 68.1343 47.5395 68.1343 47.8978 67.7759C48.2562 67.4176 48.2562 66.8203 47.8978 66.462C47.5395 66.1036 46.9423 66.1036 46.5839 66.462C46.1061 66.8203 46.1061 67.4176 46.5839 67.7759Z" fill="#0A3B3C"/>
    <path d="M42.1644 63.3563C42.5228 63.7146 43.12 63.7146 43.4783 63.3563C43.8367 62.9979 43.8367 62.4007 43.4783 62.0423C43.12 61.684 42.5228 61.684 42.1644 62.0423C41.8061 62.5201 41.8061 62.9979 42.1644 63.3563Z" fill="#0A3B3C"/>
    <path d="M50.8841 63.3563C51.2425 63.7146 51.8399 63.7146 52.1982 63.3563C52.5566 62.9979 52.5566 62.4007 52.1982 62.0423C51.8399 61.684 51.2425 61.684 50.8841 62.0423C50.5258 62.5201 50.5258 62.9979 50.8841 63.3563Z" fill="#0A3B3C"/>
    <path d="M46.5839 59.0561C46.9423 59.4144 47.5395 59.4144 47.8978 59.0561C48.2562 58.6977 48.2562 58.1005 47.8978 57.7421C47.5395 57.3838 46.9423 57.3838 46.5839 57.7421C46.1061 58.1005 46.1061 58.6977 46.5839 59.0561Z" fill="#0A3B3C"/>
    <path d="M42.1644 59.0561C42.5228 59.4144 43.12 59.4144 43.4783 59.0561C43.8367 58.6977 43.8367 58.1005 43.4783 57.7421C43.12 57.3838 42.5228 57.3838 42.1644 57.7421C41.8061 58.1005 41.8061 58.6977 42.1644 59.0561Z" fill="#0A3B3C"/>
    <path d="M46.584 63.3563C46.9423 63.7146 47.5396 63.7146 47.8979 63.3563C48.2563 62.9979 48.2563 62.4007 47.8979 62.0423C47.5396 61.684 46.9423 61.684 46.584 62.0423C46.2256 62.5201 46.2256 62.9979 46.584 63.3563Z" fill="#0A3B3C"/>
    <path d="M46.584 54.7559C46.9423 55.1142 47.5396 55.1142 47.8979 54.7559C48.2563 54.3975 48.2563 53.8003 47.8979 53.442C47.5396 53.0836 46.9423 53.0836 46.584 53.442C46.2256 53.8003 46.2256 54.3975 46.584 54.7559Z" fill="#0A3B3C"/>
    <path d="M50.8841 59.0561C51.2425 59.4144 51.8399 59.4144 52.1982 59.0561C52.5566 58.6977 52.5566 58.1005 52.1982 57.7421C51.8399 57.3838 51.2425 57.3838 50.8841 57.7421C50.5258 58.1005 50.5258 58.6977 50.8841 59.0561Z" fill="#0A3B3C"/>
    <path d="M37.8643 59.0561C38.2226 59.4144 38.8198 59.4144 39.1782 59.0561C39.5365 58.6977 39.5365 58.1005 39.1782 57.7421C38.8198 57.3838 38.2226 57.3838 37.8643 57.7421C37.5059 58.1005 37.5059 58.6977 37.8643 59.0561Z" fill="#0A3B3C"/>
    <path d="M42.1644 54.7559C42.5228 55.1142 43.12 55.1142 43.4783 54.7559C43.8367 54.3975 43.8367 53.8003 43.4783 53.442C43.12 53.0836 42.5228 53.0836 42.1644 53.442C41.8061 53.8003 41.8061 54.3975 42.1644 54.7559Z" fill="#0A3B3C"/>
    <path d="M55.1845 59.0561C55.5428 59.4144 56.14 59.4144 56.4984 59.0561C56.8567 58.6977 56.8567 58.1005 56.4984 57.7421C56.14 57.3838 55.5428 57.3838 55.1845 57.7421C54.8261 58.1005 54.8261 58.6977 55.1845 59.0561Z" fill="#0A3B3C"/>
    <path d="M50.8842 54.7559C51.2425 55.1142 51.8399 55.1142 52.1982 54.7559C52.5566 54.3975 52.5566 53.8003 52.1982 53.442C51.8399 53.0836 51.2425 53.0836 50.8842 53.442C50.5258 53.8003 50.5258 54.3975 50.8842 54.7559Z" fill="#0A3B3C"/>
    <path d="M46.5839 50.4557C46.9423 50.8141 47.5395 50.8141 47.8978 50.4557C48.2562 50.0974 48.2562 49.5001 47.8978 49.1418C47.5395 48.7834 46.9423 48.7834 46.5839 49.1418C46.1061 49.5001 46.1061 50.0974 46.5839 50.4557Z" fill="#0A3B3C"/>
    <path d="M63.9042 33.0161C64.2625 33.3744 64.8598 33.3744 65.2181 33.0161C65.5765 32.6577 65.5765 32.0605 65.2181 31.7021C64.8598 31.3438 64.2625 31.3438 63.9042 31.7021C63.5458 32.1799 63.5458 32.6577 63.9042 33.0161Z" fill="#0A3B3C"/>
    <path d="M59.4846 28.7159C59.843 29.0742 60.4402 29.0742 60.7985 28.7159C61.1569 28.3575 61.1569 27.7603 60.7985 27.4019C60.4402 27.0436 59.843 27.0436 59.4846 27.4019C59.1263 27.7603 59.1263 28.3575 59.4846 28.7159Z" fill="#0A3B3C"/>
    <path d="M68.2043 28.7159C68.5627 29.0742 69.1601 29.0742 69.5184 28.7159C69.8768 28.3575 69.8768 27.7603 69.5184 27.4019C69.1601 27.0436 68.5627 27.0436 68.2043 27.4019C67.846 27.7603 67.846 28.3575 68.2043 28.7159Z" fill="#0A3B3C"/>
    <path d="M63.9042 24.4157C64.2625 24.774 64.8598 24.774 65.2181 24.4157C65.5765 24.0573 65.5765 23.4601 65.2181 23.1018C64.8598 22.7434 64.2625 22.7434 63.9042 23.1018C63.5458 23.4601 63.5458 24.0573 63.9042 24.4157Z" fill="#0A3B3C"/>
    <path d="M59.4846 24.4157C59.843 24.774 60.4402 24.774 60.7985 24.4157C61.1569 24.0573 61.1569 23.4601 60.7985 23.1018C60.4402 22.7434 59.843 22.7434 59.4846 23.1018C59.1263 23.4601 59.1263 24.0573 59.4846 24.4157Z" fill="#0A3B3C"/>
    <path d="M63.9042 28.7159C64.2625 29.0742 64.8598 29.0742 65.2181 28.7159C65.5765 28.3575 65.5765 27.7603 65.2181 27.4019C64.8598 27.0436 64.2625 27.0436 63.9042 27.4019C63.5458 27.7603 63.5458 28.3575 63.9042 28.7159Z" fill="#0A3B3C"/>
    <path d="M63.9042 20.1155C64.2625 20.4739 64.8598 20.4739 65.2181 20.1155C65.5765 19.7572 65.5765 19.1599 65.2181 18.8016C64.8598 18.4432 64.2625 18.4432 63.9042 18.8016C63.5458 19.1599 63.5458 19.7572 63.9042 20.1155Z" fill="#0A3B3C"/>
    <path d="M68.2043 24.4157C68.5627 24.774 69.1601 24.774 69.5184 24.4157C69.8768 24.0573 69.8768 23.4601 69.5184 23.1018C69.1601 22.7434 68.5627 22.7434 68.2043 23.1018C67.846 23.4601 67.846 24.0573 68.2043 24.4157Z" fill="#0A3B3C"/>
    <path d="M55.1845 24.4157C55.5428 24.774 56.14 24.774 56.4984 24.4157C56.8567 24.0573 56.8567 23.4601 56.4984 23.1018C56.14 22.7434 55.5428 22.7434 55.1845 23.1018C54.8261 23.4601 54.8261 24.0573 55.1845 24.4157Z" fill="#0A3B3C"/>
    <path d="M59.4846 20.1155C59.843 20.4739 60.4402 20.4739 60.7985 20.1155C61.1569 19.7572 61.1569 19.1599 60.7985 18.8016C60.4402 18.4432 59.843 18.4432 59.4846 18.8016C59.1263 19.1599 59.1263 19.7572 59.4846 20.1155Z" fill="#0A3B3C"/>
    <path d="M72.5047 24.4157C72.863 24.774 73.4602 24.774 73.8186 24.4157C74.1769 24.0573 74.1769 23.4601 73.8186 23.1018C73.4602 22.7434 72.863 22.7434 72.5047 23.1018C72.1463 23.4601 72.1463 24.0573 72.5047 24.4157Z" fill="#0A3B3C"/>
    <path d="M68.2043 20.1155C68.5627 20.4739 69.1601 20.4739 69.5184 20.1155C69.8768 19.7572 69.8768 19.1599 69.5184 18.8016C69.1601 18.4432 68.5627 18.4432 68.2043 18.8016C67.846 19.1599 67.846 19.7572 68.2043 20.1155Z" fill="#0A3B3C"/>
    <path d="M63.9042 15.6959C64.2625 16.0542 64.8598 16.0542 65.2181 15.6959C65.5765 15.3375 65.5765 14.7403 65.2181 14.3819C64.8598 14.0236 64.2625 14.0236 63.9042 14.3819C63.5458 14.7403 63.5458 15.3375 63.9042 15.6959Z" fill="#0A3B3C"/>
    <path d="M55.1845 41.7359C55.5428 42.0942 56.14 42.0942 56.4984 41.7359C56.8567 41.3775 56.8567 40.7803 56.4984 40.4219C56.14 40.0636 55.5428 40.0636 55.1845 40.4219C54.8261 40.7803 54.8261 41.3775 55.1845 41.7359Z" fill="#0A3B3C"/>
    <path d="M50.8842 37.4357C51.2425 37.7941 51.8399 37.7941 52.1982 37.4357C52.5566 37.0774 52.5566 36.4801 52.1982 36.1218C51.8399 35.7634 51.2425 35.7634 50.8842 36.1218C50.5258 36.4801 50.5258 37.0774 50.8842 37.4357Z" fill="#0A3B3C"/>
    <path d="M59.4846 37.4357C59.843 37.7941 60.4402 37.7941 60.7985 37.4357C61.1569 37.0774 61.1569 36.4801 60.7985 36.1218C60.4402 35.7634 59.843 35.7634 59.4846 36.1218C59.1263 36.4801 59.1263 37.0774 59.4846 37.4357Z" fill="#0A3B3C"/>
    <path d="M55.1845 33.0161C55.5428 33.3744 56.14 33.3744 56.4984 33.0161C56.8567 32.6577 56.8567 32.0605 56.4984 31.7021C56.14 31.3438 55.5428 31.3438 55.1845 31.7021C54.8261 32.1799 54.8261 32.6577 55.1845 33.0161Z" fill="#0A3B3C"/>
    <path d="M50.8842 33.0161C51.2425 33.3744 51.8399 33.3744 52.1982 33.0161C52.5566 32.6577 52.5566 32.0605 52.1982 31.7021C51.8399 31.3438 51.2425 31.3438 50.8842 31.7021C50.5258 32.1799 50.5258 32.6577 50.8842 33.0161Z" fill="#0A3B3C"/>
    <path d="M55.1845 37.4357C55.5428 37.7941 56.14 37.7941 56.4984 37.4357C56.8567 37.0774 56.8567 36.4801 56.4984 36.1218C56.14 35.7634 55.5428 35.7634 55.1845 36.1218C54.8261 36.4801 54.8261 37.0774 55.1845 37.4357Z" fill="#0A3B3C"/>
    <path d="M55.1845 28.7159C55.5428 29.0742 56.14 29.0742 56.4984 28.7159C56.8567 28.3575 56.8567 27.7603 56.4984 27.4019C56.14 27.0436 55.5428 27.0436 55.1845 27.4019C54.8261 27.7603 54.8261 28.3575 55.1845 28.7159Z" fill="#0A3B3C"/>
    <path d="M59.4846 33.0161C59.843 33.3744 60.4402 33.3744 60.7985 33.0161C61.1569 32.6577 61.1569 32.0605 60.7985 31.7021C60.4402 31.3438 59.843 31.3438 59.4846 31.7021C59.1263 32.1799 59.1263 32.6577 59.4846 33.0161Z" fill="#0A3B3C"/>
    <path d="M46.584 33.0161C46.9424 33.3744 47.5396 33.3744 47.8979 33.0161C48.2563 32.6577 48.2563 32.0605 47.8979 31.7021C47.5396 31.3438 46.9424 31.3438 46.584 31.7021C46.2257 32.0605 46.1062 32.6577 46.584 33.0161Z" fill="#0A3B3C"/>
    <path d="M50.8841 28.7159C51.2425 29.0742 51.8399 29.0742 52.1982 28.7159C52.5566 28.3575 52.5566 27.7603 52.1982 27.4019C51.8399 27.0436 51.2425 27.0436 50.8841 27.4019C50.5258 27.7603 50.5258 28.3575 50.8841 28.7159Z" fill="#0A3B3C"/>
    <path d="M63.9042 33.0161C64.2625 33.3744 64.8598 33.3744 65.2181 33.0161C65.5765 32.6577 65.5765 32.0605 65.2181 31.7021C64.8598 31.3438 64.2625 31.3438 63.9042 31.7021C63.5458 32.1799 63.5458 32.6577 63.9042 33.0161Z" fill="#0A3B3C"/>
    <path d="M59.4846 28.7159C59.843 29.0742 60.4402 29.0742 60.7985 28.7159C61.1569 28.3575 61.1569 27.7603 60.7985 27.4019C60.4402 27.0436 59.843 27.0436 59.4846 27.4019C59.1263 27.7603 59.1263 28.3575 59.4846 28.7159Z" fill="#0A3B3C"/>
    <path d="M55.1845 24.4157C55.5428 24.774 56.14 24.774 56.4984 24.4157C56.8567 24.0573 56.8567 23.4601 56.4984 23.1018C56.14 22.7434 55.5428 22.7434 55.1845 23.1018C54.8261 23.4601 54.8261 24.0573 55.1845 24.4157Z" fill="#0A3B3C"/>
    <path d="M46.5839 50.4557C46.9423 50.8141 47.5395 50.8141 47.8978 50.4557C48.2562 50.0974 48.2562 49.5001 47.8978 49.1418C47.5395 48.7834 46.9423 48.7834 46.5839 49.1418C46.1061 49.5001 46.1061 50.0974 46.5839 50.4557Z" fill="#0A3B3C"/>
    <path d="M42.1644 46.0361C42.5228 46.3944 43.12 46.3944 43.4783 46.0361C43.8367 45.6777 43.8367 45.0805 43.4783 44.7221C43.12 44.3638 42.5228 44.3638 42.1644 44.7221C41.8061 45.0805 41.8061 45.6777 42.1644 46.0361Z" fill="#0A3B3C"/>
    <path d="M50.8841 46.0361C51.2425 46.3944 51.8399 46.3944 52.1982 46.0361C52.5566 45.6777 52.5566 45.0805 52.1982 44.7221C51.8399 44.3638 51.2425 44.3638 50.8841 44.7221C50.5258 45.0805 50.5258 45.6777 50.8841 46.0361Z" fill="#0A3B3C"/>
    <path d="M46.5839 41.7359C46.9423 42.0942 47.5395 42.0942 47.8978 41.7359C48.2562 41.3775 48.2562 40.7803 47.8978 40.4219C47.5395 40.0636 46.9423 40.0636 46.5839 40.4219C46.1061 40.7803 46.1061 41.3775 46.5839 41.7359Z" fill="#0A3B3C"/>
    <path d="M42.1644 41.7359C42.5228 42.0942 43.12 42.0942 43.4783 41.7359C43.8367 41.3775 43.8367 40.7803 43.4783 40.4219C43.12 40.0636 42.5228 40.0636 42.1644 40.4219C41.8061 40.7803 41.8061 41.3775 42.1644 41.7359Z" fill="#0A3B3C"/>
    <path d="M46.5839 46.0361C46.9423 46.3944 47.5395 46.3944 47.8978 46.0361C48.2562 45.6777 48.2562 45.0805 47.8978 44.7221C47.5395 44.3638 46.9423 44.3638 46.5839 44.7221C46.1061 45.0805 46.1061 45.6777 46.5839 46.0361Z" fill="#0A3B3C"/>
    <path d="M46.5839 37.4357C46.9423 37.7941 47.5395 37.7941 47.8978 37.4357C48.2562 37.0774 48.2562 36.4801 47.8978 36.1218C47.5395 35.7634 46.9423 35.7634 46.5839 36.1218C46.1061 36.4801 46.1061 37.0774 46.5839 37.4357Z" fill="#0A3B3C"/>
    <path d="M50.8841 41.7359C51.2425 42.0942 51.8399 42.0942 52.1982 41.7359C52.5566 41.3775 52.5566 40.7803 52.1982 40.4219C51.8399 40.0636 51.2425 40.0636 50.8841 40.4219C50.5258 40.7803 50.5258 41.3775 50.8841 41.7359Z" fill="#0A3B3C"/>
    <path d="M37.8643 41.7359C38.2226 42.0942 38.8198 42.0942 39.1782 41.7359C39.5365 41.3775 39.5365 40.7803 39.1782 40.4219C38.8198 40.0636 38.2226 40.0636 37.8643 40.4219C37.5059 40.7803 37.5059 41.3775 37.8643 41.7359Z" fill="#0A3B3C"/>
    <path d="M42.1644 37.4357C42.5228 37.7941 43.12 37.7941 43.4783 37.4357C43.8367 37.0774 43.8367 36.4801 43.4783 36.1218C43.12 35.7634 42.5228 35.7634 42.1644 36.1218C41.8061 36.4801 41.8061 37.0774 42.1644 37.4357Z" fill="#0A3B3C"/>
    <path d="M55.1845 41.7359C55.5428 42.0942 56.14 42.0942 56.4984 41.7359C56.8567 41.3775 56.8567 40.7803 56.4984 40.4219C56.14 40.0636 55.5428 40.0636 55.1845 40.4219C54.8261 40.7803 54.8261 41.3775 55.1845 41.7359Z" fill="#0A3B3C"/>
    <path d="M50.8842 37.4357C51.2425 37.7941 51.8399 37.7941 52.1982 37.4357C52.5566 37.0774 52.5566 36.4801 52.1982 36.1218C51.8399 35.7634 51.2425 35.7634 50.8842 36.1218C50.5258 36.4801 50.5258 37.0774 50.8842 37.4357Z" fill="#0A3B3C"/>
    <path d="M46.584 33.0161C46.9424 33.3744 47.5396 33.3744 47.8979 33.0161C48.2563 32.6577 48.2563 32.0605 47.8979 31.7021C47.5396 31.3438 46.9424 31.3438 46.584 31.7021C46.2257 32.0605 46.1062 32.6577 46.584 33.0161Z" fill="#0A3B3C"/>
    <path d="M37.8643 59.0561C38.2226 59.4144 38.8198 59.4144 39.1782 59.0561C39.5365 58.6977 39.5365 58.1005 39.1782 57.7421C38.8198 57.3838 38.2226 57.3838 37.8643 57.7421C37.5059 58.1005 37.5059 58.6977 37.8643 59.0561Z" fill="#0A3B3C"/>
    <path d="M33.564 54.7559C33.9223 55.1142 34.5197 55.1142 34.878 54.7559C35.2364 54.3975 35.2364 53.8003 34.878 53.442C34.5197 53.0836 33.9223 53.0836 33.564 53.442C33.2056 53.8003 33.2056 54.3975 33.564 54.7559Z" fill="#0A3B3C"/>
    <path d="M42.1644 54.7559C42.5228 55.1142 43.12 55.1142 43.4783 54.7559C43.8367 54.3975 43.8367 53.8003 43.4783 53.442C43.12 53.0836 42.5228 53.0836 42.1644 53.442C41.8061 53.8003 41.8061 54.3975 42.1644 54.7559Z" fill="#0A3B3C"/>
    <path d="M37.8643 50.4557C38.2226 50.8141 38.8198 50.8141 39.1782 50.4557C39.5365 50.0974 39.5365 49.5001 39.1782 49.1418C38.8198 48.7834 38.2226 48.7834 37.8643 49.1418C37.5059 49.5001 37.5059 50.0974 37.8643 50.4557Z" fill="#0A3B3C"/>
    <path d="M33.564 50.4557C33.9223 50.8141 34.5197 50.8141 34.878 50.4557C35.2364 50.0974 35.2364 49.5001 34.878 49.1418C34.5197 48.7834 33.9223 48.7834 33.564 49.1418C33.2056 49.5001 33.2056 50.0974 33.564 50.4557Z" fill="#0A3B3C"/>
    <path d="M37.8643 54.7559C38.2226 55.1142 38.8198 55.1142 39.1782 54.7559C39.5365 54.3975 39.5365 53.8003 39.1782 53.442C38.8198 53.0836 38.2226 53.0836 37.8643 53.442C37.5059 53.8003 37.5059 54.3975 37.8643 54.7559Z" fill="#0A3B3C"/>
    <path d="M37.8643 46.0361C38.2226 46.3944 38.8198 46.3944 39.1782 46.0361C39.5365 45.6777 39.5365 45.0805 39.1782 44.7221C38.8198 44.3638 38.2226 44.3638 37.8643 44.7221C37.5059 45.0805 37.5059 45.6777 37.8643 46.0361Z" fill="#0A3B3C"/>
    <path d="M42.1644 50.4557C42.5228 50.8141 43.12 50.8141 43.4783 50.4557C43.8367 50.0974 43.8367 49.5001 43.4783 49.1418C43.12 48.7834 42.5228 48.7834 42.1644 49.1418C41.8061 49.5001 41.8061 50.0974 42.1644 50.4557Z" fill="#0A3B3C"/>
    <path d="M29.1444 50.4557C29.5027 50.8141 30.0999 50.8141 30.4583 50.4557C30.8166 50.0974 30.8166 49.5001 30.4583 49.1418C30.0999 48.7834 29.5027 48.7834 29.1444 49.1418C28.786 49.5001 28.786 50.0974 29.1444 50.4557Z" fill="#0A3B3C"/>
    <path d="M33.564 46.0361C33.9223 46.3944 34.5197 46.3944 34.878 46.0361C35.2364 45.6777 35.2364 45.0805 34.878 44.7221C34.5197 44.3638 33.9223 44.3638 33.564 44.7221C33.2056 45.0805 33.2056 45.6777 33.564 46.0361Z" fill="#0A3B3C"/>
    <path d="M46.5839 50.4557C46.9423 50.8141 47.5395 50.8141 47.8978 50.4557C48.2562 50.0974 48.2562 49.5001 47.8978 49.1418C47.5395 48.7834 46.9423 48.7834 46.5839 49.1418C46.1061 49.5001 46.1061 50.0974 46.5839 50.4557Z" fill="#0A3B3C"/>
    <path d="M42.1644 46.0361C42.5228 46.3944 43.12 46.3944 43.4783 46.0361C43.8367 45.6777 43.8367 45.0805 43.4783 44.7221C43.12 44.3638 42.5228 44.3638 42.1644 44.7221C41.8061 45.0805 41.8061 45.6777 42.1644 46.0361Z" fill="#0A3B3C"/>
    <path d="M37.8643 41.7359C38.2226 42.0942 38.8198 42.0942 39.1782 41.7359C39.5365 41.3775 39.5365 40.7803 39.1782 40.4219C38.8198 40.0636 38.2226 40.0636 37.8643 40.4219C37.5059 40.7803 37.5059 41.3775 37.8643 41.7359Z" fill="#0A3B3C"/>
    <path d="M29.1444 67.7759C29.5027 68.1343 30.0999 68.1343 30.4583 67.7759C30.8166 67.4176 30.8166 66.8203 30.4583 66.462C30.0999 66.1036 29.5027 66.1036 29.1444 66.462C28.786 66.8203 28.786 67.4176 29.1444 67.7759Z" fill="#0A3B3C"/>
    <path d="M24.8442 63.3563C25.2026 63.7146 25.7998 63.7146 26.1581 63.3563C26.5165 62.9979 26.5165 62.4007 26.1581 62.0423C25.7998 61.684 25.2026 61.684 24.8442 62.0423C24.4859 62.5201 24.4859 62.9979 24.8442 63.3563Z" fill="#0A3B3C"/>
    <path d="M33.564 63.3563C33.9223 63.7146 34.5197 63.7146 34.878 63.3563C35.2364 62.9979 35.2364 62.4007 34.878 62.0423C34.5197 61.684 33.9223 61.684 33.564 62.0423C33.2056 62.5201 33.2056 62.9979 33.564 63.3563Z" fill="#0A3B3C"/>
    <path d="M29.1444 59.0561C29.5027 59.4144 30.0999 59.4144 30.4583 59.0561C30.8166 58.6977 30.8166 58.1005 30.4583 57.7421C30.0999 57.3838 29.5027 57.3838 29.1444 57.7421C28.786 58.1005 28.786 58.6977 29.1444 59.0561Z" fill="#0A3B3C"/>
    <path d="M24.8442 59.0561C25.2026 59.4144 25.7998 59.4144 26.1581 59.0561C26.5165 58.6977 26.5165 58.1005 26.1581 57.7421C25.7998 57.3838 25.2026 57.3838 24.8442 57.7421C24.4859 58.1005 24.4859 58.6977 24.8442 59.0561Z" fill="#0A3B3C"/>
    <path d="M29.1444 63.3563C29.5027 63.7146 30.0999 63.7146 30.4583 63.3563C30.8166 62.9979 30.8166 62.4007 30.4583 62.0423C30.0999 61.684 29.5027 61.684 29.1444 62.0423C28.786 62.5201 28.786 62.9979 29.1444 63.3563Z" fill="#0A3B3C"/>
    <path d="M29.1444 54.7559C29.5027 55.1142 30.0999 55.1142 30.4583 54.7559C30.8166 54.3975 30.8166 53.8003 30.4583 53.442C30.0999 53.0836 29.5027 53.0836 29.1444 53.442C28.786 53.8003 28.786 54.3975 29.1444 54.7559Z" fill="#0A3B3C"/>
    <path d="M33.564 59.0561C33.9223 59.4144 34.5197 59.4144 34.878 59.0561C35.2364 58.6977 35.2364 58.1005 34.878 57.7421C34.5197 57.3838 33.9223 57.3838 33.564 57.7421C33.2056 58.1005 33.2056 58.6977 33.564 59.0561Z" fill="#0A3B3C"/>
    <path d="M20.5441 59.0561C20.9024 59.4144 21.4996 59.4144 21.858 59.0561C22.2163 58.6977 22.2163 58.1005 21.858 57.7421C21.4996 57.3838 20.9024 57.3838 20.5441 57.7421C20.1857 58.1005 20.1857 58.6977 20.5441 59.0561Z" fill="#0A3B3C"/>
    <path d="M24.8442 54.7559C25.2026 55.1142 25.7998 55.1142 26.1581 54.7559C26.5165 54.3975 26.5165 53.8003 26.1581 53.442C25.7998 53.0836 25.2026 53.0836 24.8442 53.442C24.4859 53.8003 24.4859 54.3975 24.8442 54.7559Z" fill="#0A3B3C"/>
    <path d="M37.8643 59.0561C38.2226 59.4144 38.8198 59.4144 39.1782 59.0561C39.5365 58.6977 39.5365 58.1005 39.1782 57.7421C38.8198 57.3838 38.2226 57.3838 37.8643 57.7421C37.5059 58.1005 37.5059 58.6977 37.8643 59.0561Z" fill="#0A3B3C"/>
    <path d="M33.564 54.7559C33.9223 55.1142 34.5197 55.1142 34.878 54.7559C35.2364 54.3975 35.2364 53.8003 34.878 53.442C34.5197 53.0836 33.9223 53.0836 33.564 53.442C33.2056 53.8003 33.2056 54.3975 33.564 54.7559Z" fill="#0A3B3C"/>
    <path d="M29.1444 50.4557C29.5027 50.8141 30.0999 50.8141 30.4583 50.4557C30.8166 50.0974 30.8166 49.5001 30.4583 49.1418C30.0999 48.7834 29.5027 48.7834 29.1444 49.1418C28.786 49.5001 28.786 50.0974 29.1444 50.4557Z" fill="#0A3B3C"/>
    <path d="M55.1845 24.4157C55.5428 24.774 56.14 24.774 56.4984 24.4157C56.8567 24.0573 56.8567 23.4601 56.4984 23.1018C56.14 22.7434 55.5428 22.7434 55.1845 23.1018C54.8261 23.4601 54.8261 24.0573 55.1845 24.4157Z" fill="#0A3B3C"/>
    <path d="M50.8842 20.1155C51.2425 20.4739 51.8399 20.4739 52.1982 20.1155C52.5566 19.7572 52.5566 19.1599 52.1982 18.8016C51.8399 18.4432 51.2425 18.4432 50.8842 18.8016C50.5258 19.1599 50.5258 19.7572 50.8842 20.1155Z" fill="#0A3B3C"/>
    <path d="M59.4846 20.1155C59.843 20.4739 60.4402 20.4739 60.7985 20.1155C61.1569 19.7572 61.1569 19.1599 60.7985 18.8016C60.4402 18.4432 59.843 18.4432 59.4846 18.8016C59.1263 19.1599 59.1263 19.7572 59.4846 20.1155Z" fill="#0A3B3C"/>
    <path d="M55.1845 15.6959C55.5428 16.0542 56.14 16.0542 56.4984 15.6959C56.8567 15.3375 56.8567 14.7403 56.4984 14.3819C56.14 14.0236 55.5428 14.0236 55.1845 14.3819C54.8261 14.7403 54.8261 15.3375 55.1845 15.6959Z" fill="#0A3B3C"/>
    <path d="M50.8842 15.6959C51.2425 16.0542 51.8399 16.0542 52.1982 15.6959C52.5566 15.3375 52.5566 14.7403 52.1982 14.3819C51.8399 14.0236 51.2425 14.0236 50.8842 14.3819C50.5258 14.7403 50.5258 15.3375 50.8842 15.6959Z" fill="#0A3B3C"/>
    <path d="M55.1845 20.1155C55.5428 20.4739 56.14 20.4739 56.4984 20.1155C56.8567 19.7572 56.8567 19.1599 56.4984 18.8016C56.14 18.4432 55.5428 18.4432 55.1845 18.8016C54.8261 19.1599 54.8261 19.7572 55.1845 20.1155Z" fill="#0A3B3C"/>
    <path d="M55.1845 11.3957C55.5428 11.754 56.14 11.754 56.4984 11.3957C56.8567 11.0373 56.8567 10.4401 56.4984 10.0817C56.14 9.72339 55.5428 9.72339 55.1845 10.0817C54.8261 10.4401 54.8261 11.0373 55.1845 11.3957Z" fill="#0A3B3C"/>
    <path d="M59.4846 15.6959C59.843 16.0542 60.4402 16.0542 60.7985 15.6959C61.1569 15.3375 61.1569 14.7403 60.7985 14.3819C60.4402 14.0236 59.843 14.0236 59.4846 14.3819C59.1263 14.7403 59.1263 15.3375 59.4846 15.6959Z" fill="#0A3B3C"/>
    <path d="M46.584 15.6959C46.9424 16.0542 47.5396 16.0542 47.8979 15.6959C48.2563 15.3375 48.2563 14.7403 47.8979 14.3819C47.5396 14.0236 46.9424 14.0236 46.584 14.3819C46.2257 14.7403 46.1062 15.3375 46.584 15.6959Z" fill="#0A3B3C"/>
    <path d="M50.8841 11.3957C51.2425 11.754 51.8399 11.754 52.1982 11.3957C52.5566 11.0373 52.5566 10.4401 52.1982 10.0817C51.8399 9.72339 51.2425 9.72339 50.8841 10.0817C50.5258 10.4401 50.5258 11.0373 50.8841 11.3957Z" fill="#0A3B3C"/>
    <path d="M63.9042 15.6959C64.2625 16.0542 64.8598 16.0542 65.2181 15.6959C65.5765 15.3375 65.5765 14.7403 65.2181 14.3819C64.8598 14.0236 64.2625 14.0236 63.9042 14.3819C63.5458 14.7403 63.5458 15.3375 63.9042 15.6959Z" fill="#0A3B3C"/>
    <path d="M59.4846 11.3957C59.843 11.754 60.4402 11.754 60.7985 11.3957C61.1569 11.0373 61.1569 10.4401 60.7985 10.0817C60.4402 9.72339 59.843 9.72339 59.4846 10.0817C59.1263 10.4401 59.1263 11.0373 59.4846 11.3957Z" fill="#0A3B3C"/>
    <path d="M55.1845 7.0955C55.5428 7.45385 56.14 7.45385 56.4984 7.0955C56.8567 6.73715 56.8567 6.1399 56.4984 5.78156C56.14 5.42321 55.5428 5.42321 55.1845 5.78156C54.8261 6.1399 54.8261 6.73715 55.1845 7.0955Z" fill="#0A3B3C"/>
    <path d="M46.584 33.0161C46.9424 33.3744 47.5396 33.3744 47.8979 33.0161C48.2563 32.6577 48.2563 32.0605 47.8979 31.7021C47.5396 31.3438 46.9424 31.3438 46.584 31.7021C46.2257 32.0605 46.1062 32.6577 46.584 33.0161Z" fill="#0A3B3C"/>
    <path d="M42.1644 28.7159C42.5228 29.0742 43.12 29.0742 43.4783 28.7159C43.8367 28.3575 43.8367 27.7603 43.4783 27.4019C43.12 27.0436 42.5228 27.0436 42.1644 27.4019C41.8061 27.7603 41.8061 28.3575 42.1644 28.7159Z" fill="#0A3B3C"/>
    <path d="M50.8841 28.7159C51.2425 29.0742 51.8399 29.0742 52.1982 28.7159C52.5566 28.3575 52.5566 27.7603 52.1982 27.4019C51.8399 27.0436 51.2425 27.0436 50.8841 27.4019C50.5258 27.7603 50.5258 28.3575 50.8841 28.7159Z" fill="#0A3B3C"/>
    <path d="M46.5839 24.4157C46.9423 24.774 47.5395 24.774 47.8978 24.4157C48.2562 24.0573 48.2562 23.4601 47.8978 23.1018C47.5395 22.7434 46.9423 22.7434 46.5839 23.1018C46.1061 23.4601 46.1061 24.0573 46.5839 24.4157Z" fill="#0A3B3C"/>
    <path d="M42.1644 24.4157C42.5228 24.774 43.12 24.774 43.4783 24.4157C43.8367 24.0573 43.8367 23.4601 43.4783 23.1018C43.12 22.7434 42.5228 22.7434 42.1644 23.1018C41.8061 23.4601 41.8061 24.0573 42.1644 24.4157Z" fill="#0A3B3C"/>
    <path d="M46.5839 28.7159C46.9423 29.0742 47.5395 29.0742 47.8978 28.7159C48.2562 28.3575 48.2562 27.7603 47.8978 27.4019C47.5395 27.0436 46.9423 27.0436 46.5839 27.4019C46.1061 27.7603 46.1061 28.3575 46.5839 28.7159Z" fill="#0A3B3C"/>
    <path d="M46.5839 20.1155C46.9423 20.4739 47.5395 20.4739 47.8978 20.1155C48.2562 19.7572 48.2562 19.1599 47.8978 18.8016C47.5395 18.4432 46.9423 18.4432 46.5839 18.8016C46.1061 19.1599 46.1061 19.7572 46.5839 20.1155Z" fill="#0A3B3C"/>
    <path d="M50.8841 24.4157C51.2425 24.774 51.8399 24.774 52.1982 24.4157C52.5566 24.0573 52.5566 23.4601 52.1982 23.1018C51.8399 22.7434 51.2425 22.7434 50.8841 23.1018C50.5258 23.4601 50.5258 24.0573 50.8841 24.4157Z" fill="#0A3B3C"/>
    <path d="M37.8643 24.4157C38.2226 24.774 38.8198 24.774 39.1782 24.4157C39.5365 24.0573 39.5365 23.4601 39.1782 23.1018C38.8198 22.7434 38.2226 22.7434 37.8643 23.1018C37.5059 23.4601 37.5059 24.0573 37.8643 24.4157Z" fill="#0A3B3C"/>
    <path d="M42.1644 20.1155C42.5228 20.4739 43.12 20.4739 43.4783 20.1155C43.8367 19.7572 43.8367 19.1599 43.4783 18.8016C43.12 18.4432 42.5228 18.4432 42.1644 18.8016C41.8061 19.1599 41.8061 19.7572 42.1644 20.1155Z" fill="#0A3B3C"/>
    <path d="M55.1845 24.4157C55.5428 24.774 56.14 24.774 56.4984 24.4157C56.8567 24.0573 56.8567 23.4601 56.4984 23.1018C56.14 22.7434 55.5428 22.7434 55.1845 23.1018C54.8261 23.4601 54.8261 24.0573 55.1845 24.4157Z" fill="#0A3B3C"/>
    <path d="M50.8842 20.1155C51.2425 20.4739 51.8399 20.4739 52.1982 20.1155C52.5566 19.7572 52.5566 19.1599 52.1982 18.8016C51.8399 18.4432 51.2425 18.4432 50.8842 18.8016C50.5258 19.1599 50.5258 19.7572 50.8842 20.1155Z" fill="#0A3B3C"/>
    <path d="M46.584 15.6959C46.9424 16.0542 47.5396 16.0542 47.8979 15.6959C48.2563 15.3375 48.2563 14.7403 47.8979 14.3819C47.5396 14.0236 46.9424 14.0236 46.584 14.3819C46.2257 14.7403 46.1062 15.3375 46.584 15.6959Z" fill="#0A3B3C"/>
    <path d="M37.8643 41.7359C38.2226 42.0942 38.8198 42.0942 39.1782 41.7359C39.5365 41.3775 39.5365 40.7803 39.1782 40.4219C38.8198 40.0636 38.2226 40.0636 37.8643 40.4219C37.5059 40.7803 37.5059 41.3775 37.8643 41.7359Z" fill="#0A3B3C"/>
    <path d="M33.564 37.4357C33.9223 37.7941 34.5197 37.7941 34.878 37.4357C35.2364 37.0774 35.2364 36.4801 34.878 36.1218C34.5197 35.7634 33.9223 35.7634 33.564 36.1218C33.2056 36.4801 33.2056 37.0774 33.564 37.4357Z" fill="#0A3B3C"/>
    <path d="M42.1644 37.4357C42.5228 37.7941 43.12 37.7941 43.4783 37.4357C43.8367 37.0774 43.8367 36.4801 43.4783 36.1218C43.12 35.7634 42.5228 35.7634 42.1644 36.1218C41.8061 36.4801 41.8061 37.0774 42.1644 37.4357Z" fill="#0A3B3C"/>
    <path d="M37.8643 33.0161C38.2226 33.3744 38.8198 33.3744 39.1782 33.0161C39.5365 32.6577 39.5365 32.0605 39.1782 31.7021C38.8198 31.3438 38.2226 31.3438 37.8643 31.7021C37.5059 32.1799 37.5059 32.6577 37.8643 33.0161Z" fill="#0A3B3C"/>
    <path d="M33.564 33.0161C33.9223 33.3744 34.5197 33.3744 34.878 33.0161C35.2364 32.6577 35.2364 32.0605 34.878 31.7021C34.5197 31.3438 33.9223 31.3438 33.564 31.7021C33.2056 32.1799 33.2056 32.6577 33.564 33.0161Z" fill="#0A3B3C"/>
    <path d="M37.8643 37.4357C38.2226 37.7941 38.8198 37.7941 39.1782 37.4357C39.5365 37.0774 39.5365 36.4801 39.1782 36.1218C38.8198 35.7634 38.2226 35.7634 37.8643 36.1218C37.5059 36.4801 37.5059 37.0774 37.8643 37.4357Z" fill="#0A3B3C"/>
    <path d="M37.8643 28.7159C38.2226 29.0742 38.8198 29.0742 39.1782 28.7159C39.5365 28.3575 39.5365 27.7603 39.1782 27.4019C38.8198 27.0436 38.2226 27.0436 37.8643 27.4019C37.5059 27.7603 37.5059 28.3575 37.8643 28.7159Z" fill="#0A3B3C"/>
    <path d="M42.1644 33.0161C42.5228 33.3744 43.12 33.3744 43.4783 33.0161C43.8367 32.6577 43.8367 32.0605 43.4783 31.7021C43.12 31.3438 42.5228 31.3438 42.1644 31.7021C41.8061 32.1799 41.8061 32.6577 42.1644 33.0161Z" fill="#0A3B3C"/>
    <path d="M29.1444 33.0161C29.5027 33.3744 30.0999 33.3744 30.4583 33.0161C30.8166 32.6577 30.8166 32.0605 30.4583 31.7021C30.0999 31.3438 29.5027 31.3438 29.1444 31.7021C28.786 32.1799 28.786 32.6577 29.1444 33.0161Z" fill="#0A3B3C"/>
    <path d="M33.564 28.7159C33.9223 29.0742 34.5197 29.0742 34.878 28.7159C35.2364 28.3575 35.2364 27.7603 34.878 27.4019C34.5197 27.0436 33.9223 27.0436 33.564 27.4019C33.2056 27.7603 33.2056 28.3575 33.564 28.7159Z" fill="#0A3B3C"/>
    <path d="M46.584 33.0161C46.9424 33.3744 47.5396 33.3744 47.8979 33.0161C48.2563 32.6577 48.2563 32.0605 47.8979 31.7021C47.5396 31.3438 46.9424 31.3438 46.584 31.7021C46.2257 32.0605 46.1062 32.6577 46.584 33.0161Z" fill="#0A3B3C"/>
    <path d="M42.1644 28.7159C42.5228 29.0742 43.12 29.0742 43.4783 28.7159C43.8367 28.3575 43.8367 27.7603 43.4783 27.4019C43.12 27.0436 42.5228 27.0436 42.1644 27.4019C41.8061 27.7603 41.8061 28.3575 42.1644 28.7159Z" fill="#0A3B3C"/>
    <path d="M37.8643 24.4157C38.2226 24.774 38.8198 24.774 39.1782 24.4157C39.5365 24.0573 39.5365 23.4601 39.1782 23.1018C38.8198 22.7434 38.2226 22.7434 37.8643 23.1018C37.5059 23.4601 37.5059 24.0573 37.8643 24.4157Z" fill="#0A3B3C"/>
    <path d="M29.1444 50.4557C29.5027 50.8141 30.0999 50.8141 30.4583 50.4557C30.8166 50.0974 30.8166 49.5001 30.4583 49.1418C30.0999 48.7834 29.5027 48.7834 29.1444 49.1418C28.786 49.5001 28.786 50.0974 29.1444 50.4557Z" fill="#0A3B3C"/>
    <path d="M24.8442 46.0361C25.2026 46.3944 25.7998 46.3944 26.1581 46.0361C26.5165 45.6777 26.5165 45.0805 26.1581 44.7221C25.7998 44.3638 25.2026 44.3638 24.8442 44.7221C24.4859 45.0805 24.4859 45.6777 24.8442 46.0361Z" fill="#0A3B3C"/>
    <path d="M33.564 46.0361C33.9223 46.3944 34.5197 46.3944 34.878 46.0361C35.2364 45.6777 35.2364 45.0805 34.878 44.7221C34.5197 44.3638 33.9223 44.3638 33.564 44.7221C33.2056 45.0805 33.2056 45.6777 33.564 46.0361Z" fill="#0A3B3C"/>
    <path d="M29.1444 41.7359C29.5027 42.0942 30.0999 42.0942 30.4583 41.7359C30.8166 41.3775 30.8166 40.7803 30.4583 40.4219C30.0999 40.0636 29.5027 40.0636 29.1444 40.4219C28.786 40.7803 28.786 41.3775 29.1444 41.7359Z" fill="#0A3B3C"/>
    <path d="M24.8442 41.7359C25.2026 42.0942 25.7998 42.0942 26.1581 41.7359C26.5165 41.3775 26.5165 40.7803 26.1581 40.4219C25.7998 40.0636 25.2026 40.0636 24.8442 40.4219C24.4859 40.7803 24.4859 41.3775 24.8442 41.7359Z" fill="#0A3B3C"/>
    <path d="M29.1444 46.0361C29.5027 46.3944 30.0999 46.3944 30.4583 46.0361C30.8166 45.6777 30.8166 45.0805 30.4583 44.7221C30.0999 44.3638 29.5027 44.3638 29.1444 44.7221C28.786 45.0805 28.786 45.6777 29.1444 46.0361Z" fill="#0A3B3C"/>
    <path d="M29.1444 37.4357C29.5027 37.7941 30.0999 37.7941 30.4583 37.4357C30.8166 37.0774 30.8166 36.4801 30.4583 36.1218C30.0999 35.7634 29.5027 35.7634 29.1444 36.1218C28.786 36.4801 28.786 37.0774 29.1444 37.4357Z" fill="#0A3B3C"/>
    <path d="M33.564 41.7359C33.9223 42.0942 34.5197 42.0942 34.878 41.7359C35.2364 41.3775 35.2364 40.7803 34.878 40.4219C34.5197 40.0636 33.9223 40.0636 33.564 40.4219C33.2056 40.7803 33.2056 41.3775 33.564 41.7359Z" fill="#0A3B3C"/>
    <path d="M20.5441 41.7359C20.9024 42.0942 21.4996 42.0942 21.858 41.7359C22.2163 41.3775 22.2163 40.7803 21.858 40.4219C21.4996 40.0636 20.9024 40.0636 20.5441 40.4219C20.1857 40.7803 20.1857 41.3775 20.5441 41.7359Z" fill="#0A3B3C"/>
    <path d="M24.8442 37.4357C25.2026 37.7941 25.7998 37.7941 26.1581 37.4357C26.5165 37.0774 26.5165 36.4801 26.1581 36.1218C25.7998 35.7634 25.2026 35.7634 24.8442 36.1218C24.4859 36.4801 24.4859 37.0774 24.8442 37.4357Z" fill="#0A3B3C"/>
    <path d="M37.8643 41.7359C38.2226 42.0942 38.8198 42.0942 39.1782 41.7359C39.5365 41.3775 39.5365 40.7803 39.1782 40.4219C38.8198 40.0636 38.2226 40.0636 37.8643 40.4219C37.5059 40.7803 37.5059 41.3775 37.8643 41.7359Z" fill="#0A3B3C"/>
    <path d="M33.564 37.4357C33.9223 37.7941 34.5197 37.7941 34.878 37.4357C35.2364 37.0774 35.2364 36.4801 34.878 36.1218C34.5197 35.7634 33.9223 35.7634 33.564 36.1218C33.2056 36.4801 33.2056 37.0774 33.564 37.4357Z" fill="#0A3B3C"/>
    <path d="M29.1444 33.0161C29.5027 33.3744 30.0999 33.3744 30.4583 33.0161C30.8166 32.6577 30.8166 32.0605 30.4583 31.7021C30.0999 31.3438 29.5027 31.3438 29.1444 31.7021C28.786 32.1799 28.786 32.6577 29.1444 33.0161Z" fill="#0A3B3C"/>
    <path d="M20.5441 59.0561C20.9024 59.4144 21.4996 59.4144 21.858 59.0561C22.2163 58.6977 22.2163 58.1005 21.858 57.7421C21.4996 57.3838 20.9024 57.3838 20.5441 57.7421C20.1857 58.1005 20.1857 58.6977 20.5441 59.0561Z" fill="#0A3B3C"/>
    <path d="M16.1243 54.7559C16.4827 55.1142 17.0799 55.1142 17.4383 54.7559C17.7966 54.3975 17.7966 53.8003 17.4383 53.442C17.0799 53.0836 16.4827 53.0836 16.1243 53.442C15.766 53.8003 15.766 54.3975 16.1243 54.7559Z" fill="#0A3B3C"/>
    <path d="M24.8442 54.7559C25.2026 55.1142 25.7998 55.1142 26.1581 54.7559C26.5165 54.3975 26.5165 53.8003 26.1581 53.442C25.7998 53.0836 25.2026 53.0836 24.8442 53.442C24.4859 53.8003 24.4859 54.3975 24.8442 54.7559Z" fill="#0A3B3C"/>
    <path d="M20.5441 50.4557C20.9024 50.8141 21.4996 50.8141 21.858 50.4557C22.2163 50.0974 22.2163 49.5001 21.858 49.1418C21.4996 48.7834 20.9024 48.7834 20.5441 49.1418C20.1857 49.5001 20.1857 50.0974 20.5441 50.4557Z" fill="#0A3B3C"/>
    <path d="M16.1243 50.4557C16.4827 50.8141 17.0799 50.8141 17.4383 50.4557C17.7966 50.0974 17.7966 49.5001 17.4383 49.1418C17.0799 48.7834 16.4827 48.7834 16.1243 49.1418C15.766 49.5001 15.766 50.0974 16.1243 50.4557Z" fill="#0A3B3C"/>
    <path d="M20.5441 54.7559C20.9024 55.1142 21.4996 55.1142 21.858 54.7559C22.2163 54.3975 22.2163 53.8003 21.858 53.442C21.4996 53.0836 20.9024 53.0836 20.5441 53.442C20.1857 53.8003 20.1857 54.3975 20.5441 54.7559Z" fill="#0A3B3C"/>
    <path d="M20.5441 46.0361C20.9024 46.3944 21.4996 46.3944 21.858 46.0361C22.2163 45.6777 22.2163 45.0805 21.858 44.7221C21.4996 44.3638 20.9024 44.3638 20.5441 44.7221C20.1857 45.0805 20.1857 45.6777 20.5441 46.0361Z" fill="#0A3B3C"/>
    <path d="M24.8442 50.4557C25.2026 50.8141 25.7998 50.8141 26.1581 50.4557C26.5165 50.0974 26.5165 49.5001 26.1581 49.1418C25.7998 48.7834 25.2026 48.7834 24.8442 49.1418C24.4859 49.5001 24.4859 50.0974 24.8442 50.4557Z" fill="#0A3B3C"/>
    <path d="M11.8242 50.4557C12.1825 50.8141 12.7797 50.8141 13.1381 50.4557C13.4964 50.0974 13.4964 49.5001 13.1381 49.1418C12.7797 48.7834 12.1825 48.7834 11.8242 49.1418C11.4658 49.5001 11.4658 50.0974 11.8242 50.4557Z" fill="#0A3B3C"/>
    <path d="M16.1243 46.0361C16.4827 46.3944 17.0799 46.3944 17.4383 46.0361C17.7966 45.6777 17.7966 45.0805 17.4383 44.7221C17.0799 44.3638 16.4827 44.3638 16.1243 44.7221C15.766 45.0805 15.766 45.6777 16.1243 46.0361Z" fill="#0A3B3C"/>
    <path d="M29.1444 50.4557C29.5027 50.8141 30.0999 50.8141 30.4583 50.4557C30.8166 50.0974 30.8166 49.5001 30.4583 49.1418C30.0999 48.7834 29.5027 48.7834 29.1444 49.1418C28.786 49.5001 28.786 50.0974 29.1444 50.4557Z" fill="#0A3B3C"/>
    <path d="M24.8442 46.0361C25.2026 46.3944 25.7998 46.3944 26.1581 46.0361C26.5165 45.6777 26.5165 45.0805 26.1581 44.7221C25.7998 44.3638 25.2026 44.3638 24.8442 44.7221C24.4859 45.0805 24.4859 45.6777 24.8442 46.0361Z" fill="#0A3B3C"/>
    <path d="M20.5441 41.7359C20.9024 42.0942 21.4996 42.0942 21.858 41.7359C22.2163 41.3775 22.2163 40.7803 21.858 40.4219C21.4996 40.0636 20.9024 40.0636 20.5441 40.4219C20.1857 40.7803 20.1857 41.3775 20.5441 41.7359Z" fill="#0A3B3C"/>
    <path d="M46.584 15.6959C46.9424 16.0542 47.5396 16.0542 47.8979 15.6959C48.2563 15.3375 48.2563 14.7403 47.8979 14.3819C47.5396 14.0236 46.9424 14.0236 46.584 14.3819C46.2257 14.7403 46.1062 15.3375 46.584 15.6959Z" fill="#0A3B3C"/>
    <path d="M42.1644 11.3957C42.5228 11.754 43.12 11.754 43.4783 11.3957C43.8367 11.0373 43.8367 10.4401 43.4783 10.0817C43.12 9.72339 42.5228 9.72339 42.1644 10.0817C41.8061 10.4401 41.8061 11.0373 42.1644 11.3957Z" fill="#0A3B3C"/>
    <path d="M50.8841 11.3957C51.2425 11.754 51.8399 11.754 52.1982 11.3957C52.5566 11.0373 52.5566 10.4401 52.1982 10.0817C51.8399 9.72339 51.2425 9.72339 50.8841 10.0817C50.5258 10.4401 50.5258 11.0373 50.8841 11.3957Z" fill="#0A3B3C"/>
    <path d="M46.5839 7.0955C46.9423 7.45385 47.5395 7.45385 47.8978 7.0955C48.2562 6.73715 48.2562 6.1399 47.8978 5.78156C47.5395 5.42321 46.9423 5.42321 46.5839 5.78156C46.1061 6.1399 46.1061 6.73715 46.5839 7.0955Z" fill="#0A3B3C"/>
    <path d="M42.1644 7.0955C42.5228 7.45385 43.12 7.45385 43.4783 7.0955C43.8367 6.73715 43.8367 6.1399 43.4783 5.78156C43.12 5.42321 42.5228 5.42321 42.1644 5.78156C41.8061 6.1399 41.8061 6.73715 42.1644 7.0955Z" fill="#0A3B3C"/>
    <path d="M46.5839 11.3957C46.9423 11.754 47.5395 11.754 47.8978 11.3957C48.2562 11.0373 48.2562 10.4401 47.8978 10.0817C47.5395 9.72339 46.9423 9.72339 46.5839 10.0817C46.1061 10.4401 46.1061 11.0373 46.5839 11.3957Z" fill="#0A3B3C"/>
    <path d="M46.5839 2.67587C46.9423 3.03422 47.5395 3.03422 47.8978 2.67587C48.2562 2.31752 48.2562 1.72026 47.8978 1.36192C47.5395 1.00357 46.9423 1.00357 46.5839 1.36192C46.1061 1.83971 46.1061 2.31752 46.5839 2.67587Z" fill="#0A3B3C"/>
    <path d="M50.8841 7.0955C51.2425 7.45385 51.8399 7.45385 52.1982 7.0955C52.5566 6.73715 52.5566 6.1399 52.1982 5.78156C51.8399 5.42321 51.2425 5.42321 50.8841 5.78156C50.5258 6.1399 50.5258 6.73715 50.8841 7.0955Z" fill="#0A3B3C"/>
    <path d="M37.8643 7.0955C38.2226 7.45385 38.8198 7.45385 39.1782 7.0955C39.5365 6.73715 39.5365 6.1399 39.1782 5.78156C38.8198 5.42321 38.2226 5.42321 37.8643 5.78156C37.5059 6.1399 37.5059 6.73715 37.8643 7.0955Z" fill="#0A3B3C"/>
    <path d="M42.1644 2.67587C42.5228 3.03422 43.12 3.03422 43.4783 2.67587C43.8367 2.31752 43.8367 1.72026 43.4783 1.36192C43.12 1.00357 42.5228 1.00357 42.1644 1.36192C41.8061 1.83971 41.8061 2.31752 42.1644 2.67587Z" fill="#0A3B3C"/>
    <path d="M55.1845 7.0955C55.5428 7.45385 56.14 7.45385 56.4984 7.0955C56.8567 6.73715 56.8567 6.1399 56.4984 5.78156C56.14 5.42321 55.5428 5.42321 55.1845 5.78156C54.8261 6.1399 54.8261 6.73715 55.1845 7.0955Z" fill="#0A3B3C"/>
    <path d="M50.8841 2.67587C51.2425 3.03422 51.8399 3.03422 52.1982 2.67587C52.5566 2.31752 52.5566 1.72026 52.1982 1.36192C51.8399 1.00357 51.2425 1.00357 50.8841 1.36192C50.5258 1.83971 50.5258 2.31752 50.8841 2.67587Z" fill="#0A3B3C"/>
    <path d="M46.584 -1.62433C46.9424 -1.26598 47.5396 -1.26598 47.8979 -1.62433C48.2563 -1.98267 48.2563 -2.57992 47.8979 -2.93827C47.5396 -3.29662 46.9424 -3.29662 46.584 -2.93827C46.2257 -2.57992 46.1062 -1.98267 46.584 -1.62433Z" fill="#0A3B3C"/>
    <path d="M37.8643 24.4157C38.2226 24.774 38.8198 24.774 39.1782 24.4157C39.5365 24.0573 39.5365 23.4601 39.1782 23.1018C38.8198 22.7434 38.2226 22.7434 37.8643 23.1018C37.5059 23.4601 37.5059 24.0573 37.8643 24.4157Z" fill="#0A3B3C"/>
    <path d="M33.564 20.1155C33.9223 20.4739 34.5197 20.4739 34.878 20.1155C35.2364 19.7572 35.2364 19.1599 34.878 18.8016C34.5197 18.4432 33.9223 18.4432 33.564 18.8016C33.2056 19.1599 33.2056 19.7572 33.564 20.1155Z" fill="#0A3B3C"/>
    <path d="M42.1644 20.1155C42.5228 20.4739 43.12 20.4739 43.4783 20.1155C43.8367 19.7572 43.8367 19.1599 43.4783 18.8016C43.12 18.4432 42.5228 18.4432 42.1644 18.8016C41.8061 19.1599 41.8061 19.7572 42.1644 20.1155Z" fill="#0A3B3C"/>
    <path d="M37.8643 15.6959C38.2226 16.0542 38.8198 16.0542 39.1782 15.6959C39.5365 15.3375 39.5365 14.7403 39.1782 14.3819C38.8198 14.0236 38.2226 14.0236 37.8643 14.3819C37.5059 14.7403 37.5059 15.3375 37.8643 15.6959Z" fill="#0A3B3C"/>
    <path d="M33.564 15.6959C33.9223 16.0542 34.5197 16.0542 34.878 15.6959C35.2364 15.3375 35.2364 14.7403 34.878 14.3819C34.5197 14.0236 33.9223 14.0236 33.564 14.3819C33.2056 14.7403 33.2056 15.3375 33.564 15.6959Z" fill="#0A3B3C"/>
    <path d="M37.8643 20.1155C38.2226 20.4739 38.8198 20.4739 39.1782 20.1155C39.5365 19.7572 39.5365 19.1599 39.1782 18.8016C38.8198 18.4432 38.2226 18.4432 37.8643 18.8016C37.5059 19.1599 37.5059 19.7572 37.8643 20.1155Z" fill="#0A3B3C"/>
    <path d="M37.8643 11.3957C38.2226 11.754 38.8198 11.754 39.1782 11.3957C39.5365 11.0373 39.5365 10.4401 39.1782 10.0817C38.8198 9.72339 38.2226 9.72339 37.8643 10.0817C37.5059 10.4401 37.5059 11.0373 37.8643 11.3957Z" fill="#0A3B3C"/>
    <path d="M42.1644 15.6959C42.5228 16.0542 43.12 16.0542 43.4783 15.6959C43.8367 15.3375 43.8367 14.7403 43.4783 14.3819C43.12 14.0236 42.5228 14.0236 42.1644 14.3819C41.8061 14.7403 41.8061 15.3375 42.1644 15.6959Z" fill="#0A3B3C"/>
    <path d="M29.1444 15.6959C29.5027 16.0542 30.0999 16.0542 30.4583 15.6959C30.8166 15.3375 30.8166 14.7403 30.4583 14.3819C30.0999 14.0236 29.5027 14.0236 29.1444 14.3819C28.786 14.7403 28.786 15.3375 29.1444 15.6959Z" fill="#0A3B3C"/>
    <path d="M33.564 11.3957C33.9223 11.754 34.5197 11.754 34.878 11.3957C35.2364 11.0373 35.2364 10.4401 34.878 10.0817C34.5197 9.72339 33.9223 9.72339 33.564 10.0817C33.2056 10.4401 33.2056 11.0373 33.564 11.3957Z" fill="#0A3B3C"/>
    <path d="M46.584 15.6959C46.9424 16.0542 47.5396 16.0542 47.8979 15.6959C48.2563 15.3375 48.2563 14.7403 47.8979 14.3819C47.5396 14.0236 46.9424 14.0236 46.584 14.3819C46.2257 14.7403 46.1062 15.3375 46.584 15.6959Z" fill="#0A3B3C"/>
    <path d="M42.1644 11.3957C42.5228 11.754 43.12 11.754 43.4783 11.3957C43.8367 11.0373 43.8367 10.4401 43.4783 10.0817C43.12 9.72339 42.5228 9.72339 42.1644 10.0817C41.8061 10.4401 41.8061 11.0373 42.1644 11.3957Z" fill="#0A3B3C"/>
    <path d="M37.8643 7.0955C38.2226 7.45385 38.8198 7.45385 39.1782 7.0955C39.5365 6.73715 39.5365 6.1399 39.1782 5.78156C38.8198 5.42321 38.2226 5.42321 37.8643 5.78156C37.5059 6.1399 37.5059 6.73715 37.8643 7.0955Z" fill="#0A3B3C"/>
    <path d="M29.1444 33.0161C29.5027 33.3744 30.0999 33.3744 30.4583 33.0161C30.8166 32.6577 30.8166 32.0605 30.4583 31.7021C30.0999 31.3438 29.5027 31.3438 29.1444 31.7021C28.786 32.1799 28.786 32.6577 29.1444 33.0161Z" fill="#0A3B3C"/>
    <path d="M24.8442 28.7159C25.2026 29.0742 25.7998 29.0742 26.1581 28.7159C26.5165 28.3575 26.5165 27.7603 26.1581 27.4019C25.7998 27.0436 25.2026 27.0436 24.8442 27.4019C24.4859 27.7603 24.4859 28.3575 24.8442 28.7159Z" fill="#0A3B3C"/>
    <path d="M33.564 28.7159C33.9223 29.0742 34.5197 29.0742 34.878 28.7159C35.2364 28.3575 35.2364 27.7603 34.878 27.4019C34.5197 27.0436 33.9223 27.0436 33.564 27.4019C33.2056 27.7603 33.2056 28.3575 33.564 28.7159Z" fill="#0A3B3C"/>
    <path d="M29.1444 24.4157C29.5027 24.774 30.0999 24.774 30.4583 24.4157C30.8166 24.0573 30.8166 23.4601 30.4583 23.1018C30.0999 22.7434 29.5027 22.7434 29.1444 23.1018C28.786 23.4601 28.786 24.0573 29.1444 24.4157Z" fill="#0A3B3C"/>
    <path d="M24.8442 24.4157C25.2026 24.774 25.7998 24.774 26.1581 24.4157C26.5165 24.0573 26.5165 23.4601 26.1581 23.1018C25.7998 22.7434 25.2026 22.7434 24.8442 23.1018C24.4859 23.4601 24.4859 24.0573 24.8442 24.4157Z" fill="#0A3B3C"/>
    <path d="M29.1444 28.7159C29.5027 29.0742 30.0999 29.0742 30.4583 28.7159C30.8166 28.3575 30.8166 27.7603 30.4583 27.4019C30.0999 27.0436 29.5027 27.0436 29.1444 27.4019C28.786 27.7603 28.786 28.3575 29.1444 28.7159Z" fill="#0A3B3C"/>
    <path d="M29.1444 20.1155C29.5027 20.4739 30.0999 20.4739 30.4583 20.1155C30.8166 19.7572 30.8166 19.1599 30.4583 18.8016C30.0999 18.4432 29.5027 18.4432 29.1444 18.8016C28.786 19.1599 28.786 19.7572 29.1444 20.1155Z" fill="#0A3B3C"/>
    <path d="M33.564 24.4157C33.9223 24.774 34.5197 24.774 34.878 24.4157C35.2364 24.0573 35.2364 23.4601 34.878 23.1018C34.5197 22.7434 33.9223 22.7434 33.564 23.1018C33.2056 23.4601 33.2056 24.0573 33.564 24.4157Z" fill="#0A3B3C"/>
    <path d="M20.5441 24.4157C20.9024 24.774 21.4996 24.774 21.858 24.4157C22.2163 24.0573 22.2163 23.4601 21.858 23.1018C21.4996 22.7434 20.9024 22.7434 20.5441 23.1018C20.1857 23.4601 20.1857 24.0573 20.5441 24.4157Z" fill="#0A3B3C"/>
    <path d="M24.8442 20.1155C25.2026 20.4739 25.7998 20.4739 26.1581 20.1155C26.5165 19.7572 26.5165 19.1599 26.1581 18.8016C25.7998 18.4432 25.2026 18.4432 24.8442 18.8016C24.4859 19.1599 24.4859 19.7572 24.8442 20.1155Z" fill="#0A3B3C"/>
    <path d="M37.8643 24.4157C38.2226 24.774 38.8198 24.774 39.1782 24.4157C39.5365 24.0573 39.5365 23.4601 39.1782 23.1018C38.8198 22.7434 38.2226 22.7434 37.8643 23.1018C37.5059 23.4601 37.5059 24.0573 37.8643 24.4157Z" fill="#0A3B3C"/>
    <path d="M33.564 20.1155C33.9223 20.4739 34.5197 20.4739 34.878 20.1155C35.2364 19.7572 35.2364 19.1599 34.878 18.8016C34.5197 18.4432 33.9223 18.4432 33.564 18.8016C33.2056 19.1599 33.2056 19.7572 33.564 20.1155Z" fill="#0A3B3C"/>
    <path d="M29.1444 15.6959C29.5027 16.0542 30.0999 16.0542 30.4583 15.6959C30.8166 15.3375 30.8166 14.7403 30.4583 14.3819C30.0999 14.0236 29.5027 14.0236 29.1444 14.3819C28.786 14.7403 28.786 15.3375 29.1444 15.6959Z" fill="#0A3B3C"/>
    <path d="M20.5441 41.7359C20.9024 42.0942 21.4996 42.0942 21.858 41.7359C22.2163 41.3775 22.2163 40.7803 21.858 40.4219C21.4996 40.0636 20.9024 40.0636 20.5441 40.4219C20.1857 40.7803 20.1857 41.3775 20.5441 41.7359Z" fill="#0A3B3C"/>
    <path d="M16.1243 37.4357C16.4827 37.7941 17.0799 37.7941 17.4383 37.4357C17.7966 37.0774 17.7966 36.4801 17.4383 36.1218C17.0799 35.7634 16.4827 35.7634 16.1243 36.1218C15.766 36.4801 15.766 37.0774 16.1243 37.4357Z" fill="#0A3B3C"/>
    <path d="M24.8442 37.4357C25.2026 37.7941 25.7998 37.7941 26.1581 37.4357C26.5165 37.0774 26.5165 36.4801 26.1581 36.1218C25.7998 35.7634 25.2026 35.7634 24.8442 36.1218C24.4859 36.4801 24.4859 37.0774 24.8442 37.4357Z" fill="#0A3B3C"/>
    <path d="M20.5441 33.0161C20.9024 33.3744 21.4996 33.3744 21.858 33.0161C22.2163 32.6577 22.2163 32.0605 21.858 31.7021C21.4996 31.3438 20.9024 31.3438 20.5441 31.7021C20.1857 32.1799 20.1857 32.6577 20.5441 33.0161Z" fill="#0A3B3C"/>
    <path d="M16.1243 33.0161C16.4827 33.3744 17.0799 33.3744 17.4383 33.0161C17.7966 32.6577 17.7966 32.0605 17.4383 31.7021C17.0799 31.3438 16.4827 31.3438 16.1243 31.7021C15.766 32.1799 15.766 32.6577 16.1243 33.0161Z" fill="#0A3B3C"/>
    <path d="M20.5441 37.4357C20.9024 37.7941 21.4996 37.7941 21.858 37.4357C22.2163 37.0774 22.2163 36.4801 21.858 36.1218C21.4996 35.7634 20.9024 35.7634 20.5441 36.1218C20.1857 36.4801 20.1857 37.0774 20.5441 37.4357Z" fill="#0A3B3C"/>
    <path d="M20.5441 28.7159C20.9024 29.0742 21.4996 29.0742 21.858 28.7159C22.2163 28.3575 22.2163 27.7603 21.858 27.4019C21.4996 27.0436 20.9024 27.0436 20.5441 27.4019C20.1857 27.7603 20.1857 28.3575 20.5441 28.7159Z" fill="#0A3B3C"/>
    <path d="M24.8442 33.0161C25.2026 33.3744 25.7998 33.3744 26.1581 33.0161C26.5165 32.6577 26.5165 32.0605 26.1581 31.7021C25.7998 31.3438 25.2026 31.3438 24.8442 31.7021C24.4859 32.1799 24.4859 32.6577 24.8442 33.0161Z" fill="#0A3B3C"/>
    <path d="M11.8242 33.0161C12.1825 33.3744 12.7797 33.3744 13.1381 33.0161C13.4964 32.6577 13.4964 32.0605 13.1381 31.7021C12.7797 31.3438 12.1825 31.3438 11.8242 31.7021C11.4658 32.1799 11.4658 32.6577 11.8242 33.0161Z" fill="#0A3B3C"/>
    <path d="M16.1243 28.7159C16.4827 29.0742 17.0799 29.0742 17.4383 28.7159C17.7966 28.3575 17.7966 27.7603 17.4383 27.4019C17.0799 27.0436 16.4827 27.0436 16.1243 27.4019C15.766 27.7603 15.766 28.3575 16.1243 28.7159Z" fill="#0A3B3C"/>
    <path d="M29.1444 33.0161C29.5027 33.3744 30.0999 33.3744 30.4583 33.0161C30.8166 32.6577 30.8166 32.0605 30.4583 31.7021C30.0999 31.3438 29.5027 31.3438 29.1444 31.7021C28.786 32.1799 28.786 32.6577 29.1444 33.0161Z" fill="#0A3B3C"/>
    <path d="M24.8442 28.7159C25.2026 29.0742 25.7998 29.0742 26.1581 28.7159C26.5165 28.3575 26.5165 27.7603 26.1581 27.4019C25.7998 27.0436 25.2026 27.0436 24.8442 27.4019C24.4859 27.7603 24.4859 28.3575 24.8442 28.7159Z" fill="#0A3B3C"/>
    <path d="M20.5441 24.4157C20.9024 24.774 21.4996 24.774 21.858 24.4157C22.2163 24.0573 22.2163 23.4601 21.858 23.1018C21.4996 22.7434 20.9024 22.7434 20.5441 23.1018C20.1857 23.4601 20.1857 24.0573 20.5441 24.4157Z" fill="#0A3B3C"/>
    <path d="M29.1444 15.6959C29.5027 16.0542 30.0999 16.0542 30.4583 15.6959C30.8166 15.3375 30.8166 14.7403 30.4583 14.3819C30.0999 14.0236 29.5027 14.0236 29.1444 14.3819C28.786 14.7403 28.786 15.3375 29.1444 15.6959Z" fill="#0A3B3C"/>
    <path d="M24.8442 11.3957C25.2026 11.754 25.7998 11.754 26.1581 11.3957C26.5165 11.0373 26.5165 10.4401 26.1581 10.0817C25.7998 9.72339 25.2026 9.72339 24.8442 10.0817C24.4859 10.4401 24.4859 11.0373 24.8442 11.3957Z" fill="#0A3B3C"/>
    <path d="M33.564 11.3957C33.9223 11.754 34.5197 11.754 34.878 11.3957C35.2364 11.0373 35.2364 10.4401 34.878 10.0817C34.5197 9.72339 33.9223 9.72339 33.564 10.0817C33.2056 10.4401 33.2056 11.0373 33.564 11.3957Z" fill="#0A3B3C"/>
    <path d="M29.1444 7.0955C29.5027 7.45385 30.0999 7.45385 30.4583 7.0955C30.8166 6.73715 30.8166 6.1399 30.4583 5.78156C30.0999 5.42321 29.5027 5.42321 29.1444 5.78156C28.786 6.1399 28.786 6.73715 29.1444 7.0955Z" fill="#0A3B3C"/>
    <path d="M24.8442 7.0955C25.2026 7.45385 25.7998 7.45385 26.1581 7.0955C26.5165 6.73715 26.5165 6.1399 26.1581 5.78156C25.7998 5.42321 25.2026 5.42321 24.8442 5.78156C24.4859 6.1399 24.4859 6.73715 24.8442 7.0955Z" fill="#0A3B3C"/>
    <path d="M29.1444 11.3957C29.5027 11.754 30.0999 11.754 30.4583 11.3957C30.8166 11.0373 30.8166 10.4401 30.4583 10.0817C30.0999 9.72339 29.5027 9.72339 29.1444 10.0817C28.786 10.4401 28.786 11.0373 29.1444 11.3957Z" fill="#0A3B3C"/>
    <path d="M29.1444 2.67587C29.5027 3.03422 30.0999 3.03422 30.4583 2.67587C30.8166 2.31752 30.8166 1.72026 30.4583 1.36192C30.0999 1.00357 29.5027 1.00357 29.1444 1.36192C28.786 1.83971 28.786 2.31752 29.1444 2.67587Z" fill="#0A3B3C"/>
    <path d="M33.564 7.0955C33.9223 7.45385 34.5197 7.45385 34.878 7.0955C35.2364 6.73715 35.2364 6.1399 34.878 5.78156C34.5197 5.42321 33.9223 5.42321 33.564 5.78156C33.2056 6.1399 33.2056 6.73715 33.564 7.0955Z" fill="#0A3B3C"/>
    <path d="M20.5441 7.0955C20.9024 7.45385 21.4996 7.45385 21.858 7.0955C22.2163 6.73715 22.2163 6.1399 21.858 5.78156C21.4996 5.42321 20.9024 5.42321 20.5441 5.78156C20.1857 6.1399 20.1857 6.73715 20.5441 7.0955Z" fill="#0A3B3C"/>
    <path d="M24.8442 2.67587C25.2026 3.03422 25.7998 3.03422 26.1581 2.67587C26.5165 2.31752 26.5165 1.72026 26.1581 1.36192C25.7998 1.00357 25.2026 1.00357 24.8442 1.36192C24.4859 1.83971 24.4859 2.31752 24.8442 2.67587Z" fill="#0A3B3C"/>
    <path d="M37.8643 7.0955C38.2226 7.45385 38.8198 7.45385 39.1782 7.0955C39.5365 6.73715 39.5365 6.1399 39.1782 5.78156C38.8198 5.42321 38.2226 5.42321 37.8643 5.78156C37.5059 6.1399 37.5059 6.73715 37.8643 7.0955Z" fill="#0A3B3C"/>
    <path d="M33.564 2.67587C33.9223 3.03422 34.5197 3.03422 34.878 2.67587C35.2364 2.31752 35.2364 1.72026 34.878 1.36192C34.5197 1.00357 33.9223 1.00357 33.564 1.36192C33.2056 1.83971 33.2056 2.31752 33.564 2.67587Z" fill="#0A3B3C"/>
    <path d="M29.1444 -1.62433C29.5027 -1.26598 30.0999 -1.26598 30.4583 -1.62433C30.8166 -1.98267 30.8166 -2.57992 30.4583 -2.93827C30.0999 -3.29662 29.5027 -3.29662 29.1444 -2.93827C28.786 -2.57992 28.786 -1.98267 29.1444 -1.62433Z" fill="#0A3B3C"/>
    <path d="M20.5441 24.4157C20.9024 24.774 21.4996 24.774 21.858 24.4157C22.2163 24.0573 22.2163 23.4601 21.858 23.1018C21.4996 22.7434 20.9024 22.7434 20.5441 23.1018C20.1857 23.4601 20.1857 24.0573 20.5441 24.4157Z" fill="#0A3B3C"/>
    <path d="M16.1243 20.1155C16.4827 20.4739 17.0799 20.4739 17.4383 20.1155C17.7966 19.7572 17.7966 19.1599 17.4383 18.8016C17.0799 18.4432 16.4827 18.4432 16.1243 18.8016C15.766 19.1599 15.766 19.7572 16.1243 20.1155Z" fill="#0A3B3C"/>
    <path d="M24.8442 20.1155C25.2026 20.4739 25.7998 20.4739 26.1581 20.1155C26.5165 19.7572 26.5165 19.1599 26.1581 18.8016C25.7998 18.4432 25.2026 18.4432 24.8442 18.8016C24.4859 19.1599 24.4859 19.7572 24.8442 20.1155Z" fill="#0A3B3C"/>
    <path d="M20.5441 15.6959C20.9024 16.0542 21.4996 16.0542 21.858 15.6959C22.2163 15.3375 22.2163 14.7403 21.858 14.3819C21.4996 14.0236 20.9024 14.0236 20.5441 14.3819C20.1857 14.7403 20.1857 15.3375 20.5441 15.6959Z" fill="#0A3B3C"/>
    <path d="M16.1243 15.6959C16.4827 16.0542 17.0799 16.0542 17.4383 15.6959C17.7966 15.3375 17.7966 14.7403 17.4383 14.3819C17.0799 14.0236 16.4827 14.0236 16.1243 14.3819C15.766 14.7403 15.766 15.3375 16.1243 15.6959Z" fill="#0A3B3C"/>
    <path d="M20.5441 20.1155C20.9024 20.4739 21.4996 20.4739 21.858 20.1155C22.2163 19.7572 22.2163 19.1599 21.858 18.8016C21.4996 18.4432 20.9024 18.4432 20.5441 18.8016C20.1857 19.1599 20.1857 19.7572 20.5441 20.1155Z" fill="#0A3B3C"/>
    <path d="M20.5441 11.3957C20.9024 11.754 21.4996 11.754 21.858 11.3957C22.2163 11.0373 22.2163 10.4401 21.858 10.0817C21.4996 9.72339 20.9024 9.72339 20.5441 10.0817C20.1857 10.4401 20.1857 11.0373 20.5441 11.3957Z" fill="#0A3B3C"/>
    <path d="M24.8442 15.6959C25.2026 16.0542 25.7998 16.0542 26.1581 15.6959C26.5165 15.3375 26.5165 14.7403 26.1581 14.3819C25.7998 14.0236 25.2026 14.0236 24.8442 14.3819C24.4859 14.7403 24.4859 15.3375 24.8442 15.6959Z" fill="#0A3B3C"/>
    <path d="M11.8242 15.6959C12.1825 16.0542 12.7797 16.0542 13.1381 15.6959C13.4964 15.3375 13.4964 14.7403 13.1381 14.3819C12.7797 14.0236 12.1825 14.0236 11.8242 14.3819C11.4658 14.7403 11.4658 15.3375 11.8242 15.6959Z" fill="#0A3B3C"/>
    <path d="M16.1243 11.3957C16.4827 11.754 17.0799 11.754 17.4383 11.3957C17.7966 11.0373 17.7966 10.4401 17.4383 10.0817C17.0799 9.72339 16.4827 9.72339 16.1243 10.0817C15.766 10.4401 15.766 11.0373 16.1243 11.3957Z" fill="#0A3B3C"/>
    <path d="M29.1444 15.6959C29.5027 16.0542 30.0999 16.0542 30.4583 15.6959C30.8166 15.3375 30.8166 14.7403 30.4583 14.3819C30.0999 14.0236 29.5027 14.0236 29.1444 14.3819C28.786 14.7403 28.786 15.3375 29.1444 15.6959Z" fill="#0A3B3C"/>
    <path d="M24.8442 11.3957C25.2026 11.754 25.7998 11.754 26.1581 11.3957C26.5165 11.0373 26.5165 10.4401 26.1581 10.0817C25.7998 9.72339 25.2026 9.72339 24.8442 10.0817C24.4859 10.4401 24.4859 11.0373 24.8442 11.3957Z" fill="#0A3B3C"/>
    <path d="M20.5441 7.0955C20.9024 7.45385 21.4996 7.45385 21.858 7.0955C22.2163 6.73715 22.2163 6.1399 21.858 5.78156C21.4996 5.42321 20.9024 5.42321 20.5441 5.78156C20.1857 6.1399 20.1857 6.73715 20.5441 7.0955Z" fill="#0A3B3C"/>
  <rect x="30.811" y="15.3125" width="18.2615" height="36.5229" fill="white"/>
  </g>
  <path fill-rule="evenodd" clip-rule="evenodd" d="M30.811 15.6152L44.1266 20.6086V32.0521C44.1266 37.127 40.7615 41.2212 37.6497 43.944C36.0699 45.3264 34.4954 46.4082 33.3181 47.144C32.7283 47.5126 32.2352 47.7963 31.8869 47.9891C31.7127 48.0855 31.5745 48.1594 31.4783 48.2099C31.4302 48.2351 31.3925 48.2546 31.3662 48.2681L31.3351 48.2839L31.3261 48.2885L31.3232 48.2899C31.3228 48.2901 31.3214 48.2908 30.811 47.2699C30.3006 48.2908 30.3002 48.2906 30.2998 48.2904L30.296 48.2885L30.2869 48.2839L30.2558 48.2681C30.2295 48.2546 30.1918 48.2351 30.1437 48.2099C30.0476 48.1594 29.9093 48.0855 29.7351 47.9891C29.3868 47.7963 28.8937 47.5126 28.3039 47.144C27.1266 46.4082 25.5521 45.3264 23.9723 43.944C20.8605 41.2212 17.4954 37.127 17.4954 32.0521V20.6086L30.811 15.6152ZM30.811 47.2699L30.2998 48.2904L30.811 48.546L31.3214 48.2908L30.811 47.2699ZM30.811 45.9756C31.1271 45.8 31.5737 45.5424 32.1083 45.2083C33.2138 44.5174 34.6829 43.5068 36.1466 42.2261C39.122 39.6226 41.844 36.1079 41.844 32.0521V22.1905L30.811 18.0531L19.778 22.1905V32.0521C19.778 36.1079 22.5001 39.6226 25.4754 42.2261C26.9391 43.5068 28.4082 44.5174 29.5137 45.2083C30.0483 45.5424 30.495 45.8 30.811 45.9756Z" fill="#0B3B3C"/>
</svg>
