<svg width="62" height="62" viewBox="0 0 62 62" fill="none" xmlns="http://www.w3.org/2000/svg">
<path d="M32.3091 22.4594C32.3564 24.7881 32.1941 27.1164 31.8242 29.4165C31.1251 32.4834 28.0802 35.6832 27.5275 37.0872C24.5378 33.5751 14.107 29.6083 7.6979 32.9409C3.28757 35.764 2.41532 35.1722 2.92537 38.6441C3.26517 40.9572 6.33534 47.8375 8.25163 49.2166C11.9984 51.3942 9.77341 52.3219 18.1177 52.3219C23.0637 52.4451 26.6337 51.9356 28.1879 51.1644C30.7549 51.4904 36.1761 51.452 38.3908 49.2166C39.9105 47.6838 43.0149 38.8857 41.1539 29.5001C39.1783 19.5939 35.8833 11.252 32.3243 11.252C30.5808 11.252 27.7472 11.3095 26.425 12.3724C25.1029 13.4354 26.0534 16.6078 26.4679 17.042C26.0229 17.3965 25.7291 17.9044 25.6451 18.4642C25.5611 19.0241 25.6931 19.5947 26.0147 20.0623C27.0896 21.2742 28.4873 22.1611 30.0475 22.6211C30.8044 22.7274 31.5755 22.6723 32.3091 22.4594Z" fill="white"/>
<mask id="mask0" mask-type="alpha" maskUnits="userSpaceOnUse" x="27" y="23" width="8" height="19">
<path d="M31.0784 41.6872L27.2739 37.8828C29.7088 37.8828 31.8393 28.2448 32.6002 23.4258C36.8612 33.7739 33.3611 39.9118 31.0784 41.6872Z" fill="#C4C4C4"/>
</mask>
<g mask="url(#mask0)">
<rect width="18.9953" height="21.6442" transform="matrix(-0.955307 -0.295614 -0.295614 0.955307 42.5325 25.666)" fill="white"/>
<path d="M27.5488 38.0931C27.4126 38.1649 27.2393 38.1113 27.1675 37.9751C27.0957 37.839 27.1493 37.6657 27.2855 37.5938C27.4217 37.522 27.595 37.5757 27.6668 37.7118C27.7733 37.8587 27.7196 38.032 27.5488 38.0931Z" fill="#0A3B3C"/>
<path d="M27.672 42.234C27.5358 42.3058 27.3625 42.2522 27.2907 42.116C27.2189 41.9798 27.2725 41.8065 27.4087 41.7347C27.5448 41.6629 27.7182 41.7165 27.79 41.8527C27.851 42.0235 27.8081 42.1622 27.672 42.234Z" fill="#0A3B3C"/>
<path d="M28.0582 40.9859C27.922 41.0578 27.7487 41.0041 27.6769 40.868C27.6051 40.7318 27.6587 40.5585 27.7949 40.4867C27.9311 40.4148 28.1044 40.4685 28.1762 40.6046C28.248 40.7408 28.1944 40.9141 28.0582 40.9859Z" fill="#0A3B3C"/>
<path d="M27.162 39.3414C27.0258 39.4132 26.8525 39.3596 26.7807 39.2234C26.7089 39.0872 26.7625 38.9139 26.8987 38.8421C27.0348 38.7703 27.2081 38.8239 27.28 38.9601C27.3518 39.0963 27.2981 39.2696 27.162 39.3414Z" fill="#0A3B3C"/>
<path d="M29.307 41.3727C29.1708 41.4445 28.9975 41.3908 28.9257 41.2547C28.8539 41.1185 28.9075 40.9452 29.0437 40.8734C29.1799 40.8016 29.3532 40.8552 29.425 40.9914C29.4968 41.1275 29.4432 41.3008 29.307 41.3727Z" fill="#0A3B3C"/>
<path d="M28.4454 39.7379C28.3092 39.8097 28.1359 39.7561 28.0641 39.6199C27.9923 39.4837 28.0459 39.3104 28.1821 39.2386C28.3183 39.1668 28.4916 39.2204 28.5634 39.3566C28.6352 39.4928 28.5816 39.6661 28.4454 39.7379Z" fill="#0A3B3C"/>
<path d="M27.5488 38.0931C27.4126 38.1649 27.2393 38.1113 27.1675 37.9751C27.0957 37.839 27.1493 37.6657 27.2855 37.5938C27.4217 37.522 27.595 37.5757 27.6668 37.7118C27.7733 37.8587 27.7196 38.032 27.5488 38.0931Z" fill="#0A3B3C"/>
<path d="M27.391 29.7652C27.2548 29.837 27.0815 29.7834 27.0097 29.6472C26.9379 29.5111 26.9915 29.3378 27.1277 29.2659C27.2638 29.1941 27.4371 29.2478 27.509 29.3839C27.5808 29.5201 27.5271 29.6934 27.391 29.7652Z" fill="#0A3B3C"/>
<path d="M27.4701 33.9293C27.3339 34.0011 27.1605 33.9475 27.0887 33.8113C27.0169 33.6751 27.0706 33.5018 27.2067 33.43C27.3429 33.3582 27.5162 33.4118 27.5881 33.548C27.6599 33.6842 27.6062 33.8575 27.4701 33.9293Z" fill="#0A3B3C"/>
<path d="M27.867 32.6461C27.7309 32.7179 27.5575 32.6643 27.4857 32.5281C27.4139 32.3919 27.4675 32.2186 27.6037 32.1468C27.7399 32.075 27.9132 32.1286 27.985 32.2648C28.0461 32.4356 28.0032 32.5743 27.867 32.6461Z" fill="#0A3B3C"/>
<path d="M29.1143 33.0326C28.9782 33.1044 28.8048 33.0507 28.733 32.9146C28.6612 32.7784 28.7149 32.6051 28.851 32.5333C28.9872 32.4615 29.1605 32.5151 29.2323 32.6513C29.3041 32.7874 29.2852 32.9715 29.1143 33.0326Z" fill="#0A3B3C"/>
<path d="M28.2528 31.398C28.1166 31.4699 27.9433 31.4162 27.8714 31.28C27.7996 31.1439 27.8533 30.9706 27.9894 30.8987C28.1256 30.8269 28.299 30.8806 28.3708 31.0167C28.4426 31.1529 28.389 31.3262 28.2528 31.398Z" fill="#0A3B3C"/>
<path d="M27.391 29.7633C27.2548 29.8351 27.0815 29.7815 27.0097 29.6453C26.9379 29.5091 26.9915 29.3358 27.1277 29.264C27.2638 29.1922 27.4371 29.2458 27.509 29.382C27.5808 29.5182 27.5271 29.6915 27.391 29.7633Z" fill="#0A3B3C"/>
<path d="M27.5481 38.0931C27.4119 38.1649 27.2386 38.1113 27.1668 37.9751C27.095 37.839 27.1486 37.6657 27.2848 37.5938C27.4209 37.522 27.5943 37.5757 27.6661 37.7118C27.7725 37.8587 27.7189 38.032 27.5481 38.0931Z" fill="#0A3B3C"/>
<path d="M29.2276 37.2086C29.0915 37.2804 28.9182 37.2268 28.8463 37.0906C28.7745 36.9544 28.8282 36.7811 28.9643 36.7093C29.1005 36.6375 29.2738 36.6911 29.3456 36.8273C29.4174 36.9635 29.3638 37.1368 29.2276 37.2086Z" fill="#0A3B3C"/>
<path d="M28.3313 35.5638C28.1951 35.6356 28.0218 35.582 27.95 35.4458C27.8782 35.3097 27.9318 35.1364 28.068 35.0645C28.2041 34.9927 28.3775 35.0464 28.4493 35.1825C28.5557 35.3294 28.5021 35.5027 28.3313 35.5638Z" fill="#0A3B3C"/>
<path d="M29.6139 35.9605C29.4777 36.0324 29.3044 35.9787 29.2326 35.8426C29.1608 35.7064 29.2144 35.5331 29.3506 35.4613C29.4867 35.3894 29.66 35.4431 29.7319 35.5792C29.8037 35.7154 29.75 35.8887 29.6139 35.9605Z" fill="#0A3B3C"/>
<path d="M27.945 36.8119C27.8089 36.8837 27.6356 36.8301 27.5638 36.6939C27.4919 36.5577 27.5456 36.3844 27.6817 36.3126C27.8179 36.2408 27.9912 36.2944 28.063 36.4306C28.1695 36.5775 28.1159 36.7508 27.945 36.8119Z" fill="#0A3B3C"/>
<path d="M28.7175 34.3158C28.5813 34.3876 28.408 34.334 28.3362 34.1978C28.2644 34.0616 28.318 33.8883 28.4542 33.8165C28.5904 33.7447 28.7637 33.7983 28.8355 33.9345C28.942 34.0814 28.8883 34.2547 28.7175 34.3158Z" fill="#0A3B3C"/>
<path d="M27.0833 35.1773C26.9472 35.2492 26.7738 35.1955 26.702 35.0593C26.6302 34.9232 26.6838 34.7499 26.82 34.678C26.9562 34.6062 27.1295 34.6599 27.2013 34.796C27.2732 34.9322 27.2195 35.1055 27.0833 35.1773Z" fill="#0A3B3C"/>
<path d="M30.8612 36.3473C30.725 36.4191 30.5517 36.3654 30.4799 36.2293C30.4081 36.0931 30.4617 35.9198 30.5979 35.848C30.7341 35.7762 30.9074 35.8298 30.9792 35.966C31.051 36.1021 30.9974 36.2755 30.8612 36.3473Z" fill="#0A3B3C"/>
<path d="M29.9996 34.7125C29.8634 34.7843 29.6901 34.7307 29.6183 34.5945C29.5465 34.4583 29.6001 34.285 29.7363 34.2132C29.8725 34.1414 30.0458 34.195 30.1176 34.3312C30.1894 34.4674 30.1358 34.6407 29.9996 34.7125Z" fill="#0A3B3C"/>
<path d="M27.4696 33.9293C27.3334 34.0011 27.1601 33.9475 27.0882 33.8113C27.0164 33.6751 27.0701 33.5018 27.2062 33.43C27.3424 33.3582 27.5158 33.4118 27.5876 33.548C27.6594 33.6842 27.6057 33.8575 27.4696 33.9293Z" fill="#0A3B3C"/>
<path d="M29.1143 33.0326C28.9782 33.1044 28.8048 33.0507 28.733 32.9146C28.6612 32.7784 28.7149 32.6051 28.851 32.5333C28.9872 32.4615 29.1605 32.5151 29.2323 32.6513C29.3041 32.7874 29.2852 32.9715 29.1143 33.0326Z" fill="#0A3B3C"/>
<path d="M29.3065 41.3727C29.1703 41.4445 28.997 41.3908 28.9252 41.2547C28.8534 41.1185 28.907 40.9452 29.0432 40.8734C29.1794 40.8016 29.3527 40.8552 29.4245 40.9914C29.4963 41.1275 29.4427 41.3008 29.3065 41.3727Z" fill="#0A3B3C"/>
<path d="M30.94 40.5113C30.8039 40.5831 30.6305 40.5295 30.5587 40.3933C30.4869 40.2572 30.5405 40.0838 30.6767 40.012C30.8129 39.9402 30.9862 39.9939 31.058 40.13C31.1298 40.2662 31.0762 40.4395 30.94 40.5113Z" fill="#0A3B3C"/>
<path d="M28.4444 39.7379C28.3083 39.8097 28.135 39.7561 28.0631 39.6199C27.9913 39.4837 28.045 39.3104 28.1811 39.2386C28.3173 39.1668 28.4906 39.2204 28.5624 39.3566C28.6342 39.4928 28.5806 39.6661 28.4444 39.7379Z" fill="#0A3B3C"/>
<path d="M30.0785 38.8766C29.9423 38.9484 29.769 38.8947 29.6972 38.7586C29.6254 38.6224 29.679 38.4491 29.8152 38.3773C29.9513 38.3055 30.1246 38.3591 30.1965 38.4953C30.2683 38.6314 30.2146 38.8048 30.0785 38.8766Z" fill="#0A3B3C"/>
<path d="M31.3263 39.2633C31.1901 39.3351 31.0167 39.2815 30.9449 39.1453C30.8731 39.0091 30.9268 38.8358 31.0629 38.764C31.1991 38.6922 31.3724 38.7458 31.4443 38.882C31.5161 39.0182 31.4624 39.1915 31.3263 39.2633Z" fill="#0A3B3C"/>
<path d="M29.6922 40.1246C29.5561 40.1964 29.3828 40.1428 29.3109 40.0066C29.2391 39.8705 29.2928 39.6971 29.4289 39.6253C29.5651 39.5535 29.7384 39.6071 29.8102 39.7433C29.882 39.8795 29.8284 40.0528 29.6922 40.1246Z" fill="#0A3B3C"/>
<path d="M30.4754 37.5934C30.3393 37.6652 30.166 37.6115 30.0941 37.4754C30.0223 37.3392 30.076 37.1659 30.2121 37.0941C30.3483 37.0223 30.5216 37.0759 30.5934 37.2121C30.6652 37.3482 30.6116 37.5215 30.4754 37.5934Z" fill="#0A3B3C"/>
<path d="M28.8304 38.4898C28.6942 38.5617 28.5209 38.508 28.4491 38.3719C28.3773 38.2357 28.4309 38.0624 28.5671 37.9906C28.7033 37.9187 28.8766 37.9724 28.9484 38.1085C29.0202 38.2447 28.9666 38.418 28.8304 38.4898Z" fill="#0A3B3C"/>
<path d="M32.6087 39.6598C32.4726 39.7316 32.2993 39.6779 32.2274 39.5418C32.1556 39.4056 32.2093 39.2323 32.3454 39.1605C32.4816 39.0887 32.6549 39.1423 32.7267 39.2785C32.7985 39.4146 32.7449 39.588 32.6087 39.6598Z" fill="#0A3B3C"/>
<path d="M31.7232 37.9801C31.5871 38.0519 31.4137 37.9982 31.3419 37.8621C31.2701 37.7259 31.3237 37.5526 31.4599 37.4808C31.5961 37.409 31.7694 37.4626 31.8412 37.5988C31.913 37.735 31.8594 37.9083 31.7232 37.9801Z" fill="#0A3B3C"/>
<path d="M27.5476 38.0931C27.4114 38.1649 27.2381 38.1113 27.1663 37.9751C27.0945 37.839 27.1481 37.6657 27.2843 37.5938C27.4205 37.522 27.5938 37.5757 27.6656 37.7118C27.7721 37.8587 27.7184 38.032 27.5476 38.0931Z" fill="#0A3B3C"/>
<path d="M29.2276 37.2066C29.0915 37.2785 28.9182 37.2248 28.8463 37.0887C28.7745 36.9525 28.8282 36.7792 28.9643 36.7074C29.1005 36.6355 29.2738 36.6892 29.3456 36.8253C29.4174 36.9615 29.3638 37.1348 29.2276 37.2066Z" fill="#0A3B3C"/>
<path d="M30.8617 36.3453C30.7255 36.4171 30.5522 36.3635 30.4804 36.2273C30.4086 36.0912 30.4622 35.9178 30.5984 35.846C30.7345 35.7742 30.9078 35.8278 30.9797 35.964C31.0515 36.1002 30.9978 36.2735 30.8617 36.3453Z" fill="#0A3B3C"/>
<path d="M31.8368 42.1539C31.7006 42.2257 31.5273 42.1721 31.4555 42.0359C31.3837 41.8998 31.4373 41.7264 31.5735 41.6546C31.7096 41.5828 31.8829 41.6364 31.9548 41.7726C32.0266 41.9088 31.9729 42.0821 31.8368 42.1539Z" fill="#0A3B3C"/>
<path d="M32.223 40.9059C32.0868 40.9777 31.9135 40.924 31.8417 40.7879C31.7699 40.6517 31.8235 40.4784 31.9597 40.4066C32.0959 40.3348 32.2692 40.3884 32.341 40.5246C32.4128 40.6607 32.3592 40.834 32.223 40.9059Z" fill="#0A3B3C"/>
<path d="M30.5543 41.7574C30.4181 41.8292 30.2448 41.7756 30.173 41.6394C30.1011 41.5033 30.1548 41.3299 30.291 41.2581C30.4271 41.1863 30.6005 41.24 30.6723 41.3761C30.7441 41.5123 30.6905 41.6856 30.5543 41.7574Z" fill="#0A3B3C"/>
<path d="M33.472 41.2926C33.3359 41.3644 33.1625 41.3108 33.0907 41.1746C33.0189 41.0384 33.0726 40.8651 33.2087 40.7933C33.3449 40.7215 33.5182 40.7751 33.59 40.9113C33.6618 41.0475 33.6082 41.2208 33.472 41.2926Z" fill="#0A3B3C"/>
<path d="M29.3067 41.3707C29.1706 41.4425 28.9973 41.3889 28.9254 41.2527C28.8536 41.1165 28.9073 40.9432 29.0434 40.8714C29.1796 40.7996 29.3529 40.8532 29.4247 40.9894C29.4965 41.1256 29.4429 41.2989 29.3067 41.3707Z" fill="#0A3B3C"/>
<path d="M30.9408 40.5094C30.8046 40.5812 30.6312 40.5275 30.5594 40.3914C30.4876 40.2552 30.5413 40.0819 30.6774 40.0101C30.8136 39.9383 30.9869 39.9919 31.0588 40.1281C31.1306 40.2642 31.0769 40.4376 30.9408 40.5094Z" fill="#0A3B3C"/>
<path d="M32.6095 39.6598C32.4733 39.7316 32.3 39.678 32.2282 39.5418C32.1564 39.4056 32.21 39.2323 32.3462 39.1605C32.4823 39.0887 32.6557 39.1423 32.7275 39.2785C32.7993 39.4146 32.7456 39.588 32.6095 39.6598Z" fill="#0A3B3C"/>
<path d="M27.3912 29.7652C27.255 29.837 27.0817 29.7834 27.0099 29.6472C26.9381 29.5111 26.9917 29.3378 27.1279 29.2659C27.2641 29.1941 27.4374 29.2478 27.5092 29.3839C27.581 29.5201 27.5274 29.6934 27.3912 29.7652Z" fill="#0A3B3C"/>
<path d="M29.025 28.9039C28.8888 28.9757 28.7155 28.9221 28.6437 28.7859C28.5719 28.6497 28.6255 28.4764 28.7617 28.4046C28.8978 28.3328 29.0712 28.3864 29.143 28.5226C29.2148 28.6588 29.1612 28.8321 29.025 28.9039Z" fill="#0A3B3C"/>
<path d="M28.1742 27.234C28.038 27.3058 27.8647 27.2522 27.7929 27.116C27.7211 26.9798 27.7747 26.8065 27.9109 26.7347C28.047 26.6629 28.2203 26.7165 28.2922 26.8527C28.364 26.9889 28.3103 27.1622 28.1742 27.234Z" fill="#0A3B3C"/>
<path d="M29.422 27.6207C29.2858 27.6925 29.1124 27.6389 29.0406 27.5027C28.9688 27.3665 29.0225 27.1932 29.1586 27.1214C29.2948 27.0496 29.4682 27.1032 29.54 27.2394C29.6118 27.3756 29.5581 27.5489 29.422 27.6207Z" fill="#0A3B3C"/>
<path d="M27.7772 28.5172C27.641 28.589 27.4677 28.5354 27.3959 28.3992C27.3241 28.263 27.3777 28.0897 27.5139 28.0179C27.6501 27.9461 27.8234 27.9997 27.8952 28.1359C27.967 28.2721 27.9134 28.4454 27.7772 28.5172Z" fill="#0A3B3C"/>
<path d="M28.5604 25.9859C28.4242 26.0578 28.2509 26.0041 28.1791 25.868C28.1073 25.7318 28.1609 25.5585 28.2971 25.4867C28.4333 25.4148 28.6066 25.4685 28.6784 25.6046C28.7502 25.7408 28.6966 25.9141 28.5604 25.9859Z" fill="#0A3B3C"/>
<path d="M30.6693 28.0072C30.5331 28.079 30.3598 28.0253 30.288 27.8892C30.2162 27.753 30.2698 27.5797 30.406 27.5079C30.5421 27.4361 30.7154 27.4897 30.7872 27.6259C30.8591 27.762 30.8401 27.9461 30.6693 28.0072Z" fill="#0A3B3C"/>
<path d="M29.8077 26.3727C29.6715 26.4445 29.4982 26.3908 29.4264 26.2547C29.3546 26.1185 29.4082 25.9452 29.5444 25.8734C29.6805 25.8015 29.8539 25.8552 29.9257 25.9914C29.9975 26.1275 29.9439 26.3008 29.8077 26.3727Z" fill="#0A3B3C"/>
<path d="M27.3121 25.6012C27.1759 25.673 27.0026 25.6194 26.9308 25.4832C26.859 25.347 26.9126 25.1737 27.0488 25.1019C27.185 25.0301 27.3583 25.0837 27.4301 25.2199C27.5019 25.356 27.4483 25.5294 27.3121 25.6012Z" fill="#0A3B3C"/>
<path d="M28.9461 24.7379C28.81 24.8097 28.6367 24.7561 28.5649 24.6199C28.493 24.4837 28.5467 24.3104 28.6828 24.2386C28.819 24.1668 28.9923 24.2204 29.0641 24.3566C29.1359 24.4928 29.0823 24.6661 28.9461 24.7379Z" fill="#0A3B3C"/>
<path d="M29.1141 33.0326C28.9779 33.1044 28.8046 33.0507 28.7328 32.9146C28.661 32.7784 28.7146 32.6051 28.8508 32.5333C28.9869 32.4615 29.1603 32.5151 29.2321 32.6513C29.3039 32.7874 29.2849 32.9715 29.1141 33.0326Z" fill="#0A3B3C"/>
<path d="M30.7823 32.1813C30.6462 32.2531 30.4728 32.1994 30.401 32.0633C30.3292 31.9271 30.3829 31.7538 30.519 31.682C30.6552 31.6102 30.8285 31.6638 30.9003 31.8C30.9721 31.9361 30.9185 32.1094 30.7823 32.1813Z" fill="#0A3B3C"/>
<path d="M28.252 31.398C28.1159 31.4699 27.9425 31.4162 27.8707 31.28C27.7989 31.1439 27.8525 30.9706 27.9887 30.8987C28.1249 30.8269 28.2982 30.8806 28.37 31.0167C28.4419 31.1529 28.3882 31.3262 28.252 31.398Z" fill="#0A3B3C"/>
<path d="M29.8862 30.5365C29.75 30.6083 29.5767 30.5547 29.5049 30.4185C29.4331 30.2823 29.4867 30.109 29.6229 30.0372C29.7591 29.9654 29.9324 30.019 30.0042 30.1552C30.1107 30.3021 30.057 30.4754 29.8862 30.5365Z" fill="#0A3B3C"/>
<path d="M31.1686 30.9332C31.0324 31.005 30.8591 30.9514 30.7873 30.8152C30.7154 30.679 30.7691 30.5057 30.9053 30.4339C31.0414 30.3621 31.2147 30.4157 31.2865 30.5519C31.3584 30.6881 31.3047 30.8614 31.1686 30.9332Z" fill="#0A3B3C"/>
<path d="M29.5 31.7845C29.3638 31.8563 29.1905 31.8027 29.1187 31.6665C29.0469 31.5304 29.1005 31.3571 29.2367 31.2852C29.3728 31.2134 29.5462 31.2671 29.618 31.4032C29.7244 31.5501 29.6708 31.7235 29.5 31.7845Z" fill="#0A3B3C"/>
<path d="M30.2724 29.2884C30.1363 29.3603 29.963 29.3066 29.8911 29.1705C29.8193 29.0343 29.873 28.861 30.0091 28.7892C30.1453 28.7173 30.3186 28.771 30.3904 28.9071C30.4969 29.054 30.4433 29.2274 30.2724 29.2884Z" fill="#0A3B3C"/>
<path d="M28.6383 30.15C28.5021 30.2218 28.3288 30.1682 28.2569 30.032C28.1851 29.8958 28.2388 29.7225 28.3749 29.6507C28.5111 29.5789 28.6845 29.6325 28.7563 29.7687C28.8281 29.9049 28.7745 30.0782 28.6383 30.15Z" fill="#0A3B3C"/>
<path d="M32.4159 31.3199C32.2797 31.3917 32.1064 31.3381 32.0346 31.2019C31.9628 31.0658 32.0164 30.8924 32.1526 30.8206C32.2887 30.7488 32.462 30.8025 32.5339 30.9386C32.6057 31.0748 32.552 31.2481 32.4159 31.3199Z" fill="#0A3B3C"/>
<path d="M31.5543 29.6852C31.4181 29.757 31.2448 29.7033 31.173 29.5672C31.1012 29.431 31.1548 29.2577 31.291 29.1859C31.4272 29.1141 31.6005 29.1677 31.6723 29.3039C31.7441 29.44 31.6905 29.6133 31.5543 29.6852Z" fill="#0A3B3C"/>
<path d="M27.3907 29.7633C27.2546 29.8351 27.0812 29.7815 27.0094 29.6453C26.9376 29.5091 26.9913 29.3358 27.1274 29.264C27.2636 29.1922 27.4369 29.2458 27.5087 29.382C27.5805 29.5182 27.5269 29.6915 27.3907 29.7633Z" fill="#0A3B3C"/>
<path d="M29.0245 28.902C28.8883 28.9738 28.715 28.9201 28.6432 28.784C28.5714 28.6478 28.625 28.4745 28.7612 28.4027C28.8973 28.3308 29.0707 28.3845 29.1425 28.5207C29.2143 28.6568 29.1607 28.8301 29.0245 28.902Z" fill="#0A3B3C"/>
<path d="M30.6695 28.0052C30.5333 28.077 30.36 28.0234 30.2882 27.8872C30.2164 27.7511 30.27 27.5777 30.4062 27.5059C30.5424 27.4341 30.7157 27.4877 30.7875 27.6239C30.8593 27.7601 30.8403 27.9441 30.6695 28.0052Z" fill="#0A3B3C"/>
<path d="M30.8631 36.3473C30.727 36.4191 30.5537 36.3654 30.4818 36.2293C30.41 36.0931 30.4637 35.9198 30.5998 35.848C30.736 35.7762 30.9093 35.8298 30.9811 35.966C31.0529 36.1021 30.9993 36.2755 30.8631 36.3473Z" fill="#0A3B3C"/>
<path d="M32.4969 35.4859C32.3608 35.5577 32.1874 35.5041 32.1156 35.3679C32.0438 35.2318 32.0974 35.0584 32.2336 34.9866C32.3697 34.9148 32.5431 34.9685 32.6149 35.1046C32.6867 35.2408 32.6331 35.4141 32.4969 35.4859Z" fill="#0A3B3C"/>
<path d="M30.0011 34.7125C29.8649 34.7843 29.6916 34.7307 29.6198 34.5945C29.548 34.4583 29.6016 34.285 29.7378 34.2132C29.8739 34.1414 30.0473 34.195 30.1191 34.3312C30.1909 34.4674 30.1372 34.6407 30.0011 34.7125Z" fill="#0A3B3C"/>
<path d="M31.6461 33.816C31.5099 33.8878 31.3366 33.8342 31.2648 33.698C31.193 33.5619 31.2466 33.3885 31.3828 33.3167C31.519 33.2449 31.6923 33.2985 31.7641 33.4347C31.8252 33.6056 31.7823 33.7442 31.6461 33.816Z" fill="#0A3B3C"/>
<path d="M32.8939 34.2027C32.7577 34.2745 32.5844 34.2209 32.5126 34.0847C32.4407 33.9486 32.4944 33.7752 32.6306 33.7034C32.7667 33.6316 32.9401 33.6853 33.0119 33.8214C33.073 33.9923 33.0301 34.1309 32.8939 34.2027Z" fill="#0A3B3C"/>
<path d="M31.2491 35.0992C31.113 35.171 30.9396 35.1174 30.8678 34.9812C30.796 34.8451 30.8496 34.6717 30.9858 34.5999C31.122 34.5281 31.2953 34.5818 31.3671 34.7179C31.4389 34.8541 31.3853 35.0274 31.2491 35.0992Z" fill="#0A3B3C"/>
<path d="M32.0323 32.568C31.8962 32.6398 31.7228 32.5862 31.651 32.45C31.5792 32.3138 31.6329 32.1405 31.769 32.0687C31.9052 31.9969 32.0785 32.0505 32.1503 32.1867C32.2221 32.3228 32.1685 32.4962 32.0323 32.568Z" fill="#0A3B3C"/>
<path d="M30.398 33.4293C30.2619 33.5011 30.0886 33.4475 30.0168 33.3113C29.9449 33.1751 29.9986 33.0018 30.1347 32.93C30.2709 32.8582 30.4442 32.9118 30.516 33.048C30.5771 33.2188 30.5342 33.3575 30.398 33.4293Z" fill="#0A3B3C"/>
<path d="M34.1766 34.5992C34.0404 34.671 33.8671 34.6174 33.7953 34.4812C33.7235 34.3451 33.7771 34.1717 33.9133 34.0999C34.0495 34.0281 34.2228 34.0818 34.2946 34.2179C34.3557 34.3888 34.3128 34.5274 34.1766 34.5992Z" fill="#0A3B3C"/>
<path d="M33.2804 32.9547C33.1442 33.0265 32.9708 32.9729 32.899 32.8367C32.8272 32.7005 32.8809 32.5272 33.017 32.4554C33.1532 32.3836 33.3265 32.4372 33.3984 32.5734C33.4702 32.7096 33.4165 32.8829 33.2804 32.9547Z" fill="#0A3B3C"/>
<path d="M29.1151 33.0326C28.9789 33.1044 28.8056 33.0507 28.7338 32.9146C28.662 32.7784 28.7156 32.6051 28.8518 32.5333C28.9879 32.4615 29.1612 32.5151 29.233 32.6513C29.3049 32.7874 29.2859 32.9715 29.1151 33.0326Z" fill="#0A3B3C"/>
<path d="M30.7838 32.1813C30.6476 32.2531 30.4743 32.1994 30.4025 32.0633C30.3307 31.9271 30.3843 31.7538 30.5205 31.682C30.6567 31.6102 30.83 31.6638 30.9018 31.8C30.9736 31.9361 30.92 32.1094 30.7838 32.1813Z" fill="#0A3B3C"/>
<path d="M32.4178 31.3199C32.2817 31.3917 32.1083 31.3381 32.0365 31.2019C31.9647 31.0658 32.0184 30.8924 32.1545 30.8206C32.2907 30.7488 32.464 30.8025 32.5358 30.9386C32.6076 31.0748 32.554 31.2481 32.4178 31.3199Z" fill="#0A3B3C"/>
<path d="M32.6095 39.6598C32.4733 39.7316 32.3 39.678 32.2282 39.5418C32.1564 39.4056 32.21 39.2323 32.3462 39.1605C32.4823 39.0887 32.6557 39.1423 32.7275 39.2785C32.7993 39.4146 32.7456 39.588 32.6095 39.6598Z" fill="#0A3B3C"/>
<path d="M34.254 38.7633C34.1178 38.8351 33.9445 38.7815 33.8727 38.6453C33.8009 38.5091 33.8545 38.3358 33.9907 38.264C34.1269 38.1922 34.3002 38.2458 34.372 38.382C34.4438 38.5182 34.3902 38.6915 34.254 38.7633Z" fill="#0A3B3C"/>
<path d="M31.7237 37.9801C31.5876 38.0519 31.4142 37.9982 31.3424 37.8621C31.2706 37.7259 31.3242 37.5526 31.4604 37.4808C31.5966 37.409 31.7699 37.4626 31.8417 37.5988C31.9135 37.735 31.8599 37.9083 31.7237 37.9801Z" fill="#0A3B3C"/>
<path d="M33.3924 37.1285C33.2563 37.2003 33.083 37.1467 33.0111 37.0105C32.9393 36.8744 32.993 36.701 33.1291 36.6292C33.2653 36.5574 33.4386 36.611 33.5104 36.7472C33.5822 36.8834 33.5286 37.0567 33.3924 37.1285Z" fill="#0A3B3C"/>
<path d="M34.6402 37.5152C34.5041 37.587 34.3308 37.5334 34.2589 37.3972C34.1871 37.2611 34.2408 37.0878 34.3769 37.0159C34.5131 36.9441 34.6864 36.9978 34.7582 37.1339C34.83 37.2701 34.7764 37.4434 34.6402 37.5152Z" fill="#0A3B3C"/>
<path d="M33.0062 38.3766C32.87 38.4484 32.6967 38.3947 32.6249 38.2586C32.5531 38.1224 32.6067 37.9491 32.7429 37.8773C32.8791 37.8055 33.0524 37.8591 33.1242 37.9953C33.196 38.1314 33.1424 38.3048 33.0062 38.3766Z" fill="#0A3B3C"/>
<path d="M33.7787 35.8805C33.6425 35.9523 33.4692 35.8987 33.3974 35.7625C33.3256 35.6263 33.3792 35.453 33.5154 35.3812C33.6515 35.3094 33.8248 35.363 33.8967 35.4992C33.9685 35.6353 33.9148 35.8087 33.7787 35.8805Z" fill="#0A3B3C"/>
<path d="M32.11 36.732C31.9738 36.8038 31.8004 36.7502 31.7286 36.614C31.6568 36.4779 31.7104 36.3045 31.8466 36.2327C31.9828 36.1609 32.1561 36.2146 32.228 36.3507C32.2998 36.4869 32.2461 36.6602 32.11 36.732Z" fill="#0A3B3C"/>
<path d="M35.026 36.2672C34.8898 36.339 34.7165 36.2854 34.6447 36.1492C34.5729 36.013 34.6265 35.8397 34.7627 35.7679C34.8988 35.6961 35.0722 35.7497 35.144 35.8859C35.2158 36.0221 35.1621 36.1954 35.026 36.2672Z" fill="#0A3B3C"/>
<path d="M30.8624 36.3453C30.7262 36.4171 30.5529 36.3635 30.4811 36.2273C30.4093 36.0912 30.4629 35.9178 30.5991 35.846C30.7353 35.7742 30.9086 35.8278 30.9804 35.964C31.0522 36.1002 30.9986 36.2735 30.8624 36.3453Z" fill="#0A3B3C"/>
<path d="M32.4957 35.484C32.3595 35.5558 32.1862 35.5022 32.1144 35.366C32.0426 35.2298 32.0962 35.0565 32.2324 34.9847C32.3685 34.9129 32.5419 34.9665 32.6137 35.1027C32.6855 35.2389 32.6319 35.4122 32.4957 35.484Z" fill="#0A3B3C"/>
<path d="M34.1751 34.5992C34.039 34.671 33.8657 34.6174 33.7939 34.4812C33.722 34.3451 33.7757 34.1717 33.9118 34.0999C34.048 34.0281 34.2213 34.0818 34.2931 34.2179C34.3542 34.3888 34.3113 34.5274 34.1751 34.5992Z" fill="#0A3B3C"/>
<path d="M33.4718 41.2926C33.3356 41.3644 33.1623 41.3108 33.0905 41.1746C33.0187 41.0384 33.0723 40.8651 33.2085 40.7933C33.3446 40.7215 33.518 40.7751 33.5898 40.9113C33.6616 41.0475 33.6079 41.2208 33.4718 41.2926Z" fill="#0A3B3C"/>
<path d="M35.1058 40.4293C34.9696 40.5011 34.7963 40.4475 34.7245 40.3113C34.6527 40.1751 34.7063 40.0018 34.8425 39.93C34.9787 39.8582 35.152 39.9118 35.2238 40.048C35.2956 40.1842 35.242 40.3575 35.1058 40.4293Z" fill="#0A3B3C"/>
<path d="M34.7196 41.6773C34.5834 41.7492 34.4101 41.6955 34.3383 41.5594C34.2665 41.4232 34.3201 41.2499 34.4563 41.1781C34.5924 41.1062 34.7658 41.1599 34.8376 41.296C34.9094 41.4322 34.8557 41.6055 34.7196 41.6773Z" fill="#0A3B3C"/>
<path d="M33.858 40.0445C33.7218 40.1163 33.5485 40.0627 33.4767 39.9265C33.4049 39.7904 33.4585 39.6171 33.5947 39.5452C33.7309 39.4734 33.9042 39.5271 33.976 39.6632C34.0478 39.7994 33.9942 39.9727 33.858 40.0445Z" fill="#0A3B3C"/>
<path d="M32.609 39.6578C32.4728 39.7296 32.2995 39.676 32.2277 39.5398C32.1559 39.4037 32.2095 39.2303 32.3457 39.1585C32.4819 39.0867 32.6552 39.1403 32.727 39.2765C32.7988 39.4127 32.7452 39.586 32.609 39.6578Z" fill="#0A3B3C"/>
<path d="M34.2542 38.7613C34.1181 38.8331 33.9448 38.7795 33.873 38.6433C33.8011 38.5072 33.8548 38.3339 33.9909 38.262C34.1271 38.1902 34.3004 38.2439 34.3722 38.38C34.444 38.5162 34.3904 38.6895 34.2542 38.7613Z" fill="#0A3B3C"/>
<path d="M30.6697 28.0052C30.5336 28.077 30.3603 28.0234 30.2885 27.8872C30.2166 27.7511 30.2703 27.5777 30.4064 27.5059C30.5426 27.4341 30.7159 27.4877 30.7877 27.6239C30.8595 27.7601 30.8406 27.9441 30.6697 28.0052Z" fill="#0A3B3C"/>
<path d="M32.338 27.1559C32.2018 27.2277 32.0285 27.174 31.9567 27.0379C31.8849 26.9017 31.9385 26.7284 32.0747 26.6566C32.2109 26.5848 32.3842 26.6384 32.456 26.7746C32.5278 26.9107 32.4742 27.084 32.338 27.1559Z" fill="#0A3B3C"/>
<path d="M29.8077 26.3727C29.6715 26.4445 29.4982 26.3908 29.4264 26.2547C29.3546 26.1185 29.4082 25.9452 29.5444 25.8734C29.6805 25.8015 29.8539 25.8552 29.9257 25.9914C29.9975 26.1275 29.9439 26.3008 29.8077 26.3727Z" fill="#0A3B3C"/>
<path d="M31.4419 25.5111C31.3057 25.5829 31.1324 25.5293 31.0606 25.3931C30.9888 25.2569 31.0424 25.0836 31.1786 25.0118C31.3147 24.94 31.4881 24.9936 31.5599 25.1298C31.6663 25.2767 31.6127 25.45 31.4419 25.5111Z" fill="#0A3B3C"/>
<path d="M32.7242 25.9078C32.588 25.9796 32.4147 25.926 32.3429 25.7898C32.2711 25.6537 32.3247 25.4803 32.4609 25.4085C32.5971 25.3367 32.7704 25.3903 32.8422 25.5265C32.914 25.6627 32.8604 25.836 32.7242 25.9078Z" fill="#0A3B3C"/>
<path d="M31.0556 26.7591C30.9195 26.831 30.7462 26.7773 30.6744 26.6412C30.6025 26.505 30.6562 26.3317 30.7923 26.2599C30.9285 26.188 31.1018 26.2417 31.1736 26.3778C31.2801 26.5247 31.2265 26.6981 31.0556 26.7591Z" fill="#0A3B3C"/>
<path d="M31.8388 24.2279C31.7027 24.2997 31.5294 24.2461 31.4576 24.1099C31.3857 23.9737 31.4394 23.8004 31.5755 23.7286C31.7117 23.6568 31.885 23.7104 31.9568 23.8466C32.0526 24.0282 32.0097 24.1668 31.8388 24.2279Z" fill="#0A3B3C"/>
<path d="M30.1939 25.1246C30.0578 25.1964 29.8844 25.1428 29.8126 25.0066C29.7408 24.8704 29.7944 24.6971 29.9306 24.6253C30.0668 24.5535 30.2401 24.6071 30.3119 24.7433C30.3837 24.8795 30.3301 25.0528 30.1939 25.1246Z" fill="#0A3B3C"/>
<path d="M33.9732 26.2945C33.8371 26.3663 33.6638 26.3127 33.5919 26.1765C33.5201 26.0404 33.5738 25.8671 33.7099 25.7952C33.8461 25.7234 34.0194 25.7771 34.0912 25.9132C34.163 26.0494 34.1094 26.2227 33.9732 26.2945Z" fill="#0A3B3C"/>
<path d="M33.1224 24.6246C32.9862 24.6964 32.8129 24.6428 32.7411 24.5066C32.6693 24.3705 32.7229 24.1971 32.8591 24.1253C32.9953 24.0535 33.1686 24.1071 33.2404 24.2433C33.3015 24.4141 33.2586 24.5528 33.1224 24.6246Z" fill="#0A3B3C"/>
<path d="M28.9464 24.7379C28.8102 24.8097 28.6369 24.7561 28.5651 24.6199C28.4933 24.4837 28.5469 24.3104 28.6831 24.2386C28.8193 24.1668 28.9926 24.2204 29.0644 24.3566C29.1362 24.4928 29.0826 24.6661 28.9464 24.7379Z" fill="#0A3B3C"/>
<path d="M30.5914 23.8414C30.4552 23.9132 30.2819 23.8596 30.2101 23.7234C30.1383 23.5872 30.1919 23.4139 30.3281 23.3421C30.4642 23.2703 30.6376 23.3239 30.7094 23.4601C30.7705 23.6309 30.7276 23.7696 30.5914 23.8414Z" fill="#0A3B3C"/>
<path d="M32.4171 31.3199C32.2809 31.3917 32.1076 31.3381 32.0358 31.2019C31.964 31.0658 32.0176 30.8924 32.1538 30.8206C32.29 30.7488 32.4633 30.8025 32.5351 30.9386C32.6069 31.0748 32.5533 31.2481 32.4171 31.3199Z" fill="#0A3B3C"/>
<path d="M34.0509 30.4586C33.9147 30.5304 33.7414 30.4768 33.6695 30.3406C33.5977 30.2044 33.6514 30.0311 33.7875 29.9593C33.9237 29.8875 34.0971 29.9411 34.1689 30.0773C34.2407 30.2135 34.187 30.3868 34.0509 30.4586Z" fill="#0A3B3C"/>
<path d="M31.555 29.6852C31.4189 29.757 31.2455 29.7033 31.1737 29.5672C31.1019 29.431 31.1556 29.2577 31.2917 29.1859C31.4279 29.1141 31.6012 29.1677 31.673 29.3039C31.7448 29.44 31.6912 29.6133 31.555 29.6852Z" fill="#0A3B3C"/>
<path d="M33.2 28.7887C33.0639 28.8605 32.8906 28.8069 32.8188 28.6707C32.7469 28.5345 32.8006 28.3612 32.9367 28.2894C33.0729 28.2176 33.2462 28.2712 33.318 28.4074C33.3898 28.5435 33.3362 28.7169 33.2 28.7887Z" fill="#0A3B3C"/>
<path d="M34.4479 29.1754C34.3117 29.2472 34.1383 29.1936 34.0665 29.0574C33.9947 28.9212 34.0483 28.7479 34.1845 28.6761C34.3207 28.6043 34.494 28.6579 34.5658 28.7941C34.6377 28.9303 34.584 29.1036 34.4479 29.1754Z" fill="#0A3B3C"/>
<path d="M32.8031 30.0719C32.6669 30.1437 32.4936 30.0901 32.4218 29.9539C32.35 29.8177 32.4036 29.6444 32.5398 29.5726C32.6759 29.5008 32.8493 29.5544 32.9211 29.6906C32.9929 29.8267 32.9392 30.0001 32.8031 30.0719Z" fill="#0A3B3C"/>
<path d="M33.5863 27.5406C33.4501 27.6124 33.2768 27.5588 33.205 27.4226C33.1332 27.2865 33.1868 27.1132 33.323 27.0413C33.4591 26.9695 33.6325 27.0232 33.7043 27.1593C33.7761 27.2955 33.7224 27.4688 33.5863 27.5406Z" fill="#0A3B3C"/>
<path d="M31.952 28.402C31.8158 28.4738 31.6425 28.4201 31.5707 28.284C31.4989 28.1478 31.5525 27.9745 31.6887 27.9027C31.8249 27.8309 31.9982 27.8845 32.07 28.0207C32.1418 28.1568 32.0882 28.3301 31.952 28.402Z" fill="#0A3B3C"/>
<path d="M34.8341 27.9273C34.6979 27.9992 34.5246 27.9455 34.4527 27.8093C34.3809 27.6732 34.4346 27.4999 34.5707 27.428C34.7069 27.3562 34.8803 27.4099 34.9521 27.546C35.0239 27.6822 34.9703 27.8555 34.8341 27.9273Z" fill="#0A3B3C"/>
<path d="M30.6688 28.0052C30.5326 28.077 30.3593 28.0234 30.2875 27.8872C30.2157 27.7511 30.2693 27.5777 30.4055 27.5059C30.5416 27.4341 30.7149 27.4877 30.7868 27.6239C30.8586 27.7601 30.8396 27.9441 30.6688 28.0052Z" fill="#0A3B3C"/>
<path d="M32.3382 27.1539C32.2021 27.2257 32.0288 27.1721 31.9569 27.0359C31.8851 26.8997 31.9388 26.7264 32.0749 26.6546C32.2111 26.5828 32.3844 26.6364 32.4562 26.7726C32.528 26.9088 32.4744 27.0821 32.3382 27.1539Z" fill="#0A3B3C"/>
<path d="M33.9725 26.2926C33.8363 26.3644 33.663 26.3108 33.5912 26.1746C33.5194 26.0384 33.573 25.8651 33.7092 25.7933C33.8454 25.7215 34.0187 25.7751 34.0905 25.9113C34.1623 26.0475 34.1087 26.2208 33.9725 26.2926Z" fill="#0A3B3C"/>
<path d="M34.1749 34.5973C34.0387 34.6691 33.8654 34.6154 33.7936 34.4793C33.7218 34.3431 33.7754 34.1698 33.9116 34.098C34.0478 34.0262 34.2211 34.0798 34.2929 34.216C34.354 34.3868 34.3111 34.5255 34.1749 34.5973Z" fill="#0A3B3C"/>
<path d="M33.2787 32.9527C33.1425 33.0245 32.9691 32.9709 32.8973 32.8347C32.8255 32.6986 32.8791 32.5252 33.0153 32.4534C33.1515 32.3816 33.3248 32.4353 33.3967 32.5714C33.4685 32.7076 33.4148 32.8809 33.2787 32.9527Z" fill="#0A3B3C"/>
<path d="M34.9474 32.1012C34.8112 32.173 34.6379 32.1194 34.5661 31.9832C34.4943 31.847 34.5479 31.6737 34.6841 31.6019C34.8202 31.5301 34.9935 31.5837 35.0654 31.7199C35.1372 31.856 35.0835 32.0294 34.9474 32.1012Z" fill="#0A3B3C"/>
<path d="M34.5611 33.3492C34.425 33.421 34.2517 33.3674 34.1798 33.2312C34.108 33.0951 34.1617 32.9217 34.2978 32.8499C34.434 32.7781 34.6073 32.8318 34.6791 32.9679C34.7509 33.1041 34.6973 33.2774 34.5611 33.3492Z" fill="#0A3B3C"/>
<path d="M33.6649 31.7047C33.5287 31.7765 33.3554 31.7229 33.2836 31.5867C33.2117 31.4505 33.2654 31.2772 33.4015 31.2054C33.5377 31.1336 33.7111 31.1872 33.7829 31.3234C33.8547 31.4596 33.8011 31.6329 33.6649 31.7047Z" fill="#0A3B3C"/>
<path d="M32.4171 31.318C32.2809 31.3898 32.1076 31.3362 32.0358 31.2C31.964 31.0638 32.0176 30.8905 32.1538 30.8187C32.29 30.7469 32.4633 30.8005 32.5351 30.9367C32.6069 31.0728 32.5533 31.2462 32.4171 31.318Z" fill="#0A3B3C"/>
<path d="M34.0509 30.4566C33.9147 30.5285 33.7414 30.4748 33.6695 30.3386C33.5977 30.2025 33.6514 30.0292 33.7875 29.9573C33.9237 29.8855 34.0971 29.9392 34.1689 30.0753C34.2407 30.2115 34.187 30.3848 34.0509 30.4566Z" fill="#0A3B3C"/>
<path d="M35.0267 36.2672C34.8905 36.339 34.7172 36.2854 34.6454 36.1492C34.5736 36.013 34.6272 35.8397 34.7634 35.7679C34.8996 35.6961 35.0729 35.7497 35.1447 35.8859C35.2165 36.0221 35.1629 36.1954 35.0267 36.2672Z" fill="#0A3B3C"/>
<path d="M34.1764 34.5973C34.0402 34.6691 33.8669 34.6154 33.7951 34.4793C33.7233 34.3431 33.7769 34.1698 33.9131 34.098C34.0492 34.0262 34.2225 34.0798 34.2944 34.216C34.3554 34.3868 34.3125 34.5255 34.1764 34.5973Z" fill="#0A3B3C"/>
<path d="M34.8343 27.9273C34.6982 27.9992 34.5248 27.9455 34.453 27.8093C34.3812 27.6732 34.4348 27.4999 34.571 27.428C34.7072 27.3562 34.8805 27.4099 34.9523 27.546C35.0241 27.6822 34.9705 27.8555 34.8343 27.9273Z" fill="#0A3B3C"/>
<path d="M33.973 26.2926C33.8368 26.3644 33.6635 26.3108 33.5917 26.1746C33.5199 26.0384 33.5735 25.8651 33.7097 25.7933C33.8459 25.7215 34.0192 25.7751 34.091 25.9113C34.1628 26.0475 34.1092 26.2208 33.973 26.2926Z" fill="#0A3B3C"/>
</g>
<path fill-rule="evenodd" clip-rule="evenodd" d="M12.4842 53.4105C11.5865 52.6549 10.735 51.8434 9.93494 50.9812C11.9614 51.1605 14.5254 51.1812 18.1175 51.1812L18.146 51.1816C20.5762 51.2422 22.648 51.1466 24.2861 50.9464C25.9528 50.7427 27.0793 50.441 27.6805 50.1427C27.882 50.0427 28.1085 50.0045 28.3316 50.0329C29.5323 50.1854 31.4319 50.2541 33.2774 50.0195C35.1794 49.7777 36.7558 49.2458 37.5798 48.414L37.5802 48.4137C37.7883 48.2038 38.1984 47.5516 38.6658 46.3853C39.1137 45.2674 39.5676 43.7964 39.9221 42.0738C40.6317 38.6254 40.9291 34.2367 40.0344 29.7235C39.0554 24.8149 37.759 20.3477 36.2943 17.1354C35.5597 15.5244 34.8091 14.2884 34.0778 13.4729C33.3335 12.6431 32.7448 12.394 32.3242 12.394C31.4568 12.394 30.3788 12.4092 29.3691 12.5454C28.3143 12.6877 27.544 12.9379 27.14 13.2627C27.088 13.3045 26.9935 13.4186 26.9349 13.713C26.8765 14.0063 26.8747 14.3841 26.9274 14.8003C26.9793 15.2099 27.0775 15.6061 27.1815 15.914C27.2335 16.0679 27.2823 16.1858 27.3201 16.2639C27.3308 16.2861 27.3392 16.302 27.345 16.3126C27.5321 16.5373 27.6264 16.8264 27.6064 17.1202C27.5847 17.4399 27.4296 17.7357 27.179 17.9353C26.9583 18.1112 26.8146 18.3612 26.7737 18.6343C26.7357 18.8874 26.7881 19.1459 26.9221 19.3655C27.8279 20.365 28.9907 21.1037 30.2876 21.5022C30.8588 21.5712 31.4384 21.5243 31.991 21.364C32.3319 21.2651 32.6993 21.3304 32.9852 21.5407C33.2711 21.7509 33.4429 22.0822 33.4501 22.437C33.4988 24.8341 33.3317 27.2308 32.9509 29.5985C32.947 29.6227 32.9423 29.6469 32.9369 29.6709C32.5361 31.4289 31.4899 33.1479 30.5667 34.515C30.2989 34.9115 30.01 35.3227 29.7488 35.6945L29.7488 35.6946C29.5733 35.9443 29.4104 36.1763 29.2748 36.374C28.8904 36.9343 28.6727 37.2945 28.5894 37.506C28.4426 37.8792 28.1106 38.1479 27.715 38.2138C27.3194 38.2797 26.9183 38.1332 26.6583 37.8278C25.3746 36.3198 22.2712 34.5349 18.5993 33.5504C14.9587 32.5744 11.1037 32.4787 8.26814 33.9317C7.27281 34.567 6.45222 35.0337 5.80403 35.4024L5.58512 35.527C4.86271 35.9389 4.47479 36.1765 4.23245 36.396C4.05517 36.5565 3.99516 36.6696 3.96157 36.8725C3.91409 37.1592 3.92814 37.6192 4.05445 38.479C4.16027 39.1992 4.07161 40.2038 3.95102 41.1946C3.22848 39.2174 2.71073 37.1374 2.42432 34.9818C2.50956 34.8857 2.6016 34.7933 2.70027 34.7039C3.16352 34.2844 3.78873 33.9236 4.45434 33.5441L4.67519 33.4183L4.67526 33.4183C5.33248 33.0444 6.11947 32.5968 7.08245 31.9804C7.11126 31.9619 7.14087 31.9448 7.17122 31.929C10.7407 30.0729 15.2847 30.2984 19.1904 31.3456C22.3691 32.1979 25.3569 33.6572 27.275 35.255C27.3141 35.1972 27.3533 35.1398 27.3924 35.0827C27.566 34.8297 27.738 34.5853 27.9142 34.3347L27.9143 34.3347L27.9144 34.3345C28.1551 33.9924 28.4037 33.639 28.675 33.2374C29.5791 31.8987 30.3984 30.4973 30.7033 29.1981C30.9885 27.4133 31.1449 25.6111 31.1716 23.8053C30.7444 23.8295 30.3147 23.8119 29.8887 23.752C29.8332 23.7442 29.7783 23.7324 29.7246 23.7165C27.9602 23.1963 26.3781 22.193 25.1607 20.8204C25.1296 20.7853 25.1007 20.7484 25.0742 20.7098C24.5891 20.0046 24.3892 19.1423 24.5163 18.2956C24.5948 17.7722 24.7945 17.2797 25.0936 16.854C25.0679 16.7858 25.043 16.7159 25.019 16.6447C24.8696 16.2025 24.7351 15.6577 24.6628 15.0871C24.5913 14.523 24.5739 13.8813 24.6962 13.2672C24.8182 12.6543 25.1007 11.9732 25.7098 11.4836C26.6279 10.7455 27.9356 10.4354 29.064 10.2832C30.2375 10.1249 31.448 10.1113 32.3242 10.1113C33.683 10.1113 34.8409 10.905 35.7771 11.9488C36.7262 13.0071 37.5902 14.4756 38.3712 16.1884C39.9375 19.6235 41.2764 24.2801 42.2731 29.2776L42.2733 29.2788C43.2394 34.1511 42.9151 38.8539 42.1579 42.5339C41.7789 44.3756 41.2881 45.9782 40.7847 47.2344C40.3008 48.4418 39.7531 49.464 39.2015 50.0206C37.8109 51.4242 35.5693 52.0292 33.5653 52.284C31.6628 52.5258 29.7314 52.4804 28.371 52.3355C27.4296 52.7318 26.1189 53.022 24.563 53.2122C22.7944 53.4283 20.6131 53.5259 18.1034 53.4639C15.9285 53.4639 14.0886 53.4596 12.4842 53.4105Z" fill="#0B3B3C"/>
<path fill-rule="evenodd" clip-rule="evenodd" d="M31.0784 3.23558C15.7254 3.23558 3.27929 15.6817 3.27929 31.0347C3.27929 46.3877 15.7254 58.8338 31.0784 58.8338C46.4314 58.8338 58.8775 46.3877 58.8775 31.0347C58.8775 15.6817 46.4314 3.23558 31.0784 3.23558ZM1.04956 31.0347C1.04956 14.4502 14.4939 1.00586 31.0784 1.00586C47.6628 1.00586 61.1072 14.4502 61.1072 31.0347C61.1072 47.6191 47.6628 61.0635 31.0784 61.0635C14.4939 61.0635 1.04956 47.6191 1.04956 31.0347Z" fill="#0B3B3D"/>
<path fill-rule="evenodd" clip-rule="evenodd" d="M17.8664 41.274C15.6083 40.7095 14.2817 41.0909 14.0883 41.1876C13.5245 41.4695 12.8389 41.241 12.557 40.6772C12.2751 40.1134 12.5036 39.4278 13.0674 39.1459C13.8886 38.7353 15.8085 38.4066 18.42 39.0595C19.0316 39.2124 19.4034 39.832 19.2505 40.4436C19.0976 41.0551 18.4779 41.4269 17.8664 41.274Z" fill="#0B3B3C"/>
</svg>
