<svg width="62" height="61" viewBox="0 0 62 61" fill="none" xmlns="http://www.w3.org/2000/svg">
<path fill-rule="evenodd" clip-rule="evenodd" d="M31.4673 3.22303C16.4172 3.22303 4.21669 15.4236 4.21669 30.4736C4.21669 45.5237 16.4172 57.7243 31.4673 57.7243C46.5174 57.7243 58.7179 45.5237 58.7179 30.4736C58.7179 15.4236 46.5174 3.22303 31.4673 3.22303ZM2.09326 30.4736C2.09326 14.2508 15.2445 1.09961 31.4673 1.09961C47.6901 1.09961 60.8413 14.2508 60.8413 30.4736C60.8413 46.6965 47.6901 59.8477 31.4673 59.8477C15.2445 59.8477 2.09326 46.6965 2.09326 30.4736Z" fill="#0B3B3D"/>
<path d="M31.156 50.49C24.5187 50.49 18.5036 47.275 14.8738 41.8822C16.1183 42.0896 17.4665 42.1934 18.711 42.1934C30.7411 42.1934 40.4897 32.4448 40.4897 20.4146C40.4897 17.7182 39.9711 15.2292 39.1415 12.7402C46.1936 15.8515 50.8605 22.9036 50.8605 30.7855C50.8605 41.6748 42.0453 50.49 31.156 50.49Z" fill="white"/>
<mask id="mask0" mask-type="alpha" maskUnits="userSpaceOnUse" x="14" y="12" width="37" height="39">
<path d="M31.1567 50.49C24.5194 50.49 18.5043 47.275 14.8745 41.8822C16.119 42.0896 17.4672 42.1934 18.7117 42.1934C30.7419 42.1934 40.4904 32.4448 40.4904 20.4146C40.4904 17.7182 39.9719 15.2292 39.1422 12.7402C46.1944 15.8515 50.8613 22.9036 50.8613 30.7855C50.8613 41.6748 42.0461 50.49 31.1567 50.49Z" fill="white"/>
</mask>
<g mask="url(#mask0)">
<path d="M50.7924 45.8756C51.1109 46.1941 51.6418 46.1941 51.9603 45.8756C52.2788 45.5571 52.2788 45.0262 51.9603 44.7076C51.6418 44.3891 51.1109 44.3891 50.7924 44.7076C50.4738 45.0262 50.4738 45.5571 50.7924 45.8756Z" fill="#0A3B3C"/>
<path d="M46.8641 41.9459C47.1827 42.2644 47.7135 42.2644 48.0321 41.9459C48.3506 41.6274 48.3506 41.0965 48.0321 40.778C47.7135 40.4594 47.1827 40.4594 46.8641 40.778C46.5456 41.0965 46.5456 41.6274 46.8641 41.9459Z" fill="#0A3B3C"/>
<path d="M50.7924 38.1237C51.1109 38.4422 51.6418 38.4422 51.9603 38.1237C52.2788 37.8051 52.2788 37.2742 51.9603 36.9557C51.6418 36.6372 51.1109 36.6372 50.7924 36.9557C50.4738 37.2742 50.4738 37.8051 50.7924 38.1237Z" fill="#0A3B3C"/>
<path d="M46.8641 38.1237C47.1827 38.4422 47.7135 38.4422 48.0321 38.1237C48.3506 37.8051 48.3506 37.2742 48.0321 36.9557C47.7135 36.6372 47.1827 36.6372 46.8641 36.9557C46.5456 37.2742 46.5456 37.8051 46.8641 38.1237Z" fill="#0A3B3C"/>
<path d="M50.7924 41.9459C51.1109 42.2644 51.6418 42.2644 51.9603 41.9459C52.2788 41.6274 52.2788 41.0965 51.9603 40.778C51.6418 40.4594 51.1109 40.4594 50.7924 40.778C50.4738 41.0965 50.4738 41.6274 50.7924 41.9459Z" fill="#0A3B3C"/>
<path d="M50.7924 34.3014C51.1109 34.6199 51.6418 34.6199 51.9603 34.3014C52.2788 33.9828 52.2788 33.452 51.9603 33.1334C51.6418 32.8149 51.1109 32.8149 50.7924 33.1334C50.4738 33.452 50.4738 33.9828 50.7924 34.3014Z" fill="#0A3B3C"/>
<path d="M43.0414 38.1237C43.3599 38.4422 43.8908 38.4422 44.2093 38.1237C44.5278 37.8051 44.5278 37.2742 44.2093 36.9557C43.8908 36.6372 43.3599 36.6372 43.0414 36.9557C42.7229 37.2742 42.7229 37.8051 43.0414 38.1237Z" fill="#0A3B3C"/>
<path d="M46.8639 34.3014C47.1824 34.6199 47.7133 34.6199 48.0318 34.3014C48.3504 33.9828 48.3504 33.452 48.0318 33.1334C47.7133 32.8149 47.1824 32.8149 46.8639 33.1334C46.5454 33.452 46.5454 33.9828 46.8639 34.3014Z" fill="#0A3B3C"/>
<path d="M50.7924 30.3736C51.1109 30.6922 51.6418 30.6922 51.9603 30.3736C52.2788 30.0551 52.2788 29.5242 51.9603 29.2057C51.6418 28.8872 51.1109 28.8872 50.7924 29.2057C50.4738 29.6304 50.4738 30.0551 50.7924 30.3736Z" fill="#0A3B3C"/>
<path d="M39.2189 49.6979C39.5374 50.0164 40.0684 50.0164 40.3869 49.6979C40.7055 49.3793 40.7055 48.8484 40.3869 48.5299C40.0684 48.2114 39.5374 48.2114 39.2189 48.5299C38.9003 48.8484 38.9003 49.3793 39.2189 49.6979Z" fill="#0A3B3C"/>
<path d="M46.8639 49.6979C47.1824 50.0164 47.7133 50.0164 48.0318 49.6979C48.3504 49.3793 48.3504 48.8484 48.0318 48.5299C47.7133 48.2114 47.1824 48.2114 46.8639 48.5299C46.5454 48.8484 46.5454 49.3793 46.8639 49.6979Z" fill="#0A3B3C"/>
<path d="M43.0414 45.8756C43.3599 46.1941 43.8908 46.1941 44.2093 45.8756C44.5278 45.5571 44.5278 45.0262 44.2093 44.7076C43.8908 44.3891 43.3599 44.3891 43.0414 44.7076C42.7229 45.0262 42.7229 45.5571 43.0414 45.8756Z" fill="#0A3B3C"/>
<path d="M39.2189 45.8756C39.5374 46.1941 40.0684 46.1941 40.3869 45.8756C40.7055 45.5571 40.7055 45.0262 40.3869 44.7076C40.0684 44.3891 39.5374 44.3891 39.2189 44.7076C38.9003 45.0262 38.9003 45.5571 39.2189 45.8756Z" fill="#0A3B3C"/>
<path d="M43.0414 49.6979C43.3599 50.0164 43.8908 50.0164 44.2093 49.6979C44.5278 49.3793 44.5278 48.8484 44.2093 48.5299C43.8908 48.2114 43.3599 48.2114 43.0414 48.5299C42.7229 48.8484 42.7229 49.3793 43.0414 49.6979Z" fill="#0A3B3C"/>
<path d="M43.0414 41.9479C43.3599 42.2664 43.8908 42.2664 44.2093 41.9479C44.5278 41.6293 44.5278 41.0984 44.2093 40.7799C43.8908 40.4614 43.3599 40.4614 43.0414 40.7799C42.7229 41.0984 42.7229 41.6293 43.0414 41.9479Z" fill="#0A3B3C"/>
<path d="M46.8639 45.8756C47.1824 46.1941 47.7133 46.1941 48.0318 45.8756C48.3504 45.5571 48.3504 45.0262 48.0318 44.7076C47.7133 44.3891 47.1824 44.3891 46.8639 44.7076C46.5454 45.0262 46.5454 45.5571 46.8639 45.8756Z" fill="#0A3B3C"/>
<path d="M35.3969 45.8756C35.7154 46.1941 36.2463 46.1941 36.5648 45.8756C36.8834 45.5571 36.8834 45.0262 36.5648 44.7076C36.2463 44.3891 35.7154 44.3891 35.3969 44.7076C34.9722 45.0262 34.9722 45.5571 35.3969 45.8756Z" fill="#0A3B3C"/>
<path d="M39.2194 41.9479C39.5379 42.2664 40.0689 42.2664 40.3874 41.9479C40.706 41.6293 40.706 41.0984 40.3874 40.7799C40.0689 40.4614 39.5379 40.4614 39.2194 40.7799C38.9008 41.0984 38.9008 41.6293 39.2194 41.9479Z" fill="#0A3B3C"/>
<path d="M50.7926 45.8756C51.1111 46.1941 51.642 46.1941 51.9605 45.8756C52.2791 45.5571 52.2791 45.0262 51.9605 44.7076C51.642 44.3891 51.1111 44.3891 50.7926 44.7076C50.4741 45.0262 50.4741 45.5571 50.7926 45.8756Z" fill="#0A3B3C"/>
<path d="M46.8644 41.9479C47.1829 42.2664 47.7138 42.2664 48.0323 41.9479C48.3508 41.6293 48.3508 41.0984 48.0323 40.7799C47.7138 40.4614 47.1829 40.4614 46.8644 40.7799C46.5459 41.0984 46.5459 41.6293 46.8644 41.9479Z" fill="#0A3B3C"/>
<path d="M43.0419 38.1256C43.3604 38.4441 43.8913 38.4441 44.2098 38.1256C44.5283 37.8071 44.5283 37.2762 44.2098 36.9576C43.8913 36.6391 43.3604 36.6391 43.0419 36.9576C42.7233 37.2762 42.7233 37.8071 43.0419 38.1256Z" fill="#0A3B3C"/>
<path d="M35.3973 49.6979C35.7159 50.0164 36.2467 50.0164 36.5653 49.6979C36.8838 49.3793 36.8838 48.8484 36.5653 48.5299C36.2467 48.2114 35.7159 48.2114 35.3973 48.5299C35.0788 48.8484 35.0788 49.3793 35.3973 49.6979Z" fill="#0A3B3C"/>
<path d="M31.4689 49.6979C31.7874 50.0164 32.3183 50.0164 32.6368 49.6979C32.9553 49.3793 32.9553 48.8484 32.6368 48.5299C32.3183 48.2114 31.7874 48.2114 31.4689 48.5299C31.1503 48.8484 31.1503 49.3793 31.4689 49.6979Z" fill="#0A3B3C"/>
<path d="M39.2194 49.6979C39.5379 50.0164 40.0689 50.0164 40.3874 49.6979C40.706 49.3793 40.706 48.8484 40.3874 48.5299C40.0689 48.2114 39.5379 48.2114 39.2194 48.5299C38.9008 48.8484 38.9008 49.3793 39.2194 49.6979Z" fill="#0A3B3C"/>
<path d="M35.3971 45.8756C35.7157 46.1941 36.2465 46.1941 36.5651 45.8756C36.8836 45.5571 36.8836 45.0262 36.5651 44.7077C36.2465 44.3891 35.7157 44.3891 35.3971 44.7077C34.9724 45.0262 34.9724 45.5571 35.3971 45.8756Z" fill="#0A3B3C"/>
<path d="M50.7924 30.3736C51.1109 30.6922 51.6418 30.6922 51.9603 30.3736C52.2788 30.0551 52.2788 29.5242 51.9603 29.2057C51.6418 28.8872 51.1109 28.8872 50.7924 29.2057C50.4738 29.6304 50.4738 30.0551 50.7924 30.3736Z" fill="#0A3B3C"/>
<path d="M46.8641 26.5514C47.1827 26.8699 47.7135 26.8699 48.0321 26.5514C48.3506 26.2328 48.3506 25.702 48.0321 25.3834C47.7135 25.0649 47.1827 25.0649 46.8641 25.3834C46.5456 25.702 46.5456 26.2328 46.8641 26.5514Z" fill="#0A3B3C"/>
<path d="M50.7924 22.7291C51.1109 23.0476 51.6418 23.0476 51.9603 22.7291C52.2788 22.4106 52.2788 21.8797 51.9603 21.5612C51.6418 21.2426 51.1109 21.2426 50.7924 21.5612C50.4738 21.8797 50.4738 22.4106 50.7924 22.7291Z" fill="#0A3B3C"/>
<path d="M46.8641 22.7291C47.1827 23.0476 47.7135 23.0476 48.0321 22.7291C48.3506 22.4106 48.3506 21.8797 48.0321 21.5612C47.7135 21.2426 47.1827 21.2426 46.8641 21.5612C46.5456 21.8797 46.5456 22.4106 46.8641 22.7291Z" fill="#0A3B3C"/>
<path d="M50.7924 26.5514C51.1109 26.8699 51.6418 26.8699 51.9603 26.5514C52.2788 26.2328 52.2788 25.702 51.9603 25.3834C51.6418 25.0649 51.1109 25.0649 50.7924 25.3834C50.4738 25.702 50.4738 26.2328 50.7924 26.5514Z" fill="#0A3B3C"/>
<path d="M50.7924 18.9068C51.1109 19.2254 51.6418 19.2254 51.9603 18.9068C52.2788 18.5883 52.2788 18.0574 51.9603 17.7389C51.6418 17.4204 51.1109 17.4204 50.7924 17.7389C50.4738 18.0574 50.4738 18.5883 50.7924 18.9068Z" fill="#0A3B3C"/>
<path d="M43.0414 22.7291C43.3599 23.0476 43.8908 23.0476 44.2093 22.7291C44.5278 22.4106 44.5278 21.8797 44.2093 21.5612C43.8908 21.2426 43.3599 21.2426 43.0414 21.5612C42.7229 21.8797 42.7229 22.4106 43.0414 22.7291Z" fill="#0A3B3C"/>
<path d="M46.8639 18.9068C47.1824 19.2254 47.7133 19.2254 48.0318 18.9068C48.3504 18.5883 48.3504 18.0574 48.0318 17.7389C47.7133 17.4204 47.1824 17.4204 46.8639 17.7389C46.5454 18.0574 46.5454 18.5883 46.8639 18.9068Z" fill="#0A3B3C"/>
<path d="M50.7924 14.9791C51.1109 15.2976 51.6418 15.2976 51.9603 14.9791C52.2788 14.6606 52.2788 14.1297 51.9603 13.8112C51.6418 13.4926 51.1109 13.4926 50.7924 13.8112C50.4738 14.1297 50.4738 14.6606 50.7924 14.9791Z" fill="#0A3B3C"/>
<path d="M43.0441 38.1256C43.3626 38.4441 43.8935 38.4441 44.212 38.1256C44.5305 37.8071 44.5305 37.2762 44.212 36.9576C43.8935 36.6391 43.3626 36.6391 43.0441 36.9576C42.7255 37.2762 42.7255 37.8071 43.0441 38.1256Z" fill="#0A3B3C"/>
<path d="M39.2216 34.3014C39.5401 34.6199 40.0711 34.6199 40.3896 34.3014C40.7082 33.9828 40.7082 33.452 40.3896 33.1334C40.0711 32.8149 39.5401 32.8149 39.2216 33.1334C38.903 33.452 38.903 33.9828 39.2216 34.3014Z" fill="#0A3B3C"/>
<path d="M46.8666 34.3014C47.1851 34.6199 47.716 34.6199 48.0345 34.3014C48.353 33.9828 48.353 33.452 48.0345 33.1334C47.716 32.8149 47.1851 32.8149 46.8666 33.1334C46.5481 33.452 46.5481 33.9828 46.8666 34.3014Z" fill="#0A3B3C"/>
<path d="M43.0441 30.3736C43.3626 30.6922 43.8935 30.6922 44.212 30.3736C44.5305 30.0551 44.5305 29.5242 44.212 29.2057C43.8935 28.8872 43.3626 28.8872 43.0441 29.2057C42.7255 29.6304 42.7255 30.0551 43.0441 30.3736Z" fill="#0A3B3C"/>
<path d="M39.2216 30.3736C39.5401 30.6922 40.0711 30.6922 40.3896 30.3736C40.7082 30.0551 40.7082 29.5242 40.3896 29.2057C40.0711 28.8872 39.5401 28.8872 39.2216 29.2057C38.903 29.6304 38.903 30.0551 39.2216 30.3736Z" fill="#0A3B3C"/>
<path d="M43.0441 34.3014C43.3626 34.6199 43.8935 34.6199 44.212 34.3014C44.5305 33.9828 44.5305 33.452 44.212 33.1334C43.8935 32.8149 43.3626 32.8149 43.0441 33.1334C42.7255 33.452 42.7255 33.9828 43.0441 34.3014Z" fill="#0A3B3C"/>
<path d="M43.0441 26.5514C43.3626 26.8699 43.8935 26.8699 44.212 26.5514C44.5305 26.2328 44.5305 25.702 44.212 25.3834C43.8935 25.0649 43.3626 25.0649 43.0441 25.3834C42.7255 25.702 42.7255 26.2328 43.0441 26.5514Z" fill="#0A3B3C"/>
<path d="M46.8666 30.3736C47.1851 30.6922 47.716 30.6922 48.0345 30.3736C48.353 30.0551 48.353 29.5242 48.0345 29.2057C47.716 28.8872 47.1851 28.8872 46.8666 29.2057C46.5481 29.6304 46.5481 30.0551 46.8666 30.3736Z" fill="#0A3B3C"/>
<path d="M35.3988 30.3736C35.7173 30.6922 36.2482 30.6922 36.5667 30.3736C36.8852 30.0551 36.8852 29.5242 36.5667 29.2057C36.2482 28.8872 35.7173 28.8872 35.3988 29.2057C35.0802 29.5242 34.9741 30.0551 35.3988 30.3736Z" fill="#0A3B3C"/>
<path d="M39.2216 26.5514C39.5401 26.8699 40.0711 26.8699 40.3896 26.5514C40.7082 26.2328 40.7082 25.702 40.3896 25.3834C40.0711 25.0649 39.5401 25.0649 39.2216 25.3834C38.903 25.702 38.903 26.2328 39.2216 26.5514Z" fill="#0A3B3C"/>
<path d="M50.7931 30.3736C51.1116 30.6922 51.6425 30.6922 51.961 30.3736C52.2796 30.0551 52.2796 29.5242 51.961 29.2057C51.6425 28.8872 51.1116 28.8872 50.7931 29.2057C50.4746 29.6304 50.4746 30.0551 50.7931 30.3736Z" fill="#0A3B3C"/>
<path d="M46.8649 26.5514C47.1834 26.8699 47.7143 26.8699 48.0328 26.5514C48.3513 26.2328 48.3513 25.702 48.0328 25.3834C47.7143 25.0649 47.1834 25.0649 46.8649 25.3834C46.5463 25.702 46.5463 26.2328 46.8649 26.5514Z" fill="#0A3B3C"/>
<path d="M43.0433 22.7291C43.3619 23.0476 43.8927 23.0476 44.2113 22.7291C44.5298 22.4106 44.5298 21.8797 44.2113 21.5612C43.8927 21.2426 43.3619 21.2426 43.0433 21.5612C42.7248 21.8797 42.7248 22.4106 43.0433 22.7291Z" fill="#0A3B3C"/>
<path d="M35.3974 45.8756C35.7159 46.1942 36.2468 46.1942 36.5653 45.8756C36.8838 45.5571 36.8838 45.0262 36.5653 44.7077C36.2468 44.3891 35.7159 44.3891 35.3974 44.7077C34.9727 45.0262 34.9727 45.5571 35.3974 45.8756Z" fill="#0A3B3C"/>
<path d="M31.4691 41.9459C31.7877 42.2644 32.3185 42.2644 32.637 41.9459C32.9556 41.6274 32.9556 41.0965 32.637 40.778C32.3185 40.4594 31.7877 40.4594 31.4691 40.778C31.1506 41.0965 31.1506 41.6274 31.4691 41.9459Z" fill="#0A3B3C"/>
<path d="M39.2199 41.9459C39.5384 42.2644 40.0694 42.2644 40.3879 41.9459C40.7064 41.6274 40.7064 41.0965 40.3879 40.778C40.0694 40.4594 39.5384 40.4594 39.2199 40.778C38.9013 41.0965 38.9013 41.6274 39.2199 41.9459Z" fill="#0A3B3C"/>
<path d="M35.3974 38.1236C35.7159 38.4422 36.2468 38.4422 36.5653 38.1236C36.8838 37.8051 36.8838 37.2742 36.5653 36.9557C36.2468 36.6372 35.7159 36.6372 35.3974 36.9557C34.9727 37.2742 34.9727 37.8051 35.3974 38.1236Z" fill="#0A3B3C"/>
<path d="M31.4691 38.1236C31.7877 38.4422 32.3185 38.4422 32.637 38.1236C32.9556 37.8051 32.9556 37.2742 32.637 36.9557C32.3185 36.6372 31.7877 36.6372 31.4691 36.9557C31.1506 37.2742 31.1506 37.8051 31.4691 38.1236Z" fill="#0A3B3C"/>
<path d="M35.3974 41.9459C35.7159 42.2644 36.2468 42.2644 36.5653 41.9459C36.8838 41.6274 36.8838 41.0965 36.5653 40.778C36.2468 40.4594 35.7159 40.4594 35.3974 40.778C34.9727 41.0965 34.9727 41.6274 35.3974 41.9459Z" fill="#0A3B3C"/>
<path d="M35.3974 34.3014C35.7159 34.6199 36.2468 34.6199 36.5653 34.3014C36.8838 33.9829 36.8838 33.452 36.5653 33.1334C36.2468 32.8149 35.7159 32.8149 35.3974 33.1334C34.9727 33.452 34.9727 33.9829 35.3974 34.3014Z" fill="#0A3B3C"/>
<path d="M39.2199 38.1236C39.5384 38.4422 40.0694 38.4422 40.3879 38.1236C40.7064 37.8051 40.7064 37.2742 40.3879 36.9557C40.0694 36.6372 39.5384 36.6372 39.2199 36.9557C38.9013 37.2742 38.9013 37.8051 39.2199 38.1236Z" fill="#0A3B3C"/>
<path d="M27.6464 38.1236C27.9649 38.4422 28.4958 38.4422 28.8143 38.1236C29.1328 37.8051 29.1328 37.2742 28.8143 36.9557C28.4958 36.6372 27.9649 36.6372 27.6464 36.9557C27.3278 37.2742 27.3278 37.8051 27.6464 38.1236Z" fill="#0A3B3C"/>
<path d="M31.4689 34.3014C31.7874 34.6199 32.3183 34.6199 32.6368 34.3014C32.9553 33.9829 32.9553 33.452 32.6368 33.1334C32.3183 32.8149 31.7874 32.8149 31.4689 33.1334C31.1503 33.452 31.1503 33.9829 31.4689 34.3014Z" fill="#0A3B3C"/>
<path d="M43.0414 38.1236C43.3599 38.4422 43.8908 38.4422 44.2093 38.1236C44.5278 37.8051 44.5278 37.2742 44.2093 36.9557C43.8908 36.6372 43.3599 36.6372 43.0414 36.9557C42.7229 37.2742 42.7229 37.8051 43.0414 38.1236Z" fill="#0A3B3C"/>
<path d="M39.2194 34.3014C39.5379 34.6199 40.0689 34.6199 40.3874 34.3014C40.706 33.9828 40.706 33.452 40.3874 33.1334C40.0689 32.8149 39.5379 32.8149 39.2194 33.1334C38.9008 33.452 38.9008 33.9828 39.2194 34.3014Z" fill="#0A3B3C"/>
<path d="M35.3968 30.3736C35.7154 30.6922 36.2462 30.6922 36.5647 30.3736C36.8833 30.0551 36.8833 29.5242 36.5647 29.2057C36.2462 28.8872 35.7154 28.8872 35.3968 29.2057C35.0783 29.5242 34.9721 30.0551 35.3968 30.3736Z" fill="#0A3B3C"/>
<path d="M23.8231 49.6979C24.1417 50.0164 24.6727 50.0164 24.9912 49.6979C25.3097 49.3793 25.3097 48.8484 24.9912 48.5299C24.6727 48.2114 24.1417 48.2114 23.8231 48.5299C23.5046 48.8484 23.5046 49.3793 23.8231 49.6979Z" fill="#0A3B3C"/>
<path d="M31.4681 49.6979C31.7867 50.0164 32.3175 50.0164 32.6361 49.6979C32.9546 49.3793 32.9546 48.8484 32.6361 48.5299C32.3175 48.2114 31.7867 48.2114 31.4681 48.5299C31.1496 48.8484 31.1496 49.3793 31.4681 49.6979Z" fill="#0A3B3C"/>
<path d="M27.6456 45.8756C27.9642 46.1941 28.495 46.1941 28.8136 45.8756C29.1321 45.5571 29.1321 45.0262 28.8136 44.7077C28.495 44.3891 27.9642 44.3891 27.6456 44.7077C27.3271 45.0262 27.3271 45.5571 27.6456 45.8756Z" fill="#0A3B3C"/>
<path d="M23.8231 45.8756C24.1417 46.1941 24.6727 46.1941 24.9912 45.8756C25.3097 45.5571 25.3097 45.0262 24.9912 44.7077C24.6727 44.3891 24.1417 44.3891 23.8231 44.7077C23.5046 45.0262 23.5046 45.5571 23.8231 45.8756Z" fill="#0A3B3C"/>
<path d="M27.6456 49.6979C27.9642 50.0164 28.495 50.0164 28.8136 49.6979C29.1321 49.3793 29.1321 48.8484 28.8136 48.5299C28.495 48.2114 27.9642 48.2114 27.6456 48.5299C27.3271 48.8484 27.3271 49.3793 27.6456 49.6979Z" fill="#0A3B3C"/>
<path d="M27.6456 41.9479C27.9642 42.2664 28.495 42.2664 28.8136 41.9479C29.1321 41.6293 29.1321 41.0984 28.8136 40.7799C28.495 40.4614 27.9642 40.4614 27.6456 40.7799C27.3271 41.0984 27.3271 41.6293 27.6456 41.9479Z" fill="#0A3B3C"/>
<path d="M31.4681 45.8756C31.7867 46.1941 32.3175 46.1941 32.6361 45.8756C32.9546 45.5571 32.9546 45.0262 32.6361 44.7077C32.3175 44.3891 31.7867 44.3891 31.4681 44.7077C31.1496 45.0262 31.1496 45.5571 31.4681 45.8756Z" fill="#0A3B3C"/>
<path d="M19.8947 45.8756C20.2132 46.1941 20.7441 46.1941 21.0626 45.8756C21.3811 45.5571 21.3811 45.0262 21.0626 44.7076C20.7441 44.3891 20.2132 44.3891 19.8947 44.7076C19.5761 45.0262 19.5761 45.5571 19.8947 45.8756Z" fill="#0A3B3C"/>
<path d="M23.8229 41.9479C24.1414 42.2664 24.6724 42.2664 24.9909 41.9479C25.3095 41.6293 25.3095 41.0984 24.9909 40.7799C24.6724 40.4614 24.1414 40.4614 23.8229 40.7799C23.5044 41.0984 23.5044 41.6293 23.8229 41.9479Z" fill="#0A3B3C"/>
<path d="M35.3971 45.8756C35.7157 46.1941 36.2465 46.1941 36.5651 45.8756C36.8836 45.5571 36.8836 45.0262 36.5651 44.7077C36.2465 44.3891 35.7157 44.3891 35.3971 44.7077C34.9724 45.0262 34.9724 45.5571 35.3971 45.8756Z" fill="#0A3B3C"/>
<path d="M31.4684 41.9479C31.7869 42.2664 32.3178 42.2664 32.6363 41.9479C32.9549 41.6293 32.9549 41.0984 32.6363 40.7799C32.3178 40.4614 31.7869 40.4614 31.4684 40.7799C31.1499 41.0984 31.1499 41.6293 31.4684 41.9479Z" fill="#0A3B3C"/>
<path d="M27.6459 38.1256C27.9644 38.4441 28.4953 38.4441 28.8138 38.1256C29.1323 37.8071 29.1323 37.2762 28.8138 36.9576C28.4953 36.6391 27.9644 36.6391 27.6459 36.9576C27.3273 37.2762 27.3273 37.8071 27.6459 38.1256Z" fill="#0A3B3C"/>
<path d="M19.8954 49.6979C20.2139 50.0164 20.7448 50.0164 21.0633 49.6979C21.3819 49.3793 21.3819 48.8484 21.0633 48.5299C20.7448 48.2114 20.2139 48.2114 19.8954 48.5299C19.5769 48.8484 19.5769 49.3793 19.8954 49.6979Z" fill="#0A3B3C"/>
<path d="M16.0741 49.6979C16.3926 50.0164 16.9235 50.0164 17.242 49.6979C17.5606 49.3793 17.5606 48.8484 17.242 48.5299C16.9235 48.2114 16.3926 48.2114 16.0741 48.5299C15.7556 48.8484 15.7556 49.3793 16.0741 49.6979Z" fill="#0A3B3C"/>
<path d="M23.8243 49.6979C24.1429 50.0164 24.6739 50.0164 24.9924 49.6979C25.3109 49.3793 25.3109 48.8484 24.9924 48.5299C24.6739 48.2114 24.1429 48.2114 23.8243 48.5299C23.5058 48.8484 23.5058 49.3793 23.8243 49.6979Z" fill="#0A3B3C"/>
<path d="M19.8961 45.8756C20.2147 46.1941 20.7455 46.1941 21.0641 45.8756C21.3826 45.5571 21.3826 45.0262 21.0641 44.7077C20.7455 44.3891 20.2147 44.3891 19.8961 44.7077C19.5776 45.0262 19.5776 45.5571 19.8961 45.8756Z" fill="#0A3B3C"/>
<path d="M43.0441 22.7311C43.3626 23.0496 43.8935 23.0496 44.212 22.7311C44.5305 22.4125 44.5305 21.8817 44.212 21.5631C43.8935 21.2446 43.3626 21.2446 43.0441 21.5631C42.7255 21.8817 42.7255 22.4125 43.0441 22.7311Z" fill="#0A3B3C"/>
<path d="M39.2216 18.9069C39.5401 19.2254 40.0711 19.2254 40.3896 18.9069C40.7082 18.5883 40.7082 18.0574 40.3896 17.7389C40.0711 17.4204 39.5401 17.4204 39.2216 17.7389C38.903 18.0574 38.903 18.5883 39.2216 18.9069Z" fill="#0A3B3C"/>
<path d="M46.8666 18.9069C47.1851 19.2254 47.716 19.2254 48.0345 18.9069C48.353 18.5883 48.353 18.0574 48.0345 17.7389C47.716 17.4204 47.1851 17.4204 46.8666 17.7389C46.5481 18.0574 46.5481 18.5883 46.8666 18.9069Z" fill="#0A3B3C"/>
<path d="M43.0441 14.9791C43.3626 15.2976 43.8935 15.2976 44.212 14.9791C44.5305 14.6606 44.5305 14.1297 44.212 13.8112C43.8935 13.4926 43.3626 13.4926 43.0441 13.8112C42.7255 14.1297 42.7255 14.6606 43.0441 14.9791Z" fill="#0A3B3C"/>
<path d="M39.2216 14.9791C39.5401 15.2976 40.0711 15.2976 40.3896 14.9791C40.7082 14.6606 40.7082 14.1297 40.3896 13.8112C40.0711 13.4926 39.5401 13.4926 39.2216 13.8112C38.903 14.1297 38.903 14.6606 39.2216 14.9791Z" fill="#0A3B3C"/>
<path d="M43.0441 18.9069C43.3626 19.2254 43.8935 19.2254 44.212 18.9069C44.5305 18.5883 44.5305 18.0574 44.212 17.7389C43.8935 17.4204 43.3626 17.4204 43.0441 17.7389C42.7255 18.0574 42.7255 18.5883 43.0441 18.9069Z" fill="#0A3B3C"/>
<path d="M46.8666 14.9791C47.1851 15.2976 47.716 15.2976 48.0345 14.9791C48.353 14.6606 48.353 14.1297 48.0345 13.8112C47.716 13.4926 47.1851 13.4926 46.8666 13.8112C46.5481 14.1297 46.5481 14.6606 46.8666 14.9791Z" fill="#0A3B3C"/>
<path d="M35.3988 14.9791C35.7173 15.2976 36.2482 15.2976 36.5667 14.9791C36.8852 14.6606 36.8852 14.1297 36.5667 13.8112C36.2482 13.4926 35.7173 13.4926 35.3988 13.8112C35.0802 14.1297 34.9741 14.6606 35.3988 14.9791Z" fill="#0A3B3C"/>
<path d="M50.7931 14.9791C51.1116 15.2976 51.6425 15.2976 51.961 14.9791C52.2796 14.6606 52.2796 14.1297 51.961 13.8112C51.6425 13.4926 51.1116 13.4926 50.7931 13.8112C50.4746 14.1297 50.4746 14.6606 50.7931 14.9791Z" fill="#0A3B3C"/>
<path d="M35.3971 30.3736C35.7156 30.6922 36.2465 30.6922 36.565 30.3736C36.8835 30.0551 36.8835 29.5242 36.565 29.2057C36.2465 28.8872 35.7156 28.8872 35.3971 29.2057C35.0785 29.5242 34.9724 30.0551 35.3971 30.3736Z" fill="#0A3B3C"/>
<path d="M31.4691 26.5514C31.7877 26.8699 32.3185 26.8699 32.637 26.5514C32.9556 26.2328 32.9556 25.702 32.637 25.3834C32.3185 25.0649 31.7877 25.0649 31.4691 25.3834C31.1506 25.702 31.1506 26.2328 31.4691 26.5514Z" fill="#0A3B3C"/>
<path d="M39.2199 26.5514C39.5384 26.8699 40.0694 26.8699 40.3879 26.5514C40.7064 26.2328 40.7064 25.702 40.3879 25.3834C40.0694 25.0649 39.5384 25.0649 39.2199 25.3834C38.9013 25.702 38.9013 26.2328 39.2199 26.5514Z" fill="#0A3B3C"/>
<path d="M35.3974 22.7291C35.7159 23.0476 36.2468 23.0476 36.5653 22.7291C36.8838 22.4106 36.8838 21.8797 36.5653 21.5612C36.2468 21.2426 35.7159 21.2426 35.3974 21.5612C34.9727 21.8797 34.9727 22.4106 35.3974 22.7291Z" fill="#0A3B3C"/>
<path d="M31.4691 22.7291C31.7877 23.0476 32.3185 23.0476 32.637 22.7291C32.9556 22.4106 32.9556 21.8797 32.637 21.5612C32.3185 21.2426 31.7877 21.2426 31.4691 21.5612C31.1506 21.8797 31.1506 22.4106 31.4691 22.7291Z" fill="#0A3B3C"/>
<path d="M35.3974 26.5514C35.7159 26.8699 36.2468 26.8699 36.5653 26.5514C36.8838 26.2328 36.8838 25.702 36.5653 25.3834C36.2468 25.0649 35.7159 25.0649 35.3974 25.3834C34.9727 25.702 34.9727 26.2328 35.3974 26.5514Z" fill="#0A3B3C"/>
<path d="M35.3974 18.9068C35.7159 19.2254 36.2468 19.2254 36.5653 18.9068C36.8838 18.5883 36.8838 18.0574 36.5653 17.7389C36.2468 17.4204 35.7159 17.4204 35.3974 17.7389C34.9727 18.0574 34.9727 18.5883 35.3974 18.9068Z" fill="#0A3B3C"/>
<path d="M39.2199 22.7291C39.5384 23.0476 40.0694 23.0476 40.3879 22.7291C40.7064 22.4106 40.7064 21.8797 40.3879 21.5612C40.0694 21.2426 39.5384 21.2426 39.2199 21.5612C38.9013 21.8797 38.9013 22.4106 39.2199 22.7291Z" fill="#0A3B3C"/>
<path d="M27.6464 22.7291C27.9649 23.0476 28.4958 23.0476 28.8143 22.7291C29.1328 22.4106 29.1328 21.8797 28.8143 21.5612C28.4958 21.2426 27.9649 21.2426 27.6464 21.5612C27.3278 21.8797 27.3278 22.4106 27.6464 22.7291Z" fill="#0A3B3C"/>
<path d="M31.4689 18.9068C31.7874 19.2254 32.3183 19.2254 32.6368 18.9068C32.9553 18.5883 32.9553 18.0574 32.6368 17.7389C32.3183 17.4204 31.7874 17.4204 31.4689 17.7389C31.1503 18.0574 31.1503 18.5883 31.4689 18.9068Z" fill="#0A3B3C"/>
<path d="M43.0414 22.7291C43.3599 23.0476 43.8908 23.0476 44.2093 22.7291C44.5278 22.4106 44.5278 21.8797 44.2093 21.5612C43.8908 21.2426 43.3599 21.2426 43.0414 21.5612C42.7229 21.8797 42.7229 22.4106 43.0414 22.7291Z" fill="#0A3B3C"/>
<path d="M39.2194 18.9068C39.5379 19.2254 40.0689 19.2254 40.3874 18.9068C40.706 18.5883 40.706 18.0574 40.3874 17.7389C40.0689 17.4204 39.5379 17.4204 39.2194 17.7389C38.9008 18.0574 38.9008 18.5883 39.2194 18.9068Z" fill="#0A3B3C"/>
<path d="M35.3968 14.9791C35.7154 15.2976 36.2462 15.2976 36.5647 14.9791C36.8833 14.6606 36.8833 14.1297 36.5647 13.8112C36.2462 13.4926 35.7154 13.4926 35.3968 13.8112C35.0783 14.1297 34.9721 14.6606 35.3968 14.9791Z" fill="#0A3B3C"/>
<path d="M27.6456 38.1256C27.9642 38.4441 28.495 38.4441 28.8136 38.1256C29.1321 37.8071 29.1321 37.2762 28.8136 36.9576C28.495 36.6391 27.9642 36.6391 27.6456 36.9576C27.3271 37.2762 27.3271 37.8071 27.6456 38.1256Z" fill="#0A3B3C"/>
<path d="M23.8231 34.3014C24.1417 34.6199 24.6727 34.6199 24.9912 34.3014C25.3097 33.9828 25.3097 33.452 24.9912 33.1334C24.6727 32.8149 24.1417 32.8149 23.8231 33.1334C23.5046 33.452 23.5046 33.9828 23.8231 34.3014Z" fill="#0A3B3C"/>
<path d="M31.4681 34.3014C31.7867 34.6199 32.3175 34.6199 32.6361 34.3014C32.9546 33.9828 32.9546 33.452 32.6361 33.1334C32.3175 32.8149 31.7867 32.8149 31.4681 33.1334C31.1496 33.452 31.1496 33.9828 31.4681 34.3014Z" fill="#0A3B3C"/>
<path d="M27.6456 30.3736C27.9642 30.6922 28.495 30.6922 28.8136 30.3736C29.1321 30.0551 29.1321 29.5242 28.8136 29.2057C28.495 28.8872 27.9642 28.8872 27.6456 29.2057C27.3271 29.6304 27.3271 30.0551 27.6456 30.3736Z" fill="#0A3B3C"/>
<path d="M23.8231 30.3736C24.1417 30.6922 24.6727 30.6922 24.9912 30.3736C25.3097 30.0551 25.3097 29.5242 24.9912 29.2057C24.6727 28.8872 24.1417 28.8872 23.8231 29.2057C23.5046 29.6304 23.5046 30.0551 23.8231 30.3736Z" fill="#0A3B3C"/>
<path d="M27.6456 34.3014C27.9642 34.6199 28.495 34.6199 28.8136 34.3014C29.1321 33.9828 29.1321 33.452 28.8136 33.1334C28.495 32.8149 27.9642 32.8149 27.6456 33.1334C27.3271 33.452 27.3271 33.9828 27.6456 34.3014Z" fill="#0A3B3C"/>
<path d="M27.6456 26.5514C27.9642 26.8699 28.495 26.8699 28.8136 26.5514C29.1321 26.2328 29.1321 25.702 28.8136 25.3834C28.495 25.0649 27.9642 25.0649 27.6456 25.3834C27.3271 25.702 27.3271 26.2328 27.6456 26.5514Z" fill="#0A3B3C"/>
<path d="M31.4681 30.3736C31.7867 30.6922 32.3175 30.6922 32.6361 30.3736C32.9546 30.0551 32.9546 29.5242 32.6361 29.2057C32.3175 28.8872 31.7867 28.8872 31.4681 29.2057C31.1496 29.6304 31.1496 30.0551 31.4681 30.3736Z" fill="#0A3B3C"/>
<path d="M19.8947 30.3736C20.2132 30.6922 20.7441 30.6922 21.0626 30.3736C21.3811 30.0551 21.3811 29.5242 21.0626 29.2057C20.7441 28.8872 20.2132 28.8872 19.8947 29.2057C19.5761 29.6304 19.5761 30.0551 19.8947 30.3736Z" fill="#0A3B3C"/>
<path d="M23.8229 26.5514C24.1414 26.8699 24.6724 26.8699 24.9909 26.5514C25.3095 26.2328 25.3095 25.702 24.9909 25.3834C24.6724 25.0649 24.1414 25.0649 23.8229 25.3834C23.5044 25.702 23.5044 26.2328 23.8229 26.5514Z" fill="#0A3B3C"/>
<path d="M35.3968 30.3736C35.7154 30.6922 36.2462 30.6922 36.5647 30.3736C36.8833 30.0551 36.8833 29.5242 36.5647 29.2057C36.2462 28.8872 35.7154 28.8872 35.3968 29.2057C35.0783 29.5242 34.9721 30.0551 35.3968 30.3736Z" fill="#0A3B3C"/>
<path d="M31.4684 26.5514C31.7869 26.8699 32.3178 26.8699 32.6363 26.5514C32.9549 26.2328 32.9549 25.702 32.6363 25.3834C32.3178 25.0649 31.7869 25.0649 31.4684 25.3834C31.1499 25.702 31.1499 26.2328 31.4684 26.5514Z" fill="#0A3B3C"/>
<path d="M27.6459 22.7291C27.9644 23.0476 28.4953 23.0476 28.8138 22.7291C29.1323 22.4106 29.1323 21.8797 28.8138 21.5612C28.4953 21.2426 27.9644 21.2426 27.6459 21.5612C27.3273 21.8797 27.3273 22.4106 27.6459 22.7291Z" fill="#0A3B3C"/>
<path d="M19.8954 45.8756C20.2139 46.1941 20.7448 46.1941 21.0633 45.8756C21.3819 45.5571 21.3819 45.0262 21.0633 44.7076C20.7448 44.3891 20.2139 44.3891 19.8954 44.7076C19.5769 45.0262 19.5769 45.5571 19.8954 45.8756Z" fill="#0A3B3C"/>
<path d="M16.0729 41.9459C16.3914 42.2644 16.9223 42.2644 17.2408 41.9459C17.5593 41.6274 17.5593 41.0965 17.2408 40.778C16.9223 40.4594 16.3914 40.4594 16.0729 40.778C15.7544 41.0965 15.7544 41.6274 16.0729 41.9459Z" fill="#0A3B3C"/>
<path d="M23.8236 41.9459C24.1421 42.2644 24.6731 42.2644 24.9917 41.9459C25.3102 41.6274 25.3102 41.0965 24.9917 40.778C24.6731 40.4594 24.1421 40.4594 23.8236 40.778C23.5051 41.0965 23.5051 41.6274 23.8236 41.9459Z" fill="#0A3B3C"/>
<path d="M19.8954 38.1237C20.2139 38.4422 20.7448 38.4422 21.0633 38.1237C21.3819 37.8051 21.3819 37.2742 21.0633 36.9557C20.7448 36.6372 20.2139 36.6372 19.8954 36.9557C19.5769 37.2742 19.5769 37.8051 19.8954 38.1237Z" fill="#0A3B3C"/>
<path d="M16.0729 38.1237C16.3914 38.4422 16.9223 38.4422 17.2408 38.1237C17.5593 37.8051 17.5593 37.2742 17.2408 36.9557C16.9223 36.6372 16.3914 36.6372 16.0729 36.9557C15.7544 37.2742 15.7544 37.8051 16.0729 38.1237Z" fill="#0A3B3C"/>
<path d="M19.8954 41.9459C20.2139 42.2644 20.7448 42.2644 21.0633 41.9459C21.3819 41.6274 21.3819 41.0965 21.0633 40.778C20.7448 40.4594 20.2139 40.4594 19.8954 40.778C19.5769 41.0965 19.5769 41.6274 19.8954 41.9459Z" fill="#0A3B3C"/>
<path d="M19.8954 34.3014C20.2139 34.6199 20.7448 34.6199 21.0633 34.3014C21.3819 33.9828 21.3819 33.452 21.0633 33.1334C20.7448 32.8149 20.2139 32.8149 19.8954 33.1334C19.5769 33.452 19.5769 33.9828 19.8954 34.3014Z" fill="#0A3B3C"/>
<path d="M23.8236 38.1237C24.1421 38.4422 24.6731 38.4422 24.9917 38.1237C25.3102 37.8051 25.3102 37.2742 24.9917 36.9557C24.6731 36.6372 24.1421 36.6372 23.8236 36.9557C23.5051 37.2742 23.5051 37.8051 23.8236 38.1237Z" fill="#0A3B3C"/>
<path d="M16.0741 34.3014C16.3926 34.6199 16.9235 34.6199 17.242 34.3014C17.5606 33.9828 17.5606 33.452 17.242 33.1334C16.9235 32.8149 16.3926 32.8149 16.0741 33.1334C15.7556 33.452 15.7556 33.9828 16.0741 34.3014Z" fill="#0A3B3C"/>
<path d="M27.6469 38.1237C27.9654 38.4422 28.4963 38.4422 28.8148 38.1237C29.1333 37.8051 29.1333 37.2742 28.8148 36.9557C28.4963 36.6372 27.9654 36.6372 27.6469 36.9557C27.3283 37.2742 27.3283 37.8051 27.6469 38.1237Z" fill="#0A3B3C"/>
<path d="M23.8243 34.3014C24.1429 34.6199 24.6739 34.6199 24.9924 34.3014C25.3109 33.9828 25.3109 33.452 24.9924 33.1334C24.6739 32.8149 24.1429 32.8149 23.8243 33.1334C23.5058 33.452 23.5058 33.9828 23.8243 34.3014Z" fill="#0A3B3C"/>
<path d="M19.8961 30.3736C20.2147 30.6922 20.7455 30.6922 21.0641 30.3736C21.3826 30.0551 21.3826 29.5242 21.0641 29.2057C20.7455 28.8872 20.2147 28.8872 19.8961 29.2057C19.5776 29.6304 19.5776 30.0551 19.8961 30.3736Z" fill="#0A3B3C"/>
<path d="M16.0731 49.6979C16.3917 50.0164 16.9225 50.0164 17.2411 49.6979C17.5596 49.3793 17.5596 48.8484 17.2411 48.5299C16.9225 48.2114 16.3917 48.2114 16.0731 48.5299C15.7546 48.8484 15.7546 49.3793 16.0731 49.6979Z" fill="#0A3B3C"/>
<path d="M16.0731 45.8756C16.3917 46.1941 16.9225 46.1941 17.2411 45.8756C17.5596 45.5571 17.5596 45.0262 17.2411 44.7076C16.9225 44.3891 16.3917 44.3891 16.0731 44.7076C15.7546 45.0262 15.7546 45.5571 16.0731 45.8756Z" fill="#0A3B3C"/>
<path d="M19.8947 45.8756C20.2132 46.1941 20.7441 46.1941 21.0626 45.8756C21.3811 45.5571 21.3811 45.0262 21.0626 44.7076C20.7441 44.3891 20.2132 44.3891 19.8947 44.7076C19.5761 45.0262 19.5761 45.5571 19.8947 45.8756Z" fill="#0A3B3C"/>
<path d="M16.0729 41.9479C16.3914 42.2664 16.9223 42.2664 17.2408 41.9479C17.5593 41.6293 17.5593 41.0984 17.2408 40.7799C16.9223 40.4614 16.3914 40.4614 16.0729 40.7799C15.7544 41.0984 15.7544 41.6293 16.0729 41.9479Z" fill="#0A3B3C"/>
<path d="M35.3971 14.9791C35.7156 15.2976 36.2465 15.2976 36.565 14.9791C36.8835 14.6606 36.8835 14.1297 36.565 13.8112C36.2465 13.4926 35.7156 13.4926 35.3971 13.8112C35.0785 14.1297 34.9724 14.6606 35.3971 14.9791Z" fill="#0A3B3C"/>
<path d="M27.6456 22.7311C27.9642 23.0496 28.495 23.0496 28.8136 22.7311C29.1321 22.4125 29.1321 21.8817 28.8136 21.5631C28.495 21.2446 27.9642 21.2446 27.6456 21.5631C27.3271 21.8817 27.3271 22.4125 27.6456 22.7311Z" fill="#0A3B3C"/>
<path d="M23.8231 18.9088C24.1417 19.2273 24.6727 19.2273 24.9912 18.9088C25.3097 18.5903 25.3097 18.0594 24.9912 17.7409C24.6727 17.4223 24.1417 17.4223 23.8231 17.7409C23.5046 18.0594 23.5046 18.5903 23.8231 18.9088Z" fill="#0A3B3C"/>
<path d="M31.4681 18.9088C31.7867 19.2273 32.3175 19.2273 32.6361 18.9088C32.9546 18.5903 32.9546 18.0594 32.6361 17.7409C32.3175 17.4223 31.7867 17.4223 31.4681 17.7409C31.1496 18.0594 31.1496 18.5903 31.4681 18.9088Z" fill="#0A3B3C"/>
<path d="M27.6456 14.9791C27.9642 15.2976 28.495 15.2976 28.8136 14.9791C29.1321 14.6606 29.1321 14.1297 28.8136 13.8112C28.495 13.4926 27.9642 13.4926 27.6456 13.8112C27.3271 14.1297 27.3271 14.6606 27.6456 14.9791Z" fill="#0A3B3C"/>
<path d="M23.8231 14.9791C24.1417 15.2976 24.6727 15.2976 24.9912 14.9791C25.3097 14.6606 25.3097 14.1297 24.9912 13.8112C24.6727 13.4926 24.1417 13.4926 23.8231 13.8112C23.5046 14.1297 23.5046 14.6606 23.8231 14.9791Z" fill="#0A3B3C"/>
<path d="M27.6456 18.9088C27.9642 19.2273 28.495 19.2273 28.8136 18.9088C29.1321 18.5903 29.1321 18.0594 28.8136 17.7409C28.495 17.4223 27.9642 17.4223 27.6456 17.7409C27.3271 18.0594 27.3271 18.5903 27.6456 18.9088Z" fill="#0A3B3C"/>
<path d="M31.4681 14.9791C31.7867 15.2976 32.3175 15.2976 32.6361 14.9791C32.9546 14.6606 32.9546 14.1297 32.6361 13.8112C32.3175 13.4926 31.7867 13.4926 31.4681 13.8112C31.1496 14.1297 31.1496 14.6606 31.4681 14.9791Z" fill="#0A3B3C"/>
<path d="M19.8947 14.9791C20.2132 15.2976 20.7441 15.2976 21.0626 14.9791C21.3811 14.6606 21.3811 14.1297 21.0626 13.8112C20.7441 13.4926 20.2132 13.4926 19.8947 13.8112C19.5761 14.1297 19.5761 14.6606 19.8947 14.9791Z" fill="#0A3B3C"/>
<path d="M35.3968 14.9791C35.7154 15.2976 36.2462 15.2976 36.5647 14.9791C36.8833 14.6606 36.8833 14.1297 36.5647 13.8112C36.2462 13.4926 35.7154 13.4926 35.3968 13.8112C35.0783 14.1297 34.9721 14.6606 35.3968 14.9791Z" fill="#0A3B3C"/>
<path d="M19.8954 30.3736C20.2139 30.6922 20.7448 30.6922 21.0633 30.3736C21.3819 30.0551 21.3819 29.5242 21.0633 29.2057C20.7448 28.8872 20.2139 28.8872 19.8954 29.2057C19.5769 29.6304 19.5769 30.0551 19.8954 30.3736Z" fill="#0A3B3C"/>
<path d="M16.0729 26.5514C16.3914 26.8699 16.9223 26.8699 17.2408 26.5514C17.5593 26.2328 17.5593 25.702 17.2408 25.3834C16.9223 25.0649 16.3914 25.0649 16.0729 25.3834C15.7544 25.702 15.7544 26.2328 16.0729 26.5514Z" fill="#0A3B3C"/>
<path d="M23.8236 26.5514C24.1421 26.8699 24.6731 26.8699 24.9917 26.5514C25.3102 26.2328 25.3102 25.702 24.9917 25.3834C24.6731 25.0649 24.1421 25.0649 23.8236 25.3834C23.5051 25.702 23.5051 26.2328 23.8236 26.5514Z" fill="#0A3B3C"/>
<path d="M19.8954 22.7291C20.2139 23.0476 20.7448 23.0476 21.0633 22.7291C21.3819 22.4106 21.3819 21.8797 21.0633 21.5612C20.7448 21.2426 20.2139 21.2426 19.8954 21.5612C19.5769 21.8797 19.5769 22.4106 19.8954 22.7291Z" fill="#0A3B3C"/>
<path d="M16.0729 22.7291C16.3914 23.0476 16.9223 23.0476 17.2408 22.7291C17.5593 22.4106 17.5593 21.8797 17.2408 21.5612C16.9223 21.2426 16.3914 21.2426 16.0729 21.5612C15.7544 21.8797 15.7544 22.4106 16.0729 22.7291Z" fill="#0A3B3C"/>
<path d="M19.8954 26.5514C20.2139 26.8699 20.7448 26.8699 21.0633 26.5514C21.3819 26.2328 21.3819 25.702 21.0633 25.3834C20.7448 25.0649 20.2139 25.0649 19.8954 25.3834C19.5769 25.702 19.5769 26.2328 19.8954 26.5514Z" fill="#0A3B3C"/>
<path d="M19.8954 18.9068C20.2139 19.2254 20.7448 19.2254 21.0633 18.9068C21.3819 18.5883 21.3819 18.0574 21.0633 17.7389C20.7448 17.4204 20.2139 17.4204 19.8954 17.7389C19.5769 18.0574 19.5769 18.5883 19.8954 18.9068Z" fill="#0A3B3C"/>
<path d="M23.8236 22.7291C24.1421 23.0476 24.6731 23.0476 24.9917 22.7291C25.3102 22.4106 25.3102 21.8797 24.9917 21.5612C24.6731 21.2426 24.1421 21.2426 23.8236 21.5612C23.5051 21.8797 23.5051 22.4106 23.8236 22.7291Z" fill="#0A3B3C"/>
<path d="M16.0741 18.9068C16.3926 19.2254 16.9235 19.2254 17.242 18.9068C17.5606 18.5883 17.5606 18.0574 17.242 17.7389C16.9235 17.4204 16.3926 17.4204 16.0741 17.7389C15.7556 18.0574 15.7556 18.5883 16.0741 18.9068Z" fill="#0A3B3C"/>
<path d="M27.6469 22.7291C27.9654 23.0476 28.4963 23.0476 28.8148 22.7291C29.1333 22.4106 29.1333 21.8797 28.8148 21.5612C28.4963 21.2426 27.9654 21.2426 27.6469 21.5612C27.3283 21.8797 27.3283 22.4106 27.6469 22.7291Z" fill="#0A3B3C"/>
<path d="M23.8243 18.9068C24.1429 19.2254 24.6739 19.2254 24.9924 18.9068C25.3109 18.5883 25.3109 18.0574 24.9924 17.7389C24.6739 17.4204 24.1429 17.4204 23.8243 17.7389C23.5058 18.0574 23.5058 18.5883 23.8243 18.9068Z" fill="#0A3B3C"/>
<path d="M19.8961 14.9791C20.2147 15.2976 20.7455 15.2976 21.0641 14.9791C21.3826 14.6606 21.3826 14.1297 21.0641 13.8112C20.7455 13.4926 20.2147 13.4926 19.8961 13.8112C19.5776 14.1297 19.5776 14.6606 19.8961 14.9791Z" fill="#0A3B3C"/>
<path d="M16.0731 34.3014C16.3917 34.6199 16.9225 34.6199 17.2411 34.3014C17.5596 33.9828 17.5596 33.452 17.2411 33.1334C16.9225 32.8149 16.3917 32.8149 16.0731 33.1334C15.7546 33.452 15.7546 33.9828 16.0731 34.3014Z" fill="#0A3B3C"/>
<path d="M16.0731 30.3736C16.3917 30.6922 16.9225 30.6922 17.2411 30.3736C17.5596 30.0551 17.5596 29.5242 17.2411 29.2057C16.9225 28.8872 16.3917 28.8872 16.0731 29.2057C15.7546 29.6304 15.7546 30.0551 16.0731 30.3736Z" fill="#0A3B3C"/>
<path d="M19.8947 30.3736C20.2132 30.6922 20.7441 30.6922 21.0626 30.3736C21.3811 30.0551 21.3811 29.5242 21.0626 29.2057C20.7441 28.8872 20.2132 28.8872 19.8947 29.2057C19.5761 29.6304 19.5761 30.0551 19.8947 30.3736Z" fill="#0A3B3C"/>
<path d="M16.0729 26.5514C16.3914 26.8699 16.9223 26.8699 17.2408 26.5514C17.5593 26.2328 17.5593 25.702 17.2408 25.3834C16.9223 25.0649 16.3914 25.0649 16.0729 25.3834C15.7544 25.702 15.7544 26.2328 16.0729 26.5514Z" fill="#0A3B3C"/>
<path d="M19.8954 14.9791C20.2139 15.2976 20.7448 15.2976 21.0633 14.9791C21.3819 14.6606 21.3819 14.1297 21.0633 13.8112C20.7448 13.4926 20.2139 13.4926 19.8954 13.8112C19.5769 14.1297 19.5769 14.6606 19.8954 14.9791Z" fill="#0A3B3C"/>
<path d="M16.0731 18.9049C16.3917 19.2234 16.9225 19.2234 17.2411 18.9049C17.5596 18.5864 17.5596 18.0555 17.2411 17.7369C16.9225 17.4184 16.3917 17.4184 16.0731 17.7369C15.7546 18.0555 15.7546 18.5864 16.0731 18.9049Z" fill="#0A3B3C"/>
<path d="M16.0731 14.9772C16.3917 15.2957 16.9225 15.2957 17.2411 14.9772C17.5596 14.6586 17.5596 14.1277 17.2411 13.8092C16.9225 13.4907 16.3917 13.4907 16.0731 13.8092C15.7546 14.1277 15.7546 14.6586 16.0731 14.9772Z" fill="#0A3B3C"/>
<path d="M19.8947 14.9772C20.2132 15.2957 20.7441 15.2957 21.0626 14.9772C21.3811 14.6586 21.3811 14.1277 21.0626 13.8092C20.7441 13.4907 20.2132 13.4907 19.8947 13.8092C19.5761 14.1277 19.5761 14.6586 19.8947 14.9772Z" fill="#0A3B3C"/>
</g>
<path fill-rule="evenodd" clip-rule="evenodd" d="M38.4267 11.9544C38.7374 11.6715 39.1856 11.5985 39.57 11.7681C47.0058 15.0486 51.9222 22.481 51.9222 30.7847C51.9222 42.2604 42.6316 51.5509 31.1559 51.5509C24.1679 51.5509 17.8215 48.1624 13.9929 42.4743C13.7562 42.1225 13.7514 41.6636 13.9809 41.307C14.2103 40.9503 14.63 40.7645 15.0483 40.8342C16.2313 41.0314 17.521 41.1309 18.7109 41.1309C30.1547 41.1309 39.4279 31.8577 39.4279 20.4139C39.4279 17.8595 38.9378 15.486 38.1342 13.0752C38.0013 12.6766 38.116 12.2372 38.4267 11.9544ZM40.8533 14.828C41.2929 16.622 41.5514 18.4627 41.5514 20.4139C41.5514 33.0304 31.3274 43.2543 18.7109 43.2543C18.2312 43.2543 17.7368 43.2396 17.2382 43.2101C20.7072 47.141 25.7049 49.4275 31.1559 49.4275C41.4589 49.4275 49.7988 41.0877 49.7988 30.7847C49.7988 24.1553 46.3102 18.1481 40.8533 14.828Z" fill="#0B3B3D"/>
</svg>
