<svg width="59" height="62" viewBox="0 0 59 62" fill="none" xmlns="http://www.w3.org/2000/svg">
<path fill-rule="evenodd" clip-rule="evenodd" d="M20.8229 20.9195C23.0004 22.335 25.4184 23.9069 29.6001 23.9069C33.7988 23.9069 36.2212 22.347 38.4016 20.9429C38.4422 20.9168 38.4827 20.8907 38.5232 20.8646C39.6208 20.1583 40.7628 19.43 42.0395 19.0847C43.3704 18.7248 44.7893 18.7908 46.4559 19.5099L46.4694 19.5157L46.4693 19.5158C48.315 20.3452 49.3232 21.9855 49.8485 23.8889C50.3652 25.7612 50.448 27.9934 50.3973 30.2328C50.3687 31.4953 50.2925 32.8557 50.2181 34.1827C50.1633 35.1598 50.1095 36.1188 50.0766 37.0074C49.9952 39.199 50.0281 41.1278 50.3694 42.624L50.3703 42.6277C50.8341 44.6938 51.6545 46.1106 52.5146 47.0228L53.119 47.6638L52.6193 48.3993C47.5152 55.9118 39.0791 60.8832 29.6001 60.8832C20.1219 60.8832 11.7871 56.0192 6.58247 48.4016L6.07959 47.6656L6.68559 47.0228C7.54569 46.1106 8.36613 44.6938 8.82994 42.6277L8.83079 42.624C9.17205 41.128 9.205 39.1926 9.12364 36.9922C9.09063 36.0995 9.03685 35.1363 8.98206 34.1551C8.9077 32.8234 8.8315 31.4588 8.80291 30.1928C8.7522 27.9474 8.83492 25.7112 9.35193 23.8432C9.87706 21.9458 10.8868 20.3142 12.7374 19.5128C14.4011 18.7666 15.8216 18.6837 17.1568 19.0387C18.4379 19.3794 19.5825 20.1138 20.6805 20.8269C20.7279 20.8577 20.7753 20.8885 20.8229 20.9195ZM16.6682 21.106C15.7885 20.8721 14.8123 20.895 13.5149 21.4781L13.5015 21.4841L13.5014 21.484C12.3925 21.9624 11.6961 22.9399 11.28 24.4434C10.8551 25.9787 10.762 27.9382 10.8117 30.1417C10.8405 31.4135 10.9116 32.671 10.9834 33.9414C11.0387 34.9187 11.0944 35.9037 11.1315 36.9087C11.2134 39.1231 11.1961 41.3163 10.7843 43.1233C10.338 45.1101 9.58771 46.6687 8.69367 47.8377C13.5593 54.5289 21.0805 58.752 29.6001 58.752C38.1151 58.752 45.7265 54.434 50.5076 47.8392C49.6131 46.67 48.8624 45.1109 48.4159 43.1233C48.0041 41.3164 47.9868 39.1301 48.0687 36.9236C48.1059 35.9222 48.1615 34.9414 48.2168 33.9682C48.2886 32.7026 48.3597 31.4499 48.3885 30.1816C48.4382 27.9855 48.3452 26.0285 47.92 24.4876C47.5042 22.9807 46.8063 21.9845 45.6918 21.481C44.398 20.9243 43.42 20.9108 42.5359 21.1499C41.5959 21.4041 40.7035 21.9544 39.5655 22.6867C39.5176 22.7175 39.4695 22.7485 39.4211 22.7797C37.1856 24.2197 34.3628 26.0381 29.6001 26.0381C24.8493 26.0381 22.0272 24.2027 19.7976 22.7527C19.7418 22.7163 19.6863 22.6803 19.6312 22.6444C18.4937 21.9057 17.6037 21.3547 16.6682 21.106Z" fill="#0B3B3D"/>
<path fill-rule="evenodd" clip-rule="evenodd" d="M1.16675 30.7268C1.16675 14.0477 13.874 0.570312 29.6 0.570312C45.326 0.570312 58.0333 14.0477 58.0333 30.7268C58.0333 37.3509 56.0541 43.4318 52.6143 48.4066L51.9218 49.4082L51.0937 48.5299C49.9447 47.3113 48.9569 45.5319 48.4159 43.1234C48.004 41.3164 47.9867 39.1233 48.0686 36.9088C48.1058 35.9039 48.1615 34.9189 48.2167 33.9415C48.2886 32.6711 48.3597 31.4136 48.3884 30.1419C48.4382 27.9384 48.345 25.9788 47.9201 24.4435C47.504 22.94 46.8076 21.9625 45.6987 21.4841L45.6852 21.4783L45.6853 21.4782C44.3879 20.8951 43.4116 20.8722 42.532 21.1061C41.5964 21.3549 40.7064 21.9058 39.569 22.6446C39.5139 22.6804 39.4584 22.7165 39.4025 22.7528C37.173 24.2028 34.3508 26.0382 29.6 26.0382C24.8373 26.0382 22.0146 24.2199 19.7791 22.7798C19.7306 22.7486 19.6825 22.7176 19.6346 22.6868C18.4967 21.9545 17.6042 21.4042 16.6642 21.15C15.7785 20.9105 14.7987 20.9244 13.5014 21.4841C12.3924 21.9625 11.6961 22.94 11.2799 24.4435C10.855 25.9788 10.7619 27.9384 10.8117 30.1419C10.8404 31.4136 10.9115 32.6711 10.9833 33.9415C11.0386 34.9189 11.0943 35.9039 11.1314 36.9088C11.2133 39.1233 11.1961 41.3164 10.7842 43.1234C10.2432 45.5319 9.25541 47.3113 8.10639 48.5299L7.2783 49.4082L6.58575 48.4066C3.146 43.4318 1.16675 37.3509 1.16675 30.7268ZM29.6 2.70151C14.9838 2.70151 3.17617 15.2248 3.17617 30.7268C3.17617 36.3975 4.73273 41.6259 7.46731 46.0205C8.02165 45.1662 8.51037 44.0511 8.82986 42.6279L8.83071 42.6241C9.17197 41.1281 9.20492 39.1928 9.12356 36.9924C9.09056 36.0997 9.03677 35.1364 8.98198 34.1552C8.90762 32.8235 8.83142 31.4589 8.80283 30.1929C8.75212 27.9475 8.83484 25.7113 9.35185 23.8433C9.87763 21.9436 10.8892 20.3103 12.7442 19.51C14.4108 18.791 15.8297 18.725 17.1606 19.0849C18.4373 19.4301 19.5794 20.1584 20.6769 20.8647C20.7174 20.8908 20.7579 20.9169 20.7986 20.9431C22.979 22.3471 25.4013 23.907 29.6 23.907C33.7818 23.907 36.1997 22.3351 38.3773 20.9196C38.4248 20.8887 38.4723 20.8578 38.5196 20.8271C39.6176 20.1139 40.7622 19.3795 42.0433 19.0389C43.3785 18.6838 44.799 18.7667 46.4627 19.513C48.3133 20.3143 49.3231 21.9459 49.8482 23.8433C50.3652 25.7113 50.4479 27.9475 50.3972 30.1929C50.3686 31.4589 50.2924 32.8235 50.2181 34.1552C50.1633 35.1364 50.1095 36.0997 50.0765 36.9924C49.9951 39.1928 50.0281 41.1281 50.3694 42.6241L50.3702 42.6279C50.6897 44.0511 51.1784 45.1662 51.7327 46.0205C54.4673 41.6259 56.0239 36.3975 56.0239 30.7268C56.0239 15.2248 44.2163 2.70151 29.6 2.70151Z" fill="#0B3B3D"/>
<mask id="mask0" mask-type="alpha" maskUnits="userSpaceOnUse" x="2" y="1" width="56" height="47">
<path d="M29.6002 1.63477C14.4291 1.63477 2.17163 14.6351 2.17163 30.7257C2.17163 37.1193 4.08058 42.9801 7.39612 47.7753C8.40083 46.7097 9.30507 45.1113 9.80742 42.8735C11.3145 36.2668 7.19518 23.0533 13.123 20.4959C19.0508 17.9385 20.4573 24.9714 29.6002 24.9714C38.7431 24.9714 40.1497 17.8319 46.0774 20.4959C52.0052 23.0533 47.8859 36.2668 49.393 42.8735C49.8953 45.1113 50.7996 46.7097 51.8043 47.7753C55.1198 42.9801 57.0288 37.1193 57.0288 30.7257C57.0288 14.6351 44.7713 1.63477 29.6002 1.63477Z" fill="#C4C4C4"/>
</mask>
<g mask="url(#mask0)">
<path d="M9.76462 23.2543C9.7611 23.6556 10.0734 23.9868 10.4518 23.9831C10.8301 23.9794 11.1483 23.6419 11.1518 23.2407C11.1553 22.8394 10.843 22.5082 10.4647 22.5119C10.0863 22.5156 9.76813 22.8531 9.76462 23.2543Z" fill="#0A3B3C"/>
<path d="M0.537312 33.0415C0.533797 33.4427 0.846123 33.774 1.22445 33.7702C1.60277 33.7665 1.92098 33.429 1.92449 33.0278C1.92801 32.6265 1.61568 32.2953 1.23735 32.299C0.859029 32.3027 0.540826 32.6402 0.537312 33.0415Z" fill="#0A3B3C"/>
<path d="M0.579317 28.227C0.575803 28.6282 0.888206 28.9596 1.26653 28.9559C1.64486 28.9521 1.96305 28.6147 1.96656 28.2134C1.97007 27.8121 1.65767 27.4808 1.27935 27.4845C0.901023 27.4883 0.58283 27.8257 0.579317 28.227Z" fill="#0A3B3C"/>
<path d="M5.11959 28.1821C5.11608 28.5833 5.42841 28.9146 5.80673 28.9109C6.18505 28.9071 6.50326 28.5696 6.50677 28.1684C6.51028 27.7671 6.19795 27.4359 5.81963 27.4396C5.44131 27.4433 5.12311 27.7808 5.11959 28.1821Z" fill="#0A3B3C"/>
<path d="M2.87056 25.7973C2.86705 26.1986 3.17945 26.5299 3.55778 26.5262C3.9361 26.5224 4.25431 26.185 4.25782 25.7837C4.26133 25.3825 3.94893 25.0511 3.57061 25.0548C3.19228 25.0586 2.87408 25.3961 2.87056 25.7973Z" fill="#0A3B3C"/>
<path d="M0.559775 23.3461C0.556261 23.7474 0.868664 24.0787 1.24699 24.075C1.62531 24.0713 1.94351 23.7338 1.94703 23.3325C1.95054 22.9313 1.63814 22.5999 1.25982 22.6037C0.881492 22.6074 0.563289 22.9449 0.559775 23.3461Z" fill="#0A3B3C"/>
<path d="M2.82834 30.6118C2.82482 31.013 3.13715 31.3443 3.51547 31.3405C3.8938 31.3368 4.21199 30.9993 4.21551 30.5981C4.21902 30.1968 3.90669 29.8656 3.52837 29.8693C3.15004 29.873 2.83185 30.2105 2.82834 30.6118Z" fill="#0A3B3C"/>
<path d="M7.47409 25.684C7.47057 26.0853 7.7829 26.4165 8.16122 26.4128C8.53955 26.4091 8.85774 26.0716 8.86126 25.6703C8.86477 25.2691 8.55245 24.9378 8.17412 24.9416C7.7958 24.9453 7.4776 25.2828 7.47409 25.684Z" fill="#0A3B3C"/>
<path d="M5.22507 23.2993C5.22155 23.7005 5.53396 24.0318 5.91228 24.0281C6.2906 24.0244 6.6088 23.6869 6.61231 23.2857C6.61583 22.8844 6.30342 22.5531 5.9251 22.5568C5.54678 22.5605 5.22858 22.898 5.22507 23.2993Z" fill="#0A3B3C"/>
<path d="M2.91427 20.8481C2.91076 21.2493 3.22316 21.5807 3.60149 21.5769C3.97981 21.5732 4.29801 21.2357 4.30152 20.8345C4.30503 20.4332 3.99263 20.1019 3.61431 20.1056C3.23598 20.1094 2.91779 20.4468 2.91427 20.8481Z" fill="#0A3B3C"/>
<path d="M9.7651 23.2543C9.76159 23.6556 10.0739 23.9868 10.4522 23.9831C10.8306 23.9794 11.1488 23.6419 11.1523 23.2407C11.1558 22.8394 10.8435 22.5082 10.4651 22.5119C10.0868 22.5156 9.76862 22.8531 9.7651 23.2543Z" fill="#0A3B3C"/>
<path d="M0.536826 33.0415C0.533312 33.4427 0.845639 33.774 1.22396 33.7702C1.60229 33.7665 1.92049 33.429 1.924 33.0278C1.92752 32.6265 1.61519 32.2953 1.23687 32.299C0.858542 32.3027 0.54034 32.6402 0.536826 33.0415Z" fill="#0A3B3C"/>
<path d="M0.579072 28.227C0.575558 28.6282 0.887961 28.9596 1.26629 28.9559C1.64461 28.9521 1.9628 28.6146 1.96632 28.2134C1.96983 27.8121 1.65743 27.4808 1.2791 27.4845C0.900779 27.4883 0.582586 27.8257 0.579072 28.227Z" fill="#0A3B3C"/>
<path d="M18.9922 13.4672C18.9886 13.8685 19.301 14.1997 19.6793 14.196C20.0576 14.1923 20.3758 13.8548 20.3793 13.4536C20.3828 13.0523 20.0705 12.721 19.6922 12.7248C19.3139 12.7285 18.9957 13.066 18.9922 13.4672Z" fill="#0A3B3C"/>
<path d="M9.76486 23.2543C9.76135 23.6556 10.0737 23.9868 10.452 23.9831C10.8303 23.9794 11.1485 23.6419 11.152 23.2407C11.1555 22.8394 10.8432 22.5082 10.4649 22.5119C10.0866 22.5156 9.76837 22.8531 9.76486 23.2543Z" fill="#0A3B3C"/>
<path d="M9.80685 18.4399C9.80334 18.8411 10.1157 19.1725 10.4941 19.1688C10.8724 19.165 11.1906 18.8275 11.1941 18.4263C11.1976 18.025 10.8852 17.6937 10.5069 17.6974C10.1286 17.7012 9.81036 18.0386 9.80685 18.4399Z" fill="#0A3B3C"/>
<path d="M7.49606 15.9887C7.49254 16.39 7.80495 16.7213 8.18327 16.7176C8.56159 16.7138 8.87979 16.3764 8.88331 15.9751C8.88682 15.5739 8.57442 15.2425 8.19609 15.2463C7.81777 15.25 7.49957 15.5875 7.49606 15.9887Z" fill="#0A3B3C"/>
<path d="M14.4106 18.3266C14.4071 18.7279 14.7194 19.0591 15.0977 19.0554C15.4761 19.0517 15.7943 18.7142 15.7978 18.3129C15.8013 17.9117 15.489 17.5804 15.1106 17.5841C14.6687 17.6554 14.4141 17.9254 14.4106 18.3266Z" fill="#0A3B3C"/>
<path d="M12.1616 15.9418C12.1581 16.3431 12.4705 16.6744 12.8488 16.6707C13.2271 16.667 13.5453 16.3295 13.5488 15.9282C13.5524 15.527 13.2399 15.1957 12.8616 15.1994C12.4197 15.2706 12.1651 15.5406 12.1616 15.9418Z" fill="#0A3B3C"/>
<path d="M9.8508 13.4907C9.84728 13.8919 10.1597 14.2233 10.538 14.2195C10.9163 14.2158 11.2345 13.8783 11.238 13.4771C11.2416 13.0758 10.9292 12.7445 10.5508 12.7482C10.1089 12.8194 9.85431 13.0894 9.8508 13.4907Z" fill="#0A3B3C"/>
<path d="M12.0559 20.8246C12.0524 21.2259 12.3647 21.5572 12.743 21.5534C13.1213 21.5497 13.4395 21.2122 13.443 20.811C13.4466 20.4097 13.1342 20.0785 12.7559 20.0822C12.3776 20.0859 12.0594 20.4234 12.0559 20.8246Z" fill="#0A3B3C"/>
<path d="M16.7016 15.8969C16.6981 16.2982 17.0104 16.6294 17.3888 16.6257C17.7671 16.622 18.0853 16.2845 18.0888 15.8832C18.0923 15.482 17.78 15.1507 17.4017 15.1545C17.0233 15.1582 16.7051 15.4957 16.7016 15.8969Z" fill="#0A3B3C"/>
<path d="M14.4526 13.5121C14.4491 13.9134 14.7615 14.2447 15.1398 14.241C15.5181 14.2373 15.8363 13.8998 15.8399 13.4986C15.8434 13.0973 15.531 12.766 15.1526 12.7697C14.7743 12.7734 14.4561 13.1109 14.4526 13.5121Z" fill="#0A3B3C"/>
<path d="M12.1418 11.061C12.1383 11.4622 12.4507 11.7936 12.829 11.7898C13.2073 11.7861 13.5255 11.4486 13.5291 11.0474C13.5326 10.6461 13.2202 10.3148 12.8418 10.3185C12.4635 10.3222 12.1453 10.6597 12.1418 11.061Z" fill="#0A3B3C"/>
<path d="M18.9924 13.4672C18.9889 13.8685 19.3012 14.1997 19.6795 14.196C20.0579 14.1923 20.3761 13.8548 20.3796 13.4535C20.3831 13.0523 20.0708 12.721 19.6924 12.7248C19.3141 12.7285 18.9959 13.066 18.9924 13.4672Z" fill="#0A3B3C"/>
<path d="M0.664271 18.4594C0.660757 18.8607 0.973084 19.1919 1.35141 19.1882C1.72973 19.1845 2.04793 18.847 2.05144 18.4457C2.05496 18.0445 1.74263 17.7132 1.36431 17.717C0.985983 17.7207 0.667785 18.0582 0.664271 18.4594Z" fill="#0A3B3C"/>
<path d="M5.22433 23.2954C5.22082 23.6966 5.53322 24.0279 5.91155 24.0242C6.28987 24.0205 6.60807 23.683 6.61158 23.2818C6.6151 22.8805 6.30269 22.5492 5.92437 22.5529C5.54604 22.5566 5.22784 22.8941 5.22433 23.2954Z" fill="#0A3B3C"/>
<path d="M2.9133 20.8442C2.90978 21.2454 3.22218 21.5768 3.60051 21.573C3.97883 21.5693 4.29703 21.2318 4.30054 20.8306C4.30406 20.4293 3.99165 20.098 3.61333 20.1017C3.23501 20.1054 2.91681 20.4429 2.9133 20.8442Z" fill="#0A3B3C"/>
<path d="M2.95505 16.0297C2.95153 16.431 3.26386 16.7622 3.64218 16.7585C4.02051 16.7548 4.3387 16.4173 4.34222 16.0161C4.34573 15.6148 4.0334 15.2835 3.65508 15.2873C3.27676 15.291 2.95856 15.6285 2.95505 16.0297Z" fill="#0A3B3C"/>
<path d="M7.51535 20.8657C7.51184 21.2669 7.82424 21.5983 8.20256 21.5945C8.58089 21.5908 8.89908 21.2533 8.9026 20.8521C8.90611 20.4508 8.59371 20.1195 8.21538 20.1232C7.83706 20.1269 7.51886 20.4644 7.51535 20.8657Z" fill="#0A3B3C"/>
<path d="M5.20431 18.4145C5.2008 18.8157 5.5132 19.1471 5.89152 19.1434C6.26985 19.1396 6.58804 18.8021 6.59156 18.4009C6.59507 17.9996 6.28267 17.6683 5.90435 17.672C5.52602 17.6758 5.20783 18.0132 5.20431 18.4145Z" fill="#0A3B3C"/>
<path d="M0.706266 13.645C0.702752 14.0462 1.01508 14.3775 1.3934 14.3737C1.77173 14.37 2.08992 14.0325 2.09344 13.6313C2.09695 13.23 1.78462 12.8988 1.4063 12.9025C1.02798 12.9062 0.70978 13.2437 0.706266 13.645Z" fill="#0A3B3C"/>
<path d="M5.24631 13.6C5.24279 14.0013 5.55512 14.3325 5.93344 14.3288C6.31177 14.3251 6.62996 13.9876 6.63348 13.5864C6.63699 13.1851 6.32466 12.8539 5.94634 12.8576C5.56802 12.8613 5.24982 13.1988 5.24631 13.6Z" fill="#0A3B3C"/>
<path d="M9.76437 23.2524C9.76086 23.6536 10.0732 23.9849 10.4515 23.9812C10.8298 23.9774 11.148 23.64 11.1515 23.2387C11.1551 22.8375 10.8427 22.5062 10.4644 22.5099C10.0861 22.5137 9.76789 22.8511 9.76437 23.2524Z" fill="#0A3B3C"/>
<path d="M9.80636 18.4379C9.80285 18.8392 10.1153 19.1705 10.4936 19.1668C10.8719 19.1631 11.1901 18.8256 11.1936 18.4243C11.1971 18.0231 10.8847 17.6917 10.5064 17.6955C10.1281 17.6992 9.80988 18.0367 9.80636 18.4379Z" fill="#0A3B3C"/>
<path d="M7.49557 15.9868C7.49206 16.388 7.80446 16.7193 8.18279 16.7156C8.56111 16.7119 8.87931 16.3744 8.88282 15.9732C8.88633 15.5719 8.57393 15.2406 8.19561 15.2443C7.81728 15.248 7.49909 15.5855 7.49557 15.9868Z" fill="#0A3B3C"/>
<path d="M0.664517 18.4614C0.661003 18.8626 0.97333 19.1939 1.35165 19.1902C1.72998 19.1864 2.04818 18.8489 2.05169 18.4477C2.0552 18.0464 1.74288 17.7152 1.36455 17.7189C0.986228 17.7226 0.66803 18.0601 0.664517 18.4614Z" fill="#0A3B3C"/>
<path d="M0.706756 13.6469C0.703242 14.0482 1.01557 14.3794 1.39389 14.3757C1.77222 14.372 2.09041 14.0345 2.09392 13.6332C2.09744 13.232 1.78511 12.9007 1.40679 12.9045C1.02847 12.9082 0.710269 13.2457 0.706756 13.6469Z" fill="#0A3B3C"/>
<path d="M18.9926 13.4672C18.9891 13.8685 19.3015 14.1997 19.6798 14.196C20.0581 14.1923 20.3763 13.8548 20.3798 13.4536C20.3833 13.0523 20.071 12.721 19.6927 12.7248C19.3144 12.7285 18.9962 13.066 18.9926 13.4672Z" fill="#0A3B3C"/>
<path d="M19.0346 8.65278C19.0311 9.05403 19.3435 9.38536 19.7218 9.38164C20.1002 9.37791 20.4184 9.04043 20.4219 8.63918C20.4254 8.23793 20.113 7.90659 19.7347 7.91031C19.3563 7.91404 19.0381 8.25152 19.0346 8.65278Z" fill="#0A3B3C"/>
<path d="M16.7238 6.2016C16.7203 6.60286 17.0327 6.93419 17.4111 6.93047C17.7894 6.92674 18.1076 6.58926 18.1111 6.188C18.1146 5.78675 17.8022 5.45542 17.4239 5.45914C17.0456 5.46287 16.7274 5.80035 16.7238 6.2016Z" fill="#0A3B3C"/>
<path d="M23.6384 8.53949C23.6349 8.94075 23.9472 9.272 24.3255 9.26828C24.7039 9.26455 25.0221 8.92707 25.0256 8.52582C25.0291 8.12456 24.7168 7.79331 24.3384 7.79703C23.9601 7.80076 23.6419 8.13824 23.6384 8.53949Z" fill="#0A3B3C"/>
<path d="M21.3894 6.15473C21.3859 6.55598 21.6983 6.88732 22.0766 6.88359C22.4549 6.87987 22.7731 6.54238 22.7766 6.14113C22.7801 5.73988 22.4677 5.40854 22.0894 5.41227C21.7111 5.41599 21.3929 5.75348 21.3894 6.15473Z" fill="#0A3B3C"/>
<path d="M19.0786 3.70356C19.0751 4.10481 19.3875 4.43615 19.7658 4.43242C20.1441 4.42869 20.4623 4.09121 20.4658 3.68996C20.4693 3.2887 20.1569 2.95737 19.7786 2.9611C19.4003 2.96482 19.0821 3.3023 19.0786 3.70356Z" fill="#0A3B3C"/>
<path d="M21.2837 11.0375C21.2801 11.4388 21.5925 11.7701 21.9708 11.7663C22.3491 11.7626 22.6673 11.4251 22.6708 11.0239C22.6743 10.6226 22.362 10.2914 21.9837 10.2951C21.6054 10.2988 21.2872 10.6363 21.2837 11.0375Z" fill="#0A3B3C"/>
<path d="M9.8923 8.67426C9.88879 9.07551 10.2011 9.40677 10.5794 9.40304C10.9578 9.39932 11.276 9.06183 11.2795 8.66058C11.283 8.25933 10.9707 7.92807 10.5923 7.9318C10.214 7.93553 9.89581 8.27301 9.8923 8.67426Z" fill="#0A3B3C"/>
<path d="M14.4524 13.5102C14.4488 13.9115 14.7613 14.2428 15.1396 14.2391C15.5179 14.2353 15.8361 13.8979 15.8396 13.4966C15.8431 13.0953 15.5307 12.764 15.1524 12.7677C14.7741 12.7715 14.4559 13.1089 14.4524 13.5102Z" fill="#0A3B3C"/>
<path d="M12.1413 11.059C12.1378 11.4603 12.4502 11.7916 12.8285 11.7879C13.2069 11.7842 13.5251 11.4467 13.5286 11.0454C13.5321 10.6442 13.2197 10.3128 12.8414 10.3166C12.463 10.3203 12.1448 10.6578 12.1413 11.059Z" fill="#0A3B3C"/>
<path d="M12.1833 6.24457C12.1798 6.64582 12.4921 6.97708 12.8705 6.97335C13.2488 6.96963 13.567 6.63215 13.5705 6.23089C13.574 5.82964 13.2617 5.49838 12.8834 5.50211C12.505 5.50584 12.1868 5.84332 12.1833 6.24457Z" fill="#0A3B3C"/>
<path d="M16.7434 11.0805C16.7399 11.4818 17.0523 11.8131 17.4306 11.8094C17.8089 11.8056 18.1271 11.4682 18.1306 11.0669C18.1341 10.6657 17.8217 10.3343 17.4434 10.338C17.0651 10.3418 16.7469 10.6793 16.7434 11.0805Z" fill="#0A3B3C"/>
<path d="M14.4323 8.62934C14.4288 9.03059 14.7412 9.36193 15.1196 9.3582C15.4979 9.35447 15.8161 9.01699 15.8196 8.61574C15.8231 8.21449 15.5107 7.88315 15.1324 7.88688C14.7541 7.8906 14.4359 8.22809 14.4323 8.62934Z" fill="#0A3B3C"/>
<path d="M9.93429 3.85981C9.93078 4.26106 10.2431 4.59231 10.6214 4.58859C10.9998 4.58486 11.318 4.24738 11.3215 3.84613C11.325 3.44487 11.0127 3.11362 10.6343 3.11735C10.256 3.12107 9.93781 3.45855 9.93429 3.85981Z" fill="#0A3B3C"/>
<path d="M14.4743 3.81489C14.4708 4.21614 14.7831 4.54739 15.1615 4.54367C15.5398 4.53994 15.858 4.20246 15.8615 3.80121C15.865 3.39995 15.5527 3.0687 15.1744 3.07242C14.796 3.07615 14.4778 3.41363 14.4743 3.81489Z" fill="#0A3B3C"/>
<path d="M18.9924 13.4672C18.9889 13.8685 19.3012 14.1997 19.6795 14.196C20.0579 14.1923 20.3761 13.8548 20.3796 13.4536C20.3831 13.0523 20.0708 12.721 19.6924 12.7248C19.3141 12.7285 18.9959 13.066 18.9924 13.4672Z" fill="#0A3B3C"/>
<path d="M19.0344 8.65278C19.0309 9.05403 19.3433 9.38536 19.7216 9.38164C20.0999 9.37791 20.4181 9.04043 20.4216 8.63918C20.4252 8.23792 20.1127 7.90659 19.7344 7.91031C19.3561 7.91404 19.0379 8.25152 19.0344 8.65278Z" fill="#0A3B3C"/>
<path d="M16.7236 6.2016C16.7201 6.60286 17.0325 6.93419 17.4108 6.93047C17.7891 6.92674 18.1073 6.58926 18.1108 6.18801C18.1144 5.78675 17.802 5.45542 17.4236 5.45914C17.0453 5.46287 16.7271 5.80035 16.7236 6.2016Z" fill="#0A3B3C"/>
<path d="M0.706756 13.6469C0.703242 14.0482 1.01557 14.3794 1.39389 14.3757C1.77222 14.372 2.09041 14.0345 2.09392 13.6332C2.09744 13.232 1.78511 12.9007 1.40679 12.9045C1.02847 12.9082 0.710269 13.2457 0.706756 13.6469Z" fill="#0A3B3C"/>
<path d="M0.748747 8.83246C0.745234 9.23371 1.05764 9.56505 1.43596 9.56132C1.81428 9.5576 2.13248 9.22012 2.13599 8.81886C2.13951 8.41761 1.8271 8.08628 1.44878 8.09C1.07046 8.09373 0.752261 8.43121 0.748747 8.83246Z" fill="#0A3B3C"/>
<path d="M5.24679 13.602C5.24328 14.0032 5.55561 14.3345 5.93393 14.3308C6.31225 14.327 6.63045 13.9896 6.63396 13.5883C6.63748 13.1871 6.32515 12.8558 5.94683 12.8595C5.5685 12.8633 5.25031 13.2007 5.24679 13.602Z" fill="#0A3B3C"/>
<path d="M5.3525 8.71918C5.34899 9.12044 5.66132 9.45169 6.03964 9.44796C6.41796 9.44424 6.73616 9.10675 6.73968 8.7055C6.74319 8.30425 6.43086 7.97299 6.05254 7.97672C5.61058 8.04794 5.35602 8.31793 5.3525 8.71918Z" fill="#0A3B3C"/>
<path d="M3.10348 6.33442C3.09997 6.73567 3.41237 7.06701 3.7907 7.06328C4.16902 7.05955 4.48722 6.72207 4.49073 6.32082C4.49424 5.91956 4.18184 5.58823 3.80352 5.59196C3.36155 5.66318 3.107 5.93316 3.10348 6.33442Z" fill="#0A3B3C"/>
<path d="M2.99777 11.2172C2.99426 11.6185 3.30658 11.9497 3.68491 11.946C4.06323 11.9423 4.38143 11.6048 4.38494 11.2035C4.38845 10.8023 4.07613 10.471 3.6978 10.4748C3.31948 10.4785 3.00128 10.816 2.99777 11.2172Z" fill="#0A3B3C"/>
<path d="M7.64352 6.28949C7.64001 6.69075 7.95234 7.022 8.33066 7.01827C8.70898 7.01455 9.02718 6.67707 9.03069 6.27581C9.03421 5.87456 8.72188 5.54331 8.34356 5.54703C7.96523 5.55076 7.64704 5.88824 7.64352 6.28949Z" fill="#0A3B3C"/>
<path d="M7.60128 11.1059C7.59777 11.5072 7.9101 11.8384 8.28842 11.8347C8.66675 11.831 8.98494 11.4935 8.98846 11.0922C8.99197 10.691 8.67964 10.3597 8.30132 10.3634C7.85936 10.4347 7.6048 10.7046 7.60128 11.1059Z" fill="#0A3B3C"/>
<path d="M0.792202 3.88325C0.788688 4.2845 1.10101 4.61575 1.47934 4.61203C1.85766 4.6083 2.17586 4.27082 2.17937 3.86956C2.18289 3.46831 1.87056 3.13706 1.49224 3.14078C1.05027 3.21201 0.795716 3.48199 0.792202 3.88325Z" fill="#0A3B3C"/>
<path d="M5.3945 3.90473C5.39099 4.30598 5.70339 4.63732 6.08171 4.63359C6.46003 4.62986 6.77823 4.29238 6.78175 3.89113C6.78526 3.48988 6.47286 3.15854 6.09453 3.16227C5.71621 3.16599 5.39801 3.50348 5.3945 3.90473Z" fill="#0A3B3C"/>
<path d="M9.8923 8.67621C9.88879 9.07746 10.2011 9.40872 10.5794 9.40499C10.9578 9.40127 11.276 9.06379 11.2795 8.66253C11.283 8.26128 10.9707 7.93003 10.5923 7.93375C10.214 7.93748 9.89582 8.27496 9.8923 8.67621Z" fill="#0A3B3C"/>
<path d="M9.93454 3.85981C9.93102 4.26106 10.2434 4.59231 10.6217 4.58859C11 4.58486 11.3182 4.24738 11.3217 3.84613C11.3252 3.44487 11.0129 3.11362 10.6346 3.11735C10.2562 3.12107 9.93805 3.45855 9.93454 3.85981Z" fill="#0A3B3C"/>
<path d="M0.70651 13.6469C0.702997 14.0482 1.01532 14.3794 1.39365 14.3757C1.77197 14.372 2.09017 14.0345 2.09368 13.6332C2.09719 13.232 1.78487 12.9007 1.40654 12.9045C1.02822 12.9082 0.710024 13.2457 0.70651 13.6469Z" fill="#0A3B3C"/>
<path d="M0.748748 8.83246C0.745235 9.23371 1.05764 9.56505 1.43596 9.56132C1.81428 9.5576 2.13248 9.22012 2.13599 8.81886C2.13951 8.41761 1.8271 8.08628 1.44878 8.09C1.07046 8.09373 0.752261 8.43121 0.748748 8.83246Z" fill="#0A3B3C"/>
<path d="M0.791959 3.88324C0.788445 4.2845 1.10077 4.61575 1.4791 4.61203C1.85742 4.6083 2.17562 4.27082 2.17913 3.86956C2.18264 3.46831 1.87032 3.13706 1.49199 3.14078C1.05003 3.21201 0.795472 3.48199 0.791959 3.88324Z" fill="#0A3B3C"/>
<path d="M9.93454 3.85981C9.93102 4.26106 10.2434 4.59231 10.6217 4.58859C11 4.58486 11.3182 4.24738 11.3217 3.84613C11.3252 3.44487 11.0129 3.11362 10.6346 3.11735C10.2562 3.12107 9.93805 3.45855 9.93454 3.85981Z" fill="#0A3B3C"/>
<path d="M14.4743 3.81489C14.4708 4.21614 14.7831 4.54739 15.1615 4.54367C15.5398 4.53994 15.858 4.20246 15.8615 3.80121C15.865 3.39995 15.5527 3.0687 15.1744 3.07242C14.796 3.07615 14.4778 3.41363 14.4743 3.81489Z" fill="#0A3B3C"/>
<path d="M12.2256 1.43012C12.222 1.83137 12.5344 2.16263 12.9127 2.1589C13.291 2.15517 13.6092 1.81769 13.6127 1.41644C13.6162 1.01519 13.3039 0.683932 12.9256 0.687658C12.5473 0.691385 12.2291 1.02887 12.2256 1.43012Z" fill="#0A3B3C"/>
<path d="M16.8288 1.31879C16.8253 1.72004 17.1376 2.0513 17.516 2.04757C17.8943 2.04385 18.2125 1.70636 18.216 1.30511C18.2195 0.903859 17.9072 0.572603 17.5289 0.57633C17.1505 0.580057 16.8323 0.917539 16.8288 1.31879Z" fill="#0A3B3C"/>
<path d="M0.792204 3.88129C0.788691 4.28254 1.10102 4.6138 1.47934 4.61007C1.85766 4.60634 2.17586 4.26886 2.17937 3.86761C2.18289 3.46636 1.87056 3.1351 1.49224 3.13883C1.05027 3.21005 0.795718 3.48004 0.792204 3.88129Z" fill="#0A3B3C"/>
<path d="M5.3945 3.90278C5.39098 4.30403 5.70339 4.63536 6.08171 4.63164C6.46003 4.62791 6.77823 4.29043 6.78175 3.88918C6.78526 3.48792 6.47286 3.15659 6.09453 3.16031C5.71621 3.16404 5.39801 3.50152 5.3945 3.90278Z" fill="#0A3B3C"/>
<path d="M3.08297 1.4516C3.07946 1.85286 3.39179 2.18411 3.77011 2.18039C4.14844 2.17666 4.46663 1.83918 4.47015 1.43792C4.47366 1.03667 4.16133 0.705416 3.78301 0.709143C3.40469 0.712869 3.08649 1.05035 3.08297 1.4516Z" fill="#0A3B3C"/>
<path d="M7.68551 1.47309C7.682 1.87434 7.9944 2.20568 8.37273 2.20195C8.75105 2.19822 9.06925 1.86074 9.07276 1.45949C9.07627 1.05824 8.76387 0.7269 8.38555 0.730627C8.00722 0.734353 7.68903 1.07184 7.68551 1.47309Z" fill="#0A3B3C"/>
<path d="M9.93454 3.85981C9.93102 4.26106 10.2434 4.59231 10.6217 4.58859C11 4.58486 11.3182 4.24738 11.3217 3.84613C11.3252 3.44487 11.0129 3.11362 10.6346 3.11735C10.2562 3.12107 9.93805 3.45855 9.93454 3.85981Z" fill="#0A3B3C"/>
<path d="M0.791957 3.88325C0.788443 4.2845 1.10077 4.61575 1.47909 4.61203C1.85742 4.6083 2.17562 4.27082 2.17913 3.86956C2.18264 3.46831 1.87032 3.13706 1.49199 3.14078C1.05003 3.21201 0.795471 3.48199 0.791957 3.88325Z" fill="#0A3B3C"/>
<path d="M25.9934 6.04146C25.9899 6.44271 26.3022 6.77396 26.6805 6.77024C27.0588 6.76651 27.377 6.42902 27.3805 6.02777C27.3841 5.62652 27.0717 5.29526 26.6934 5.29899C26.3151 5.30271 25.9969 5.6402 25.9934 6.04146Z" fill="#0A3B3C"/>
<path d="M26.0354 1.22699C26.0319 1.62824 26.3443 1.95958 26.7226 1.95585C27.1009 1.95213 27.4191 1.61465 27.4226 1.2134C27.4261 0.812143 27.1137 0.480807 26.7354 0.484533C26.3571 0.48826 26.0389 0.825737 26.0354 1.22699Z" fill="#0A3B3C"/>
<path d="M30.5756 1.18208C30.5721 1.58333 30.8845 1.91458 31.2628 1.91086C31.6411 1.90713 31.9593 1.56965 31.9628 1.16839C31.9663 0.767141 31.654 0.435885 31.2757 0.439611C30.8974 0.443337 30.5792 0.780823 30.5756 1.18208Z" fill="#0A3B3C"/>
<path d="M28.2844 3.61176C28.2809 4.01301 28.5932 4.34427 28.9715 4.34054C29.3499 4.33681 29.668 3.99934 29.6716 3.59808C29.6751 3.19683 29.3627 2.86557 28.9844 2.8693C28.6061 2.87303 28.2879 3.2105 28.2844 3.61176Z" fill="#0A3B3C"/>
<path d="M23.7439 3.65278C23.7403 4.05404 24.0527 4.38537 24.4311 4.38165C24.8094 4.37792 25.1276 4.04043 25.1311 3.63918C25.1346 3.23793 24.8222 2.90659 24.4439 2.91032C24.0656 2.91404 23.7474 3.25153 23.7439 3.65278Z" fill="#0A3B3C"/>
<path d="M21.4331 1.20161C21.4296 1.60286 21.742 1.9342 22.1203 1.93047C22.4986 1.92674 22.8168 1.58925 22.8203 1.188C22.8238 0.786751 22.5114 0.455415 22.1331 0.459142C21.7548 0.462869 21.4366 0.800356 21.4331 1.20161Z" fill="#0A3B3C"/>
<path d="M25.9929 6.0395C25.9894 6.44075 26.3017 6.77201 26.68 6.76828C27.0583 6.76455 27.3765 6.42707 27.3801 6.02581C27.3836 5.62456 27.0712 5.29331 26.6929 5.29703C26.3146 5.30076 25.9964 5.63825 25.9929 6.0395Z" fill="#0A3B3C"/>
<path d="M26.0349 1.22504C26.0314 1.62629 26.3438 1.95763 26.7221 1.9539C27.1004 1.95017 27.4186 1.6127 27.4221 1.21144C27.4256 0.810191 27.1132 0.478854 26.7349 0.482581C26.3566 0.486307 26.0384 0.823784 26.0349 1.22504Z" fill="#0A3B3C"/>
<path d="M30.1294 44.852C30.1258 45.2532 30.4382 45.5845 30.8165 45.5808C31.1948 45.5771 31.513 45.2396 31.5165 44.8383C31.52 44.4371 31.2077 44.1058 30.8294 44.1095C30.4511 44.1133 30.1329 44.4507 30.1294 44.852Z" fill="#0A3B3C"/>
<path d="M18.6333 47.3735C18.6298 47.7747 18.9422 48.1061 19.3205 48.1023C19.6988 48.0986 20.017 47.7611 20.0205 47.3599C20.024 46.9586 19.7116 46.6273 19.3333 46.631C18.955 46.6347 18.6368 46.9722 18.6333 47.3735Z" fill="#0A3B3C"/>
<path d="M23.2353 47.395C23.2318 47.7962 23.5442 48.1276 23.9225 48.1238C24.3009 48.1201 24.6191 47.7826 24.6226 47.3814C24.6261 46.9801 24.3137 46.6488 23.9354 46.6525C23.557 46.6562 23.2388 46.9937 23.2353 47.395Z" fill="#0A3B3C"/>
<path d="M20.9245 44.9438C20.921 45.3451 21.2334 45.6764 21.6117 45.6727C21.9901 45.6689 22.3083 45.3314 22.3118 44.9302C22.3153 44.5289 22.0029 44.1976 21.6246 44.2013C21.2462 44.2051 20.928 44.5425 20.9245 44.9438Z" fill="#0A3B3C"/>
<path d="M27.8388 47.2817C27.8353 47.6829 28.1476 48.0142 28.526 48.0105C28.9043 48.0067 29.2225 47.6693 29.226 47.268C29.2295 46.8667 28.9172 46.5355 28.5389 46.5392C28.1605 46.5429 27.8423 46.8804 27.8388 47.2817Z" fill="#0A3B3C"/>
<path d="M25.5901 44.8969C25.5865 45.2982 25.8989 45.6295 26.2773 45.6258C26.6556 45.6221 26.9738 45.2846 26.9773 44.8833C26.9808 44.4821 26.6684 44.1507 26.2901 44.1545C25.9118 44.1582 25.5936 44.4957 25.5901 44.8969Z" fill="#0A3B3C"/>
<path d="M23.279 42.4457C23.2755 42.847 23.5879 43.1783 23.9662 43.1746C24.3446 43.1709 24.6628 42.8334 24.6663 42.4321C24.6698 42.0309 24.3574 41.6996 23.9791 41.7033C23.6007 41.707 23.2825 42.0445 23.279 42.4457Z" fill="#0A3B3C"/>
<path d="M30.1298 44.852C30.1263 45.2533 30.4387 45.5845 30.817 45.5808C31.1953 45.5771 31.5135 45.2396 31.517 44.8383C31.5205 44.4371 31.2082 44.1058 30.8299 44.1095C30.4516 44.1133 30.1334 44.4507 30.1298 44.852Z" fill="#0A3B3C"/>
<path d="M14.0925 47.4165C14.089 47.8177 14.4013 48.149 14.7796 48.1452C15.158 48.1415 15.4762 47.804 15.4797 47.4028C15.4832 47.0015 15.1709 46.6703 14.7925 46.674C14.4142 46.6777 14.096 47.0152 14.0925 47.4165Z" fill="#0A3B3C"/>
<path d="M11.8435 45.0317C11.84 45.4329 12.1523 45.7642 12.5306 45.7605C12.9089 45.7567 13.2271 45.4193 13.2306 45.018C13.2342 44.6168 12.9218 44.2855 12.5435 44.2892C12.1652 44.2929 11.847 44.6304 11.8435 45.0317Z" fill="#0A3B3C"/>
<path d="M16.3835 44.9868C16.38 45.388 16.6923 45.7193 17.0707 45.7155C17.449 45.7118 17.7672 45.3743 17.7707 44.9731C17.7742 44.5718 17.4619 44.2406 17.0835 44.2443C16.7052 44.248 16.387 44.5855 16.3835 44.9868Z" fill="#0A3B3C"/>
<path d="M18.6328 47.3735C18.6293 47.7747 18.9417 48.1061 19.32 48.1023C19.6983 48.0986 20.0165 47.7611 20.02 47.3599C20.0235 46.9586 19.7111 46.6273 19.3328 46.631C18.9545 46.6347 18.6363 46.9722 18.6328 47.3735Z" fill="#0A3B3C"/>
<path d="M39.3569 35.0649C39.3534 35.4661 39.6657 35.7974 40.044 35.7937C40.4224 35.7899 40.7406 35.4525 40.7441 35.0512C40.7476 34.65 40.4353 34.3187 40.0569 34.3224C39.6786 34.3262 39.3604 34.6636 39.3569 35.0649Z" fill="#0A3B3C"/>
<path d="M30.1296 44.852C30.1261 45.2532 30.4384 45.5845 30.8167 45.5808C31.1951 45.5771 31.5133 45.2396 31.5168 44.8383C31.5203 44.4371 31.208 44.1058 30.8296 44.1095C30.4513 44.1133 30.1331 44.4507 30.1296 44.852Z" fill="#0A3B3C"/>
<path d="M30.1716 40.0375C30.1681 40.4388 30.4805 40.7701 30.8588 40.7664C31.2371 40.7627 31.5553 40.4252 31.5588 40.0239C31.5624 39.6227 31.25 39.2914 30.8716 39.2951C30.4933 39.2988 30.1751 39.6363 30.1716 40.0375Z" fill="#0A3B3C"/>
<path d="M27.8608 37.5864C27.8573 37.9876 28.1697 38.319 28.548 38.3152C28.9263 38.3115 29.2445 37.974 29.2481 37.5728C29.2516 37.1715 28.9392 36.8402 28.5608 36.8439C28.1825 36.8476 27.8643 37.1851 27.8608 37.5864Z" fill="#0A3B3C"/>
<path d="M34.7754 39.9243C34.7718 40.3255 35.0842 40.6568 35.4625 40.653C35.8408 40.6493 36.159 40.3118 36.1625 39.9106C36.166 39.5093 35.8537 39.1781 35.4754 39.1818C35.0334 39.253 34.7789 39.523 34.7754 39.9243Z" fill="#0A3B3C"/>
<path d="M32.5263 37.5395C32.5228 37.9407 32.8352 38.2721 33.2135 38.2684C33.5919 38.2646 33.9101 37.9271 33.9136 37.5259C33.9171 37.1246 33.6047 36.7933 33.2264 36.797C32.7844 36.8683 32.5298 37.1382 32.5263 37.5395Z" fill="#0A3B3C"/>
<path d="M30.2155 35.0883C30.212 35.4896 30.5244 35.8209 30.9028 35.8172C31.2811 35.8135 31.5993 35.476 31.6028 35.0747C31.6063 34.6735 31.2939 34.3421 30.9156 34.3459C30.4736 34.4171 30.2191 34.6871 30.2155 35.0883Z" fill="#0A3B3C"/>
<path d="M32.4206 42.4223C32.4171 42.8236 32.7294 43.1548 33.1078 43.1511C33.4861 43.1474 33.8043 42.8099 33.8078 42.4086C33.8113 42.0074 33.499 41.6761 33.1207 41.6798C32.7423 41.6836 32.4241 42.0211 32.4206 42.4223Z" fill="#0A3B3C"/>
<path d="M37.0664 37.4946C37.0629 37.8958 37.3752 38.2271 37.7535 38.2234C38.1318 38.2196 38.45 37.8821 38.4535 37.4809C38.4571 37.0796 38.1447 36.7484 37.7664 36.7521C37.3881 36.7558 37.0699 37.0933 37.0664 37.4946Z" fill="#0A3B3C"/>
<path d="M34.8174 35.1098C34.8138 35.5111 35.1262 35.8424 35.5046 35.8387C35.8829 35.8349 36.2011 35.4975 36.2046 35.0962C36.2081 34.695 35.8957 34.3636 35.5174 34.3673C35.1391 34.3711 34.8209 34.7086 34.8174 35.1098Z" fill="#0A3B3C"/>
<path d="M32.5066 32.6586C32.503 33.0599 32.8154 33.3912 33.1938 33.3875C33.5721 33.3838 33.8903 33.0463 33.8938 32.645C33.8973 32.2438 33.5849 31.9124 33.2066 31.9162C32.8283 31.9199 32.5101 32.2574 32.5066 32.6586Z" fill="#0A3B3C"/>
<path d="M39.3574 35.0649C39.3539 35.4661 39.6662 35.7974 40.0445 35.7937C40.4228 35.7899 40.741 35.4525 40.7446 35.0512C40.7481 34.65 40.4357 34.3187 40.0574 34.3224C39.6791 34.3262 39.3609 34.6636 39.3574 35.0649Z" fill="#0A3B3C"/>
<path d="M21.029 40.059C21.0255 40.4603 21.3378 40.7915 21.7162 40.7878C22.0945 40.7841 22.4127 40.4466 22.4162 40.0453C22.4197 39.6441 22.1074 39.3128 21.7291 39.3166C21.3507 39.3203 21.0325 39.6578 21.029 40.059Z" fill="#0A3B3C"/>
<path d="M25.5891 44.895C25.5856 45.2962 25.898 45.6276 26.2763 45.6238C26.6546 45.6201 26.9728 45.2826 26.9763 44.8814C26.9798 44.4801 26.6674 44.1488 26.2891 44.1525C25.9108 44.1562 25.5926 44.4937 25.5891 44.895Z" fill="#0A3B3C"/>
<path d="M23.2783 42.4438C23.2748 42.845 23.5872 43.1764 23.9655 43.1727C24.3438 43.1689 24.662 42.8314 24.6655 42.4302C24.669 42.0289 24.3566 41.6976 23.9783 41.7013C23.6 41.7051 23.2818 42.0425 23.2783 42.4438Z" fill="#0A3B3C"/>
<path d="M23.32 37.6293C23.3165 38.0306 23.6288 38.3618 24.0072 38.3581C24.3855 38.3544 24.7037 38.0169 24.7072 37.6157C24.7107 37.2144 24.3984 36.8831 24.0201 36.8869C23.6417 36.8906 23.3235 37.2281 23.32 37.6293Z" fill="#0A3B3C"/>
<path d="M27.8801 42.4653C27.8766 42.8665 28.189 43.1979 28.5673 43.1941C28.9456 43.1904 29.2638 42.8529 29.2673 42.4517C29.2709 42.0504 28.9585 41.7191 28.5801 41.7228C28.2018 41.7265 27.8836 42.064 27.8801 42.4653Z" fill="#0A3B3C"/>
<path d="M25.5693 40.0141C25.5658 40.4154 25.8782 40.7467 26.2565 40.743C26.6348 40.7392 26.953 40.4018 26.9566 40.0005C26.9601 39.5993 26.6477 39.2679 26.2693 39.2716C25.891 39.2754 25.5728 39.6129 25.5693 40.0141Z" fill="#0A3B3C"/>
<path d="M21.0713 35.2446C21.0677 35.6458 21.3801 35.9771 21.7584 35.9734C22.1367 35.9696 22.4549 35.6321 22.4584 35.2309C22.4619 34.8296 22.1496 34.4984 21.7713 34.5021C21.393 34.5058 21.0748 34.8433 21.0713 35.2446Z" fill="#0A3B3C"/>
<path d="M25.6113 35.1997C25.6078 35.6009 25.9201 35.9322 26.2984 35.9284C26.6768 35.9247 26.995 35.5872 26.9985 35.186C27.002 34.7847 26.6897 34.4535 26.3113 34.4572C25.933 34.4609 25.6148 34.7984 25.6113 35.1997Z" fill="#0A3B3C"/>
<path d="M30.1291 44.852C30.1256 45.2532 30.4379 45.5845 30.8163 45.5808C31.1946 45.5771 31.5128 45.2396 31.5163 44.8383C31.5198 44.4371 31.2075 44.1058 30.8292 44.1095C30.4508 44.1133 30.1326 44.4507 30.1291 44.852Z" fill="#0A3B3C"/>
<path d="M30.1711 40.0375C30.1676 40.4388 30.48 40.7701 30.8583 40.7664C31.2366 40.7627 31.5548 40.4252 31.5584 40.0239C31.5619 39.6227 31.2495 39.2914 30.8711 39.2951C30.4928 39.2988 30.1746 39.6363 30.1711 40.0375Z" fill="#0A3B3C"/>
<path d="M27.8603 37.5864C27.8568 37.9876 28.1692 38.319 28.5475 38.3152C28.9259 38.3115 29.2441 37.974 29.2476 37.5728C29.2511 37.1715 28.9387 36.8402 28.5604 36.8439C28.182 36.8476 27.8638 37.1851 27.8603 37.5864Z" fill="#0A3B3C"/>
<path d="M11.844 45.0317C11.8404 45.4329 12.1528 45.7642 12.5311 45.7605C12.9094 45.7567 13.2276 45.4193 13.2311 45.018C13.2346 44.6167 12.9223 44.2855 12.544 44.2892C12.1657 44.2929 11.8475 44.6304 11.844 45.0317Z" fill="#0A3B3C"/>
<path d="M11.886 40.2172C11.8824 40.6185 12.1948 40.9498 12.5732 40.9461C12.9515 40.9424 13.2697 40.6049 13.2732 40.2036C13.2767 39.8024 12.9643 39.471 12.586 39.4748C12.2077 39.4785 11.8895 39.816 11.886 40.2172Z" fill="#0A3B3C"/>
<path d="M16.384 44.9868C16.3805 45.388 16.6928 45.7193 17.0711 45.7155C17.4495 45.7118 17.7677 45.3743 17.7712 44.9731C17.7747 44.5718 17.4624 44.2406 17.084 44.2443C16.7057 44.248 16.3875 44.5855 16.384 44.9868Z" fill="#0A3B3C"/>
<path d="M16.426 40.1723C16.4225 40.5736 16.7348 40.9048 17.1131 40.9011C17.4914 40.8974 17.8096 40.5599 17.8132 40.1586C17.8167 39.7574 17.5044 39.4261 17.126 39.4298C16.7477 39.4336 16.4295 39.7711 16.426 40.1723Z" fill="#0A3B3C"/>
<path d="M14.177 37.7875C14.1735 38.1888 14.4859 38.5201 14.8642 38.5164C15.2425 38.5127 15.5607 38.1752 15.5642 37.7739C15.5677 37.3727 15.2553 37.0414 14.877 37.0451C14.4987 37.0488 14.1805 37.3863 14.177 37.7875Z" fill="#0A3B3C"/>
<path d="M14.135 42.602C14.1315 43.0032 14.4438 43.3345 14.8221 43.3308C15.2004 43.327 15.5186 42.9896 15.5221 42.5883C15.5257 42.1871 15.2133 41.8558 14.835 41.8595C14.4567 41.8633 14.1385 42.2007 14.135 42.602Z" fill="#0A3B3C"/>
<path d="M18.7807 37.6743C18.7772 38.0755 19.0895 38.4068 19.4679 38.403C19.8462 38.3993 20.1644 38.0618 20.1679 37.6606C20.1714 37.2593 19.8591 36.9281 19.4808 36.9318C19.1024 36.9355 18.7842 37.273 18.7807 37.6743Z" fill="#0A3B3C"/>
<path d="M18.6748 42.5571C18.6713 42.9583 18.9836 43.2896 19.3619 43.2859C19.7402 43.2821 20.0584 42.9446 20.0619 42.5434C20.0655 42.1421 19.7531 41.8109 19.3748 41.8146C18.9965 41.8183 18.6783 42.1558 18.6748 42.5571Z" fill="#0A3B3C"/>
<path d="M11.8657 35.3364C11.8622 35.7376 12.1745 36.0689 12.5528 36.0652C12.9311 36.0614 13.2493 35.7239 13.2529 35.3227C13.2564 34.9214 12.944 34.5902 12.5657 34.5939C12.1874 34.5976 11.8692 34.9351 11.8657 35.3364Z" fill="#0A3B3C"/>
<path d="M16.5317 35.2895C16.5282 35.6907 16.8406 36.0221 17.2189 36.0184C17.5972 36.0146 17.9154 35.6771 17.919 35.2759C17.9225 34.8746 17.6101 34.5433 17.2317 34.547C16.8534 34.5508 16.5352 34.8882 16.5317 35.2895Z" fill="#0A3B3C"/>
<path d="M21.0295 40.059C21.026 40.4603 21.3383 40.7915 21.7166 40.7878C22.095 40.7841 22.4132 40.4466 22.4167 40.0453C22.4202 39.6441 22.1079 39.3128 21.7295 39.3166C21.3512 39.3203 21.033 39.6578 21.0295 40.059Z" fill="#0A3B3C"/>
<path d="M21.0715 35.2446C21.068 35.6458 21.3803 35.9771 21.7586 35.9734C22.137 35.9696 22.4552 35.6321 22.4587 35.2309C22.4622 34.8296 22.1499 34.4984 21.7715 34.5021C21.3932 34.5058 21.075 34.8433 21.0715 35.2446Z" fill="#0A3B3C"/>
<path d="M7.28365 40.1938C7.28014 40.595 7.59247 40.9263 7.97079 40.9226C8.34911 40.9188 8.66731 40.5814 8.67083 40.1801C8.67434 39.7789 8.36202 39.4476 7.98369 39.4513C7.60537 39.4551 7.28717 39.7925 7.28365 40.1938Z" fill="#0A3B3C"/>
<path d="M5.03463 37.809C5.03112 38.2103 5.34344 38.5415 5.72177 38.5378C6.10009 38.5341 6.41829 38.1966 6.42181 37.7953C6.42532 37.3941 6.11299 37.0628 5.73467 37.0666C5.35635 37.0703 5.03814 37.4078 5.03463 37.809Z" fill="#0A3B3C"/>
<path d="M9.57468 37.7641C9.57116 38.1654 9.88349 38.4966 10.2618 38.4929C10.6401 38.4892 10.9583 38.1517 10.9618 37.7504C10.9654 37.3492 10.653 37.0179 10.2747 37.0216C9.89638 37.0254 9.57819 37.3628 9.57468 37.7641Z" fill="#0A3B3C"/>
<path d="M9.59493 42.645C9.59142 43.0462 9.90382 43.3776 10.2821 43.3738C10.6605 43.3701 10.9787 43.0326 10.9822 42.6314C10.9857 42.2301 10.6733 41.8988 10.295 41.9025C9.91665 41.9062 9.59845 42.2437 9.59493 42.645Z" fill="#0A3B3C"/>
<path d="M2.78585 35.4243C2.78234 35.8255 3.09466 36.1568 3.47299 36.153C3.85131 36.1493 4.16951 35.8118 4.17303 35.4106C4.17654 35.0093 3.86421 34.6781 3.48589 34.6818C3.10757 34.6855 2.78936 35.023 2.78585 35.4243Z" fill="#0A3B3C"/>
<path d="M7.3259 35.3793C7.32239 35.7806 7.63471 36.1118 8.01304 36.1081C8.39136 36.1044 8.70955 35.7669 8.71307 35.3657C8.71658 34.9644 8.40425 34.6332 8.02593 34.6369C7.64761 34.6406 7.32941 34.9781 7.3259 35.3793Z" fill="#0A3B3C"/>
<path d="M11.8437 45.0297C11.8402 45.431 12.1525 45.7622 12.5308 45.7585C12.9092 45.7548 13.2274 45.4173 13.2309 45.016C13.2344 44.6148 12.9221 44.2835 12.5438 44.2873C12.1654 44.291 11.8472 44.6285 11.8437 45.0297Z" fill="#0A3B3C"/>
<path d="M11.886 40.2153C11.8824 40.6165 12.1948 40.9479 12.5732 40.9441C12.9515 40.9404 13.2697 40.6029 13.2732 40.2017C13.2767 39.8004 12.9643 39.4691 12.586 39.4728C12.2077 39.4765 11.8895 39.814 11.886 40.2153Z" fill="#0A3B3C"/>
<path d="M11.8654 35.3344C11.8619 35.7357 12.1743 36.0669 12.5526 36.0632C12.9309 36.0595 13.2491 35.722 13.2526 35.3207C13.2561 34.9195 12.9438 34.5882 12.5655 34.592C12.1872 34.5957 11.869 34.9332 11.8654 35.3344Z" fill="#0A3B3C"/>
<path d="M39.3574 35.0649C39.3539 35.4661 39.6662 35.7974 40.0445 35.7937C40.4229 35.7899 40.741 35.4525 40.7446 35.0512C40.7481 34.65 40.4357 34.3187 40.0574 34.3224C39.6791 34.3262 39.3609 34.6636 39.3574 35.0649Z" fill="#0A3B3C"/>
<path d="M39.3996 30.2504C39.3961 30.6517 39.7085 30.983 40.0868 30.9793C40.4652 30.9756 40.7834 30.6381 40.7869 30.2368C40.7904 29.8356 40.478 29.5042 40.0997 29.508C39.7213 29.5117 39.4031 29.8492 39.3996 30.2504Z" fill="#0A3B3C"/>
<path d="M37.0886 27.7993C37.0851 28.2005 37.3975 28.5318 37.7758 28.5281C38.1541 28.5244 38.4723 28.1869 38.4758 27.7857C38.4793 27.3844 38.1669 27.0531 37.7886 27.0568C37.4103 27.0605 37.0921 27.398 37.0886 27.7993Z" fill="#0A3B3C"/>
<path d="M44.0031 30.1372C43.9996 30.5384 44.312 30.8697 44.6903 30.8659C45.0686 30.8622 45.3868 30.5247 45.3903 30.1235C45.3938 29.7222 45.0815 29.391 44.7032 29.3947C44.3249 29.3984 44.0067 29.7359 44.0031 30.1372Z" fill="#0A3B3C"/>
<path d="M41.7541 27.7524C41.7506 28.1536 42.063 28.485 42.4413 28.4812C42.8197 28.4775 43.1379 28.14 43.1414 27.7388C43.1449 27.3375 42.8325 27.0062 42.4542 27.0099C42.0758 27.0137 41.7576 27.3511 41.7541 27.7524Z" fill="#0A3B3C"/>
<path d="M39.4433 25.3012C39.4398 25.7025 39.7522 26.0338 40.1305 26.0301C40.5089 26.0263 40.8271 25.6889 40.8306 25.2876C40.8341 24.8864 40.5217 24.555 40.1434 24.5588C39.765 24.5625 39.4468 24.9 39.4433 25.3012Z" fill="#0A3B3C"/>
<path d="M41.6484 32.6352C41.6449 33.0365 41.9572 33.3677 42.3355 33.364C42.7139 33.3603 43.0321 33.0228 43.0356 32.6215C43.0391 32.2203 42.7268 31.889 42.3484 31.8927C41.9701 31.8965 41.6519 32.2339 41.6484 32.6352Z" fill="#0A3B3C"/>
<path d="M30.257 30.2719C30.2535 30.6732 30.5659 31.0044 30.9442 31.0007C31.3225 30.997 31.6407 30.6595 31.6442 30.2582C31.6477 29.857 31.3354 29.5257 30.9571 29.5295C30.5788 29.5332 30.2606 29.8707 30.257 30.2719Z" fill="#0A3B3C"/>
<path d="M34.8171 35.1079C34.8136 35.5091 35.126 35.8404 35.5043 35.8367C35.8826 35.833 36.2008 35.4955 36.2044 35.0943C36.2079 34.693 35.8955 34.3617 35.5171 34.3654C35.1388 34.3691 34.8206 34.7066 34.8171 35.1079Z" fill="#0A3B3C"/>
<path d="M32.5063 32.6567C32.5028 33.0579 32.8152 33.3893 33.1935 33.3855C33.5719 33.3818 33.8901 33.0443 33.8936 32.6431C33.8971 32.2418 33.5847 31.9105 33.2063 31.9142C32.828 31.9179 32.5098 32.2554 32.5063 32.6567Z" fill="#0A3B3C"/>
<path d="M32.5481 27.8422C32.5446 28.2435 32.8569 28.5747 33.2352 28.571C33.6135 28.5673 33.9317 28.2298 33.9352 27.8285C33.9387 27.4273 33.6264 27.096 33.2481 27.0998C32.8698 27.1035 32.5516 27.441 32.5481 27.8422Z" fill="#0A3B3C"/>
<path d="M37.1081 32.6782C37.1046 33.0794 37.417 33.4108 37.7953 33.407C38.1737 33.4033 38.4919 33.0658 38.4954 32.6646C38.4989 32.2633 38.1865 31.932 37.8082 31.9357C37.4298 31.9394 37.1116 32.2769 37.1081 32.6782Z" fill="#0A3B3C"/>
<path d="M34.7973 30.227C34.7938 30.6282 35.1062 30.9596 35.4845 30.9559C35.8629 30.9521 36.1811 30.6146 36.1846 30.2134C36.1881 29.8121 35.8757 29.4808 35.4974 29.4845C35.119 29.4883 34.8008 29.8257 34.7973 30.227Z" fill="#0A3B3C"/>
<path d="M30.2993 25.4575C30.2958 25.8587 30.6081 26.19 30.9864 26.1862C31.3647 26.1825 31.6829 25.845 31.6865 25.4438C31.69 25.0425 31.3776 24.7113 30.9993 24.715C30.621 24.7187 30.3028 25.0562 30.2993 25.4575Z" fill="#0A3B3C"/>
<path d="M34.8393 25.4125C34.8358 25.8138 35.1481 26.145 35.5265 26.1413C35.9048 26.1376 36.223 25.8001 36.2265 25.3989C36.23 24.9976 35.9177 24.6664 35.5394 24.6701C35.161 24.6738 34.8428 25.0113 34.8393 25.4125Z" fill="#0A3B3C"/>
<path d="M39.3571 35.0649C39.3536 35.4661 39.666 35.7974 40.0443 35.7937C40.4226 35.7899 40.7408 35.4525 40.7443 35.0512C40.7478 34.65 40.4355 34.3187 40.0572 34.3224C39.6789 34.3262 39.3607 34.6636 39.3571 35.0649Z" fill="#0A3B3C"/>
<path d="M39.3991 30.2504C39.3956 30.6517 39.708 30.983 40.0863 30.9793C40.4647 30.9756 40.7829 30.6381 40.7864 30.2368C40.7899 29.8356 40.4775 29.5042 40.0992 29.508C39.7208 29.5117 39.4027 29.8492 39.3991 30.2504Z" fill="#0A3B3C"/>
<path d="M37.0883 27.7993C37.0848 28.2005 37.3972 28.5318 37.7756 28.5281C38.1539 28.5244 38.4721 28.1869 38.4756 27.7857C38.4791 27.3844 38.1667 27.0531 37.7884 27.0568C37.4101 27.0605 37.0919 27.398 37.0883 27.7993Z" fill="#0A3B3C"/>
<path d="M21.0715 35.2446C21.068 35.6458 21.3803 35.9771 21.7586 35.9734C22.137 35.9696 22.4552 35.6321 22.4587 35.2309C22.4622 34.8296 22.1499 34.4984 21.7715 34.5021C21.3932 34.5058 21.075 34.8433 21.0715 35.2446Z" fill="#0A3B3C"/>
<path d="M21.1135 30.4301C21.11 30.8314 21.4224 31.1627 21.8007 31.159C22.179 31.1553 22.4972 30.8178 22.5007 30.4165C22.5043 30.0153 22.1919 29.6839 21.8135 29.6877C21.4352 29.6914 21.117 30.0289 21.1135 30.4301Z" fill="#0A3B3C"/>
<path d="M25.6113 35.1997C25.6078 35.6009 25.9201 35.9322 26.2984 35.9284C26.6768 35.9247 26.995 35.5872 26.9985 35.186C27.002 34.7847 26.6897 34.4535 26.3113 34.4572C25.933 34.4609 25.6148 34.7984 25.6113 35.1997Z" fill="#0A3B3C"/>
<path d="M25.717 30.3168C25.7135 30.7181 26.0258 31.0493 26.4041 31.0456C26.7825 31.0419 27.1007 30.7044 27.1042 30.3032C27.1077 29.9019 26.7954 29.5706 26.417 29.5744C25.9751 29.6456 25.7205 29.9156 25.717 30.3168Z" fill="#0A3B3C"/>
<path d="M23.4682 27.9321C23.4647 28.3333 23.7771 28.6647 24.1554 28.6609C24.5338 28.6572 24.852 28.3197 24.8555 27.9185C24.859 27.5172 24.5466 27.1859 24.1683 27.1896C23.7263 27.2608 23.4717 27.5308 23.4682 27.9321Z" fill="#0A3B3C"/>
<path d="M23.3623 32.8149C23.3588 33.2161 23.6711 33.5474 24.0494 33.5437C24.4277 33.5399 24.7459 33.2025 24.7494 32.8012C24.753 32.4 24.4406 32.0687 24.0623 32.0724C23.684 32.0762 23.3658 32.4136 23.3623 32.8149Z" fill="#0A3B3C"/>
<path d="M28.008 27.8871C28.0045 28.2884 28.3168 28.6197 28.6952 28.6159C29.0735 28.6122 29.3917 28.2747 29.3952 27.8735C29.3987 27.4722 29.0864 27.141 28.7081 27.1447C28.3297 27.1484 28.0115 27.4859 28.008 27.8871Z" fill="#0A3B3C"/>
<path d="M27.966 32.7036C27.9625 33.1048 28.2748 33.4361 28.6532 33.4323C29.0315 33.4286 29.3497 33.0911 29.3532 32.6899C29.3567 32.2886 29.0444 31.9574 28.6661 31.9611C28.2241 32.0323 27.9695 32.3023 27.966 32.7036Z" fill="#0A3B3C"/>
<path d="M21.1569 25.4809C21.1534 25.8822 21.4658 26.2134 21.8441 26.2097C22.2224 26.206 22.5406 25.8685 22.5441 25.4672C22.5476 25.066 22.2353 24.7347 21.857 24.7384C21.415 24.8097 21.1605 25.0796 21.1569 25.4809Z" fill="#0A3B3C"/>
<path d="M25.7592 25.5024C25.7557 25.9036 26.0681 26.235 26.4465 26.2312C26.8248 26.2275 27.143 25.89 27.1465 25.4888C27.15 25.0875 26.8376 24.7562 26.4593 24.7599C26.081 24.7637 25.7628 25.1011 25.7592 25.5024Z" fill="#0A3B3C"/>
<path d="M30.257 30.2719C30.2535 30.6732 30.5659 31.0044 30.9442 31.0007C31.3225 30.997 31.6407 30.6595 31.6442 30.2582C31.6477 29.857 31.3354 29.5257 30.9571 29.5295C30.5788 29.5332 30.2606 29.8707 30.257 30.2719Z" fill="#0A3B3C"/>
<path d="M30.299 25.4575C30.2955 25.8587 30.6079 26.19 30.9862 26.1862C31.3645 26.1825 31.6827 25.845 31.6862 25.4438C31.6897 25.0425 31.3774 24.7113 30.9991 24.715C30.6207 24.7187 30.3026 25.0562 30.299 25.4575Z" fill="#0A3B3C"/>
<path d="M11.8654 35.3344C11.8619 35.7357 12.1743 36.0669 12.5526 36.0632C12.9309 36.0595 13.2491 35.722 13.2526 35.3207C13.2561 34.9195 12.9438 34.5882 12.5655 34.592C12.1872 34.5957 11.869 34.9332 11.8654 35.3344Z" fill="#0A3B3C"/>
<path d="M11.9714 30.4516C11.9679 30.8529 12.2802 31.1841 12.6585 31.1804C13.0369 31.1767 13.3551 30.8392 13.3586 30.4379C13.3621 30.0367 13.0498 29.7054 12.6714 29.7091C12.2931 29.7129 11.9749 30.0504 11.9714 30.4516Z" fill="#0A3B3C"/>
<path d="M16.5315 35.2875C16.5279 35.6888 16.8403 36.0201 17.2187 36.0164C17.597 36.0127 17.9152 35.6752 17.9187 35.2739C17.9222 34.8727 17.6098 34.5414 17.2315 34.5451C16.8532 34.5488 16.535 34.8863 16.5315 35.2875Z" fill="#0A3B3C"/>
<path d="M16.5112 30.4067C16.5077 30.8079 16.82 31.1392 17.1983 31.1355C17.5767 31.1317 17.8949 30.7943 17.8984 30.393C17.9019 29.9917 17.5896 29.6605 17.2112 29.6642C16.8329 29.6679 16.5147 30.0054 16.5112 30.4067Z" fill="#0A3B3C"/>
<path d="M14.2622 28.0219C14.2587 28.4232 14.571 28.7544 14.9493 28.7507C15.3276 28.747 15.6458 28.4095 15.6493 28.0082C15.6529 27.607 15.3405 27.2757 14.9622 27.2795C14.5839 27.2832 14.2657 27.6207 14.2622 28.0219Z" fill="#0A3B3C"/>
<path d="M14.2199 32.8364C14.2164 33.2376 14.5287 33.5689 14.9071 33.5652C15.2854 33.5614 15.6036 33.2239 15.6071 32.8227C15.6106 32.4214 15.2983 32.0902 14.92 32.0939C14.5416 32.0976 14.2234 32.4351 14.2199 32.8364Z" fill="#0A3B3C"/>
<path d="M18.8022 27.977C18.7987 28.3782 19.111 28.7095 19.4893 28.7058C19.8677 28.702 20.1859 28.3646 20.1894 27.9633C20.1929 27.5621 19.8806 27.2308 19.5022 27.2345C19.1239 27.2383 18.8057 27.5757 18.8022 27.977Z" fill="#0A3B3C"/>
<path d="M18.8225 32.8579C18.819 33.2591 19.1314 33.5904 19.5097 33.5867C19.888 33.583 20.2062 33.2455 20.2097 32.8443C20.2132 32.443 19.9008 32.1117 19.5225 32.1154C19.1442 32.1191 18.826 32.4566 18.8225 32.8579Z" fill="#0A3B3C"/>
<path d="M12.0134 25.6391C12.0099 26.0404 12.3222 26.3716 12.7005 26.3679C13.0789 26.3642 13.3971 26.0267 13.4006 25.6254C13.4041 25.2242 13.0918 24.8929 12.7134 24.8966C12.3351 24.9004 12.0169 25.2379 12.0134 25.6391Z" fill="#0A3B3C"/>
<path d="M16.5534 25.5942C16.5499 25.9954 16.8622 26.3267 17.2406 26.323C17.6189 26.3192 17.9371 25.9818 17.9406 25.5805C17.9441 25.1792 17.6318 24.848 17.2535 24.8517C16.8751 24.8554 16.5569 25.1929 16.5534 25.5942Z" fill="#0A3B3C"/>
<path d="M21.0713 35.2446C21.0677 35.6458 21.3801 35.9771 21.7584 35.9734C22.1367 35.9696 22.4549 35.6321 22.4584 35.2309C22.4619 34.8296 22.1496 34.4984 21.7713 34.5021C21.393 34.5058 21.0748 34.8433 21.0713 35.2446Z" fill="#0A3B3C"/>
<path d="M21.1135 30.4301C21.11 30.8314 21.4224 31.1627 21.8007 31.159C22.179 31.1553 22.4972 30.8178 22.5007 30.4165C22.5043 30.0153 22.1919 29.6839 21.8135 29.6877C21.4352 29.6914 21.117 30.0289 21.1135 30.4301Z" fill="#0A3B3C"/>
<path d="M21.1567 25.4809C21.1532 25.8822 21.4655 26.2134 21.8438 26.2097C22.2222 26.206 22.5404 25.8685 22.5439 25.4672C22.5474 25.066 22.2351 24.7347 21.8567 24.7384C21.4148 24.8097 21.1602 25.0796 21.1567 25.4809Z" fill="#0A3B3C"/>
<path d="M2.7856 35.4243C2.78209 35.8255 3.09442 36.1568 3.47274 36.153C3.85106 36.1493 4.16927 35.8118 4.17278 35.4106C4.1763 35.0093 3.86397 34.6781 3.48565 34.6818C3.10732 34.6855 2.78912 35.023 2.7856 35.4243Z" fill="#0A3B3C"/>
<path d="M7.32541 35.3793C7.32189 35.7806 7.63422 36.1118 8.01254 36.1081C8.39087 36.1044 8.70906 35.7669 8.71258 35.3657C8.71609 34.9644 8.40376 34.6331 8.02544 34.6369C7.64712 34.6406 7.32892 34.9781 7.32541 35.3793Z" fill="#0A3B3C"/>
<path d="M7.36764 30.5649C7.36412 30.9661 7.67645 31.2974 8.05477 31.2937C8.4331 31.2899 8.7513 30.9525 8.75481 30.5512C8.75833 30.15 8.446 29.8187 8.06768 29.8224C7.68935 29.8262 7.37115 30.1636 7.36764 30.5649Z" fill="#0A3B3C"/>
<path d="M5.07663 32.9946C5.07311 33.3958 5.38544 33.7271 5.76376 33.7234C6.14209 33.7196 6.46028 33.3821 6.4638 32.9809C6.46731 32.5796 6.15499 32.2484 5.77666 32.2521C5.39834 32.2558 5.08014 32.5933 5.07663 32.9946Z" fill="#0A3B3C"/>
<path d="M9.72238 28.0668C9.71886 28.4681 10.0312 28.7993 10.4095 28.7956C10.7878 28.7919 11.106 28.4544 11.1095 28.0532C11.1131 27.6519 10.8007 27.3207 10.4224 27.3244C10.0441 27.3281 9.72589 27.6656 9.72238 28.0668Z" fill="#0A3B3C"/>
<path d="M9.61666 32.9497C9.61315 33.3509 9.92547 33.6822 10.3038 33.6784C10.6821 33.6747 11.0003 33.3372 11.0038 32.936C11.0074 32.5347 10.695 32.2035 10.3167 32.2072C9.93838 32.2109 9.62017 32.5484 9.61666 32.9497Z" fill="#0A3B3C"/>
<path d="M11.8654 35.3325C11.8619 35.7337 12.1743 36.065 12.5526 36.0613C12.9309 36.0575 13.2491 35.72 13.2526 35.3188C13.2561 34.9175 12.9438 34.5863 12.5655 34.59C12.1872 34.5937 11.869 34.9312 11.8654 35.3325Z" fill="#0A3B3C"/>
<path d="M11.9712 30.4516C11.9676 30.8529 12.28 31.1841 12.6583 31.1804C13.0366 31.1767 13.3548 30.8392 13.3583 30.4379C13.3618 30.0367 13.0495 29.7054 12.6712 29.7091C12.2929 29.7129 11.9747 30.0504 11.9712 30.4516Z" fill="#0A3B3C"/>
<path d="M12.0134 25.6372C12.0099 26.0384 12.3222 26.3697 12.7005 26.3659C13.0789 26.3622 13.3971 26.0247 13.4006 25.6235C13.4041 25.2222 13.0918 24.891 12.7134 24.8947C12.3351 24.8984 12.0169 25.2359 12.0134 25.6372Z" fill="#0A3B3C"/>
<path d="M30.2993 25.4575C30.2958 25.8587 30.6081 26.19 30.9864 26.1862C31.3647 26.1825 31.6829 25.845 31.6865 25.4438C31.69 25.0425 31.3776 24.7113 30.9993 24.715C30.621 24.7187 30.3028 25.0562 30.2993 25.4575Z" fill="#0A3B3C"/>
<path d="M30.3413 20.643C30.3378 21.0443 30.6502 21.3756 31.0285 21.3719C31.4068 21.3681 31.725 21.0307 31.7285 20.6294C31.732 20.2282 31.4196 19.8968 31.0413 19.9005C30.663 19.9043 30.3448 20.2418 30.3413 20.643Z" fill="#0A3B3C"/>
<path d="M34.8391 25.4125C34.8356 25.8138 35.1479 26.145 35.5262 26.1413C35.9045 26.1376 36.2227 25.8001 36.2262 25.3989C36.2298 24.9976 35.9174 24.6664 35.5391 24.6701C35.1608 24.6738 34.8426 25.0113 34.8391 25.4125Z" fill="#0A3B3C"/>
<path d="M34.945 20.5297C34.9415 20.931 35.2538 21.2622 35.6322 21.2585C36.0105 21.2548 36.3287 20.9173 36.3322 20.516C36.3357 20.1148 36.0234 19.7835 35.6451 19.7873C35.2667 19.791 34.9485 20.1285 34.945 20.5297Z" fill="#0A3B3C"/>
<path d="M32.696 18.145C32.6925 18.5462 33.0049 18.8776 33.3832 18.8738C33.7615 18.8701 34.0797 18.5326 34.0833 18.1314C34.0868 17.7301 33.7744 17.3988 33.396 17.4025C33.0177 17.4062 32.6995 17.7437 32.696 18.145Z" fill="#0A3B3C"/>
<path d="M32.5903 23.0278C32.5868 23.429 32.8991 23.7603 33.2774 23.7566C33.6558 23.7528 33.974 23.4153 33.9775 23.0141C33.981 22.6128 33.6687 22.2816 33.2903 22.2853C32.912 22.289 32.5938 22.6265 32.5903 23.0278Z" fill="#0A3B3C"/>
<path d="M37.1936 22.9145C37.1901 23.3157 37.5024 23.647 37.8807 23.6433C38.259 23.6395 38.5772 23.3021 38.5807 22.9008C38.5843 22.4996 38.2719 22.1683 37.8936 22.172C37.5153 22.1758 37.1971 22.5132 37.1936 22.9145Z" fill="#0A3B3C"/>
<path d="M30.3847 15.6938C30.3812 16.095 30.6935 16.4263 31.0719 16.4226C31.4502 16.4188 31.7684 16.0814 31.7719 15.6801C31.7754 15.2789 31.4631 14.9476 31.0848 14.9513C30.7064 14.9551 30.3882 15.2925 30.3847 15.6938Z" fill="#0A3B3C"/>
<path d="M21.1572 25.4789C21.1537 25.8802 21.466 26.2115 21.8443 26.2077C22.2227 26.204 22.5408 25.8665 22.5444 25.4653C22.5479 25.064 22.2356 24.7328 21.8572 24.7365C21.4153 24.8077 21.1607 25.0777 21.1572 25.4789Z" fill="#0A3B3C"/>
<path d="M21.1994 20.6645C21.1959 21.0657 21.5082 21.397 21.8866 21.3933C22.2649 21.3895 22.5831 21.0521 22.5866 20.6508C22.5901 20.2496 22.2778 19.9183 21.8995 19.922C21.5211 19.9258 21.2029 20.2632 21.1994 20.6645Z" fill="#0A3B3C"/>
<path d="M25.7595 25.5004C25.756 25.9017 26.0684 26.233 26.4467 26.2293C26.825 26.2256 27.1432 25.8881 27.1467 25.4868C27.1502 25.0856 26.8378 24.7542 26.4595 24.758C26.0812 24.7617 25.763 25.0992 25.7595 25.5004Z" fill="#0A3B3C"/>
<path d="M25.7392 20.6196C25.7357 21.0208 26.048 21.3521 26.4264 21.3484C26.8047 21.3446 27.1229 21.0071 27.1264 20.6059C27.1299 20.2046 26.8176 19.8734 26.4393 19.8771C26.0609 19.8808 25.7427 20.2183 25.7392 20.6196Z" fill="#0A3B3C"/>
<path d="M23.4902 18.2348C23.4867 18.6361 23.799 18.9673 24.1773 18.9636C24.5557 18.9599 24.8739 18.6224 24.8774 18.2211C24.8809 17.8199 24.5686 17.4886 24.1902 17.4923C23.8119 17.4961 23.4937 17.8336 23.4902 18.2348Z" fill="#0A3B3C"/>
<path d="M23.448 23.0493C23.4445 23.4505 23.7568 23.7818 24.1351 23.778C24.5134 23.7743 24.8316 23.4368 24.8351 23.0356C24.8386 22.6343 24.5263 22.3031 24.148 22.3068C23.7697 22.3105 23.4515 22.648 23.448 23.0493Z" fill="#0A3B3C"/>
<path d="M28.0302 18.1899C28.0267 18.5911 28.3391 18.9224 28.7174 18.9187C29.0957 18.9149 29.4139 18.5775 29.4174 18.1762C29.4209 17.775 29.1086 17.4437 28.7303 17.4474C28.352 17.4512 28.0338 17.7886 28.0302 18.1899Z" fill="#0A3B3C"/>
<path d="M28.0505 23.0707C28.047 23.472 28.3594 23.8033 28.7377 23.7996C29.116 23.7959 29.4342 23.4584 29.4378 23.0571C29.4413 22.6559 29.1289 22.3246 28.7505 22.3283C28.3722 22.332 28.054 22.6695 28.0505 23.0707Z" fill="#0A3B3C"/>
<path d="M21.2412 15.852C21.2377 16.2532 21.55 16.5845 21.9283 16.5808C22.3066 16.577 22.6248 16.2396 22.6283 15.8383C22.6319 15.4371 22.3195 15.1058 21.9412 15.1095C21.5629 15.1133 21.2447 15.4507 21.2412 15.852Z" fill="#0A3B3C"/>
<path d="M25.7812 15.8071C25.7777 16.2083 26.09 16.5396 26.4684 16.5359C26.8467 16.5321 27.1649 16.1946 27.1684 15.7934C27.1719 15.3921 26.8596 15.0609 26.4813 15.0646C26.1029 15.0683 25.7847 15.4058 25.7812 15.8071Z" fill="#0A3B3C"/>
<path d="M30.2993 25.4575C30.2958 25.8587 30.6081 26.19 30.9864 26.1862C31.3647 26.1825 31.6829 25.845 31.6865 25.4438C31.69 25.0425 31.3776 24.7113 30.9993 24.715C30.621 24.7187 30.3028 25.0562 30.2993 25.4575Z" fill="#0A3B3C"/>
<path d="M30.3413 20.643C30.3378 21.0443 30.6502 21.3756 31.0285 21.3719C31.4068 21.3681 31.725 21.0307 31.7285 20.6294C31.732 20.2282 31.4196 19.8968 31.0413 19.9005C30.663 19.9043 30.3448 20.2418 30.3413 20.643Z" fill="#0A3B3C"/>
<path d="M30.3847 15.6938C30.3812 16.095 30.6935 16.4263 31.0719 16.4226C31.4502 16.4188 31.7684 16.0814 31.7719 15.6801C31.7754 15.2789 31.4631 14.9476 31.0848 14.9513C30.7064 14.9551 30.3882 15.2925 30.3847 15.6938Z" fill="#0A3B3C"/>
<path d="M12.0134 25.6391C12.0099 26.0404 12.3222 26.3716 12.7005 26.3679C13.0789 26.3642 13.3971 26.0267 13.4006 25.6254C13.4041 25.2242 13.0918 24.8929 12.7134 24.8966C12.3351 24.9004 12.0169 25.2379 12.0134 25.6391Z" fill="#0A3B3C"/>
<path d="M16.5532 25.5942C16.5497 25.9954 16.862 26.3267 17.2403 26.323C17.6187 26.3192 17.9368 25.9818 17.9404 25.5805C17.9439 25.1792 17.6315 24.848 17.2532 24.8517C16.8749 24.8554 16.5567 25.1929 16.5532 25.5942Z" fill="#0A3B3C"/>
<path d="M16.6591 20.7114C16.6556 21.1126 16.968 21.4439 17.3463 21.4402C17.7246 21.4364 18.0428 21.0989 18.0463 20.6977C18.0498 20.2964 17.7375 19.9652 17.3592 19.9689C16.9172 20.0401 16.6627 20.3101 16.6591 20.7114Z" fill="#0A3B3C"/>
<path d="M14.3044 23.2094C14.3009 23.6107 14.6132 23.9419 14.9915 23.9382C15.3699 23.9345 15.6881 23.597 15.6916 23.1957C15.6951 22.7945 15.3828 22.4632 15.0044 22.467C14.6261 22.4707 14.3079 22.8082 14.3044 23.2094Z" fill="#0A3B3C"/>
<path d="M18.9502 18.2817C18.9467 18.6829 19.259 19.0142 19.6373 19.0105C20.0156 19.0067 20.3338 18.6693 20.3373 18.268C20.3408 17.8667 20.0285 17.5355 19.6502 17.5392C19.2719 17.5429 18.9537 17.8804 18.9502 18.2817Z" fill="#0A3B3C"/>
<path d="M18.9079 23.0961C18.9044 23.4974 19.2167 23.8286 19.5951 23.8249C19.9734 23.8212 20.2916 23.4837 20.2951 23.0825C20.2986 22.6812 19.9863 22.3499 19.608 22.3537C19.166 22.4249 18.9114 22.6949 18.9079 23.0961Z" fill="#0A3B3C"/>
<path d="M21.1567 25.4809C21.1532 25.8822 21.4655 26.2134 21.8438 26.2097C22.2222 26.206 22.5404 25.8685 22.5439 25.4672C22.5474 25.066 22.2351 24.7347 21.8567 24.7384C21.4148 24.8097 21.1602 25.0796 21.1567 25.4809Z" fill="#0A3B3C"/>
<path d="M21.1989 20.6664C21.1954 21.0677 21.5078 21.399 21.8861 21.3952C22.2644 21.3915 22.5826 21.054 22.5861 20.6528C22.5896 20.2515 22.2773 19.9203 21.899 19.924C21.5207 19.9277 21.2025 20.2652 21.1989 20.6664Z" fill="#0A3B3C"/>
<path d="M21.2412 15.852C21.2377 16.2532 21.55 16.5845 21.9283 16.5808C22.3066 16.577 22.6248 16.2396 22.6283 15.8383C22.6319 15.4371 22.3195 15.1058 21.9412 15.1095C21.5629 15.1133 21.2447 15.4507 21.2412 15.852Z" fill="#0A3B3C"/>
<path d="M30.3847 15.6938C30.3812 16.095 30.6935 16.4263 31.0719 16.4226C31.4502 16.4188 31.7684 16.0814 31.7719 15.6801C31.7754 15.2789 31.4631 14.9476 31.0848 14.9513C30.7064 14.9551 30.3882 15.2925 30.3847 15.6938Z" fill="#0A3B3C"/>
<path d="M21.2412 15.852C21.2377 16.2532 21.55 16.5845 21.9283 16.5808C22.3066 16.577 22.6248 16.2396 22.6283 15.8383C22.6319 15.4371 22.3195 15.1058 21.9412 15.1095C21.5629 15.1133 21.2447 15.4507 21.2412 15.852Z" fill="#0A3B3C"/>
<path d="M25.7812 15.8071C25.7777 16.2083 26.09 16.5396 26.4684 16.5359C26.8467 16.5321 27.1649 16.1946 27.1684 15.7934C27.1719 15.3921 26.8596 15.0609 26.4813 15.0646C26.1029 15.0683 25.7847 15.4058 25.7812 15.8071Z" fill="#0A3B3C"/>
<path d="M25.8869 10.9243C25.8834 11.3255 26.1957 11.6568 26.5741 11.653C26.9524 11.6493 27.2706 11.3118 27.2741 10.9106C27.2776 10.5093 26.9653 10.1781 26.587 10.1818C26.2086 10.1855 25.8904 10.523 25.8869 10.9243Z" fill="#0A3B3C"/>
<path d="M23.5322 13.4223C23.5287 13.8236 23.841 14.1548 24.2193 14.1511C24.5977 14.1474 24.9159 13.8099 24.9194 13.4086C24.9229 13.0074 24.6106 12.6761 24.2322 12.6798C23.8539 12.6836 23.5357 13.0211 23.5322 13.4223Z" fill="#0A3B3C"/>
<path d="M28.1357 13.309C28.1322 13.7103 28.4445 14.0415 28.8228 14.0378C29.2012 14.0341 29.5194 13.6966 29.5229 13.2953C29.5264 12.8941 29.2141 12.5628 28.8357 12.5666C28.4574 12.5703 28.1392 12.9078 28.1357 13.309Z" fill="#0A3B3C"/>
<path d="M30.3845 15.6957C30.381 16.097 30.6933 16.4283 31.0716 16.4245C31.4499 16.4208 31.7681 16.0833 31.7717 15.6821C31.7752 15.2808 31.4628 14.9496 31.0845 14.9533C30.7062 14.957 30.388 15.2945 30.3845 15.6957Z" fill="#0A3B3C"/>
<path d="M55.5849 17.854C55.5814 18.2552 55.8937 18.5865 56.2721 18.5827C56.6504 18.579 56.9686 18.2415 56.9721 17.8403C56.9756 17.439 56.6633 17.1078 56.285 17.1115C55.9066 17.1152 55.5884 17.4527 55.5849 17.854Z" fill="#0A3B3C"/>
<path d="M46.3576 27.6411C46.3541 28.0423 46.6664 28.3736 47.0448 28.3698C47.4231 28.3661 47.7413 28.0286 47.7448 27.6274C47.7483 27.2261 47.436 26.8949 47.0577 26.8986C46.6793 26.9023 46.3611 27.2398 46.3576 27.6411Z" fill="#0A3B3C"/>
<path d="M46.3996 22.8266C46.3961 23.2279 46.7085 23.5592 47.0868 23.5555C47.4652 23.5517 47.7834 23.2143 47.7869 22.813C47.7904 22.4118 47.478 22.0804 47.0997 22.0841C46.7213 22.0879 46.4031 22.4253 46.3996 22.8266Z" fill="#0A3B3C"/>
<path d="M44.0888 20.3754C44.0853 20.7767 44.3977 21.108 44.7761 21.1043C45.1544 21.1006 45.4726 20.7631 45.4761 20.3618C45.4796 19.9606 45.1672 19.6292 44.7889 19.633C44.4105 19.6367 44.0924 19.9742 44.0888 20.3754Z" fill="#0A3B3C"/>
<path d="M50.9399 22.7817C50.9364 23.1829 51.2487 23.5142 51.627 23.5105C52.0054 23.5067 52.3236 23.1693 52.3271 22.768C52.3306 22.3668 52.0183 22.0355 51.6399 22.0392C51.2616 22.0429 50.9434 22.3804 50.9399 22.7817Z" fill="#0A3B3C"/>
<path d="M48.6909 20.3969C48.6874 20.7982 48.9998 21.1295 49.3781 21.1258C49.7564 21.1221 50.0746 20.7846 50.0781 20.3833C50.0816 19.9821 49.7692 19.6507 49.3909 19.6545C49.0126 19.6582 48.6944 19.9957 48.6909 20.3969Z" fill="#0A3B3C"/>
<path d="M46.3801 17.9458C46.3766 18.347 46.689 18.6783 47.0673 18.6746C47.4456 18.6709 47.7638 18.3334 47.7673 17.9321C47.7709 17.5309 47.4585 17.1996 47.0801 17.2033C46.7018 17.207 46.3836 17.5445 46.3801 17.9458Z" fill="#0A3B3C"/>
<path d="M48.6486 25.2114C48.6451 25.6126 48.9575 25.9439 49.3358 25.9402C49.7141 25.9364 50.0323 25.5989 50.0358 25.1977C50.0393 24.7964 49.727 24.4652 49.3487 24.4689C48.9704 24.4726 48.6522 24.8101 48.6486 25.2114Z" fill="#0A3B3C"/>
<path d="M53.2944 20.2836C53.2909 20.6849 53.6032 21.0161 53.9815 21.0124C54.3599 21.0087 54.6781 20.6712 54.6816 20.27C54.6851 19.8687 54.3728 19.5374 53.9944 19.5412C53.6161 19.5449 53.2979 19.8824 53.2944 20.2836Z" fill="#0A3B3C"/>
<path d="M51.0456 17.8989C51.0421 18.3001 51.3545 18.6315 51.7328 18.6277C52.1112 18.624 52.4294 18.2865 52.4329 17.8853C52.4364 17.484 52.124 17.1527 51.7457 17.1564C51.3673 17.1601 51.0491 17.4976 51.0456 17.8989Z" fill="#0A3B3C"/>
<path d="M48.7346 15.4477C48.7311 15.8489 49.0435 16.1803 49.4218 16.1766C49.8001 16.1728 50.1183 15.8354 50.1218 15.4341C50.1253 15.0328 49.8129 14.7015 49.4346 14.7052C49.0563 14.709 48.7381 15.0464 48.7346 15.4477Z" fill="#0A3B3C"/>
<path d="M55.5854 17.854C55.5819 18.2552 55.8942 18.5865 56.2726 18.5827C56.6509 18.579 56.9691 18.2415 56.9726 17.8403C56.9761 17.439 56.6638 17.1078 56.2855 17.1115C55.9071 17.1152 55.5889 17.4527 55.5854 17.854Z" fill="#0A3B3C"/>
<path d="M39.5483 20.4184C39.5448 20.8197 39.8571 21.1509 40.2354 21.1472C40.6138 21.1435 40.932 20.806 40.9355 20.4047C40.939 20.0035 40.6267 19.6722 40.2483 19.6759C39.87 19.6797 39.5518 20.0172 39.5483 20.4184Z" fill="#0A3B3C"/>
<path d="M44.1084 25.2543C44.1048 25.6556 44.4172 25.9869 44.7956 25.9832C45.1739 25.9795 45.4921 25.642 45.4956 25.2407C45.4991 24.8395 45.1867 24.5082 44.8084 24.5119C44.4301 24.5156 44.1119 24.8531 44.1084 25.2543Z" fill="#0A3B3C"/>
<path d="M41.7976 22.8032C41.7941 23.2044 42.1065 23.5358 42.4848 23.532C42.8631 23.5283 43.1813 23.1908 43.1848 22.7896C43.1883 22.3883 42.8759 22.057 42.4976 22.0607C42.1193 22.0644 41.8011 22.4019 41.7976 22.8032Z" fill="#0A3B3C"/>
<path d="M37.2993 18.0336C37.2958 18.4349 37.6081 18.7661 37.9864 18.7624C38.3647 18.7587 38.6829 18.4212 38.6865 18.02C38.69 17.6187 38.3776 17.2874 37.9993 17.2912C37.621 17.2949 37.3028 17.6324 37.2993 18.0336Z" fill="#0A3B3C"/>
<path d="M41.8393 17.9887C41.8358 18.39 42.1481 18.7212 42.5265 18.7175C42.9048 18.7138 43.223 18.3763 43.2265 17.975C43.23 17.5738 42.9177 17.2425 42.5394 17.2463C42.161 17.25 41.8428 17.5875 41.8393 17.9887Z" fill="#0A3B3C"/>
<path d="M46.3574 27.6411C46.3539 28.0423 46.6662 28.3736 47.0445 28.3698C47.4228 28.3661 47.741 28.0286 47.7446 27.6274C47.7481 27.2261 47.4357 26.8949 47.0574 26.8986C46.6791 26.9023 46.3609 27.2398 46.3574 27.6411Z" fill="#0A3B3C"/>
<path d="M46.3994 22.8266C46.3959 23.2279 46.7083 23.5592 47.0866 23.5555C47.4649 23.5517 47.7831 23.2143 47.7866 22.813C47.7901 22.4118 47.4777 22.0804 47.0994 22.0841C46.7211 22.0879 46.4029 22.4253 46.3994 22.8266Z" fill="#0A3B3C"/>
<path d="M44.0886 20.3754C44.0851 20.7767 44.3975 21.108 44.7758 21.1043C45.1541 21.1006 45.4723 20.7631 45.4758 20.3618C45.4793 19.9606 45.1669 19.6292 44.7886 19.633C44.4103 19.6367 44.0921 19.9742 44.0886 20.3754Z" fill="#0A3B3C"/>
<path d="M55.5854 17.8539C55.5819 18.2552 55.8942 18.5865 56.2726 18.5827C56.6509 18.579 56.9691 18.2415 56.9726 17.8403C56.9761 17.439 56.6638 17.1078 56.2855 17.1115C55.9071 17.1152 55.5889 17.4527 55.5854 17.8539Z" fill="#0A3B3C"/>
<path d="M55.6274 13.0395C55.6239 13.4407 55.9363 13.7721 56.3146 13.7684C56.6929 13.7646 57.0111 13.4272 57.0147 13.0259C57.0182 12.6246 56.7058 12.2933 56.3274 12.297C55.9491 12.3008 55.6309 12.6382 55.6274 13.0395Z" fill="#0A3B3C"/>
<path d="M53.3166 10.5883C53.3131 10.9896 53.6255 11.3209 54.0038 11.3172C54.3822 11.3135 54.7003 10.976 54.7039 10.5747C54.7074 10.1735 54.395 9.84213 54.0167 9.84586C53.6383 9.84959 53.3201 10.1871 53.3166 10.5883Z" fill="#0A3B3C"/>
<path d="M55.6714 8.09027C55.6678 8.49153 55.9802 8.82286 56.3586 8.81914C56.7369 8.81541 57.0551 8.47793 57.0586 8.07668C57.0621 7.67542 56.7497 7.34409 56.3714 7.34781C55.9294 7.41904 55.6749 7.68902 55.6714 8.09027Z" fill="#0A3B3C"/>
<path d="M46.4848 13.061C46.4813 13.4622 46.7936 13.7935 47.172 13.7898C47.5503 13.786 47.8685 13.4486 47.872 13.0473C47.8755 12.646 47.5632 12.3148 47.1849 12.3185C46.8065 12.3222 46.4883 12.6597 46.4848 13.061Z" fill="#0A3B3C"/>
<path d="M51.0449 17.8969C51.0414 18.2982 51.3538 18.6295 51.7321 18.6258C52.1104 18.6221 52.4286 18.2846 52.4321 17.8833C52.4357 17.4821 52.1232 17.1507 51.7449 17.1545C51.3666 17.1582 51.0484 17.4957 51.0449 17.8969Z" fill="#0A3B3C"/>
<path d="M48.7341 15.4457C48.7306 15.847 49.043 16.1783 49.4213 16.1746C49.7996 16.1709 50.1178 15.8334 50.1213 15.4321C50.1249 15.0309 49.8125 14.6996 49.4341 14.7033C49.0558 14.707 48.7376 15.0445 48.7341 15.4457Z" fill="#0A3B3C"/>
<path d="M48.7761 10.6313C48.7726 11.0325 49.0849 11.3638 49.4632 11.3601C49.8415 11.3563 50.1597 11.0189 50.1633 10.6176C50.1668 10.2164 49.8544 9.8851 49.4761 9.88883C49.0978 9.89256 48.7796 10.23 48.7761 10.6313Z" fill="#0A3B3C"/>
<path d="M53.3359 15.4672C53.3324 15.8685 53.6448 16.1998 54.0231 16.1961C54.4014 16.1924 54.7196 15.8549 54.7232 15.4536C54.7267 15.0524 54.4143 14.721 54.0359 14.7248C53.6576 14.7285 53.3394 15.066 53.3359 15.4672Z" fill="#0A3B3C"/>
<path d="M51.0251 13.0161C51.0216 13.4173 51.334 13.7486 51.7123 13.7449C52.0906 13.7412 52.4088 13.4037 52.4124 13.0025C52.4159 12.6012 52.1035 12.2699 51.7251 12.2736C51.3468 12.2773 51.0286 12.6148 51.0251 13.0161Z" fill="#0A3B3C"/>
<path d="M46.5271 8.24653C46.5236 8.64778 46.8359 8.97904 47.2142 8.97531C47.5925 8.97158 47.9107 8.6341 47.9142 8.23285C47.9178 7.83159 47.6054 7.50034 47.2271 7.50406C46.8488 7.50779 46.5306 7.84527 46.5271 8.24653Z" fill="#0A3B3C"/>
<path d="M51.0671 8.2016C51.0636 8.60286 51.3759 8.93411 51.7542 8.93038C52.1326 8.92666 52.4508 8.58918 52.4543 8.18792C52.4578 7.78667 52.1455 7.45542 51.7671 7.45914C51.3888 7.46287 51.0706 7.80035 51.0671 8.2016Z" fill="#0A3B3C"/>
<path d="M55.5849 17.8539C55.5814 18.2552 55.8937 18.5865 56.2721 18.5827C56.6504 18.579 56.9686 18.2415 56.9721 17.8403C56.9756 17.439 56.6633 17.1078 56.285 17.1115C55.9066 17.1152 55.5884 17.4527 55.5849 17.8539Z" fill="#0A3B3C"/>
<path d="M55.6269 13.0395C55.6234 13.4407 55.9358 13.7721 56.3141 13.7684C56.6925 13.7646 57.0107 13.4271 57.0142 13.0259C57.0177 12.6246 56.7053 12.2933 56.327 12.297C55.9486 12.3008 55.6304 12.6382 55.6269 13.0395Z" fill="#0A3B3C"/>
<path d="M53.3161 10.5883C53.3126 10.9896 53.625 11.3209 54.0033 11.3172C54.3817 11.3135 54.6999 10.976 54.7034 10.5747C54.7069 10.1735 54.3945 9.84214 54.0162 9.84586C53.6378 9.84959 53.3196 10.1871 53.3161 10.5883Z" fill="#0A3B3C"/>
<path d="M37.2995 18.0336C37.296 18.4349 37.6083 18.7662 37.9867 18.7624C38.365 18.7587 38.6832 18.4212 38.6867 18.02C38.6902 17.6187 38.3779 17.2874 37.9996 17.2912C37.6212 17.2949 37.303 17.6324 37.2995 18.0336Z" fill="#0A3B3C"/>
<path d="M37.3415 13.2192C37.338 13.6204 37.6504 13.9518 38.0287 13.948C38.4071 13.9443 38.7253 13.6068 38.7288 13.2056C38.7323 12.8043 38.4199 12.473 38.0416 12.4767C37.6632 12.4804 37.345 12.8179 37.3415 13.2192Z" fill="#0A3B3C"/>
<path d="M41.8396 17.9887C41.8361 18.39 42.1484 18.7212 42.5267 18.7175C42.905 18.7138 43.2232 18.3763 43.2267 17.975C43.2303 17.5738 42.9179 17.2425 42.5396 17.2463C42.1613 17.25 41.8431 17.5875 41.8396 17.9887Z" fill="#0A3B3C"/>
<path d="M41.8816 13.1743C41.878 13.5755 42.1904 13.9068 42.5687 13.903C42.947 13.8993 43.2652 13.5618 43.2687 13.1606C43.2722 12.7593 42.9599 12.4281 42.5816 12.4318C42.2033 12.4355 41.8851 12.773 41.8816 13.1743Z" fill="#0A3B3C"/>
<path d="M39.6325 10.7895C39.629 11.1908 39.9414 11.5221 40.3197 11.5184C40.6981 11.5146 41.0163 11.1771 41.0198 10.7759C41.0233 10.3746 40.7109 10.0433 40.3326 10.047C39.9542 10.0508 39.636 10.3882 39.6325 10.7895Z" fill="#0A3B3C"/>
<path d="M39.5905 15.6039C39.587 16.0052 39.8994 16.3365 40.2777 16.3327C40.656 16.329 40.9742 15.9915 40.9777 15.5903C40.9812 15.189 40.6689 14.8578 40.2906 14.8615C39.9123 14.8652 39.5941 15.2027 39.5905 15.6039Z" fill="#0A3B3C"/>
<path d="M44.2363 10.6762C44.2328 11.0775 44.5451 11.4087 44.9234 11.405C45.3018 11.4013 45.62 11.0638 45.6235 10.6625C45.627 10.2613 45.3147 9.93002 44.9363 9.93375C44.558 9.93748 44.2398 10.275 44.2363 10.6762Z" fill="#0A3B3C"/>
<path d="M44.1303 15.559C44.1268 15.9603 44.4391 16.2915 44.8175 16.2878C45.1958 16.2841 45.514 15.9466 45.5175 15.5453C45.521 15.1441 45.2087 14.8128 44.8304 14.8166C44.452 14.8203 44.1338 15.1578 44.1303 15.559Z" fill="#0A3B3C"/>
<path d="M37.3212 8.33833C37.3177 8.73958 37.6301 9.07084 38.0084 9.06711C38.3867 9.06338 38.7049 8.72589 38.7084 8.32464C38.7119 7.92339 38.3996 7.59213 38.0213 7.59586C37.643 7.59959 37.3248 7.93708 37.3212 8.33833Z" fill="#0A3B3C"/>
<path d="M41.9873 8.29145C41.9838 8.6927 42.2962 9.02404 42.6745 9.02031C43.0528 9.01658 43.371 8.6791 43.3745 8.27785C43.378 7.8766 43.0656 7.54526 42.6873 7.54899C42.309 7.55271 41.9908 7.8902 41.9873 8.29145Z" fill="#0A3B3C"/>
<path d="M46.4851 13.061C46.4816 13.4622 46.7939 13.7935 47.1722 13.7898C47.5505 13.786 47.8687 13.4486 47.8722 13.0473C47.8758 12.646 47.5634 12.3148 47.1851 12.3185C46.8068 12.3222 46.4886 12.6597 46.4851 13.061Z" fill="#0A3B3C"/>
<path d="M46.5273 8.24652C46.5238 8.64778 46.8361 8.97903 47.2144 8.97531C47.5928 8.97158 47.911 8.6341 47.9145 8.23285C47.918 7.83159 47.6057 7.50034 47.2273 7.50406C46.849 7.50779 46.5308 7.84527 46.5273 8.24652Z" fill="#0A3B3C"/>
<path d="M32.7392 13.1957C32.7357 13.597 33.048 13.9283 33.4264 13.9245C33.8047 13.9208 34.1229 13.5833 34.1264 13.1821C34.1299 12.7808 33.8176 12.4496 33.4393 12.4533C33.0609 12.457 32.7427 12.7945 32.7392 13.1957Z" fill="#0A3B3C"/>
<path d="M30.4902 10.811C30.4867 11.2122 30.799 11.5435 31.1773 11.5398C31.5557 11.536 31.8739 11.1986 31.8774 10.7973C31.8809 10.396 31.5686 10.0648 31.1902 10.0685C30.8119 10.0722 30.4937 10.4097 30.4902 10.811Z" fill="#0A3B3C"/>
<path d="M35.0302 10.766C35.0267 11.1673 35.3391 11.4986 35.7174 11.4948C36.0957 11.4911 36.4139 11.1536 36.4174 10.7524C36.4209 10.3511 36.1086 10.0199 35.7303 10.0236C35.352 10.0273 35.0338 10.3648 35.0302 10.766Z" fill="#0A3B3C"/>
<path d="M35.0505 15.6469C35.047 16.0482 35.3594 16.3795 35.7377 16.3758C36.116 16.3721 36.4342 16.0346 36.4378 15.6333C36.4413 15.2321 36.1289 14.9007 35.7505 14.9045C35.3722 14.9082 35.054 15.2457 35.0505 15.6469Z" fill="#0A3B3C"/>
<path d="M28.2414 8.42622C28.2379 8.82747 28.5502 9.15873 28.9286 9.155C29.3069 9.15127 29.6251 8.81379 29.6286 8.41253C29.6321 8.01128 29.3198 7.68003 28.9415 7.68375C28.5631 7.68748 28.2449 8.02497 28.2414 8.42622Z" fill="#0A3B3C"/>
<path d="M32.7815 8.38128C32.778 8.78254 33.0903 9.11379 33.4686 9.11007C33.8469 9.10634 34.1651 8.76886 34.1686 8.36761C34.1721 7.96636 33.8598 7.6351 33.4815 7.63883C33.1032 7.64256 32.785 7.98003 32.7815 8.38128Z" fill="#0A3B3C"/>
<path d="M37.2995 18.0317C37.296 18.4329 37.6083 18.7642 37.9867 18.7605C38.365 18.7567 38.6832 18.4193 38.6867 18.018C38.6902 17.6168 38.3779 17.2855 37.9996 17.2892C37.6212 17.2929 37.303 17.6304 37.2995 18.0317Z" fill="#0A3B3C"/>
<path d="M37.3415 13.2172C37.338 13.6185 37.6504 13.9498 38.0287 13.9461C38.4071 13.9424 38.7253 13.6049 38.7288 13.2036C38.7323 12.8024 38.4199 12.471 38.0416 12.4748C37.6632 12.4785 37.345 12.816 37.3415 13.2172Z" fill="#0A3B3C"/>
<path d="M37.3212 8.33638C37.3177 8.73763 37.6301 9.06888 38.0084 9.06516C38.3867 9.06143 38.7049 8.72394 38.7084 8.32269C38.7119 7.92144 38.3996 7.59018 38.0213 7.59391C37.643 7.59764 37.3248 7.93512 37.3212 8.33638Z" fill="#0A3B3C"/>
<path d="M55.7129 3.27387C55.7093 3.67512 56.0217 4.00638 56.4 4.00265C56.7783 3.99892 57.0965 3.66144 57.1 3.26019C57.1035 2.85894 56.7912 2.52768 56.4129 2.53141C56.0346 2.53514 55.7164 2.87262 55.7129 3.27387Z" fill="#0A3B3C"/>
<path d="M46.5273 8.24653C46.5238 8.64778 46.8361 8.97903 47.2144 8.97531C47.5928 8.97158 47.911 8.6341 47.9145 8.23285C47.918 7.83159 47.6057 7.50034 47.2273 7.50406C46.849 7.50779 46.5308 7.84527 46.5273 8.24653Z" fill="#0A3B3C"/>
<path d="M46.5693 3.43207C46.5658 3.83332 46.8782 4.16466 47.2565 4.16093C47.6348 4.15721 47.953 3.81973 47.9566 3.41847C47.9601 3.01722 47.6477 2.68589 47.2693 2.68961C46.891 2.69334 46.5728 3.03082 46.5693 3.43207Z" fill="#0A3B3C"/>
<path d="M51.0674 8.2016C51.0638 8.60286 51.3762 8.93411 51.7545 8.93038C52.1328 8.92666 52.451 8.58918 52.4545 8.18792C52.458 7.78667 52.1457 7.45542 51.7674 7.45914C51.3891 7.46287 51.0709 7.80035 51.0674 8.2016Z" fill="#0A3B3C"/>
<path d="M51.1731 3.31879C51.1695 3.72004 51.4819 4.0513 51.8602 4.04757C52.2385 4.04384 52.5567 3.70636 52.5602 3.30511C52.5637 2.90386 52.2514 2.5726 51.8731 2.57633C51.4311 2.64755 51.1766 2.91754 51.1731 3.31879Z" fill="#0A3B3C"/>
<path d="M48.924 0.934027C48.9205 1.33528 49.2329 1.66662 49.6113 1.66289C49.9896 1.65916 50.3078 1.32168 50.3113 0.920427C50.3148 0.519174 50.0024 0.187838 49.6241 0.191565C49.1821 0.262788 48.9276 0.532774 48.924 0.934027Z" fill="#0A3B3C"/>
<path d="M48.8183 5.81684C48.8148 6.21809 49.1271 6.54934 49.5055 6.54562C49.8838 6.54189 50.202 6.20441 50.2055 5.80316C50.209 5.40191 49.8967 5.07065 49.5184 5.07438C49.14 5.0781 48.8218 5.41558 48.8183 5.81684Z" fill="#0A3B3C"/>
<path d="M53.4641 0.889102C53.4606 1.29035 53.7729 1.62161 54.1512 1.61788C54.5295 1.61416 54.8477 1.27668 54.8512 0.875423C54.8548 0.474171 54.5424 0.142916 54.1641 0.146642C53.7858 0.150369 53.4676 0.48785 53.4641 0.889102Z" fill="#0A3B3C"/>
<path d="M53.4218 5.70551C53.4183 6.10676 53.7307 6.43802 54.109 6.43429C54.4873 6.43057 54.8055 6.09308 54.809 5.69183C54.8125 5.29058 54.5002 4.95932 54.1219 4.96305C53.6799 5.03427 53.4254 5.30426 53.4218 5.70551Z" fill="#0A3B3C"/>
<path d="M55.7129 3.27387C55.7093 3.67512 56.0217 4.00638 56.4 4.00265C56.7783 3.99892 57.0965 3.66144 57.1 3.26019C57.1035 2.85894 56.7912 2.52768 56.4129 2.53141C56.0346 2.53513 55.7164 2.87261 55.7129 3.27387Z" fill="#0A3B3C"/>
<path d="M37.3212 8.33833C37.3177 8.73958 37.6301 9.07084 38.0084 9.06711C38.3867 9.06338 38.7049 8.7259 38.7084 8.32464C38.7119 7.92339 38.3996 7.59213 38.0213 7.59586C37.643 7.59959 37.3248 7.93708 37.3212 8.33833Z" fill="#0A3B3C"/>
<path d="M37.4272 3.45551C37.4237 3.85677 37.736 4.18802 38.1143 4.18429C38.4927 4.18057 38.8109 3.84308 38.8144 3.44183C38.8179 3.04058 38.5056 2.70932 38.1272 2.71305C37.7489 2.71678 37.4307 3.05426 37.4272 3.45551Z" fill="#0A3B3C"/>
<path d="M41.9873 8.29145C41.9838 8.69271 42.2962 9.02404 42.6745 9.02032C43.0528 9.01659 43.371 8.6791 43.3745 8.27785C43.378 7.8766 43.0656 7.54526 42.6873 7.54899C42.309 7.55272 41.9908 7.8902 41.9873 8.29145Z" fill="#0A3B3C"/>
<path d="M41.967 3.41059C41.9635 3.81184 42.2758 4.1431 42.6541 4.13937C43.0325 4.13564 43.3507 3.79816 43.3542 3.39691C43.3577 2.99566 43.0454 2.6644 42.667 2.66813C42.2887 2.67185 41.9705 3.00934 41.967 3.41059Z" fill="#0A3B3C"/>
<path d="M39.718 1.02582C39.7145 1.42708 40.0268 1.75833 40.4051 1.7546C40.7834 1.75088 41.1016 1.4134 41.1052 1.01214C41.1087 0.61089 40.7963 0.279634 40.418 0.283361C40.0397 0.287089 39.7215 0.624571 39.718 1.02582Z" fill="#0A3B3C"/>
<path d="M39.6757 5.84028C39.6722 6.24153 39.9846 6.57279 40.3629 6.56906C40.7412 6.56533 41.0594 6.22785 41.0629 5.8266C41.0664 5.42534 40.7541 5.09409 40.3758 5.09781C39.9975 5.10154 39.6793 5.43902 39.6757 5.84028Z" fill="#0A3B3C"/>
<path d="M44.258 0.980901C44.2545 1.38215 44.5668 1.71341 44.9452 1.70968C45.3235 1.70596 45.6417 1.36847 45.6452 0.967221C45.6487 0.565968 45.3364 0.234713 44.9581 0.238439C44.5797 0.242166 44.2615 0.579648 44.258 0.980901Z" fill="#0A3B3C"/>
<path d="M44.2783 5.86176C44.2748 6.26301 44.5872 6.59435 44.9655 6.59062C45.3438 6.5869 45.662 6.24941 45.6655 5.84816C45.669 5.44691 45.3566 5.11557 44.9783 5.1193C44.6 5.12303 44.2818 5.46051 44.2783 5.86176Z" fill="#0A3B3C"/>
<path d="M46.5273 8.24652C46.5238 8.64778 46.8361 8.97903 47.2144 8.97531C47.5928 8.97158 47.911 8.6341 47.9145 8.23285C47.918 7.83159 47.6057 7.50034 47.2273 7.50406C46.849 7.50779 46.5308 7.84527 46.5273 8.24652Z" fill="#0A3B3C"/>
<path d="M46.5693 3.43207C46.5658 3.83332 46.8782 4.16466 47.2565 4.16093C47.6348 4.15721 47.953 3.81973 47.9566 3.41847C47.9601 3.01722 47.6477 2.68588 47.2693 2.68961C46.891 2.69334 46.5728 3.03082 46.5693 3.43207Z" fill="#0A3B3C"/>
<path d="M28.2414 8.42622C28.2379 8.82747 28.5502 9.15873 28.9286 9.155C29.3069 9.15127 29.6251 8.81379 29.6286 8.41253C29.6321 8.01128 29.3198 7.68003 28.9415 7.68375C28.5631 7.68748 28.2449 8.02497 28.2414 8.42622Z" fill="#0A3B3C"/>
<path d="M32.7812 8.38129C32.7777 8.78254 33.09 9.1138 33.4684 9.11007C33.8467 9.10634 34.1649 8.76886 34.1684 8.36761C34.1719 7.96636 33.8596 7.6351 33.4813 7.63883C33.1029 7.64256 32.7847 7.98004 32.7812 8.38129Z" fill="#0A3B3C"/>
<path d="M32.8234 3.56684C32.8199 3.9681 33.1323 4.29935 33.5106 4.29563C33.8889 4.2919 34.2071 3.95441 34.2106 3.55316C34.2141 3.15191 33.9018 2.82065 33.5235 2.82438C33.1452 2.8281 32.827 3.16559 32.8234 3.56684Z" fill="#0A3B3C"/>
<path d="M30.5324 5.99652C30.5289 6.39778 30.8413 6.72903 31.2196 6.72531C31.5979 6.72158 31.9161 6.3841 31.9196 5.98285C31.9231 5.58159 31.6108 5.25034 31.2325 5.25407C30.8541 5.25779 30.536 5.59527 30.5324 5.99652Z" fill="#0A3B3C"/>
<path d="M35.1782 1.06879C35.1747 1.47005 35.487 1.8013 35.8653 1.79757C36.2436 1.79385 36.5618 1.45636 36.5654 1.05511C36.5689 0.653859 36.2565 0.322603 35.8782 0.32633C35.4999 0.330057 35.1817 0.667539 35.1782 1.06879Z" fill="#0A3B3C"/>
<path d="M35.0725 5.95161C35.069 6.35286 35.3813 6.68412 35.7596 6.68039C36.1379 6.67666 36.4561 6.33918 36.4596 5.93792C36.4632 5.53667 36.1508 5.20542 35.7725 5.20914C35.3942 5.21287 35.076 5.55036 35.0725 5.95161Z" fill="#0A3B3C"/>
<path d="M37.3213 8.33442C37.3177 8.73567 37.6301 9.06693 38.0084 9.0632C38.3867 9.05947 38.7049 8.72199 38.7084 8.32074C38.7119 7.91948 38.3996 7.58823 38.0213 7.59195C37.643 7.59568 37.3248 7.93317 37.3213 8.33442Z" fill="#0A3B3C"/>
<path d="M37.427 3.45356C37.4235 3.85481 37.7358 4.18607 38.1141 4.18234C38.4924 4.17861 38.8106 3.84113 38.8141 3.43988C38.8177 3.03862 38.5053 2.70737 38.127 2.7111C37.7487 2.71482 37.4305 3.05231 37.427 3.45356Z" fill="#0A3B3C"/>
<path d="M56.5651 46.1664C56.5616 46.5677 56.874 46.899 57.2523 46.8952C57.6306 46.8915 57.9488 46.554 57.9523 46.1528C57.9558 45.7515 57.6435 45.4203 57.2652 45.424C56.8869 45.4277 56.5687 45.7652 56.5651 46.1664Z" fill="#0A3B3C"/>
<path d="M56.6074 41.352C56.6039 41.7532 56.9162 42.0845 57.2945 42.0808C57.6729 42.077 57.991 41.7396 57.9946 41.3383C57.9981 40.9371 57.6857 40.6058 57.3074 40.6095C56.9291 40.6133 56.6109 40.9507 56.6074 41.352Z" fill="#0A3B3C"/>
<path d="M47.4218 46.3247C47.4183 46.7259 47.7307 47.0572 48.1091 47.0535C48.4874 47.0498 48.8056 46.7123 48.8091 46.3111C48.8126 45.9098 48.5002 45.5785 48.1219 45.5822C47.7436 45.5859 47.4254 45.9234 47.4218 46.3247Z" fill="#0A3B3C"/>
<path d="M51.9619 46.2797C51.9584 46.681 52.2707 47.0122 52.649 47.0085C53.0273 47.0048 53.3455 46.6673 53.3491 46.266C53.3526 45.8648 53.0402 45.5335 52.6619 45.5373C52.2836 45.541 51.9654 45.8785 51.9619 46.2797Z" fill="#0A3B3C"/>
<path d="M49.7129 43.895C49.7093 44.2962 50.0217 44.6276 50.4001 44.6238C50.7784 44.6201 51.0966 44.2826 51.1001 43.8814C51.1036 43.4801 50.7912 43.1488 50.4129 43.1525C50.0346 43.1562 49.7164 43.4937 49.7129 43.895Z" fill="#0A3B3C"/>
<path d="M49.6709 48.7094C49.6674 49.1107 49.9797 49.4419 50.358 49.4382C50.7363 49.4345 51.0545 49.097 51.058 48.6957C51.0615 48.2945 50.7492 47.9632 50.3709 47.967C49.9926 47.9707 49.6744 48.3082 49.6709 48.7094Z" fill="#0A3B3C"/>
<path d="M54.3166 43.7817C54.3131 44.1829 54.6254 44.5142 55.0038 44.5105C55.3821 44.5067 55.7003 44.1693 55.7038 43.768C55.7073 43.3667 55.395 43.0355 55.0167 43.0392C54.6383 43.0429 54.3201 43.3804 54.3166 43.7817Z" fill="#0A3B3C"/>
<path d="M54.2107 48.6645C54.2071 49.0658 54.5195 49.397 54.8978 49.3933C55.2761 49.3896 55.5943 49.0521 55.5978 48.6508C55.6013 48.2496 55.289 47.9183 54.9107 47.922C54.5324 47.9258 54.2142 48.2632 54.2107 48.6645Z" fill="#0A3B3C"/>
<path d="M47.4016 41.4438C47.3981 41.8451 47.7104 42.1763 48.0887 42.1726C48.467 42.1689 48.7852 41.8314 48.7887 41.4301C48.7923 41.0289 48.4799 40.6976 48.1016 40.7013C47.7233 40.7051 47.4051 41.0425 47.4016 41.4438Z" fill="#0A3B3C"/>
<path d="M52.0676 41.3969C52.0641 41.7982 52.3765 42.1295 52.7548 42.1258C53.1331 42.1221 53.4513 41.7846 53.4548 41.3833C53.4584 40.9821 53.146 40.6507 52.7676 40.6545C52.3893 40.6582 52.0711 40.9957 52.0676 41.3969Z" fill="#0A3B3C"/>
<path d="M56.5654 46.1664C56.5619 46.5677 56.8742 46.899 57.2525 46.8952C57.6309 46.8915 57.9491 46.554 57.9526 46.1528C57.9561 45.7515 57.6438 45.4203 57.2654 45.424C56.8871 45.4277 56.5689 45.7652 56.5654 46.1664Z" fill="#0A3B3C"/>
<path d="M56.6076 41.352C56.6041 41.7532 56.9164 42.0845 57.2948 42.0808C57.6731 42.077 57.9913 41.7396 57.9948 41.3383C57.9983 40.9371 57.686 40.6058 57.3077 40.6095C56.9293 40.6133 56.6111 40.9507 56.6076 41.352Z" fill="#0A3B3C"/>
<path d="M42.8195 46.3032C42.816 46.7044 43.1284 47.0357 43.5067 47.032C43.885 47.0282 44.2032 46.6907 44.2067 46.2895C44.2102 45.8882 43.8979 45.557 43.5196 45.5607C43.1413 45.5644 42.8231 45.9019 42.8195 46.3032Z" fill="#0A3B3C"/>
<path d="M40.5705 43.9184C40.567 44.3197 40.8793 44.6509 41.2577 44.6472C41.636 44.6435 41.9542 44.306 41.9577 43.9047C41.9612 43.5035 41.6489 43.1722 41.2706 43.1759C40.8922 43.1797 40.574 43.5172 40.5705 43.9184Z" fill="#0A3B3C"/>
<path d="M45.1106 43.8735C45.1071 44.2747 45.4194 44.606 45.7977 44.6023C46.176 44.5985 46.4942 44.2611 46.4977 43.8598C46.5012 43.4585 46.1889 43.1273 45.8106 43.131C45.4323 43.1347 45.1141 43.4722 45.1106 43.8735Z" fill="#0A3B3C"/>
<path d="M45.1308 48.7543C45.1273 49.1556 45.4397 49.4869 45.818 49.4832C46.1964 49.4795 46.5146 49.142 46.5181 48.7407C46.5216 48.3395 46.2092 48.0082 45.8309 48.0119C45.4525 48.0156 45.1343 48.3531 45.1308 48.7543Z" fill="#0A3B3C"/>
<path d="M38.3217 41.5336C38.3182 41.9349 38.6306 42.2661 39.0089 42.2624C39.3872 42.2587 39.7054 41.9212 39.7089 41.52C39.7124 41.1187 39.4001 40.7874 39.0218 40.7912C38.6435 40.7949 38.3253 41.1324 38.3217 41.5336Z" fill="#0A3B3C"/>
<path d="M42.8618 41.4887C42.8583 41.89 43.1706 42.2212 43.5489 42.2175C43.9272 42.2138 44.2454 41.8763 44.249 41.475C44.2525 41.0738 43.9401 40.7425 43.5618 40.7463C43.1835 40.75 42.8653 41.0875 42.8618 41.4887Z" fill="#0A3B3C"/>
<path d="M47.4218 46.3246C47.4183 46.7259 47.7307 47.0572 48.1091 47.0535C48.4874 47.0498 48.8056 46.7123 48.8091 46.3111C48.8126 45.9098 48.5002 45.5785 48.1219 45.5822C47.7436 45.5859 47.4254 45.9234 47.4218 46.3246Z" fill="#0A3B3C"/>
<path d="M47.4016 41.4438C47.3981 41.8451 47.7104 42.1763 48.0887 42.1726C48.467 42.1689 48.7852 41.8314 48.7887 41.4301C48.7923 41.0289 48.4799 40.6976 48.1016 40.7013C47.7233 40.7051 47.4051 41.0425 47.4016 41.4438Z" fill="#0A3B3C"/>
<path d="M56.6076 41.3539C56.6041 41.7552 56.9164 42.0865 57.2948 42.0827C57.6731 42.079 57.9913 41.7415 57.9948 41.3403C57.9983 40.939 57.686 40.6078 57.3077 40.6115C56.9293 40.6152 56.6111 40.9527 56.6076 41.3539Z" fill="#0A3B3C"/>
<path d="M56.6496 36.5395C56.6461 36.9407 56.9585 37.2721 57.3368 37.2684C57.7152 37.2646 58.0334 36.9271 58.0369 36.5259C58.0404 36.1246 57.728 35.7933 57.3497 35.797C56.9713 35.8008 56.6531 36.1382 56.6496 36.5395Z" fill="#0A3B3C"/>
<path d="M56.6931 31.5903C56.6896 31.9915 57.0019 32.3228 57.3802 32.3191C57.7585 32.3153 58.0767 31.9778 58.0803 31.5766C58.0838 31.1753 57.7714 30.8441 57.3931 30.8478C56.9512 30.919 56.6966 31.189 56.6931 31.5903Z" fill="#0A3B3C"/>
<path d="M47.4018 41.4458C47.3983 41.847 47.7106 42.1783 48.089 42.1745C48.4673 42.1708 48.7855 41.8333 48.789 41.4321C48.7925 41.0308 48.4802 40.6996 48.1019 40.7033C47.7235 40.707 47.4053 41.0445 47.4018 41.4458Z" fill="#0A3B3C"/>
<path d="M47.5078 36.5629C47.5043 36.9642 47.8166 37.2954 48.1949 37.2917C48.5732 37.288 48.8914 36.9505 48.8949 36.5493C48.8985 36.148 48.5861 35.8167 48.2078 35.8205C47.8295 35.8242 47.5113 36.1617 47.5078 36.5629Z" fill="#0A3B3C"/>
<path d="M52.0678 41.3989C52.0643 41.8001 52.3767 42.1315 52.755 42.1277C53.1334 42.124 53.4516 41.7865 53.4551 41.3853C53.4586 40.984 53.1462 40.6527 52.7679 40.6564C52.3895 40.6601 52.0714 40.9976 52.0678 41.3989Z" fill="#0A3B3C"/>
<path d="M52.0476 36.518C52.0441 36.9193 52.3564 37.2505 52.7347 37.2468C53.113 37.2431 53.4312 36.9056 53.4347 36.5043C53.4383 36.1031 53.1259 35.7718 52.7476 35.7755C52.3693 35.7793 52.0511 36.1168 52.0476 36.518Z" fill="#0A3B3C"/>
<path d="M49.7986 34.1332C49.795 34.5345 50.1074 34.8657 50.4857 34.862C50.864 34.8583 51.1822 34.5208 51.1857 34.1196C51.1892 33.7183 50.8769 33.3871 50.4986 33.3908C50.1203 33.3945 49.8021 33.732 49.7986 34.1332Z" fill="#0A3B3C"/>
<path d="M49.7563 38.9477C49.7528 39.349 50.0651 39.6802 50.4434 39.6765C50.8218 39.6728 51.14 39.3353 51.1435 38.934C51.147 38.5328 50.8347 38.2015 50.4563 38.2052C50.078 38.209 49.7598 38.5464 49.7563 38.9477Z" fill="#0A3B3C"/>
<path d="M54.3386 34.0883C54.3351 34.4896 54.6474 34.8208 55.0257 34.8171C55.4041 34.8134 55.7222 34.4759 55.7258 34.0746C55.7293 33.6734 55.4169 33.3421 55.0386 33.3459C54.6603 33.3496 54.3421 33.6871 54.3386 34.0883Z" fill="#0A3B3C"/>
<path d="M54.3589 38.9692C54.3553 39.3704 54.6677 39.7018 55.0461 39.698C55.4244 39.6943 55.7426 39.3568 55.7461 38.9556C55.7496 38.5543 55.4372 38.223 55.0589 38.2267C54.6806 38.2304 54.3624 38.5679 54.3589 38.9692Z" fill="#0A3B3C"/>
<path d="M47.5495 31.7485C47.546 32.1497 47.8583 32.481 48.2367 32.4773C48.615 32.4735 48.9332 32.1361 48.9367 31.7348C48.9402 31.3335 48.6279 31.0023 48.2496 31.006C47.8712 31.0097 47.553 31.3472 47.5495 31.7485Z" fill="#0A3B3C"/>
<path d="M52.0896 31.7036C52.0861 32.1048 52.3984 32.4361 52.7767 32.4323C53.155 32.4286 53.4732 32.0911 53.4767 31.6899C53.4803 31.2886 53.1679 30.9574 52.7896 30.9611C52.4113 30.9648 52.0931 31.3023 52.0896 31.7036Z" fill="#0A3B3C"/>
<path d="M56.6074 41.3539C56.6039 41.7552 56.9162 42.0865 57.2945 42.0827C57.6728 42.079 57.991 41.7415 57.9946 41.3403C57.9981 40.939 57.6857 40.6078 57.3074 40.6115C56.9291 40.6152 56.6109 40.9527 56.6074 41.3539Z" fill="#0A3B3C"/>
<path d="M56.6496 36.5395C56.6461 36.9407 56.9585 37.2721 57.3368 37.2684C57.7152 37.2646 58.0334 36.9271 58.0369 36.5259C58.0404 36.1246 57.728 35.7933 57.3497 35.797C56.9713 35.8008 56.6531 36.1382 56.6496 36.5395Z" fill="#0A3B3C"/>
<path d="M56.6931 31.5903C56.6896 31.9915 57.0019 32.3228 57.3802 32.3191C57.7585 32.3153 58.0767 31.9778 58.0803 31.5766C58.0838 31.1753 57.7714 30.8441 57.3931 30.8478C56.9512 30.919 56.6966 31.189 56.6931 31.5903Z" fill="#0A3B3C"/>
<path d="M38.3217 41.5336C38.3182 41.9349 38.6305 42.2662 39.0089 42.2624C39.3872 42.2587 39.7054 41.9212 39.7089 41.52C39.7124 41.1187 39.4001 40.7874 39.0218 40.7912C38.6435 40.7949 38.3253 41.1324 38.3217 41.5336Z" fill="#0A3B3C"/>
<path d="M42.8615 41.4887C42.858 41.89 43.1704 42.2212 43.5487 42.2175C43.927 42.2138 44.2452 41.8763 44.2487 41.475C44.2522 41.0738 43.9399 40.7425 43.5616 40.7463C43.1832 40.75 42.8651 41.0875 42.8615 41.4887Z" fill="#0A3B3C"/>
<path d="M42.9038 36.6743C42.9003 37.0755 43.2126 37.4068 43.5909 37.403C43.9692 37.3993 44.2874 37.0618 44.2909 36.6606C44.2945 36.2593 43.9821 35.9281 43.6038 35.9318C43.2255 35.9355 42.9073 36.273 42.9038 36.6743Z" fill="#0A3B3C"/>
<path d="M40.6128 39.1039C40.6092 39.5052 40.9216 39.8365 41.2999 39.8327C41.6782 39.829 41.9964 39.4915 41.9999 39.0903C42.0034 38.689 41.6911 38.3578 41.3128 38.3615C40.9345 38.3652 40.6163 38.7027 40.6128 39.1039Z" fill="#0A3B3C"/>
<path d="M45.2585 34.1762C45.255 34.5775 45.5673 34.9087 45.9456 34.905C46.324 34.9013 46.6422 34.5638 46.6457 34.1625C46.6492 33.7613 46.3369 33.43 45.9585 33.4338C45.5802 33.4375 45.262 33.775 45.2585 34.1762Z" fill="#0A3B3C"/>
<path d="M45.1528 39.059C45.1493 39.4603 45.4616 39.7915 45.8399 39.7878C46.2183 39.7841 46.5365 39.4466 46.54 39.0453C46.5435 38.6441 46.2312 38.3128 45.8528 38.3166C45.4745 38.3203 45.1563 38.6578 45.1528 39.059Z" fill="#0A3B3C"/>
<path d="M47.4016 41.4418C47.3981 41.8431 47.7104 42.1744 48.0887 42.1706C48.467 42.1669 48.7852 41.8294 48.7887 41.4282C48.7923 41.0269 48.4799 40.6956 48.1016 40.6994C47.7233 40.7031 47.4051 41.0406 47.4016 41.4418Z" fill="#0A3B3C"/>
<path d="M47.5073 36.561C47.5038 36.9622 47.8161 37.2935 48.1944 37.2898C48.5728 37.286 48.8909 36.9486 48.8945 36.5473C48.898 36.146 48.5856 35.8148 48.2073 35.8185C47.829 35.8222 47.5108 36.1597 47.5073 36.561Z" fill="#0A3B3C"/>
<path d="M47.5495 31.7465C47.546 32.1478 47.8583 32.479 48.2367 32.4753C48.615 32.4716 48.9332 32.1341 48.9367 31.7328C48.9402 31.3316 48.6279 31.0003 48.2496 31.0041C47.8712 31.0078 47.553 31.3453 47.5495 31.7465Z" fill="#0A3B3C"/>
<path d="M56.6931 31.5883C56.6896 31.9896 57.0019 32.3208 57.3802 32.3171C57.7585 32.3134 58.0767 31.9759 58.0803 31.5746C58.0838 31.1734 57.7714 30.8421 57.3931 30.8459C56.9512 30.9171 56.6966 31.1871 56.6931 31.5883Z" fill="#0A3B3C"/>
<path d="M56.7353 26.7739C56.7318 27.1751 57.0441 27.5064 57.4225 27.5027C57.8008 27.4989 58.119 27.1614 58.1225 26.7602C58.126 26.3589 57.8137 26.0277 57.4354 26.0314C57.057 26.0351 56.7388 26.3726 56.7353 26.7739Z" fill="#0A3B3C"/>
<path d="M56.7773 21.9614C56.7738 22.3626 57.0861 22.6939 57.4644 22.6901C57.8428 22.6864 58.161 22.3489 58.1645 21.9477C58.168 21.5464 57.8557 21.2152 57.4773 21.2189C57.099 21.2226 56.7808 21.5601 56.7773 21.9614Z" fill="#0A3B3C"/>
<path d="M47.5495 31.7485C47.546 32.1497 47.8583 32.481 48.2367 32.4773C48.615 32.4735 48.9332 32.1361 48.9367 31.7348C48.9402 31.3335 48.6279 31.0023 48.2496 31.006C47.8712 31.0097 47.553 31.3472 47.5495 31.7485Z" fill="#0A3B3C"/>
<path d="M52.0893 31.7036C52.0858 32.1048 52.3981 32.4361 52.7765 32.4323C53.1548 32.4286 53.473 32.0911 53.4765 31.6899C53.48 31.2886 53.1677 30.9574 52.7894 30.9611C52.411 30.9648 52.0928 31.3023 52.0893 31.7036Z" fill="#0A3B3C"/>
<path d="M52.1953 26.8207C52.1918 27.222 52.5041 27.5533 52.8824 27.5495C53.2607 27.5458 53.5789 27.2083 53.5824 26.8071C53.586 26.4058 53.2736 26.0746 52.8953 26.0783C52.4533 26.1495 52.1988 26.4195 52.1953 26.8207Z" fill="#0A3B3C"/>
<path d="M49.8405 29.3188C49.837 29.72 50.1494 30.0513 50.5277 30.0476C50.906 30.0438 51.2242 29.7064 51.2277 29.3051C51.2312 28.9039 50.9189 28.5726 50.5406 28.5763C50.1623 28.5801 49.8441 28.9175 49.8405 29.3188Z" fill="#0A3B3C"/>
<path d="M54.4863 24.3911C54.4828 24.7923 54.7951 25.1236 55.1734 25.1198C55.5518 25.1161 55.87 24.7786 55.8735 24.3774C55.877 23.9761 55.5647 23.6449 55.1863 23.6486C54.808 23.6523 54.4898 23.9898 54.4863 24.3911Z" fill="#0A3B3C"/>
<path d="M54.4441 29.2055C54.4405 29.6068 54.7529 29.938 55.1312 29.9343C55.5095 29.9306 55.8277 29.5931 55.8312 29.1918C55.8347 28.7906 55.5224 28.4593 55.1441 28.463C54.7021 28.5343 54.4476 28.8043 54.4441 29.2055Z" fill="#0A3B3C"/>
<path d="M56.6928 31.5903C56.6893 31.9915 57.0017 32.3228 57.38 32.3191C57.7583 32.3153 58.0765 31.9778 58.08 31.5766C58.0835 31.1753 57.7712 30.8441 57.3929 30.8478C56.9509 30.919 56.6964 31.189 56.6928 31.5903Z" fill="#0A3B3C"/>
<path d="M56.7351 26.7758C56.7316 27.1771 57.0439 27.5083 57.4222 27.5046C57.8005 27.5009 58.1187 27.1634 58.1222 26.7621C58.1258 26.3609 57.8134 26.0296 57.4351 26.0334C57.0568 26.0371 56.7386 26.3746 56.7351 26.7758Z" fill="#0A3B3C"/>
<path d="M56.7773 21.9614C56.7738 22.3626 57.0861 22.6939 57.4644 22.6902C57.8428 22.6864 58.161 22.3489 58.1645 21.9477C58.168 21.5464 57.8557 21.2152 57.4773 21.2189C57.099 21.2226 56.7808 21.5601 56.7773 21.9614Z" fill="#0A3B3C"/>
<path d="M56.7773 21.9614C56.7738 22.3626 57.0861 22.6939 57.4644 22.6901C57.8428 22.6864 58.161 22.3489 58.1645 21.9477C58.168 21.5464 57.8557 21.2152 57.4773 21.2189C57.099 21.2226 56.7808 21.5601 56.7773 21.9614Z" fill="#0A3B3C"/>
</g>
<path fill-rule="evenodd" clip-rule="evenodd" d="M39.5466 44.3656C38.8808 44.3656 38.341 44.9381 38.341 45.6443C38.341 46.3505 38.8808 46.923 39.5466 46.923C40.2125 46.923 40.7523 46.3505 40.7523 45.6443C40.7523 44.9381 40.2125 44.3656 39.5466 44.3656ZM36.3315 45.6443C36.3315 43.761 37.771 42.2344 39.5466 42.2344C41.3223 42.2344 42.7617 43.7611 42.7617 45.6443C42.7617 47.5275 41.3223 49.0542 39.5466 49.0542C37.771 49.0542 36.3315 47.5276 36.3315 45.6443Z" fill="#0B3B3D"/>
<path fill-rule="evenodd" clip-rule="evenodd" d="M19.0508 44.3656C18.3849 44.3656 17.8451 44.9381 17.8451 45.6443C17.8451 46.3505 18.3849 46.923 19.0508 46.923C19.7166 46.923 20.2564 46.3505 20.2564 45.6443C20.2564 44.9381 19.7166 44.3656 19.0508 44.3656ZM15.8357 45.6443C15.8357 43.761 17.2751 42.2344 19.0508 42.2344C20.8264 42.2344 22.2658 43.7611 22.2658 45.6443C22.2658 47.5275 20.8264 49.0542 19.0508 49.0542C17.2751 49.0542 15.8357 47.5276 15.8357 45.6443Z" fill="#0B3B3D"/>
<path fill-rule="evenodd" clip-rule="evenodd" d="M30.6589 39.8906V59.8174H28.54V39.8906H30.6589Z" fill="#0B3B3D"/>
<path fill-rule="evenodd" clip-rule="evenodd" d="M43.6586 38.94C41.4387 36.5856 37.8551 36.5856 35.6352 38.94L34.9248 39.6935L33.5039 38.1865L34.2143 37.433C37.219 34.2463 42.0749 34.2463 45.0795 37.433L45.7899 38.1865L44.369 39.6935L43.6586 38.94Z" fill="#0B3B3D"/>
<path fill-rule="evenodd" clip-rule="evenodd" d="M23.0622 38.94C20.8423 36.5856 17.2587 36.5856 15.0388 38.94L14.3283 39.6935L12.9075 38.1865L13.6179 37.433C16.6225 34.2463 21.4784 34.2463 24.4831 37.433L25.1935 38.1865L23.7726 39.6935L23.0622 38.94Z" fill="#0B3B3D"/>
</svg>
