<svg width="62" height="61" viewBox="0 0 62 61" fill="none" xmlns="http://www.w3.org/2000/svg">
<mask id="mask0" mask-type="alpha" maskUnits="userSpaceOnUse" x="14" y="13" width="34" height="35">
<path d="M26.5129 13.7754L30.3174 16.0581H31.0783L34.8828 13.7754L37.9263 14.5363L40.209 16.819L45.5353 19.1016L47.0571 23.667L45.5353 28.9933L47.0571 33.5586L45.5353 36.6022V41.1676L42.4917 45.7329L34.8828 46.4938L30.3174 42.6894L22.7085 47.2547L16.6213 43.4502L15.8604 36.6022L14.3386 33.5586L15.8604 30.5151L14.3386 24.4279L16.6213 19.1016L21.9476 16.819L22.7085 14.5363L26.5129 13.7754Z" fill="#C4C4C4"/>
</mask>
<g mask="url(#mask0)">
<path d="M44.8107 38.0223C45.036 38.4124 45.5487 38.5498 45.9389 38.3246C46.329 38.0994 46.4664 37.5866 46.2411 37.1964C46.0159 36.8063 45.5031 36.6689 45.113 36.8942C44.7229 37.1194 44.5855 37.6322 44.8107 38.0223Z" fill="#0A3B3C"/>
<path d="M38.123 48.2098C38.3482 48.5999 38.8611 48.7374 39.2513 48.5121C39.6414 48.2869 39.7788 47.7741 39.5535 47.384C39.3283 46.9939 38.8154 46.8564 38.4253 47.0817C38.0352 47.3069 37.8978 47.8197 38.123 48.2098Z" fill="#0A3B3C"/>
<path d="M42.8046 45.5067C43.0299 45.8968 43.5426 46.0342 43.9328 45.809C44.3229 45.5837 44.4603 45.0709 44.235 44.6808C44.0098 44.2907 43.497 44.1533 43.1069 44.3785C42.7168 44.6038 42.5794 45.1166 42.8046 45.5067Z" fill="#0A3B3C"/>
<path d="M39.1127 44.5184C39.338 44.9085 39.8509 45.046 40.241 44.8207C40.6311 44.5955 40.7685 44.0827 40.5433 43.6926C40.318 43.3024 39.8051 43.165 39.415 43.3902C39.0249 43.6155 38.8875 44.1283 39.1127 44.5184Z" fill="#0A3B3C"/>
<path d="M43.8215 41.7137C44.0467 42.1038 44.5595 42.2412 44.9496 42.016C45.3397 41.7908 45.4771 41.278 45.2519 40.8878C45.0267 40.4977 44.5139 40.3603 44.1238 40.5856C43.7336 40.8108 43.5962 41.3236 43.8215 41.7137Z" fill="#0A3B3C"/>
<path d="M46.4975 46.4969C46.7227 46.887 47.2355 47.0244 47.6256 46.7992C48.0157 46.574 48.1532 46.0612 47.9279 45.671C47.7027 45.2809 47.1899 45.1435 46.7998 45.3688C46.4097 45.594 46.2723 46.1068 46.4975 46.4969Z" fill="#0A3B3C"/>
<path d="M35.4199 43.5293C35.6451 43.9194 36.1579 44.0568 36.548 43.8315C36.9381 43.6063 37.0755 43.0935 36.8503 42.7034C36.6251 42.3133 36.1123 42.1759 35.7222 42.4011C35.2295 42.5988 35.0921 43.1116 35.4199 43.5293Z" fill="#0A3B3C"/>
<path d="M40.1291 40.7235C40.3543 41.1136 40.8672 41.251 41.2574 41.0258C41.6475 40.8006 41.7849 40.2878 41.5596 39.8976C41.3344 39.5075 40.8215 39.3701 40.4314 39.5953C40.0413 39.8206 39.9039 40.3334 40.1291 40.7235Z" fill="#0A3B3C"/>
<path d="M44.8105 38.0223C45.0357 38.4124 45.5485 38.5498 45.9386 38.3246C46.3287 38.0994 46.4661 37.5866 46.2409 37.1964C46.0157 36.8063 45.5029 36.6689 45.1128 36.8942C44.7227 37.1194 44.5853 37.6322 44.8105 38.0223Z" fill="#0A3B3C"/>
<path d="M34.4331 47.2235C34.6583 47.6136 35.1711 47.751 35.5612 47.5258C35.9513 47.3005 36.0887 46.7877 35.8635 46.3976C35.6382 46.0075 35.1255 45.8701 34.7353 46.0953C34.3452 46.3206 34.2078 46.8334 34.4331 47.2235Z" fill="#0A3B3C"/>
<path d="M30.6379 46.2059C30.8631 46.596 31.3759 46.7334 31.766 46.5082C32.1561 46.2829 32.2935 45.7702 32.0683 45.38C31.8431 44.9899 31.3303 44.8525 30.9402 45.0777C30.55 45.303 30.4126 45.8158 30.6379 46.2059Z" fill="#0A3B3C"/>
<path d="M38.1242 48.2118C38.3495 48.6019 38.8624 48.7393 39.2525 48.5141C39.6426 48.2888 39.78 47.776 39.5548 47.3859C39.3295 46.9958 38.8166 46.8584 38.4265 47.0836C38.0364 47.3088 37.899 47.8216 38.1242 48.2118Z" fill="#0A3B3C"/>
<path d="M35.4216 43.5312C35.6468 43.9213 36.1596 44.0587 36.5497 43.8335C36.9398 43.6083 37.0772 43.0955 36.852 42.7053C36.6268 42.3152 36.114 42.1778 35.7239 42.403C35.2312 42.6008 35.0938 43.1136 35.4216 43.5312Z" fill="#0A3B3C"/>
<path d="M44.8102 38.0204C45.0355 38.4105 45.5483 38.5479 45.9384 38.3226C46.3285 38.0974 46.4659 37.5846 46.2407 37.1945C46.0154 36.8044 45.5027 36.667 45.1125 36.8922C44.7224 37.1174 44.585 37.6302 44.8102 38.0204Z" fill="#0A3B3C"/>
<path d="M42.1069 33.3387C42.3321 33.7288 42.845 33.8663 43.2351 33.641C43.6253 33.4158 43.7627 32.903 43.5374 32.5129C43.3122 32.1228 42.7993 31.9853 42.4092 32.2106C42.019 32.4358 41.8816 32.9486 42.1069 33.3387Z" fill="#0A3B3C"/>
<path d="M46.8168 30.534C47.0421 30.9241 47.5548 31.0615 47.945 30.8363C48.3351 30.6111 48.4725 30.0983 48.2473 29.7082C48.022 29.318 47.5092 29.1806 47.1191 29.4059C46.7015 29.7337 46.5916 30.1439 46.8168 30.534Z" fill="#0A3B3C"/>
<path d="M43.1237 29.5438C43.349 29.9339 43.8619 30.0713 44.252 29.8461C44.6421 29.6209 44.7795 29.1081 44.5543 28.718C44.329 28.3278 43.8161 28.1904 43.426 28.4156C43.0084 28.7434 42.8985 29.1537 43.1237 29.5438Z" fill="#0A3B3C"/>
<path d="M45.8 34.3289C46.0252 34.7191 46.538 34.8565 46.9281 34.6312C47.3182 34.406 47.4556 33.8932 47.2304 33.5031C47.0052 33.113 46.4924 32.9756 46.1023 33.2008C45.7122 33.426 45.5748 33.9388 45.8 34.3289Z" fill="#0A3B3C"/>
<path d="M39.4326 28.5545C39.6578 28.9446 40.1706 29.082 40.5607 28.8568C40.9508 28.6315 41.0882 28.1187 40.863 27.7286C40.6378 27.3385 40.125 27.2011 39.7349 27.4263C39.3448 27.6515 39.1048 28.1369 39.4326 28.5545Z" fill="#0A3B3C"/>
<path d="M44.1144 25.8524C44.3397 26.2425 44.8526 26.3799 45.2427 26.1547C45.6328 25.9295 45.7702 25.4167 45.545 25.0266C45.3197 24.6364 44.8069 24.499 44.4167 24.7242C44.0266 24.9495 43.8892 25.4623 44.1144 25.8524Z" fill="#0A3B3C"/>
<path d="M35.4201 43.5293C35.6454 43.9194 36.1581 44.0568 36.5483 43.8315C36.9384 43.6063 37.0758 43.0935 36.8505 42.7034C36.6253 42.3133 36.1125 42.1759 35.7224 42.4011C35.2297 42.5988 35.0923 43.1116 35.4201 43.5293Z" fill="#0A3B3C"/>
<path d="M32.6433 38.7176C32.8685 39.1077 33.3813 39.2451 33.7714 39.0199C34.1615 38.7947 34.2989 38.2819 34.0737 37.8918C33.8484 37.5016 33.3357 37.3642 32.9455 37.5895C32.5554 37.8147 32.418 38.3275 32.6433 38.7176Z" fill="#0A3B3C"/>
<path d="M40.1293 40.7235C40.3546 41.1136 40.8675 41.251 41.2576 41.0258C41.6477 40.8006 41.7851 40.2878 41.5599 39.8976C41.3346 39.5075 40.8217 39.3701 40.4316 39.5953C40.0415 39.8206 39.9041 40.3334 40.1293 40.7235Z" fill="#0A3B3C"/>
<path d="M37.4267 36.0429C37.652 36.433 38.1647 36.5704 38.5548 36.3452C38.945 36.12 39.0824 35.6072 38.8571 35.217C38.6319 34.8269 38.1191 34.6895 37.729 34.9148C37.2363 35.1125 37.0989 35.6253 37.4267 36.0429Z" fill="#0A3B3C"/>
<path d="M33.6318 35.0243C33.857 35.4144 34.3698 35.5518 34.7599 35.3265C35.15 35.1013 35.2874 34.5885 35.0622 34.1984C34.837 33.8083 34.3242 33.6709 33.9341 33.8961C33.5439 34.1213 33.4065 34.6341 33.6318 35.0243Z" fill="#0A3B3C"/>
<path d="M36.437 39.7343C36.6622 40.1244 37.175 40.2618 37.5651 40.0366C37.9552 39.8114 38.0926 39.2986 37.8674 38.9085C37.6421 38.5183 37.1294 38.3809 36.7393 38.6062C36.2466 38.8039 36.1092 39.3167 36.437 39.7343Z" fill="#0A3B3C"/>
<path d="M38.4162 32.3496C38.6415 32.7397 39.1542 32.8771 39.5443 32.6518C39.9345 32.4266 40.0719 31.9138 39.8466 31.5237C39.6214 31.1336 39.1086 30.9962 38.7185 31.2214C38.2258 31.4192 38.0884 31.932 38.4162 32.3496Z" fill="#0A3B3C"/>
<path d="M41.1188 37.0321C41.3441 37.4222 41.857 37.5596 42.2471 37.3344C42.6372 37.1092 42.7746 36.5964 42.5494 36.2062C42.3241 35.8161 41.8112 35.6787 41.4211 35.9039C41.031 36.1292 40.8936 36.642 41.1188 37.0321Z" fill="#0A3B3C"/>
<path d="M29.9394 34.036C30.1646 34.4261 30.6774 34.5635 31.0675 34.3383C31.4576 34.113 31.595 33.6002 31.3698 33.2101C31.1446 32.82 30.6318 32.6826 30.2417 32.9078C29.8516 33.1331 29.7142 33.6459 29.9394 34.036Z" fill="#0A3B3C"/>
<path d="M34.6208 31.3348C34.846 31.7249 35.3588 31.8623 35.7489 31.6371C36.139 31.4119 36.2765 30.8991 36.0512 30.5089C35.826 30.1188 35.3132 29.9814 34.9231 30.2067C34.533 30.4319 34.3956 30.9447 34.6208 31.3348Z" fill="#0A3B3C"/>
<path d="M44.8122 38.0223C45.0374 38.4124 45.5502 38.5498 45.9403 38.3246C46.3304 38.0994 46.4678 37.5866 46.2426 37.1964C46.0174 36.8063 45.5046 36.6689 45.1145 36.8942C44.7244 37.1194 44.587 37.6322 44.8122 38.0223Z" fill="#0A3B3C"/>
<path d="M42.1086 33.3407C42.3338 33.7308 42.8467 33.8682 43.2368 33.643C43.627 33.4178 43.7644 32.905 43.5391 32.5148C43.3139 32.1247 42.801 31.9873 42.4109 32.2125C42.0208 32.4377 41.8833 32.9505 42.1086 33.3407Z" fill="#0A3B3C"/>
<path d="M39.4331 28.5564C39.6583 28.9465 40.1711 29.0839 40.5612 28.8587C40.9513 28.6335 41.0887 28.1207 40.8635 27.7305C40.6383 27.3404 40.1255 27.203 39.7354 27.4283C39.3452 27.6535 39.1053 28.1388 39.4331 28.5564Z" fill="#0A3B3C"/>
<path d="M23.2524 44.2254C23.4776 44.6155 23.9905 44.753 24.3806 44.5277C24.7708 44.3025 24.9082 43.7897 24.6829 43.3996C24.4577 43.0095 23.9448 42.872 23.5547 43.0973C23.1646 43.3225 23.0272 43.8353 23.2524 44.2254Z" fill="#0A3B3C"/>
<path d="M30.6374 46.2039C30.8626 46.5941 31.3754 46.7315 31.7655 46.5062C32.1556 46.281 32.293 45.7682 32.0678 45.3781C31.8426 44.988 31.3298 44.8506 30.9397 45.0758C30.5496 45.301 30.4122 45.8138 30.6374 46.2039Z" fill="#0A3B3C"/>
<path d="M27.934 41.5223C28.1593 41.9124 28.672 42.0498 29.0622 41.8246C29.4523 41.5994 29.5897 41.0866 29.3644 40.6964C29.1392 40.3063 28.6264 40.1689 28.2363 40.3942C27.8462 40.6194 27.7088 41.1322 27.934 41.5223Z" fill="#0A3B3C"/>
<path d="M24.2421 40.534C24.4674 40.9242 24.9803 41.0616 25.3704 40.8364C25.7605 40.6111 25.8979 40.0983 25.6727 39.7082C25.4474 39.3181 24.9345 39.1806 24.5444 39.4059C24.1543 39.6311 24.0169 40.1439 24.2421 40.534Z" fill="#0A3B3C"/>
<path d="M26.9455 45.2157C27.1707 45.6058 27.6835 45.7432 28.0736 45.5179C28.4638 45.2927 28.6012 44.7799 28.3759 44.3898C28.1507 43.9997 27.6379 43.8623 27.2478 44.0875C26.8577 44.3127 26.7203 44.8255 26.9455 45.2157Z" fill="#0A3B3C"/>
<path d="M28.9509 37.7293C29.1761 38.1195 29.6889 38.2569 30.079 38.0316C30.4691 37.8064 30.6065 37.2936 30.3813 36.9035C30.156 36.5133 29.6433 36.3759 29.2532 36.6012C28.863 36.8264 28.7256 37.3392 28.9509 37.7293Z" fill="#0A3B3C"/>
<path d="M31.6269 42.5125C31.8521 42.9027 32.3649 43.0401 32.755 42.8148C33.1451 42.5896 33.2826 42.0768 33.0573 41.6867C32.8321 41.2966 32.3193 41.1592 31.9292 41.3844C31.5391 41.6096 31.4017 42.1224 31.6269 42.5125Z" fill="#0A3B3C"/>
<path d="M20.4453 39.5184C20.6705 39.9085 21.1833 40.0459 21.5734 39.8207C21.9635 39.5955 22.1009 39.0827 21.8757 38.6925C21.6504 38.3024 21.1377 38.165 20.7475 38.3902C20.3574 38.6155 20.22 39.1283 20.4453 39.5184Z" fill="#0A3B3C"/>
<path d="M25.2565 36.7411C25.4818 37.1312 25.9947 37.2686 26.3848 37.0434C26.7749 36.8181 26.9123 36.3053 26.6871 35.9152C26.4618 35.5251 25.9489 35.3877 25.5588 35.6129C25.1687 35.8381 25.0313 36.3509 25.2565 36.7411Z" fill="#0A3B3C"/>
<path d="M35.4201 43.5293C35.6454 43.9194 36.1581 44.0568 36.5483 43.8315C36.9384 43.6063 37.0758 43.0935 36.8505 42.7034C36.6253 42.3133 36.1125 42.1759 35.7224 42.4011C35.2297 42.5988 35.0923 43.1116 35.4201 43.5293Z" fill="#0A3B3C"/>
<path d="M32.642 38.7176C32.8673 39.1077 33.38 39.2451 33.7702 39.0199C34.1603 38.7947 34.2977 38.2819 34.0725 37.8918C33.8472 37.5016 33.3344 37.3642 32.9443 37.5895C32.5542 37.8147 32.4168 38.3275 32.642 38.7176Z" fill="#0A3B3C"/>
<path d="M29.9399 34.036C30.1651 34.4261 30.6779 34.5635 31.068 34.3383C31.4581 34.113 31.5955 33.6002 31.3703 33.2101C31.1451 32.82 30.6323 32.6826 30.2422 32.9078C29.8521 33.1331 29.7146 33.6459 29.9399 34.036Z" fill="#0A3B3C"/>
<path d="M18.4692 46.9032C18.6944 47.2933 19.2072 47.4307 19.5973 47.2055C19.9874 46.9802 20.1248 46.4674 19.8996 46.0773C19.6744 45.6872 19.1616 45.5498 18.7715 45.775C18.3813 46.0002 18.2439 46.5131 18.4692 46.9032Z" fill="#0A3B3C"/>
<path d="M14.7763 45.9129C15.0015 46.3031 15.5143 46.4405 15.9044 46.2152C16.2946 45.99 16.432 45.4772 16.2067 45.0871C15.9815 44.6969 15.4687 44.5595 15.0786 44.7848C14.6885 45.01 14.5511 45.5228 14.7763 45.9129Z" fill="#0A3B3C"/>
<path d="M19.458 43.2118C19.6832 43.6019 20.196 43.7393 20.5861 43.514C20.9762 43.2888 21.1136 42.776 20.8884 42.3859C20.6631 41.9958 20.1504 41.8584 19.7602 42.0836C19.3701 42.3088 19.2327 42.8216 19.458 43.2118Z" fill="#0A3B3C"/>
<path d="M22.2636 47.9208C22.4889 48.3109 23.0017 48.4483 23.3919 48.2231C23.782 47.9978 23.9194 47.485 23.6942 47.0949C23.4689 46.7048 22.956 46.5674 22.5659 46.7926C22.1758 47.0178 22.0384 47.5306 22.2636 47.9208Z" fill="#0A3B3C"/>
<path d="M15.7651 42.2215C15.9903 42.6116 16.5031 42.749 16.8932 42.5238C17.2833 42.2986 17.4207 41.7858 17.1955 41.3957C16.9703 41.0055 16.4575 40.8681 16.0674 41.0934C15.6772 41.3186 15.5398 41.8314 15.7651 42.2215Z" fill="#0A3B3C"/>
<path d="M23.2524 44.2274C23.4776 44.6175 23.9905 44.7549 24.3806 44.5297C24.7708 44.3045 24.9082 43.7917 24.6829 43.4016C24.4577 43.0114 23.9448 42.874 23.5547 43.0992C23.1646 43.3245 23.0272 43.8373 23.2524 44.2274Z" fill="#0A3B3C"/>
<path d="M20.4467 39.5184C20.672 39.9085 21.1847 40.0459 21.5749 39.8207C21.965 39.5955 22.1024 39.0827 21.8771 38.6925C21.6519 38.3024 21.1391 38.165 20.749 38.3902C20.3589 38.6155 20.2215 39.1283 20.4467 39.5184Z" fill="#0A3B3C"/>
<path d="M46.091 18.4676C46.3162 18.8577 46.8291 18.9952 47.2193 18.7699C47.6094 18.5447 47.7468 18.0319 47.5216 17.6418C47.2963 17.2517 46.7834 17.1142 46.3933 17.3395C46.0032 17.5647 45.8658 18.0775 46.091 18.4676Z" fill="#0A3B3C"/>
<path d="M47.1079 14.6727C47.3331 15.0628 47.846 15.2003 48.2361 14.975C48.6262 14.7498 48.7636 14.237 48.5384 13.8469C48.3132 13.4567 47.8003 13.3193 47.4101 13.5445C47.02 13.7698 46.8826 14.2826 47.1079 14.6727Z" fill="#0A3B3C"/>
<path d="M43.4153 13.6834C43.6405 14.0735 44.1533 14.2109 44.5434 13.9857C44.9335 13.7604 45.0709 13.2476 44.8457 12.8575C44.6204 12.4674 44.1077 12.33 43.7175 12.5552C43.3274 12.7805 43.0875 13.2658 43.4153 13.6834Z" fill="#0A3B3C"/>
<path d="M39.4341 28.5545C39.6593 28.9446 40.1721 29.082 40.5622 28.8567C40.9523 28.6315 41.0897 28.1187 40.8645 27.7286C40.6392 27.3385 40.1265 27.2011 39.7363 27.4263C39.3462 27.6515 39.1063 28.1369 39.4341 28.5545Z" fill="#0A3B3C"/>
<path d="M36.6289 23.8465C36.8541 24.2366 37.3669 24.374 37.757 24.1488C38.1471 23.9236 38.2845 23.4108 38.0593 23.0207C37.834 22.6305 37.3213 22.4931 36.9311 22.7184C36.541 22.9436 36.4036 23.4564 36.6289 23.8465Z" fill="#0A3B3C"/>
<path d="M44.1149 25.8524C44.3402 26.2425 44.8531 26.3799 45.2432 26.1547C45.6333 25.9295 45.7707 25.4167 45.5455 25.0266C45.3202 24.6364 44.8073 24.499 44.4172 24.7242C44.0271 24.9495 43.8897 25.4623 44.1149 25.8524Z" fill="#0A3B3C"/>
<path d="M41.4123 21.1718C41.6375 21.5619 42.1503 21.6993 42.5404 21.4741C42.9306 21.2489 43.068 20.7361 42.8427 20.346C42.6175 19.9558 42.1047 19.8184 41.7146 20.0437C41.2219 20.2414 41.0845 20.7542 41.4123 21.1718Z" fill="#0A3B3C"/>
<path d="M37.6174 20.1532C37.8426 20.5433 38.3554 20.6807 38.7455 20.4555C39.1356 20.2302 39.273 19.7174 39.0478 19.3273C38.8226 18.9372 38.3098 18.7998 37.9197 19.025C37.5295 19.2502 37.3921 19.763 37.6174 20.1532Z" fill="#0A3B3C"/>
<path d="M40.4226 24.8632C40.6478 25.2534 41.1606 25.3908 41.5507 25.1655C41.9408 24.9403 42.0782 24.4275 41.853 24.0374C41.6277 23.6472 41.115 23.5098 40.7249 23.7351C40.2322 23.9328 40.0948 24.4456 40.4226 24.8632Z" fill="#0A3B3C"/>
<path d="M42.4018 17.4785C42.6271 17.8686 43.1398 18.006 43.5299 17.7808C43.9201 17.5555 44.0575 17.0427 43.8322 16.6526C43.607 16.2625 43.0942 16.1251 42.7041 16.3503C42.2114 16.5481 42.074 17.0609 42.4018 17.4785Z" fill="#0A3B3C"/>
<path d="M45.1044 22.161C45.3297 22.5511 45.8426 22.6885 46.2327 22.4633C46.6228 22.2381 46.7602 21.7253 46.535 21.3351C46.3097 20.945 45.7968 20.8076 45.4067 21.0328C45.0166 21.2581 44.8792 21.7709 45.1044 22.161Z" fill="#0A3B3C"/>
<path d="M33.925 19.1649C34.1502 19.555 34.663 19.6924 35.0531 19.4672C35.4432 19.2419 35.5806 18.7291 35.3554 18.339C35.1302 17.9489 34.6174 17.8115 34.2273 18.0367C33.8372 18.262 33.6998 18.7748 33.925 19.1649Z" fill="#0A3B3C"/>
<path d="M38.6064 16.4637C38.8316 16.8538 39.3444 16.9912 39.7345 16.766C40.1246 16.5408 40.262 16.028 40.0368 15.6378C39.8116 15.2477 39.2988 15.1103 38.9087 15.3356C38.5186 15.5608 38.3812 16.0736 38.6064 16.4637Z" fill="#0A3B3C"/>
<path d="M46.0937 18.4696C46.3189 18.8597 46.8318 18.9971 47.222 18.7719C47.6121 18.5467 47.7495 18.0339 47.5242 17.6437C47.299 17.2536 46.7861 17.1162 46.396 17.3414C46.0059 17.5667 45.8685 18.0795 46.0937 18.4696Z" fill="#0A3B3C"/>
<path d="M43.4182 13.6853C43.6434 14.0754 44.1562 14.2128 44.5463 13.9876C44.9364 13.7624 45.0738 13.2496 44.8486 12.8595C44.6234 12.4693 44.1106 12.3319 43.7205 12.5572C43.3303 12.7824 43.0904 13.2677 43.4182 13.6853Z" fill="#0A3B3C"/>
<path d="M29.9399 34.036C30.1651 34.4261 30.6779 34.5635 31.068 34.3383C31.4581 34.113 31.5955 33.6002 31.3703 33.2101C31.1451 32.82 30.6323 32.6826 30.2422 32.9078C29.8521 33.1331 29.7146 33.6459 29.9399 34.036Z" fill="#0A3B3C"/>
<path d="M27.2365 29.3543C27.4618 29.7445 27.9747 29.8819 28.3648 29.6567C28.7549 29.4314 28.8923 28.9186 28.6671 28.5285C28.4418 28.1384 27.9289 28.0009 27.5388 28.2262C27.1487 28.4514 27.0113 28.9642 27.2365 29.3543Z" fill="#0A3B3C"/>
<path d="M34.6215 31.3329C34.8468 31.723 35.3595 31.8604 35.7497 31.6351C36.1398 31.4099 36.2772 30.8971 36.0519 30.507C35.8267 30.1169 35.3139 29.9795 34.9238 30.2047C34.5337 30.4299 34.3963 30.9427 34.6215 31.3329Z" fill="#0A3B3C"/>
<path d="M31.9465 26.5497C32.1717 26.9398 32.6845 27.0772 33.0746 26.8519C33.4647 26.6267 33.6021 26.1139 33.3769 25.7238C33.1517 25.3337 32.6389 25.1963 32.2488 25.4215C31.8312 25.7493 31.7212 26.1595 31.9465 26.5497Z" fill="#0A3B3C"/>
<path d="M28.2534 25.5594C28.4786 25.9495 28.9915 26.087 29.3816 25.8617C29.7717 25.6365 29.9091 25.1237 29.6839 24.7336C29.4587 24.3435 28.9458 24.206 28.5556 24.4313C28.138 24.7591 28.0281 25.1693 28.2534 25.5594Z" fill="#0A3B3C"/>
<path d="M30.9296 30.3446C31.1549 30.7347 31.6676 30.8721 32.0578 30.6469C32.4479 30.4216 32.5853 29.9088 32.36 29.5187C32.1348 29.1286 31.622 28.9912 31.2319 29.2164C30.8418 29.4417 30.7044 29.9544 30.9296 30.3446Z" fill="#0A3B3C"/>
<path d="M32.935 22.8582C33.1602 23.2484 33.673 23.3858 34.0631 23.1605C34.4533 22.9353 34.5907 22.4225 34.3654 22.0324C34.1402 21.6423 33.6274 21.5049 33.2373 21.7301C32.8472 21.9553 32.7098 22.4681 32.935 22.8582Z" fill="#0A3B3C"/>
<path d="M35.6384 27.5379C35.8636 27.9281 36.3764 28.0655 36.7665 27.8402C37.1566 27.615 37.294 27.1022 37.0688 26.7121C36.8436 26.3219 36.3308 26.1845 35.9407 26.4098C35.5231 26.7376 35.4131 27.1478 35.6384 27.5379Z" fill="#0A3B3C"/>
<path d="M24.4584 24.5418C24.6837 24.932 25.1965 25.0694 25.5866 24.8441C25.9767 24.6189 26.1141 24.1061 25.8889 23.716C25.6636 23.3258 25.1508 23.1884 24.7607 23.4137C24.3431 23.7415 24.2332 24.1517 24.4584 24.5418Z" fill="#0A3B3C"/>
<path d="M29.2424 21.868C29.4676 22.2581 29.9805 22.3956 30.3706 22.1703C30.7607 21.9451 30.8982 21.4323 30.6729 21.0422C30.4477 20.6521 29.9348 20.5146 29.5447 20.7399C29.1545 20.9651 29.0171 21.4779 29.2424 21.868Z" fill="#0A3B3C"/>
<path d="M39.4331 28.5545C39.6583 28.9446 40.1711 29.082 40.5612 28.8568C40.9513 28.6315 41.0887 28.1187 40.8635 27.7286C40.6383 27.3385 40.1255 27.2011 39.7354 27.4263C39.3452 27.6515 39.1053 28.1369 39.4331 28.5545Z" fill="#0A3B3C"/>
<path d="M36.6274 23.8465C36.8526 24.2366 37.3654 24.374 37.7555 24.1488C38.1456 23.9236 38.283 23.4108 38.0578 23.0207C37.8326 22.6305 37.3198 22.4931 36.9297 22.7184C36.5396 22.9436 36.4021 23.4564 36.6274 23.8465Z" fill="#0A3B3C"/>
<path d="M33.925 19.1649C34.1502 19.555 34.663 19.6924 35.0531 19.4672C35.4432 19.2419 35.5806 18.7291 35.3554 18.339C35.1302 17.9489 34.6174 17.8115 34.2273 18.0367C33.8372 18.262 33.6998 18.7748 33.925 19.1649Z" fill="#0A3B3C"/>
<path d="M20.4484 39.5165C20.6737 39.9066 21.1864 40.044 21.5766 39.8187C21.9667 39.5935 22.1041 39.0807 21.8788 38.6906C21.6536 38.3005 21.1408 38.1631 20.7507 38.3883C20.3606 38.6135 20.2232 39.1263 20.4484 39.5165Z" fill="#0A3B3C"/>
<path d="M17.7734 34.7332C17.9986 35.1234 18.5114 35.2608 18.9015 35.0355C19.2916 34.8103 19.429 34.2975 19.2038 33.9074C18.9786 33.5173 18.4658 33.3799 18.0757 33.6051C17.6855 33.8303 17.5481 34.3431 17.7734 34.7332Z" fill="#0A3B3C"/>
<path d="M25.2595 36.7391C25.4847 37.1292 25.9976 37.2667 26.3877 37.0414C26.7778 36.8162 26.9152 36.3034 26.69 35.9133C26.4648 35.5231 25.9519 35.3857 25.5618 35.611C25.1716 35.8362 25.0342 36.349 25.2595 36.7391Z" fill="#0A3B3C"/>
<path d="M22.4548 32.0301C22.68 32.4202 23.1928 32.5576 23.5829 32.3324C23.973 32.1072 24.1104 31.5944 23.8852 31.2043C23.66 30.8141 23.1472 30.6767 22.7571 30.902C22.3669 31.1272 22.2295 31.64 22.4548 32.0301Z" fill="#0A3B3C"/>
<path d="M18.7619 31.0399C18.9871 31.43 19.4999 31.5674 19.89 31.3422C20.2802 31.1169 20.4176 30.6041 20.1923 30.214C19.9671 29.8239 19.4543 29.6865 19.0642 29.9117C18.6741 30.137 18.5367 30.6498 18.7619 31.0399Z" fill="#0A3B3C"/>
<path d="M21.4653 35.7215C21.6905 36.1116 22.2033 36.249 22.5934 36.0238C22.9835 35.7986 23.1209 35.2858 22.8957 34.8957C22.6705 34.5055 22.1577 34.3681 21.7676 34.5934C21.3774 34.8186 21.24 35.3314 21.4653 35.7215Z" fill="#0A3B3C"/>
<path d="M23.4433 28.3387C23.6685 28.7288 24.1813 28.8662 24.5714 28.641C24.9616 28.4158 25.099 27.903 24.8737 27.5128C24.6485 27.1227 24.1357 26.9853 23.7456 27.2106C23.3555 27.4358 23.2181 27.9486 23.4433 28.3387Z" fill="#0A3B3C"/>
<path d="M26.2492 33.0477C26.4744 33.4378 26.9873 33.5753 27.3775 33.35C27.7676 33.1248 27.905 32.612 27.6797 32.2219C27.4545 31.8317 26.9416 31.6943 26.5515 31.9195C26.1614 32.1448 26.024 32.6576 26.2492 33.0477Z" fill="#0A3B3C"/>
<path d="M15.0695 30.0516C15.2948 30.4417 15.8075 30.5791 16.1977 30.3539C16.5878 30.1287 16.7252 29.6159 16.4999 29.2257C16.2747 28.8356 15.7619 28.6982 15.3718 28.9235C14.9817 29.1487 14.8443 29.6615 15.0695 30.0516Z" fill="#0A3B3C"/>
<path d="M19.7509 27.3504C19.9762 27.7406 20.4889 27.878 20.879 27.6527C21.2692 27.4275 21.4066 26.9147 21.1813 26.5246C20.9561 26.1344 20.4433 25.997 20.0532 26.2223C19.6631 26.4475 19.5257 26.9603 19.7509 27.3504Z" fill="#0A3B3C"/>
<path d="M29.9406 34.0379C30.1659 34.4281 30.6786 34.5655 31.0687 34.3402C31.4589 34.115 31.5963 33.6022 31.371 33.2121C31.1458 32.8219 30.633 32.6845 30.2429 32.9098C29.8528 33.135 29.7154 33.6478 29.9406 34.0379Z" fill="#0A3B3C"/>
<path d="M27.238 29.3563C27.4632 29.7464 27.9761 29.8838 28.3662 29.6586C28.7564 29.4334 28.8938 28.9206 28.6685 28.5305C28.4433 28.1403 27.9304 28.0029 27.5403 28.2281C27.1501 28.4534 27.0127 28.9662 27.238 29.3563Z" fill="#0A3B3C"/>
<path d="M24.4597 24.5438C24.6849 24.9339 25.1977 25.0713 25.5878 24.8461C25.9779 24.6208 26.1153 24.108 25.8901 23.7179C25.6648 23.3278 25.1521 23.1904 24.7619 23.4156C24.3443 23.7434 24.2344 24.1537 24.4597 24.5438Z" fill="#0A3B3C"/>
<path d="M15.7663 42.2196C15.9915 42.6097 16.5043 42.7471 16.8944 42.5219C17.2846 42.2966 17.422 41.7838 17.1967 41.3937C16.9715 41.0036 16.4587 40.8662 16.0686 41.0914C15.6785 41.3167 15.5411 41.8294 15.7663 42.2196Z" fill="#0A3B3C"/>
<path d="M13.0642 37.5379C13.2894 37.9281 13.8022 38.0655 14.1923 37.8402C14.5824 37.615 14.7198 37.1022 14.4946 36.7121C14.2693 36.3219 13.7566 36.1845 13.3664 36.4098C12.9763 36.635 12.8389 37.1478 13.0642 37.5379Z" fill="#0A3B3C"/>
<path d="M14.0798 33.745C14.305 34.1351 14.8178 34.2725 15.2079 34.0472C15.598 33.822 15.7354 33.3092 15.5102 32.9191C15.285 32.529 14.7722 32.3916 14.3821 32.6168C13.9919 32.842 13.8545 33.3548 14.0798 33.745Z" fill="#0A3B3C"/>
<path d="M16.756 38.5282C16.9813 38.9183 17.4941 39.0557 17.8842 38.8305C18.2743 38.6052 18.4117 38.0924 18.1865 37.7023C17.9612 37.3122 17.4485 37.1748 17.0583 37.4C16.6682 37.6252 16.5308 38.1381 16.756 38.5282Z" fill="#0A3B3C"/>
<path d="M20.4472 39.5165C20.6724 39.9066 21.1852 40.044 21.5753 39.8187C21.9655 39.5935 22.1029 39.0807 21.8776 38.6906C21.6524 38.3005 21.1396 38.1631 20.7495 38.3883C20.3594 38.6135 20.222 39.1263 20.4472 39.5165Z" fill="#0A3B3C"/>
<path d="M17.7717 34.7332C17.9969 35.1234 18.5097 35.2608 18.8998 35.0355C19.2899 34.8103 19.4273 34.2975 19.2021 33.9074C18.9768 33.5173 18.4641 33.3799 18.074 33.6051C17.6838 33.8303 17.5464 34.3431 17.7717 34.7332Z" fill="#0A3B3C"/>
<path d="M15.0695 30.0516C15.2948 30.4417 15.8075 30.5791 16.1977 30.3539C16.5878 30.1287 16.7252 29.6159 16.4999 29.2257C16.2747 28.8356 15.7619 28.6982 15.3718 28.9235C14.9817 29.1487 14.8443 29.6615 15.0695 30.0516Z" fill="#0A3B3C"/>
<path d="M43.4179 13.6853C43.6432 14.0754 44.1559 14.2128 44.5461 13.9876C44.9362 13.7624 45.0736 13.2496 44.8484 12.8595C44.6231 12.4693 44.1103 12.3319 43.7202 12.5572C43.3301 12.7824 43.0901 13.2677 43.4179 13.6853Z" fill="#0A3B3C"/>
<path d="M33.9255 19.1649C34.1507 19.555 34.6635 19.6924 35.0536 19.4672C35.4437 19.2419 35.5811 18.7291 35.3559 18.339C35.1307 17.9489 34.6179 17.8115 34.2278 18.0367C33.8376 18.262 33.7002 18.7748 33.9255 19.1649Z" fill="#0A3B3C"/>
<path d="M31.2221 14.4832C31.4473 14.8734 31.9602 15.0108 32.3504 14.7856C32.7405 14.5603 32.8779 14.0475 32.6527 13.6574C32.4274 13.2673 31.9145 13.1299 31.5244 13.3551C31.1343 13.5803 30.9969 14.0931 31.2221 14.4832Z" fill="#0A3B3C"/>
<path d="M38.6071 16.4618C38.8324 16.8519 39.3451 16.9893 39.7353 16.764C40.1254 16.5388 40.2628 16.026 40.0375 15.6359C39.8123 15.2458 39.2995 15.1084 38.9094 15.3336C38.5193 15.5588 38.3819 16.0716 38.6071 16.4618Z" fill="#0A3B3C"/>
<path d="M34.9152 15.4735C35.1405 15.8636 35.6532 16.001 36.0434 15.7758C36.4335 15.5505 36.5709 15.0377 36.3456 14.6476C36.1204 14.2575 35.6076 14.1201 35.2175 14.3453C34.8274 14.5706 34.69 15.0834 34.9152 15.4735Z" fill="#0A3B3C"/>
<path d="M43.417 13.6853C43.6422 14.0754 44.155 14.2128 44.5451 13.9876C44.9352 13.7624 45.0726 13.2496 44.8474 12.8595C44.6221 12.4693 44.1094 12.3319 43.7192 12.5572C43.3291 12.7824 43.0892 13.2677 43.417 13.6853Z" fill="#0A3B3C"/>
<path d="M24.4582 24.5457C24.6834 24.9359 25.1962 25.0733 25.5863 24.848C25.9764 24.6228 26.1138 24.11 25.8886 23.7199C25.6634 23.3298 25.1506 23.1924 24.7605 23.4176C24.3429 23.7454 24.233 24.1556 24.4582 24.5457Z" fill="#0A3B3C"/>
<path d="M21.756 19.8641C21.9813 20.2542 22.4941 20.3916 22.8842 20.1664C23.2743 19.9412 23.4117 19.4284 23.1865 19.0382C22.9612 18.6481 22.4485 18.5107 22.0583 18.736C21.6682 18.9612 21.5308 19.474 21.756 19.8641Z" fill="#0A3B3C"/>
<path d="M29.2421 21.87C29.4674 22.2601 29.9803 22.3975 30.3704 22.1723C30.7605 21.947 30.8979 21.4342 30.6727 21.0441C30.4474 20.654 29.9345 20.5166 29.5444 20.7418C29.1543 20.967 29.0169 21.4798 29.2421 21.87Z" fill="#0A3B3C"/>
<path d="M26.4374 17.161C26.6627 17.5511 27.1755 17.6885 27.5656 17.4633C27.9557 17.238 28.0931 16.7252 27.8679 16.3351C27.6426 15.945 27.1298 15.8076 26.7397 16.0328C26.3496 16.2581 26.2122 16.7709 26.4374 17.161Z" fill="#0A3B3C"/>
<path d="M22.7446 16.1707C22.9698 16.5609 23.4826 16.6983 23.8727 16.473C24.2628 16.2478 24.4002 15.735 24.175 15.3449C23.9497 14.9548 23.437 14.8174 23.0469 15.0426C22.6567 15.2678 22.5193 15.7806 22.7446 16.1707Z" fill="#0A3B3C"/>
<path d="M25.4479 20.8524C25.6732 21.2425 26.186 21.3799 26.5761 21.1547C26.9662 20.9294 27.1036 20.4166 26.8784 20.0265C26.6531 19.6364 26.1403 19.499 25.7502 19.7242C25.3601 19.9495 25.2227 20.4623 25.4479 20.8524Z" fill="#0A3B3C"/>
<path d="M27.426 13.4696C27.6512 13.8597 28.164 13.9971 28.5541 13.7719C28.9442 13.5466 29.0816 13.0338 28.8564 12.6437C28.6311 12.2536 28.1184 12.1162 27.7283 12.3414C27.3381 12.5667 27.2007 13.0794 27.426 13.4696Z" fill="#0A3B3C"/>
<path d="M30.2319 18.1786C30.4571 18.5687 30.97 18.7061 31.3601 18.4809C31.7503 18.2556 31.8877 17.7428 31.6624 17.3527C31.4372 16.9626 30.9243 16.8252 30.5342 17.0504C30.144 17.2756 30.0066 17.7884 30.2319 18.1786Z" fill="#0A3B3C"/>
<path d="M19.0522 15.1805C19.2774 15.5706 19.7902 15.708 20.1803 15.4828C20.5704 15.2576 20.7078 14.7448 20.4826 14.3546C20.2574 13.9645 19.7446 13.8271 19.3545 14.0524C18.9644 14.2776 18.827 14.7904 19.0522 15.1805Z" fill="#0A3B3C"/>
<path d="M33.9247 19.1668C34.15 19.557 34.6628 19.6944 35.0529 19.4691C35.443 19.2439 35.5804 18.7311 35.3552 18.341C35.1299 17.9508 34.6172 17.8134 34.227 18.0387C33.8369 18.2639 33.6995 18.7767 33.9247 19.1668Z" fill="#0A3B3C"/>
<path d="M31.2216 14.4852C31.4469 14.8753 31.9598 15.0128 32.3499 14.7875C32.74 14.5623 32.8774 14.0495 32.6522 13.6594C32.4269 13.2692 31.914 13.1318 31.5239 13.357C31.1338 13.5823 30.9964 14.0951 31.2216 14.4852Z" fill="#0A3B3C"/>
<path d="M15.0683 30.0516C15.2935 30.4417 15.8063 30.5791 16.1964 30.3539C16.5866 30.1287 16.724 29.6159 16.4987 29.2257C16.2735 28.8356 15.7607 28.6982 15.3706 28.9235C14.9805 29.1487 14.8431 29.6615 15.0683 30.0516Z" fill="#0A3B3C"/>
<path d="M19.7499 27.3485C19.9752 27.7386 20.488 27.876 20.8781 27.6508C21.2682 27.4255 21.4056 26.9127 21.1804 26.5226C20.9551 26.1325 20.4423 25.9951 20.0522 26.2203C19.6621 26.4456 19.5247 26.9584 19.7499 27.3485Z" fill="#0A3B3C"/>
<path d="M17.0749 22.5653C17.3001 22.9554 17.8129 23.0928 18.203 22.8676C18.5931 22.6423 18.7305 22.1295 18.5053 21.7394C18.2801 21.3493 17.7673 21.2119 17.3772 21.4371C16.9596 21.7649 16.8497 22.1752 17.0749 22.5653Z" fill="#0A3B3C"/>
<path d="M13.2795 21.5477C13.5047 21.9378 14.0175 22.0752 14.4076 21.85C14.7977 21.6247 14.9351 21.112 14.7099 20.7218C14.4847 20.3317 13.9719 20.1943 13.5818 20.4195C13.1642 20.7473 13.0542 21.1576 13.2795 21.5477Z" fill="#0A3B3C"/>
<path d="M16.0581 26.3602C16.2833 26.7503 16.7961 26.8877 17.1862 26.6625C17.5763 26.4372 17.7137 25.9245 17.4885 25.5343C17.2632 25.1442 16.7505 25.0068 16.3603 25.232C15.9702 25.4573 15.8328 25.9701 16.0581 26.3602Z" fill="#0A3B3C"/>
<path d="M18.0634 18.8739C18.2887 19.264 18.8014 19.4014 19.1916 19.1762C19.5817 18.9509 19.7191 18.4381 19.4938 18.048C19.2686 17.6579 18.7558 17.5205 18.3657 17.7457C17.9756 17.971 17.8382 18.4837 18.0634 18.8739Z" fill="#0A3B3C"/>
<path d="M20.7668 23.5536C20.992 23.9437 21.5048 24.0811 21.8949 23.8558C22.285 23.6306 22.4224 23.1178 22.1972 22.7277C21.972 22.3376 21.4592 22.2002 21.0691 22.4254C20.6515 22.7532 20.5416 23.1634 20.7668 23.5536Z" fill="#0A3B3C"/>
<path d="M14.268 17.8582C14.4932 18.2484 15.006 18.3858 15.3961 18.1605C15.7863 17.9353 15.9237 17.4225 15.6984 17.0324C15.4732 16.6423 14.9604 16.5049 14.5703 16.7301C14.1802 16.9553 14.0428 17.4681 14.268 17.8582Z" fill="#0A3B3C"/>
<path d="M24.4592 24.5438C24.6844 24.9339 25.1972 25.0713 25.5873 24.8461C25.9774 24.6208 26.1148 24.108 25.8896 23.7179C25.6644 23.3278 25.1516 23.1904 24.7615 23.4156C24.3439 23.7434 24.2339 24.1537 24.4592 24.5438Z" fill="#0A3B3C"/>
<path d="M21.756 19.8621C21.9813 20.2523 22.4941 20.3897 22.8842 20.1644C23.2743 19.9392 23.4117 19.4264 23.1865 19.0363C22.9612 18.6462 22.4485 18.5088 22.0583 18.734C21.6682 18.9592 21.5308 19.472 21.756 19.8621Z" fill="#0A3B3C"/>
<path d="M19.0539 15.1805C19.2791 15.5706 19.7919 15.708 20.182 15.4828C20.5721 15.2576 20.7095 14.7448 20.4843 14.3546C20.2591 13.9645 19.7463 13.8271 19.3562 14.0524C18.9661 14.2776 18.8287 14.7904 19.0539 15.1805Z" fill="#0A3B3C"/>
<path d="M19.0527 15.1805C19.2779 15.5706 19.7907 15.708 20.1808 15.4828C20.5709 15.2576 20.7083 14.7448 20.4831 14.3546C20.2579 13.9645 19.7451 13.8271 19.355 14.0524C18.9648 14.2776 18.8274 14.7904 19.0527 15.1805Z" fill="#0A3B3C"/>
<mask id="mask1" mask-type="alpha" maskUnits="userSpaceOnUse" x="16" y="33" width="33" height="30">
<path d="M42.543 37.9757C44.8366 38.5903 46.5094 39.9929 47.5878 42.0845C48.3474 43.4545 48.5232 45.0922 48.4973 47.1001C48.2064 50.0973 46.9702 52.4171 44.5607 54.5285C42.544 56.321 40.198 57.8132 37.2521 59.2507C34.3062 60.6882 31.1267 61.851 27.5913 62.8124C27.4958 62.7868 27.4958 62.7868 27.4693 62.8858C27.3737 62.8602 27.3737 62.8602 27.3046 62.7356C24.0917 59.4358 22.1106 56.8901 20.3472 54.2968C19.1202 52.3774 17.7816 50.11 16.8622 47.4247C16.1235 45.212 16.0803 43.0796 16.568 40.8774C17.0556 38.6752 18.3078 36.6778 20.2715 35.0832C22.0601 33.7597 24.0189 33.3302 26.1744 33.6957C26.4611 33.7726 26.7478 33.8494 26.939 33.9006C28.6592 34.3615 29.9867 35.1414 31.017 36.2658C31.6489 36.9653 32.0633 37.7126 32.3821 38.4343L32.4511 38.5588L33.6067 40.55L35.4402 39.2537C37.3774 37.758 39.5539 37.2808 42.1607 37.8733L42.543 37.9757Z" fill="#C4C4C4"/>
</mask>
<g mask="url(#mask1)">
<path d="M46.579 46.1883C46.8043 46.5784 47.3171 46.7158 47.7072 46.4906C48.0973 46.2654 48.2347 45.7526 48.0095 45.3625C47.7842 44.9723 47.2714 44.8349 46.8813 45.0602C46.4912 45.2854 46.3538 45.7982 46.579 46.1883Z" fill="#0A3B3C"/>
<path d="M42.8867 45.1981C43.1119 45.5882 43.6247 45.7256 44.0148 45.5004C44.4049 45.2751 44.5423 44.7623 44.3171 44.3722C44.0918 43.9821 43.5791 43.8447 43.1889 44.0699C42.7988 44.2952 42.6614 44.808 42.8867 45.1981Z" fill="#0A3B3C"/>
<path d="M38.2062 47.9012C38.4315 48.2913 38.9444 48.4288 39.3345 48.2035C39.7246 47.9783 39.862 47.4655 39.6368 47.0754C39.4115 46.6853 38.8986 46.5478 38.5085 46.7731C38.1184 46.9983 37.981 47.5111 38.2062 47.9012Z" fill="#0A3B3C"/>
<path d="M42.8874 45.2C43.1126 45.5902 43.6254 45.7276 44.0155 45.5023C44.4056 45.2771 44.543 44.7643 44.3178 44.3742C44.0926 43.9841 43.5798 43.8467 43.1897 44.0719C42.7996 44.2971 42.6622 44.8099 42.8874 45.2Z" fill="#0A3B3C"/>
<path d="M42.8862 45.1981C43.1114 45.5882 43.6242 45.7256 44.0143 45.5004C44.4044 45.2751 44.5418 44.7623 44.3166 44.3722C44.0914 43.9821 43.5786 43.8447 43.1885 44.0699C42.7983 44.2952 42.6609 44.808 42.8862 45.1981Z" fill="#0A3B3C"/>
<path d="M40.1828 40.5164C40.408 40.9066 40.9209 41.044 41.3111 40.8188C41.7012 40.5935 41.8386 40.0807 41.6133 39.6906C41.3881 39.3005 40.8752 39.1631 40.4851 39.3883C40.095 39.6135 39.9576 40.1263 40.1828 40.5164Z" fill="#0A3B3C"/>
<path d="M44.8928 37.7118C45.118 38.1019 45.6308 38.2393 46.0209 38.014C46.411 37.7888 46.5484 37.276 46.3232 36.8859C46.0979 36.4958 45.5852 36.3584 45.1951 36.5836C44.8049 36.8088 44.6675 37.3216 44.8928 37.7118Z" fill="#0A3B3C"/>
<path d="M41.1997 36.7215C41.4249 37.1116 41.9378 37.2491 42.3279 37.0238C42.718 36.7986 42.8554 36.2858 42.6302 35.8957C42.405 35.5056 41.8921 35.3681 41.5019 35.5934C41.1118 35.8186 40.9744 36.3314 41.1997 36.7215Z" fill="#0A3B3C"/>
<path d="M43.8759 41.5067C44.1012 41.8968 44.6139 42.0342 45.004 41.809C45.3942 41.5837 45.5316 41.0709 45.3063 40.6808C45.0811 40.2907 44.5683 40.1533 44.1782 40.3785C43.7881 40.6038 43.6507 41.1166 43.8759 41.5067Z" fill="#0A3B3C"/>
<path d="M45.8813 34.0204C46.1065 34.4105 46.6193 34.5479 47.0094 34.3226C47.3995 34.0974 47.5369 33.5846 47.3117 33.1945C47.0865 32.8044 46.5737 32.667 46.1836 32.8922C45.7935 33.1174 45.6561 33.6302 45.8813 34.0204Z" fill="#0A3B3C"/>
<path d="M37.507 35.7322C37.7323 36.1223 38.2451 36.2597 38.6352 36.0345C39.0253 35.8092 39.1627 35.2964 38.9375 34.9063C38.7122 34.5162 38.1995 34.3788 37.8093 34.604C37.4192 34.8293 37.1793 35.3146 37.507 35.7322Z" fill="#0A3B3C"/>
<path d="M42.1889 33.0301C42.4141 33.4202 42.927 33.5577 43.3172 33.3324C43.7073 33.1072 43.8447 32.5944 43.6194 32.2043C43.3942 31.8142 42.8813 31.6767 42.4912 31.902C42.1011 32.1272 41.9637 32.64 42.1889 33.0301Z" fill="#0A3B3C"/>
<path d="M30.7204 45.8954C30.9456 46.2855 31.4584 46.4229 31.8485 46.1976C32.2387 45.9724 32.3761 45.4596 32.1508 45.0695C31.9256 44.6794 31.4128 44.542 31.0227 44.7672C30.6326 44.9924 30.4952 45.5052 30.7204 45.8954Z" fill="#0A3B3C"/>
<path d="M38.2067 47.9012C38.432 48.2913 38.9449 48.4288 39.335 48.2035C39.7251 47.9783 39.8625 47.4655 39.6373 47.0754C39.412 46.6853 38.8991 46.5478 38.509 46.7731C38.1189 46.9983 37.9815 47.5111 38.2067 47.9012Z" fill="#0A3B3C"/>
<path d="M35.5041 43.2207C35.7293 43.6108 36.2421 43.7482 36.6322 43.5229C37.0224 43.2977 37.1598 42.7849 36.9345 42.3948C36.7093 42.0047 36.1965 41.8673 35.8064 42.0925C35.3137 42.2903 35.1763 42.8031 35.5041 43.2207Z" fill="#0A3B3C"/>
<path d="M31.7092 42.202C31.9344 42.5921 32.4472 42.7295 32.8373 42.5043C33.2274 42.279 33.3648 41.7662 33.1396 41.3761C32.9144 40.986 32.4016 40.8486 32.0115 41.0738C31.6213 41.2991 31.4839 41.8119 31.7092 42.202Z" fill="#0A3B3C"/>
<path d="M34.5144 46.9121C34.7396 47.3022 35.2524 47.4396 35.6425 47.2143C36.0326 46.9891 36.17 46.4763 35.9448 46.0862C35.7195 45.6961 35.2068 45.5587 34.8166 45.7839C34.324 45.9817 34.1866 46.4945 34.5144 46.9121Z" fill="#0A3B3C"/>
<path d="M36.4936 39.5273C36.7188 39.9174 37.2316 40.0548 37.6217 39.8296C38.0119 39.6043 38.1493 39.0915 37.924 38.7014C37.6988 38.3113 37.186 38.1739 36.7959 38.3991C36.3032 38.5969 36.1658 39.1097 36.4936 39.5273Z" fill="#0A3B3C"/>
<path d="M39.1962 44.2098C39.4215 44.5999 39.9344 44.7374 40.3245 44.5121C40.7146 44.2869 40.852 43.7741 40.6268 43.384C40.4015 42.9939 39.8886 42.8564 39.4985 43.0817C39.1084 43.3069 38.971 43.8197 39.1962 44.2098Z" fill="#0A3B3C"/>
<path d="M28.0168 41.2137C28.242 41.6038 28.7548 41.7412 29.1449 41.516C29.535 41.2908 29.6724 40.778 29.4472 40.3878C29.222 39.9977 28.7092 39.8603 28.3191 40.0856C27.929 40.3108 27.7916 40.8236 28.0168 41.2137Z" fill="#0A3B3C"/>
<path d="M32.6982 38.5125C32.9234 38.9027 33.4362 39.0401 33.8263 38.8148C34.2164 38.5896 34.3538 38.0768 34.1286 37.6867C33.9034 37.2966 33.3906 37.1592 33.0005 37.3844C32.6104 37.6096 32.4729 38.1224 32.6982 38.5125Z" fill="#0A3B3C"/>
<path d="M42.8896 45.2C43.1148 45.5902 43.6276 45.7276 44.0177 45.5023C44.4078 45.2771 44.5452 44.7643 44.32 44.3742C44.0948 43.9841 43.582 43.8467 43.1919 44.0719C42.8018 44.2971 42.6644 44.8099 42.8896 45.2Z" fill="#0A3B3C"/>
<path d="M40.1855 40.5184C40.4107 40.9085 40.9236 41.046 41.3137 40.8207C41.7039 40.5955 41.8413 40.0827 41.616 39.6926C41.3908 39.3024 40.8779 39.165 40.4878 39.3902C40.0977 39.6155 39.9603 40.1283 40.1855 40.5184Z" fill="#0A3B3C"/>
<path d="M37.51 35.7342C37.7352 36.1243 38.248 36.2617 38.6381 36.0364C39.0282 35.8112 39.1656 35.2984 38.9404 34.9083C38.7152 34.5182 38.2024 34.3808 37.8123 34.606C37.4221 34.8312 37.1822 35.3165 37.51 35.7342Z" fill="#0A3B3C"/>
<path d="M26.0383 48.5985C26.2635 48.9886 26.7763 49.126 27.1664 48.9008C27.5565 48.6755 27.6939 48.1627 27.4687 47.7726C27.2435 47.3825 26.7307 47.2451 26.3406 47.4703C25.923 47.7981 25.813 48.2084 26.0383 48.5985Z" fill="#0A3B3C"/>
<path d="M22.3452 47.6082C22.5704 47.9984 23.0833 48.1358 23.4734 47.9106C23.8635 47.6853 24.0009 47.1725 23.7757 46.7824C23.5505 46.3923 23.0376 46.2549 22.6474 46.4801C22.2298 46.8079 22.1199 47.2181 22.3452 47.6082Z" fill="#0A3B3C"/>
<path d="M27.0268 44.9071C27.252 45.2972 27.7648 45.4346 28.1549 45.2094C28.545 44.9841 28.6824 44.4713 28.4572 44.0812C28.232 43.6911 27.7192 43.5537 27.3291 43.7789C26.939 44.0042 26.8016 44.517 27.0268 44.9071Z" fill="#0A3B3C"/>
<path d="M18.5502 46.5907C18.7755 46.9808 19.2882 47.1182 19.6784 46.893C20.0685 46.6677 20.2059 46.1549 19.9807 45.7648C19.7554 45.3747 19.2426 45.2373 18.8525 45.4625C18.4349 45.7903 18.325 46.2005 18.5502 46.5907Z" fill="#0A3B3C"/>
<path d="M23.3342 43.9168C23.5594 44.307 24.0723 44.4444 24.4624 44.2192C24.8525 43.9939 24.9899 43.4811 24.7647 43.091C24.5395 42.7009 24.0266 42.5634 23.6365 42.7887C23.2463 43.0139 23.1089 43.5267 23.3342 43.9168Z" fill="#0A3B3C"/>
<path d="M30.7192 45.8954C30.9444 46.2855 31.4572 46.4229 31.8473 46.1976C32.2374 45.9724 32.3748 45.4596 32.1496 45.0695C31.9244 44.6794 31.4116 44.542 31.0215 44.7672C30.6313 44.9924 30.4939 45.5052 30.7192 45.8954Z" fill="#0A3B3C"/>
<path d="M28.0168 41.2137C28.242 41.6038 28.7548 41.7412 29.1449 41.516C29.535 41.2908 29.6724 40.778 29.4472 40.3878C29.222 39.9977 28.7092 39.8603 28.3191 40.0856C27.929 40.3108 27.7916 40.8236 28.0168 41.2137Z" fill="#0A3B3C"/>
<path d="M18.5512 46.5926C18.7765 46.9827 19.2892 47.1201 19.6793 46.8949C20.0695 46.6697 20.2069 46.1569 19.9816 45.7668C19.7564 45.3766 19.2436 45.2392 18.8535 45.4645C18.4359 45.7923 18.326 46.2025 18.5512 46.5926Z" fill="#0A3B3C"/>
<path d="M37.5097 35.7342C37.735 36.1243 38.2477 36.2617 38.6379 36.0364C39.028 35.8112 39.1654 35.2984 38.9401 34.9083C38.7149 34.5182 38.2021 34.3808 37.812 34.606C37.4219 34.8312 37.1819 35.3165 37.5097 35.7342Z" fill="#0A3B3C"/>
<path d="M42.1906 33.0301C42.4159 33.4202 42.9288 33.5577 43.3189 33.3324C43.709 33.1072 43.8464 32.5944 43.6212 32.2043C43.3959 31.8142 42.883 31.6767 42.4929 31.902C42.1028 32.1272 41.9654 32.64 42.1906 33.0301Z" fill="#0A3B3C"/>
<path d="M28.0173 41.2137C28.2425 41.6038 28.7553 41.7412 29.1454 41.516C29.5355 41.2908 29.6729 40.778 29.4477 40.3878C29.2225 39.9977 28.7097 39.8603 28.3196 40.0856C27.9294 40.3108 27.792 40.8236 28.0173 41.2137Z" fill="#0A3B3C"/>
<path d="M25.3139 36.5321C25.5391 36.9222 26.052 37.0596 26.4422 36.8344C26.8323 36.6092 26.9697 36.0964 26.7444 35.7062C26.5192 35.3161 26.0063 35.1787 25.6162 35.4039C25.2261 35.6292 25.0887 36.1419 25.3139 36.5321Z" fill="#0A3B3C"/>
<path d="M32.6989 38.5106C32.9242 38.9007 33.4369 39.0381 33.827 38.8129C34.2172 38.5876 34.3546 38.0748 34.1293 37.6847C33.9041 37.2946 33.3913 37.1572 33.0012 37.3824C32.6111 37.6077 32.4737 38.1205 32.6989 38.5106Z" fill="#0A3B3C"/>
<path d="M30.0239 33.7274C30.2491 34.1175 30.7619 34.2549 31.152 34.0297C31.5421 33.8044 31.6795 33.2916 31.4543 32.9015C31.229 32.5114 30.7163 32.374 30.3262 32.5992C29.936 32.8245 29.7986 33.3373 30.0239 33.7274Z" fill="#0A3B3C"/>
<path d="M29.007 37.5223C29.2323 37.9124 29.745 38.0498 30.1352 37.8246C30.5253 37.5994 30.6627 37.0866 30.4374 36.6964C30.2122 36.3063 29.6994 36.1689 29.3093 36.3942C28.9192 36.6194 28.7818 37.1322 29.007 37.5223Z" fill="#0A3B3C"/>
<path d="M33.7158 34.7157C33.941 35.1058 34.4538 35.2432 34.8439 35.018C35.234 34.7927 35.3714 34.2799 35.1462 33.8898C34.9209 33.4997 34.4082 33.3623 34.018 33.5875C33.6279 33.8127 33.4905 34.3255 33.7158 34.7157Z" fill="#0A3B3C"/>
<path d="M37.5088 35.7342C37.734 36.1243 38.2468 36.2617 38.6369 36.0364C39.027 35.8112 39.1644 35.2984 38.9392 34.9083C38.7139 34.5182 38.2012 34.3808 37.811 34.606C37.4209 34.8312 37.181 35.3165 37.5088 35.7342Z" fill="#0A3B3C"/>
<path d="M18.55 46.5946C18.7752 46.9847 19.288 47.1221 19.6781 46.8969C20.0682 46.6716 20.2056 46.1588 19.9804 45.7687C19.7552 45.3786 19.2424 45.2412 18.8523 45.4664C18.4347 45.7942 18.3248 46.2045 18.55 46.5946Z" fill="#0A3B3C"/>
<path d="M15.8478 41.9129C16.0731 42.3031 16.5859 42.4405 16.976 42.2152C17.3661 41.99 17.5035 41.4772 17.2783 41.0871C17.053 40.6969 16.5402 40.5595 16.1501 40.7848C15.76 41.01 15.6226 41.5228 15.8478 41.9129Z" fill="#0A3B3C"/>
<path d="M23.3339 43.9188C23.5592 44.3089 24.0721 44.4463 24.4622 44.2211C24.8523 43.9959 24.9897 43.4831 24.7645 43.093C24.5392 42.7028 24.0263 42.5654 23.6362 42.7906C23.2461 43.0159 23.1087 43.5287 23.3339 43.9188Z" fill="#0A3B3C"/>
<path d="M20.5292 39.2098C20.7545 39.5999 21.2673 39.7373 21.6574 39.5121C22.0475 39.2869 22.1849 38.7741 21.9597 38.3839C21.7344 37.9938 21.2216 37.8564 20.8315 38.0817C20.4414 38.3069 20.304 38.8197 20.5292 39.2098Z" fill="#0A3B3C"/>
<path d="M16.8364 38.2196C17.0616 38.6097 17.5744 38.7471 17.9645 38.5219C18.3546 38.2966 18.492 37.7838 18.2668 37.3937C18.0415 37.0036 17.5288 36.8662 17.1387 37.0914C16.7485 37.3167 16.6111 37.8295 16.8364 38.2196Z" fill="#0A3B3C"/>
<path d="M19.5397 42.9012C19.765 43.2913 20.2777 43.4287 20.6679 43.2035C21.058 42.9783 21.1954 42.4655 20.9702 42.0753C20.7449 41.6852 20.2321 41.5478 19.842 41.7731C19.4519 41.9983 19.3145 42.5111 19.5397 42.9012Z" fill="#0A3B3C"/>
<path d="M21.5178 35.5184C21.743 35.9085 22.2558 36.0459 22.6459 35.8207C23.036 35.5955 23.1734 35.0827 22.9482 34.6925C22.7229 34.3024 22.2102 34.165 21.8201 34.3902C21.4299 34.6155 21.2925 35.1283 21.5178 35.5184Z" fill="#0A3B3C"/>
<path d="M24.3237 40.2274C24.5489 40.6175 25.0618 40.7549 25.4519 40.5297C25.8421 40.3045 25.9795 39.7917 25.7542 39.4016C25.529 39.0114 25.0161 38.874 24.626 39.0992C24.2358 39.3245 24.0984 39.8373 24.3237 40.2274Z" fill="#0A3B3C"/>
<path d="M17.8254 34.5282C18.0506 34.9183 18.5634 35.0557 18.9535 34.8305C19.3436 34.6052 19.481 34.0924 19.2558 33.7023C19.0306 33.3122 18.5178 33.1748 18.1277 33.4C17.7375 33.6252 17.6001 34.138 17.8254 34.5282Z" fill="#0A3B3C"/>
<path d="M28.0165 41.2157C28.2418 41.6058 28.7546 41.7432 29.1447 41.518C29.5348 41.2927 29.6722 40.7799 29.447 40.3898C29.2217 39.9997 28.7089 39.8623 28.3188 40.0875C27.9287 40.3127 27.7913 40.8255 28.0165 41.2157Z" fill="#0A3B3C"/>
<path d="M25.3134 36.534C25.5387 36.9242 26.0516 37.0616 26.4417 36.8363C26.8318 36.6111 26.9692 36.0983 26.744 35.7082C26.5187 35.3181 26.0058 35.1806 25.6157 35.4059C25.2256 35.6311 25.0882 36.1439 25.3134 36.534Z" fill="#0A3B3C"/>
<path d="M14.8586 45.6024C15.0838 45.9925 15.5966 46.1299 15.9867 45.9047C16.3768 45.6794 16.5142 45.1666 16.289 44.7765C16.0638 44.3864 15.551 44.249 15.1609 44.4742C14.7433 44.802 14.6333 45.2123 14.8586 45.6024Z" fill="#0A3B3C"/>
<path d="M18.551 46.5926C18.7762 46.9827 19.289 47.1201 19.6791 46.8949C20.0692 46.6697 20.2066 46.1569 19.9814 45.7668C19.7561 45.3766 19.2434 45.2392 18.8533 45.4645C18.4357 45.7923 18.3257 46.2025 18.551 46.5926Z" fill="#0A3B3C"/>
<path d="M15.8478 41.911C16.0731 42.3011 16.5859 42.4385 16.976 42.2133C17.3661 41.988 17.5035 41.4752 17.2783 41.0851C17.053 40.695 16.5402 40.5576 16.1501 40.7828C15.76 41.0081 15.6226 41.5209 15.8478 41.911Z" fill="#0A3B3C"/>
<path d="M17.8261 34.5262C18.0514 34.9163 18.5641 35.0537 18.9542 34.8285C19.3444 34.6033 19.4818 34.0905 19.2565 33.7003C19.0313 33.3102 18.5185 33.1728 18.1284 33.3981C17.7383 33.6233 17.6009 34.1361 17.8261 34.5262Z" fill="#0A3B3C"/>
</g>
<mask id="mask2" mask-type="alpha" maskUnits="userSpaceOnUse" x="-14" y="25" width="34" height="31">
<path d="M13.1443 30.0968C15.4379 30.7114 17.1107 32.1139 18.1891 34.2056C18.9487 35.5756 19.1245 37.2133 19.0986 39.2212C18.8077 42.2184 17.5715 44.5382 15.1621 46.6496C13.1453 48.4421 10.7994 49.9343 7.85346 51.3718C4.90756 52.8093 1.72798 53.9721 -1.80736 54.9335C-1.90292 54.9079 -1.90292 54.9079 -1.92943 55.0069C-2.025 54.9813 -2.025 54.9813 -2.09406 54.8567C-5.30703 51.5569 -7.2881 49.0112 -9.05152 46.4179C-10.2785 44.4985 -11.6171 42.2311 -12.5365 39.5458C-13.2752 37.3331 -13.3184 35.2007 -12.8307 32.9985C-12.3431 30.7963 -11.0909 28.7989 -9.12718 27.2043C-7.33856 25.8808 -5.37976 25.4513 -3.22426 25.8168C-2.93755 25.8936 -2.65085 25.9705 -2.45971 26.0217C-0.739498 26.4826 0.587973 27.2625 1.61827 28.3869C2.25026 29.0864 2.66461 29.8337 2.98339 30.5554L3.05245 30.6799L4.20806 32.6711L6.04155 31.3748C7.97875 29.8791 10.1552 29.4019 12.762 29.9943L13.1443 30.0968Z" fill="#C4C4C4"/>
</mask>
<g mask="url(#mask2)">
<path d="M18.997 46.7118C19.2223 47.1019 19.735 47.2393 20.1251 47.014C20.5153 46.7888 20.6527 46.276 20.4274 45.8859C20.2022 45.4958 19.6894 45.3584 19.2993 45.5836C18.8817 45.9114 18.7718 46.3216 18.997 46.7118Z" fill="#0A3B3C"/>
<path d="M18.9963 46.7118C19.2215 47.1019 19.7343 47.2393 20.1244 47.014C20.5145 46.7888 20.6519 46.276 20.4267 45.8859C20.2015 45.4958 19.6887 45.3584 19.2986 45.5836C18.881 45.9114 18.771 46.3216 18.9963 46.7118Z" fill="#0A3B3C"/>
<path d="M16.1918 42.0028C16.4171 42.3929 16.9298 42.5303 17.32 42.3051C17.7101 42.0798 17.8475 41.567 17.6223 41.1769C17.397 40.7868 16.8842 40.6494 16.4941 40.8746C16.104 41.0999 15.9666 41.6127 16.1918 42.0028Z" fill="#0A3B3C"/>
<path d="M17.1804 38.3094C17.4056 38.6995 17.9184 38.8369 18.3085 38.6117C18.6986 38.3865 18.836 37.8737 18.6108 37.4835C18.3855 37.0934 17.8728 36.956 17.4826 37.1813C17.0925 37.4065 16.9551 37.9193 17.1804 38.3094Z" fill="#0A3B3C"/>
<path d="M13.488 37.3192C13.7132 37.7093 14.226 37.8467 14.6161 37.6215C15.0062 37.3962 15.1436 36.8834 14.9184 36.4933C14.6932 36.1032 14.1804 35.9658 13.7903 36.191C13.4001 36.4163 13.2627 36.9291 13.488 37.3192Z" fill="#0A3B3C"/>
<path d="M18.1694 34.618C18.3946 35.0081 18.9074 35.1455 19.2975 34.9203C19.6876 34.6951 19.825 34.1823 19.5998 33.7921C19.3746 33.402 18.8618 33.2646 18.4717 33.4899C18.0815 33.7151 17.9441 34.2279 18.1694 34.618Z" fill="#0A3B3C"/>
<path d="M15.2018 45.6922C15.4271 46.0824 15.9399 46.2198 16.33 45.9945C16.7201 45.7693 16.8575 45.2565 16.6323 44.8664C16.407 44.4762 15.8943 44.3388 15.5041 44.5641C15.0865 44.8919 14.9766 45.3021 15.2018 45.6922Z" fill="#0A3B3C"/>
<path d="M18.9975 46.7098C19.2227 47.0999 19.7355 47.2373 20.1256 47.0121C20.5158 46.7869 20.6532 46.2741 20.4279 45.8839C20.2027 45.4938 19.6899 45.3564 19.2998 45.5817C18.8822 45.9094 18.7723 46.3197 18.9975 46.7098Z" fill="#0A3B3C"/>
<path d="M16.1921 42.0008C16.4173 42.3909 16.9301 42.5283 17.3202 42.3031C17.7103 42.0779 17.8477 41.5651 17.6225 41.175C17.3973 40.7848 16.8845 40.6474 16.4944 40.8727C16.1042 41.0979 15.9668 41.6107 16.1921 42.0008Z" fill="#0A3B3C"/>
<path d="M13.4887 37.3211C13.7139 37.7113 14.2267 37.8487 14.6168 37.6234C15.007 37.3982 15.1444 36.8854 14.9191 36.4953C14.6939 36.1051 14.1811 35.9677 13.791 36.193C13.4009 36.4182 13.2635 36.931 13.4887 37.3211Z" fill="#0A3B3C"/>
<path d="M13.4875 37.3192C13.7127 37.7093 14.2255 37.8467 14.6156 37.6215C15.0057 37.3962 15.1431 36.8834 14.9179 36.4933C14.6927 36.1032 14.1799 35.9658 13.7898 36.191C13.3997 36.4163 13.2623 36.9291 13.4875 37.3192Z" fill="#0A3B3C"/>
<path d="M18.1691 34.6161C18.3944 35.0062 18.9071 35.1436 19.2973 34.9183C19.6874 34.6931 19.8248 34.1803 19.5996 33.7902C19.3743 33.4001 18.8615 33.2627 18.4714 33.4879C18.0813 33.7131 17.9439 34.2259 18.1691 34.6161Z" fill="#0A3B3C"/>
<path d="M15.4941 29.8329C15.7193 30.223 16.2321 30.3604 16.6222 30.1351C17.0123 29.9099 17.1497 29.3971 16.9245 29.007C16.6993 28.6169 16.1865 28.4795 15.7964 28.7047C15.4062 28.9299 15.2688 29.4427 15.4941 29.8329Z" fill="#0A3B3C"/>
<path d="M14.4772 33.6278C14.7025 34.0179 15.2152 34.1553 15.6054 33.9301C15.9955 33.7048 16.1329 33.192 15.9077 32.8019C15.6824 32.4118 15.1696 32.2744 14.7795 32.4996C14.3894 32.7249 14.252 33.2377 14.4772 33.6278Z" fill="#0A3B3C"/>
<path d="M16.4826 26.1414C16.7078 26.5316 17.2206 26.669 17.6107 26.4437C18.0009 26.2185 18.1383 25.7057 17.913 25.3156C17.6878 24.9255 17.175 24.7881 16.7849 25.0133C16.3948 25.2385 16.2574 25.7513 16.4826 26.1414Z" fill="#0A3B3C"/>
<path d="M19.186 30.8211C19.4112 31.2113 19.924 31.3487 20.3141 31.1234C20.7042 30.8982 20.8416 30.3854 20.6164 29.9953C20.3912 29.6051 19.8784 29.4677 19.4883 29.693C19.0981 29.9182 18.9607 30.431 19.186 30.8211Z" fill="#0A3B3C"/>
<path d="M12.7902 25.1512C13.0155 25.5413 13.5284 25.6788 13.9185 25.4535C14.3086 25.2283 14.446 24.7155 14.2208 24.3254C13.9955 23.9353 13.4826 23.7978 13.0925 24.0231C12.7024 24.2483 12.565 24.7611 12.7902 25.1512Z" fill="#0A3B3C"/>
<path d="M13.4909 37.3211C13.7161 37.7113 14.2289 37.8487 14.619 37.6234C15.0092 37.3982 15.1466 36.8854 14.9213 36.4953C14.6961 36.1051 14.1833 35.9677 13.7932 36.193C13.4031 36.4182 13.2657 36.931 13.4909 37.3211Z" fill="#0A3B3C"/>
<path d="M12.7919 25.1512C13.0172 25.5413 13.5301 25.6788 13.9202 25.4535C14.3103 25.2283 14.4477 24.7155 14.2225 24.3254C13.9972 23.9353 13.4843 23.7978 13.0942 24.0231C12.7041 24.2483 12.5667 24.7611 12.7919 25.1512Z" fill="#0A3B3C"/>
</g>
</g>
<path fill-rule="evenodd" clip-rule="evenodd" d="M31.0784 2.71605C15.7254 2.71605 3.27929 15.1621 3.27929 30.5152C3.27929 45.8682 15.7254 58.3143 31.0784 58.3143C46.4314 58.3143 58.8775 45.8682 58.8775 30.5152C58.8775 15.1621 46.4314 2.71605 31.0784 2.71605ZM1.04956 30.5152C1.04956 13.9307 14.4939 0.486328 31.0784 0.486328C47.6628 0.486328 61.1072 13.9307 61.1072 30.5152C61.1072 47.0996 47.6628 60.544 31.0784 60.544C14.4939 60.544 1.04956 47.0996 1.04956 30.5152Z" fill="#0B3B3D"/>
<path fill-rule="evenodd" clip-rule="evenodd" d="M21.2944 15.656C22.2219 13.8644 24.0812 12.6348 26.2609 12.6348C29.3522 12.6348 31.8867 15.1693 31.8867 18.2606C31.8867 18.891 31.3757 19.402 30.7454 19.402C30.115 19.402 29.604 18.891 29.604 18.2606C29.604 16.43 28.0915 14.9174 26.2609 14.9174C24.7981 14.9174 23.5785 15.848 23.1291 17.155C22.9707 17.6159 22.5371 17.9254 22.0498 17.9254H21.777C18.3056 17.9254 15.4799 20.7504 15.4799 24.2218C15.4799 25.9261 16.1692 27.4624 17.2567 28.6445C17.4882 28.8961 17.5947 29.2381 17.547 29.5766C17.4992 29.9151 17.3022 30.2144 17.0102 30.3922C16.0905 30.952 15.4799 31.9509 15.4799 33.1908C15.4799 34.3221 16.0411 35.3012 16.9161 35.9262C17.3159 36.2118 17.4881 36.7211 17.3436 37.1906C17.1464 37.8317 17.0112 38.5346 17.0112 39.1519C17.0112 42.6233 19.8363 45.4483 23.3076 45.4483C26.779 45.4483 29.604 42.6233 29.604 39.1519V27.9953C29.604 27.365 30.115 26.854 30.7454 26.854C31.3757 26.854 31.8867 27.365 31.8867 27.9953V39.1519C31.8867 43.884 28.0397 47.731 23.3076 47.731C18.5756 47.731 14.7286 43.884 14.7286 39.1519C14.7286 38.5143 14.8225 37.8651 14.9609 37.2656C13.8892 36.2494 13.1973 34.8218 13.1973 33.1908C13.1973 31.6236 13.8043 30.2367 14.8085 29.2374C13.8176 27.8294 13.1973 26.1134 13.1973 24.2218C13.1973 19.6514 16.7858 15.9067 21.2944 15.656Z" fill="#0B3B3D"/>
<path fill-rule="evenodd" clip-rule="evenodd" d="M35.2299 14.9174C33.3992 14.9174 31.8867 16.43 31.8867 18.2606C31.8867 18.891 31.3757 19.402 30.7453 19.402C30.115 19.402 29.604 18.891 29.604 18.2606C29.604 15.1693 32.1385 12.6348 35.2299 12.6348C37.4096 12.6348 39.2688 13.8644 40.1963 15.656C44.7049 15.9067 48.2935 19.6514 48.2935 24.2218C48.2935 26.1152 47.6719 27.8326 46.6795 29.2413C47.6882 30.2563 48.2935 31.6689 48.2935 33.1908C48.2935 34.8218 47.6015 36.2494 46.5298 37.2656C46.6682 37.8651 46.7622 38.5143 46.7622 39.1519C46.7622 43.884 42.9151 47.731 38.1831 47.731C33.451 47.731 29.604 43.884 29.604 39.1519C29.604 38.5216 30.115 38.0106 30.7453 38.0106C31.3757 38.0106 31.8867 38.5216 31.8867 39.1519C31.8867 42.6233 34.7117 45.4483 38.1831 45.4483C41.6544 45.4483 44.4795 42.6233 44.4795 39.1519C44.4795 38.5346 44.3444 37.8317 44.1471 37.1906C44.0026 36.7211 44.1748 36.2118 44.5746 35.9262C45.4496 35.3012 46.0108 34.3221 46.0108 33.1908C46.0108 31.9977 45.3935 30.9479 44.4805 30.3922C44.1885 30.2144 43.9915 29.9151 43.9438 29.5766C43.896 29.2381 44.0025 28.8961 44.234 28.6445C45.3215 27.4624 46.0108 25.9261 46.0108 24.2218C46.0108 20.7504 43.1857 17.9254 39.7144 17.9254H39.4416C38.9542 17.9254 38.52 17.6159 38.3616 17.155C37.9123 15.848 36.6927 14.9174 35.2299 14.9174Z" fill="#0B3B3D"/>
<path fill-rule="evenodd" clip-rule="evenodd" d="M15.5707 28.5393C16.0251 28.1024 16.7476 28.1166 17.1845 28.571C18.3435 29.7763 19.9635 30.5177 21.776 30.5177C22.4064 30.5177 22.9174 31.0286 22.9174 31.659C22.9174 32.2893 22.4064 32.8003 21.776 32.8003C19.3229 32.8003 17.1146 31.7916 15.5391 30.1531C15.1022 29.6987 15.1164 28.9762 15.5707 28.5393Z" fill="#0B3B3D"/>
<path fill-rule="evenodd" clip-rule="evenodd" d="M45.9194 28.5393C46.3738 28.9762 46.3879 29.6987 45.951 30.1531C44.3755 31.7916 42.1673 32.8003 39.7141 32.8003C39.0837 32.8003 38.5728 32.2893 38.5728 31.659C38.5728 31.0286 39.0837 30.5177 39.7141 30.5177C41.5267 30.5177 43.1467 29.7763 44.3056 28.571C44.7425 28.1166 45.465 28.1024 45.9194 28.5393Z" fill="#0B3B3D"/>
<path fill-rule="evenodd" clip-rule="evenodd" d="M30.7455 17.1191C31.3758 17.1191 31.8868 17.6301 31.8868 18.2605C31.8868 21.3896 29.4233 23.6676 26.3703 23.6676C25.74 23.6676 25.229 23.1566 25.229 22.5262C25.229 21.8959 25.74 21.3849 26.3703 21.3849C28.2394 21.3849 29.6041 20.0534 29.6041 18.2605C29.6041 17.6301 30.1151 17.1191 30.7455 17.1191Z" fill="#0B3B3D"/>
<path fill-rule="evenodd" clip-rule="evenodd" d="M30.7453 17.1191C31.3757 17.1191 31.8867 17.6301 31.8867 18.2605C31.8867 20.0534 33.2514 21.3849 35.1205 21.3849C35.7508 21.3849 36.2618 21.8959 36.2618 22.5262C36.2618 23.1566 35.7508 23.6676 35.1205 23.6676C32.0675 23.6676 29.604 21.3896 29.604 18.2605C29.604 17.6301 30.115 17.1191 30.7453 17.1191Z" fill="#0B3B3D"/>
<path fill-rule="evenodd" clip-rule="evenodd" d="M24.1401 27.5424C24.5712 28.0022 24.5479 28.7245 24.088 29.1556C23.4177 29.784 22.9721 30.6952 22.9721 31.659C22.9721 33.0983 23.8776 34.3516 25.155 34.7907C25.7512 34.9957 26.0683 35.645 25.8634 36.2411C25.6585 36.8372 25.0091 37.1544 24.413 36.9494C22.1904 36.1854 20.6895 34.048 20.6895 31.659C20.6895 29.9978 21.447 28.5026 22.5268 27.4903C22.9867 27.0592 23.7089 27.0825 24.1401 27.5424Z" fill="#0B3B3D"/>
<path fill-rule="evenodd" clip-rule="evenodd" d="M37.3501 27.5424C37.7812 27.0825 38.5035 27.0592 38.9633 27.4903C40.0431 28.5026 40.8007 29.9978 40.8007 31.659C40.8007 34.048 39.2998 36.1854 37.0771 36.9494C36.481 37.1544 35.8317 36.8372 35.6268 36.2411C35.4218 35.645 35.739 34.9957 36.3351 34.7907C37.6126 34.3516 38.518 33.0983 38.518 31.659C38.518 30.6952 38.0724 29.784 37.4021 29.1556C36.9422 28.7245 36.9189 28.0022 37.3501 27.5424Z" fill="#0B3B3D"/>
</svg>
