<svg width="59" height="62" viewBox="0 0 59 62" fill="none" xmlns="http://www.w3.org/2000/svg">
<path fill-rule="evenodd" clip-rule="evenodd" d="M29.7526 3.27769C15.1591 3.27769 3.32875 15.825 3.32875 31.303C3.32875 46.7809 15.1591 59.3283 29.7526 59.3283C44.3461 59.3283 56.1765 46.7809 56.1765 31.303C56.1765 15.825 44.3461 3.27769 29.7526 3.27769ZM1.31934 31.303C1.31934 14.648 14.0493 1.14648 29.7526 1.14648C45.4559 1.14648 58.1859 14.648 58.1859 31.303C58.1859 47.958 45.4559 61.4595 29.7526 61.4595C14.0493 61.4595 1.31934 47.958 1.31934 31.303Z" fill="#0B3B3D"/>
<path fill-rule="evenodd" clip-rule="evenodd" d="M29.7527 35.2448C30.5322 35.1933 31.2664 34.8762 32.03 34.3697C32.6806 33.938 33.2942 33.4116 33.9601 32.8403C34.112 32.71 34.2665 32.5774 34.4249 32.443C36.0302 31.0809 38.0379 29.5085 40.7048 30.1529C41.7957 30.3643 42.6802 30.9717 43.4043 31.6511C44.0588 32.2652 44.6395 32.9956 45.1407 33.6259C45.1909 33.6891 45.2403 33.7513 45.2889 33.8122L45.3006 33.8268L45.3005 33.8269C47.9355 37.2527 50.8605 37.3708 55.5315 37.5594C55.788 37.5697 56.0499 37.5803 56.3172 37.5916L57.5589 37.6443L57.2503 38.921C54.1244 51.8508 42.9801 61.4602 29.7527 61.4602C16.5194 61.4602 5.48392 51.8457 2.25718 38.9293L1.93628 37.6447L3.18822 37.5916C3.45556 37.5803 3.71738 37.5697 3.97394 37.5594C8.64489 37.3708 11.5699 37.2527 14.205 33.8269L14.2164 33.8121L14.2165 33.8122C14.2339 33.7904 14.2514 33.7685 14.269 33.7464C15.3221 32.4258 16.7208 30.6718 18.7722 30.1599L18.7747 30.1593C21.4546 29.4983 23.47 31.0765 25.0805 32.443C25.2389 32.5774 25.3935 32.71 25.5453 32.8403C26.2112 33.4116 26.8248 33.938 27.4754 34.3697C28.239 34.8762 28.9732 35.1933 29.7527 35.2448ZM19.2311 32.2348C17.9036 32.5667 16.9047 33.7423 15.7562 35.1817C12.6127 39.2628 8.90312 39.5025 4.5523 39.6708C7.94462 51.0341 17.9092 59.329 29.7527 59.329C41.6041 59.329 51.6562 51.0262 54.9631 39.6711C50.608 39.5028 46.8951 39.266 43.7492 35.1817C43.7048 35.1259 43.6606 35.0704 43.6166 35.0152C43.0979 34.3637 42.6113 33.7525 42.0729 33.2474C41.4969 32.7069 40.9332 32.3597 40.3285 32.2466L40.3019 32.2416L40.2755 32.2351C38.6351 31.8305 37.335 32.7031 35.6802 34.1072C35.543 34.2236 35.4029 34.344 35.2599 34.4668C34.5903 35.0421 33.8601 35.6693 33.0955 36.1765C32.1482 36.805 31.0635 37.3111 29.8017 37.3764L29.7527 37.3789L29.7038 37.3764C28.4419 37.3111 27.3572 36.805 26.4099 36.1765C25.6453 35.6693 24.9152 35.0421 24.2455 34.4668C24.1026 34.344 23.9624 34.2236 23.8252 34.1072C22.1708 32.7035 20.871 31.8309 19.2311 32.2348Z" fill="#0B3B3D"/>
<path fill-rule="evenodd" clip-rule="evenodd" d="M26.1328 25.4767L30.4027 2.43066L28.2989 1.99219L23.7777 26.3945C23.7159 26.728 23.7981 27.0735 24.0017 27.336C24.2053 27.5986 24.5091 27.7507 24.8296 27.7507H33.671C33.9715 27.7507 34.2582 27.6169 34.4613 27.382C35.386 26.312 35.9126 25.2712 36.1174 24.2708C36.3242 23.2606 36.1859 22.3726 35.9054 21.6513C35.6303 20.9439 35.2252 20.4116 34.9021 20.0627C34.7385 19.886 34.5896 19.7496 34.4777 19.6544C34.4215 19.6066 34.3741 19.5688 34.338 19.5409C34.32 19.527 34.3047 19.5156 34.2926 19.5066L34.2767 19.495L34.2706 19.4906L34.268 19.4888L34.2668 19.4879C34.2662 19.4875 34.2657 19.4872 33.671 20.4332C33.0764 21.3792 33.0759 21.3789 33.0754 21.3785L33.0744 21.3778L33.0727 21.3766L33.0702 21.3748C33.0692 21.3741 33.0686 21.3737 33.0684 21.3735L33.0769 21.38C33.0878 21.3884 33.1084 21.4046 33.1364 21.4285C33.1929 21.4765 33.2771 21.5531 33.3725 21.6561C33.5674 21.8667 33.784 22.1603 33.9234 22.5185C34.0573 22.8627 34.1262 23.2801 34.0222 23.7884C33.9319 24.2293 33.6996 24.7952 33.1806 25.4767H26.1328Z" fill="#0B3B3D"/>
<path fill-rule="evenodd" clip-rule="evenodd" d="M22.6191 43.1152L23.3296 43.8687C27.0565 47.8215 33.0514 47.8215 36.7784 43.8687L37.4888 43.1152L38.9097 44.6222L38.1993 45.3757C33.6876 50.1608 26.4204 50.1608 21.9087 45.3757L21.1982 44.6222L22.6191 43.1152Z" fill="#0B3B3D"/>
<mask id="mask0" mask-type="alpha" maskUnits="userSpaceOnUse" x="1" y="30" width="57" height="32">
<path d="M29.7527 35.2448C30.5322 35.1933 31.2664 34.8762 32.03 34.3697C32.6806 33.938 33.2942 33.4116 33.9601 32.8403C34.1119 32.71 34.2665 32.5774 34.4249 32.443C36.0302 31.0809 38.0379 29.5085 40.7048 30.1529C41.7956 30.3643 42.6802 30.9717 43.4043 31.6511C44.0588 32.2652 44.6395 32.9956 45.1406 33.6259L45.1406 33.6259L45.2889 33.8122L45.3006 33.8268C47.9356 37.2526 50.8605 37.3708 55.5315 37.5594L55.5317 37.5594C55.7882 37.5697 56.0499 37.5803 56.3172 37.5916L57.5589 37.6443L57.2503 38.921C54.1244 51.8508 42.9801 61.4602 29.7527 61.4602C16.5194 61.4602 5.48392 51.8457 2.25718 38.9293L1.93628 37.6447L3.18822 37.5916C3.45556 37.5803 3.71738 37.5697 3.97394 37.5594C8.64489 37.3708 11.5699 37.2527 14.205 33.8269L14.2164 33.8121L14.269 33.7464C15.3221 32.4258 16.7208 30.6718 18.7722 30.1599L18.7747 30.1593C21.4545 29.4983 23.47 31.0765 25.0805 32.443C25.2389 32.5774 25.3935 32.71 25.5453 32.8403C26.2112 33.4116 26.8248 33.938 27.4754 34.3697C28.239 34.8762 28.9732 35.1933 29.7527 35.2448Z" fill="#C4C4C4"/>
</mask>
<g mask="url(#mask0)">
<path d="M8.47653 55.9047C8.47302 56.306 8.78534 56.6372 9.16367 56.6335C9.54199 56.6298 9.86019 56.2923 9.8637 55.891C9.86721 55.4898 9.55489 55.1585 9.17656 55.1623C8.79824 55.166 8.48004 55.5035 8.47653 55.9047Z" fill="#0A3B3C"/>
<path d="M3.8315 60.8325C3.82799 61.2337 4.14032 61.565 4.51864 61.5613C4.89697 61.5575 5.21517 61.22 5.21868 60.8188C5.2222 60.4175 4.90987 60.0863 4.53154 60.09C4.15322 60.0937 3.83502 60.4312 3.8315 60.8325Z" fill="#0A3B3C"/>
<path d="M1.58272 58.4458C1.57921 58.847 1.89161 59.1783 2.26994 59.1746C2.64826 59.1709 2.96646 58.8334 2.96998 58.4321C2.97349 58.0309 2.66109 57.6996 2.28276 57.7033C1.90444 57.707 1.58624 58.0445 1.58272 58.4458Z" fill="#0A3B3C"/>
<path d="M6.18624 58.3344C6.18273 58.7357 6.49506 59.0669 6.87338 59.0632C7.25171 59.0595 7.5699 58.722 7.57342 58.3207C7.57693 57.9195 7.26461 57.5882 6.88628 57.592C6.50796 57.5957 6.18976 57.9332 6.18624 58.3344Z" fill="#0A3B3C"/>
<path d="M3.93722 55.9497C3.93371 56.3509 4.24611 56.6822 4.62444 56.6785C5.00276 56.6748 5.32096 56.3373 5.32447 55.9361C5.32798 55.5348 5.01558 55.2035 4.63726 55.2072C4.25893 55.2109 3.94074 55.5484 3.93722 55.9497Z" fill="#0A3B3C"/>
<path d="M1.62643 53.4985C1.62292 53.8997 1.93532 54.2311 2.31365 54.2273C2.69197 54.2236 3.01017 53.8861 3.01368 53.4849C3.01719 53.0836 2.70479 52.7523 2.32647 52.756C1.94814 52.7597 1.62995 53.0972 1.62643 53.4985Z" fill="#0A3B3C"/>
<path d="M8.47726 55.9047C8.47375 56.306 8.78608 56.6372 9.1644 56.6335C9.54272 56.6298 9.86092 56.2923 9.86443 55.8911C9.86795 55.4898 9.55562 55.1585 9.1773 55.1623C8.79897 55.166 8.48078 55.5035 8.47726 55.9047Z" fill="#0A3B3C"/>
<path d="M17.7043 46.1176C17.7008 46.5189 18.0131 46.8501 18.3914 46.8464C18.7698 46.8427 19.088 46.5052 19.0915 46.1039C19.095 45.7027 18.7827 45.3714 18.4043 45.3752C18.026 45.3789 17.7078 45.7164 17.7043 46.1176Z" fill="#0A3B3C"/>
<path d="M8.47702 55.9047C8.4735 56.306 8.78583 56.6372 9.16415 56.6335C9.54248 56.6298 9.86067 56.2923 9.86419 55.891C9.8677 55.4898 9.55538 55.1585 9.17705 55.1623C8.79873 55.166 8.48053 55.5035 8.47702 55.9047Z" fill="#0A3B3C"/>
<path d="M8.51901 51.0903C8.51549 51.4915 8.8279 51.8229 9.20622 51.8191C9.58455 51.8154 9.90274 51.4779 9.90626 51.0767C9.90977 50.6754 9.59737 50.3441 9.21904 50.3478C8.84072 50.3515 8.52252 50.689 8.51901 51.0903Z" fill="#0A3B3C"/>
<path d="M6.20822 48.6391C6.2047 49.0404 6.51711 49.3717 6.89543 49.368C7.27375 49.3642 7.59195 49.0268 7.59546 48.6255C7.59898 48.2243 7.28658 47.8929 6.90825 47.8966C6.52993 47.9004 6.21173 48.2379 6.20822 48.6391Z" fill="#0A3B3C"/>
<path d="M13.1228 50.977C13.1193 51.3782 13.4316 51.7095 13.8099 51.7058C14.1882 51.702 14.5064 51.3646 14.5099 50.9633C14.5135 50.5621 14.2011 50.2308 13.8228 50.2345C13.3808 50.3058 13.1263 50.5757 13.1228 50.977Z" fill="#0A3B3C"/>
<path d="M10.8737 48.5922C10.8702 48.9935 11.1826 49.3248 11.561 49.3211C11.9393 49.3174 12.2575 48.9799 12.261 48.5786C12.2645 48.1774 11.9521 47.846 11.5738 47.8498C11.1318 47.921 10.8773 48.191 10.8737 48.5922Z" fill="#0A3B3C"/>
<path d="M8.56296 46.1411C8.55944 46.5423 8.87184 46.8736 9.25017 46.8699C9.62849 46.8662 9.94669 46.5287 9.9502 46.1275C9.95371 45.7262 9.64131 45.3949 9.26299 45.3986C8.82103 45.4698 8.56647 45.7398 8.56296 46.1411Z" fill="#0A3B3C"/>
<path d="M10.768 53.475C10.7645 53.8763 11.0768 54.2075 11.4552 54.2038C11.8335 54.2001 12.1517 53.8626 12.1552 53.4614C12.1587 53.0601 11.8464 52.7289 11.4681 52.7326C11.0897 52.7363 10.7715 53.0738 10.768 53.475Z" fill="#0A3B3C"/>
<path d="M15.4138 48.5473C15.4103 48.9486 15.7226 49.2798 16.1009 49.2761C16.4792 49.2724 16.7974 48.9349 16.801 48.5336C16.8045 48.1324 16.4921 47.8011 16.1138 47.8048C15.7355 47.8086 15.4173 48.1461 15.4138 48.5473Z" fill="#0A3B3C"/>
<path d="M13.1648 46.1625C13.1613 46.5638 13.4737 46.8951 13.852 46.8914C14.2303 46.8877 14.5485 46.5502 14.552 46.1489C14.5555 45.7477 14.2431 45.4164 13.8648 45.4201C13.4865 45.4238 13.1683 45.7613 13.1648 46.1625Z" fill="#0A3B3C"/>
<path d="M10.854 43.7114C10.8505 44.1126 11.1629 44.444 11.5412 44.4402C11.9195 44.4365 12.2377 44.099 12.2412 43.6978C12.2447 43.2965 11.9323 42.9652 11.554 42.9689C11.1757 42.9726 10.8575 43.3101 10.854 43.7114Z" fill="#0A3B3C"/>
<path d="M17.7048 46.1176C17.7013 46.5189 18.0136 46.8501 18.3919 46.8464C18.7703 46.8427 19.0885 46.5052 19.092 46.1039C19.0955 45.7027 18.7832 45.3714 18.4048 45.3752C18.0265 45.3789 17.7083 45.7164 17.7048 46.1176Z" fill="#0A3B3C"/>
<path d="M3.93649 55.9477C3.93297 56.349 4.24538 56.6803 4.6237 56.6766C5.00203 56.6728 5.32022 56.3354 5.32374 55.9341C5.32725 55.5328 5.01485 55.2015 4.63652 55.2052C4.2582 55.209 3.94 55.5464 3.93649 55.9477Z" fill="#0A3B3C"/>
<path d="M1.6257 53.4965C1.62218 53.8978 1.93459 54.2291 2.31291 54.2254C2.69123 54.2217 3.00943 53.8842 3.01294 53.4829C3.01646 53.0817 2.70406 52.7503 2.32573 52.7541C1.94741 52.7578 1.62921 53.0953 1.6257 53.4965Z" fill="#0A3B3C"/>
<path d="M1.66745 48.6821C1.66393 49.0833 1.97626 49.4146 2.35458 49.4109C2.73291 49.4071 3.0511 49.0696 3.05462 48.6684C3.05813 48.2671 2.74581 47.9359 2.36748 47.9396C1.98916 47.9433 1.67096 48.2808 1.66745 48.6821Z" fill="#0A3B3C"/>
<path d="M6.22751 53.518C6.22399 53.9193 6.53639 54.2506 6.91472 54.2469C7.29304 54.2431 7.61124 53.9057 7.61475 53.5044C7.61827 53.1032 7.30587 52.7718 6.92754 52.7755C6.54922 52.7793 6.23102 53.1168 6.22751 53.518Z" fill="#0A3B3C"/>
<path d="M3.91671 51.0668C3.9132 51.4681 4.2256 51.7994 4.60393 51.7957C4.98225 51.792 5.30045 51.4545 5.30396 51.0532C5.30748 50.652 4.99507 50.3207 4.61675 50.3244C4.23843 50.3281 3.92023 50.6656 3.91671 51.0668Z" fill="#0A3B3C"/>
<path d="M3.95846 46.2524C3.95495 46.6536 4.26728 46.9849 4.6456 46.9812C5.02392 46.9774 5.34212 46.64 5.34563 46.2387C5.34915 45.8375 5.03682 45.5062 4.6585 45.5099C4.28017 45.5137 3.96198 45.8511 3.95846 46.2524Z" fill="#0A3B3C"/>
<path d="M8.47653 55.9047C8.47301 56.306 8.78534 56.6372 9.16366 56.6335C9.54199 56.6298 9.86019 56.2923 9.8637 55.891C9.86721 55.4898 9.55489 55.1585 9.17656 55.1623C8.79824 55.166 8.48004 55.5035 8.47653 55.9047Z" fill="#0A3B3C"/>
<path d="M8.51852 51.0903C8.51501 51.4915 8.82741 51.8229 9.20574 51.8191C9.58406 51.8154 9.90226 51.4779 9.90577 51.0767C9.90928 50.6754 9.59688 50.3441 9.21856 50.3478C8.84023 50.3515 8.52204 50.689 8.51852 51.0903Z" fill="#0A3B3C"/>
<path d="M6.20773 48.6391C6.20422 49.0404 6.51662 49.3717 6.89495 49.368C7.27327 49.3642 7.59147 49.0268 7.59498 48.6255C7.59849 48.2243 7.28609 47.8929 6.90777 47.8966C6.52944 47.9004 6.21124 48.2378 6.20773 48.6391Z" fill="#0A3B3C"/>
<path d="M17.7048 46.1176C17.7013 46.5189 18.0136 46.8501 18.3919 46.8464C18.7703 46.8427 19.0885 46.5052 19.092 46.1039C19.0955 45.7027 18.7832 45.3714 18.4048 45.3752C18.0265 45.3789 17.7083 45.7164 17.7048 46.1176Z" fill="#0A3B3C"/>
<path d="M17.747 41.3012C17.7435 41.7025 18.0559 42.0338 18.4342 42.0301C18.8126 42.0263 19.1308 41.6889 19.1343 41.2876C19.1378 40.8864 18.8254 40.555 18.4471 40.5588C18.0687 40.5625 17.7506 40.9 17.747 41.3012Z" fill="#0A3B3C"/>
<path d="M15.436 38.852C15.4325 39.2532 15.7449 39.5846 16.1232 39.5809C16.5015 39.5771 16.8197 39.2396 16.8232 38.8384C16.8268 38.4371 16.5144 38.1058 16.136 38.1095C15.7577 38.1133 15.4395 38.4507 15.436 38.852Z" fill="#0A3B3C"/>
<path d="M22.3506 41.1899C22.347 41.5911 22.6594 41.9224 23.0377 41.9187C23.416 41.9149 23.7342 41.5775 23.7377 41.1762C23.7412 40.775 23.4289 40.4437 23.0506 40.4474C22.6723 40.4512 22.3541 40.7886 22.3506 41.1899Z" fill="#0A3B3C"/>
<path d="M20.1015 38.8051C20.098 39.2064 20.4104 39.5377 20.7887 39.534C21.1671 39.5303 21.4853 39.1928 21.4888 38.7915C21.4923 38.3903 21.1799 38.0589 20.8016 38.0627C20.4232 38.0664 20.105 38.4039 20.1015 38.8051Z" fill="#0A3B3C"/>
<path d="M17.7907 36.3539C17.7872 36.7552 18.0996 37.0865 18.478 37.0828C18.8563 37.0791 19.1745 36.7416 19.178 36.3403C19.1815 35.9391 18.8691 35.6078 18.4908 35.6115C18.1124 35.6152 17.7943 35.9527 17.7907 36.3539Z" fill="#0A3B3C"/>
<path d="M19.9958 43.6879C19.9923 44.0892 20.3046 44.4204 20.683 44.4167C21.0613 44.413 21.3795 44.0755 21.383 43.6743C21.3865 43.273 21.0742 42.9417 20.6959 42.9455C20.3175 42.9492 19.9993 43.2867 19.9958 43.6879Z" fill="#0A3B3C"/>
<path d="M8.60421 41.3247C8.6007 41.7259 8.91303 42.0572 9.29135 42.0534C9.66968 42.0497 9.98787 41.7122 9.99139 41.311C9.9949 40.9097 9.68257 40.5785 9.30425 40.5822C8.92593 40.5859 8.60773 40.9234 8.60421 41.3247Z" fill="#0A3B3C"/>
<path d="M13.1643 46.1606C13.1608 46.5618 13.4732 46.8932 13.8515 46.8895C14.2298 46.8857 14.548 46.5482 14.5515 46.147C14.555 45.7457 14.2426 45.4144 13.8643 45.4181C13.486 45.4219 13.1678 45.7593 13.1643 46.1606Z" fill="#0A3B3C"/>
<path d="M10.8535 43.7094C10.85 44.1107 11.1624 44.442 11.5407 44.4383C11.919 44.4346 12.2372 44.0971 12.2407 43.6958C12.2442 43.2946 11.9318 42.9632 11.5535 42.967C11.1752 42.9707 10.857 43.3082 10.8535 43.7094Z" fill="#0A3B3C"/>
<path d="M10.8952 38.895C10.8917 39.2962 11.204 39.6275 11.5824 39.6237C11.9607 39.62 12.2789 39.2825 12.2824 38.8813C12.2859 38.48 11.9736 38.1488 11.5953 38.1525C11.2169 38.1562 10.8987 38.4937 10.8952 38.895Z" fill="#0A3B3C"/>
<path d="M15.4553 43.7309C15.4518 44.1322 15.7642 44.4635 16.1425 44.4598C16.5208 44.456 16.839 44.1186 16.8425 43.7173C16.8461 43.3161 16.5336 42.9847 16.1553 42.9884C15.777 42.9922 15.4588 43.3296 15.4553 43.7309Z" fill="#0A3B3C"/>
<path d="M13.1445 41.2797C13.141 41.681 13.4534 42.0123 13.8317 42.0086C14.21 42.0049 14.5282 41.6674 14.5317 41.2661C14.5353 40.8649 14.2229 40.5335 13.8445 40.5373C13.4662 40.541 13.148 40.8785 13.1445 41.2797Z" fill="#0A3B3C"/>
<path d="M8.64645 36.5102C8.64294 36.9114 8.95527 37.2427 9.33359 37.239C9.71191 37.2353 10.0301 36.8978 10.0336 36.4965C10.0371 36.0953 9.72481 35.764 9.34649 35.7677C8.96816 35.7715 8.64997 36.1089 8.64645 36.5102Z" fill="#0A3B3C"/>
<path d="M13.1862 36.4653C13.1827 36.8665 13.4951 37.1978 13.8734 37.1941C14.2517 37.1903 14.5699 36.8528 14.5734 36.4516C14.5769 36.0503 14.2646 35.7191 13.8863 35.7228C13.508 35.7265 13.1898 36.064 13.1862 36.4653Z" fill="#0A3B3C"/>
<path d="M17.7043 46.1176C17.7008 46.5189 18.0131 46.8501 18.3915 46.8464C18.7698 46.8427 19.088 46.5052 19.0915 46.1039C19.095 45.7027 18.7827 45.3714 18.4043 45.3752C18.026 45.3789 17.7078 45.7164 17.7043 46.1176Z" fill="#0A3B3C"/>
<path d="M17.7463 41.3032C17.7428 41.7044 18.0552 42.0358 18.4335 42.032C18.8118 42.0283 19.13 41.6908 19.1336 41.2896C19.1371 40.8883 18.8247 40.557 18.4463 40.5607C18.068 40.5644 17.7498 40.9019 17.7463 41.3032Z" fill="#0A3B3C"/>
<path d="M15.4355 38.852C15.432 39.2532 15.7444 39.5846 16.1227 39.5809C16.5011 39.5771 16.8192 39.2397 16.8228 38.8384C16.8263 38.4371 16.5139 38.1058 16.1355 38.1095C15.7572 38.1133 15.439 38.4507 15.4355 38.852Z" fill="#0A3B3C"/>
<path d="M3.95871 46.2524C3.95519 46.6536 4.26752 46.9849 4.64585 46.9812C5.02417 46.9774 5.34237 46.64 5.34588 46.2387C5.34939 45.8375 5.03707 45.5062 4.65874 45.5099C4.28042 45.5137 3.96222 45.8511 3.95871 46.2524Z" fill="#0A3B3C"/>
<path d="M4.06466 41.3696C4.06115 41.7708 4.37348 42.1021 4.7518 42.0984C5.13012 42.0946 5.44832 41.7571 5.45183 41.3559C5.45535 40.9546 5.14302 40.6234 4.7647 40.6271C4.32274 40.6983 4.06818 40.9683 4.06466 41.3696Z" fill="#0A3B3C"/>
<path d="M1.81564 38.9848C1.81213 39.3861 2.12453 39.7174 2.50285 39.7137C2.88118 39.7099 3.19937 39.3725 3.20289 38.9712C3.2064 38.57 2.894 38.2386 2.51568 38.2423C2.07371 38.3136 1.81915 38.5836 1.81564 38.9848Z" fill="#0A3B3C"/>
<path d="M1.70993 43.8676C1.70641 44.2689 2.01874 44.6001 2.39706 44.5964C2.77539 44.5927 3.09358 44.2552 3.0971 43.8539C3.10061 43.4527 2.78829 43.1214 2.40996 43.1252C2.03164 43.1289 1.71344 43.4664 1.70993 43.8676Z" fill="#0A3B3C"/>
<path d="M6.35568 38.9399C6.35217 39.3411 6.66449 39.6724 7.04282 39.6687C7.42114 39.6649 7.73934 39.3275 7.74285 38.9262C7.74636 38.525 7.43404 38.1937 7.05571 38.1974C6.67739 38.2012 6.35919 38.5386 6.35568 38.9399Z" fill="#0A3B3C"/>
<path d="M6.31344 43.7563C6.30993 44.1575 6.62226 44.4888 7.00058 44.4851C7.3789 44.4813 7.6971 44.1439 7.70061 43.7426C7.70413 43.3414 7.3918 43.0101 7.01348 43.0138C6.57151 43.0851 6.31696 43.355 6.31344 43.7563Z" fill="#0A3B3C"/>
<path d="M4.10666 36.5551C4.10314 36.9564 4.41555 37.2877 4.79387 37.284C5.17219 37.2803 5.49039 36.9428 5.4939 36.5415C5.49742 36.1403 5.18501 35.8089 4.80669 35.8127C4.42837 35.8164 4.11017 36.1539 4.10666 36.5551Z" fill="#0A3B3C"/>
<path d="M8.60446 41.3266C8.60095 41.7279 8.91327 42.0591 9.2916 42.0554C9.66992 42.0517 9.98812 41.7142 9.99163 41.3129C9.99514 40.9117 9.68282 40.5804 9.30449 40.5841C8.92617 40.5879 8.60797 40.9253 8.60446 41.3266Z" fill="#0A3B3C"/>
<path d="M8.6467 36.5102C8.64318 36.9114 8.95551 37.2427 9.33383 37.239C9.71216 37.2353 10.0304 36.8978 10.0339 36.4965C10.0374 36.0953 9.72505 35.764 9.34673 35.7677C8.96841 35.7715 8.65021 36.1089 8.6467 36.5102Z" fill="#0A3B3C"/>
<path d="M8.6467 36.5102C8.64318 36.9114 8.95551 37.2427 9.33383 37.239C9.71216 37.2353 10.0304 36.8978 10.0339 36.4965C10.0374 36.0953 9.72505 35.764 9.34673 35.7677C8.96841 35.7715 8.65021 36.1089 8.6467 36.5102Z" fill="#0A3B3C"/>
<path d="M8.68869 31.6957C8.68517 32.097 8.99758 32.4283 9.3759 32.4246C9.75422 32.4209 10.0724 32.0834 10.0759 31.6821C10.0794 31.2809 9.76705 30.9496 9.38872 30.9533C9.0104 30.957 8.6922 31.2945 8.68869 31.6957Z" fill="#0A3B3C"/>
<path d="M13.1865 36.4653C13.183 36.8665 13.4953 37.1978 13.8736 37.1941C14.252 37.1903 14.5701 36.8528 14.5737 36.4516C14.5772 36.0503 14.2648 35.7191 13.8865 35.7228C13.5082 35.7265 13.19 36.064 13.1865 36.4653Z" fill="#0A3B3C"/>
<path d="M13.2924 31.5825C13.2889 31.9837 13.6013 32.315 13.9796 32.3112C14.3579 32.3075 14.6761 31.97 14.6796 31.5688C14.6831 31.1675 14.3708 30.8363 13.9925 30.84C13.6142 30.8437 13.296 31.1812 13.2924 31.5825Z" fill="#0A3B3C"/>
<path d="M11.0434 29.1977C11.0399 29.5989 11.3523 29.9303 11.7306 29.9266C12.109 29.9228 12.4272 29.5854 12.4307 29.1841C12.4342 28.7828 12.1218 28.4515 11.7435 28.4552C11.3651 28.459 11.0469 28.7964 11.0434 29.1977Z" fill="#0A3B3C"/>
<path d="M10.9377 34.0805C10.9342 34.4818 11.2465 34.813 11.6248 34.8093C12.0032 34.8056 12.3214 34.4681 12.3249 34.0668C12.3284 33.6656 12.0161 33.3343 11.6377 33.338C11.2594 33.3418 10.9412 33.6793 10.9377 34.0805Z" fill="#0A3B3C"/>
<path d="M15.5412 33.9672C15.5377 34.3685 15.85 34.6997 16.2284 34.696C16.6067 34.6923 16.9249 34.3548 16.9284 33.9535C16.9319 33.5523 16.6196 33.221 16.2413 33.2248C15.8629 33.2285 15.5447 33.566 15.5412 33.9672Z" fill="#0A3B3C"/>
<path d="M4.10666 36.5532C4.10314 36.9544 4.41555 37.2858 4.79387 37.282C5.17219 37.2783 5.49039 36.9408 5.4939 36.5396C5.49742 36.1383 5.18501 35.807 4.80669 35.8107C4.42837 35.8144 4.11017 36.1519 4.10666 36.5532Z" fill="#0A3B3C"/>
<path d="M4.08639 31.6723C4.08288 32.0736 4.39521 32.4048 4.77353 32.4011C5.15185 32.3974 5.47005 32.0599 5.47356 31.6586C5.47708 31.2574 5.16475 30.9261 4.78643 30.9298C4.4081 30.9336 4.08991 31.2711 4.08639 31.6723Z" fill="#0A3B3C"/>
<path d="M1.83761 29.2875C1.8341 29.6888 2.14643 30.02 2.52475 30.0163C2.90307 30.0126 3.22127 29.6751 3.22478 29.2739C3.2283 28.8726 2.91597 28.5414 2.53765 28.5451C2.15932 28.5488 1.84113 28.8863 1.83761 29.2875Z" fill="#0A3B3C"/>
<path d="M1.79562 34.102C1.79211 34.5032 2.10443 34.8345 2.48276 34.8308C2.86108 34.827 3.17928 34.4896 3.18279 34.0883C3.18631 33.6871 2.87398 33.3558 2.49566 33.3595C2.11733 33.3633 1.79913 33.7007 1.79562 34.102Z" fill="#0A3B3C"/>
<path d="M6.37741 29.2426C6.37389 29.6439 6.68622 29.9751 7.06454 29.9714C7.44287 29.9677 7.76107 29.6302 7.76458 29.2289C7.76809 28.8277 7.45577 28.4964 7.07744 28.5002C6.69912 28.5039 6.38092 28.8414 6.37741 29.2426Z" fill="#0A3B3C"/>
<path d="M6.39767 34.1235C6.39416 34.5247 6.70656 34.8561 7.08489 34.8523C7.46321 34.8486 7.78141 34.5111 7.78492 34.1099C7.78843 33.7086 7.47603 33.3773 7.09771 33.381C6.71938 33.3847 6.40119 33.7222 6.39767 34.1235Z" fill="#0A3B3C"/>
<path d="M8.6467 36.5082C8.64318 36.9095 8.95551 37.2408 9.33383 37.237C9.71216 37.2333 10.0304 36.8958 10.0339 36.4946C10.0374 36.0933 9.72505 35.7621 9.34673 35.7658C8.96841 35.7695 8.65021 36.107 8.6467 36.5082Z" fill="#0A3B3C"/>
<path d="M8.68869 31.6938C8.68517 32.095 8.99758 32.4264 9.3759 32.4227C9.75422 32.4189 10.0724 32.0814 10.0759 31.6802C10.0794 31.2789 9.76705 30.9476 9.38872 30.9513C9.0104 30.9551 8.6922 31.2925 8.68869 31.6938Z" fill="#0A3B3C"/>
<path d="M33.9323 28.9047C33.9288 29.306 34.2412 29.6372 34.6195 29.6335C34.9978 29.6298 35.316 29.2923 35.3195 28.8911C35.323 28.4898 35.0107 28.1585 34.6324 28.1623C34.2541 28.166 33.9359 28.5035 33.9323 28.9047Z" fill="#0A3B3C"/>
<path d="M24.7053 38.6918C24.7018 39.0931 25.0141 39.4244 25.3924 39.4206C25.7707 39.4169 26.0889 39.0794 26.0925 38.6782C26.096 38.2769 25.7836 37.9457 25.4053 37.9494C25.027 37.9531 24.7088 38.2906 24.7053 38.6918Z" fill="#0A3B3C"/>
<path d="M24.7473 33.8774C24.7438 34.2786 25.0562 34.61 25.4345 34.6062C25.8128 34.6025 26.131 34.265 26.1345 33.8638C26.138 33.4625 25.8256 33.1312 25.4473 33.1349C25.069 33.1387 24.7508 33.4761 24.7473 33.8774Z" fill="#0A3B3C"/>
<path d="M22.4365 31.4262C22.433 31.8275 22.7454 32.1588 23.1237 32.1551C23.502 32.1513 23.8202 31.8139 23.8237 31.4126C23.8273 31.0114 23.5148 30.68 23.1365 30.6838C22.7582 30.6875 22.44 31.025 22.4365 31.4262Z" fill="#0A3B3C"/>
<path d="M29.2873 33.8325C29.2838 34.2337 29.5961 34.565 29.9745 34.5613C30.3528 34.5575 30.671 34.22 30.6745 33.8188C30.678 33.4175 30.3657 33.0863 29.9874 33.09C29.609 33.0937 29.2908 33.4312 29.2873 33.8325Z" fill="#0A3B3C"/>
<path d="M27.0385 31.4458C27.035 31.847 27.3474 32.1783 27.7257 32.1746C28.1041 32.1709 28.4223 31.8334 28.4258 31.4321C28.4293 31.0309 28.1169 30.6996 27.7386 30.7033C27.3603 30.707 27.042 31.0445 27.0385 31.4458Z" fill="#0A3B3C"/>
<path d="M24.7275 28.9965C24.724 29.3978 25.0364 29.7291 25.4147 29.7254C25.793 29.7217 26.1112 29.3842 26.1148 28.9829C26.1183 28.5817 25.8059 28.2503 25.4275 28.2541C25.0492 28.2578 24.731 28.5953 24.7275 28.9965Z" fill="#0A3B3C"/>
<path d="M26.9963 36.2621C26.9928 36.6634 27.3051 36.9947 27.6834 36.9909C28.0618 36.9872 28.38 36.6497 28.3835 36.2485C28.387 35.8472 28.0747 35.516 27.6963 35.5197C27.318 35.5234 26.9998 35.8609 26.9963 36.2621Z" fill="#0A3B3C"/>
<path d="M31.6421 31.3344C31.6385 31.7357 31.9509 32.0669 32.3292 32.0632C32.7075 32.0595 33.0257 31.722 33.0292 31.3207C33.0327 30.9195 32.7204 30.5882 32.3421 30.592C31.9638 30.5957 31.6456 30.9332 31.6421 31.3344Z" fill="#0A3B3C"/>
<path d="M29.393 28.9497C29.3895 29.3509 29.7019 29.6822 30.0802 29.6785C30.4586 29.6748 30.7768 29.3373 30.7803 28.9361C30.7838 28.5348 30.4714 28.2035 30.0931 28.2072C29.7147 28.2109 29.3965 28.5484 29.393 28.9497Z" fill="#0A3B3C"/>
<path d="M33.9331 28.9047C33.9296 29.306 34.2419 29.6372 34.6202 29.6335C34.9985 29.6298 35.3167 29.2923 35.3202 28.8911C35.3238 28.4898 35.0114 28.1585 34.6331 28.1623C34.2548 28.166 33.9366 28.5035 33.9331 28.9047Z" fill="#0A3B3C"/>
<path d="M17.8957 31.4692C17.8922 31.8704 18.2045 32.2017 18.5829 32.198C18.9612 32.1942 19.2794 31.8568 19.2829 31.4555C19.2864 31.0542 18.9741 30.723 18.5958 30.7267C18.2174 30.7304 17.8992 31.0679 17.8957 31.4692Z" fill="#0A3B3C"/>
<path d="M22.4558 36.3051C22.4523 36.7064 22.7647 37.0377 23.143 37.034C23.5213 37.0303 23.8395 36.6928 23.843 36.2915C23.8465 35.8903 23.5341 35.5589 23.1558 35.5627C22.7775 35.5664 22.4593 35.9039 22.4558 36.3051Z" fill="#0A3B3C"/>
<path d="M20.145 33.854C20.1415 34.2552 20.4539 34.5865 20.8322 34.5828C21.2105 34.5791 21.5287 34.2416 21.5322 33.8403C21.5357 33.4391 21.2233 33.1078 20.845 33.1115C20.4667 33.1152 20.1485 33.4527 20.145 33.854Z" fill="#0A3B3C"/>
<path d="M15.6469 29.0844C15.6434 29.4857 15.9557 29.8169 16.3341 29.8132C16.7124 29.8095 17.0306 29.472 17.0341 29.0707C17.0376 28.6695 16.7253 28.3382 16.347 28.342C15.9686 28.3457 15.6504 28.6832 15.6469 29.0844Z" fill="#0A3B3C"/>
<path d="M20.1867 29.0395C20.1832 29.4407 20.4956 29.772 20.8739 29.7683C21.2522 29.7645 21.5704 29.4271 21.5739 29.0258C21.5774 28.6246 21.2651 28.2933 20.8868 28.297C20.5084 28.3008 20.1903 28.6382 20.1867 29.0395Z" fill="#0A3B3C"/>
<path d="M24.7048 38.6918C24.7013 39.0931 25.0136 39.4244 25.3919 39.4206C25.7703 39.4169 26.0885 39.0794 26.092 38.6782C26.0955 38.2769 25.7832 37.9457 25.4048 37.9494C25.0265 37.9531 24.7083 38.2906 24.7048 38.6918Z" fill="#0A3B3C"/>
<path d="M24.7468 33.8774C24.7433 34.2786 25.0557 34.61 25.434 34.6062C25.8123 34.6025 26.1305 34.265 26.134 33.8638C26.1376 33.4625 25.8252 33.1312 25.4468 33.1349C25.0685 33.1387 24.7503 33.4761 24.7468 33.8774Z" fill="#0A3B3C"/>
<path d="M22.436 31.4262C22.4325 31.8275 22.7449 32.1588 23.1232 32.1551C23.5015 32.1513 23.8197 31.8139 23.8233 31.4126C23.8268 31.0114 23.5144 30.68 23.136 30.6838C22.7577 30.6875 22.4395 31.025 22.436 31.4262Z" fill="#0A3B3C"/>
<path d="M33.9328 28.9047C33.9293 29.306 34.2416 29.6372 34.62 29.6335C34.9983 29.6298 35.3165 29.2923 35.32 28.8911C35.3235 28.4898 35.0112 28.1585 34.6329 28.1623C34.2545 28.166 33.9363 28.5035 33.9328 28.9047Z" fill="#0A3B3C"/>
<path d="M29.3923 28.9477C29.3888 29.349 29.7012 29.6803 30.0795 29.6766C30.4578 29.6728 30.776 29.3354 30.7795 28.9341C30.7831 28.5328 30.4707 28.2015 30.0923 28.2052C29.714 28.209 29.3958 28.5464 29.3923 28.9477Z" fill="#0A3B3C"/>
<path d="M33.9323 28.9047C33.9288 29.306 34.2412 29.6372 34.6195 29.6335C34.9978 29.6298 35.316 29.2923 35.3195 28.891C35.323 28.4898 35.0107 28.1585 34.6324 28.1623C34.2541 28.166 33.9359 28.5035 33.9323 28.9047Z" fill="#0A3B3C"/>
<path d="M15.6469 29.0844C15.6434 29.4857 15.9557 29.8169 16.3341 29.8132C16.7124 29.8095 17.0306 29.472 17.0341 29.0707C17.0376 28.6695 16.7253 28.3382 16.347 28.342C15.9686 28.3457 15.6504 28.6832 15.6469 29.0844Z" fill="#0A3B3C"/>
<path d="M20.1867 29.0395C20.1832 29.4407 20.4955 29.772 20.8739 29.7683C21.2522 29.7645 21.5704 29.4271 21.5739 29.0258C21.5774 28.6246 21.2651 28.2933 20.8868 28.297C20.5084 28.3008 20.1903 28.6382 20.1867 29.0395Z" fill="#0A3B3C"/>
<path d="M15.6469 29.0844C15.6434 29.4857 15.9557 29.8169 16.3341 29.8132C16.7124 29.8095 17.0306 29.472 17.0341 29.0707C17.0376 28.6695 16.7253 28.3382 16.347 28.342C15.9686 28.3457 15.6504 28.6832 15.6469 29.0844Z" fill="#0A3B3C"/>
<path d="M35.8012 60.4497C35.7977 60.8509 36.1101 61.1822 36.4884 61.1785C36.8668 61.1748 37.185 60.8373 37.1885 60.4361C37.192 60.0348 36.8796 59.7035 36.5013 59.7072C36.1229 59.7109 35.8048 60.0484 35.8012 60.4497Z" fill="#0A3B3C"/>
<path d="M40.4668 60.4028C40.4632 60.804 40.7757 61.1354 41.154 61.1316C41.5323 61.1279 41.8505 60.7904 41.854 60.3892C41.8575 59.9879 41.5451 59.6566 41.1668 59.6603C40.7885 59.664 40.4703 60.0015 40.4668 60.4028Z" fill="#0A3B3C"/>
<path d="M38.156 57.9516C38.1525 58.3529 38.4649 58.6842 38.8432 58.6805C39.2215 58.6767 39.5397 58.3393 39.5432 57.938C39.5467 57.5368 39.2343 57.2054 38.856 57.2091C38.4777 57.2129 38.1595 57.5504 38.156 57.9516Z" fill="#0A3B3C"/>
<path d="M31.2605 60.4926C31.257 60.8939 31.5693 61.2251 31.9476 61.2214C32.3259 61.2177 32.6441 60.8802 32.6476 60.4789C32.6511 60.0777 32.3388 59.7464 31.9605 59.7502C31.5822 59.7539 31.264 60.0914 31.2605 60.4926Z" fill="#0A3B3C"/>
<path d="M29.0117 58.1079C29.0082 58.5091 29.3205 58.8404 29.6988 58.8366C30.0771 58.8329 30.3953 58.4954 30.3989 58.0942C30.4024 57.6929 30.09 57.3617 29.7117 57.3654C29.3334 57.3691 29.0152 57.7066 29.0117 58.1079Z" fill="#0A3B3C"/>
<path d="M33.5515 58.0629C33.548 58.4642 33.8603 58.7954 34.2386 58.7917C34.6169 58.788 34.9351 58.4505 34.9387 58.0493C34.9422 57.648 34.6298 57.3167 34.2515 57.3205C33.8732 57.3242 33.555 57.6617 33.5515 58.0629Z" fill="#0A3B3C"/>
<path d="M35.8007 60.4497C35.7972 60.8509 36.1096 61.1822 36.488 61.1785C36.8663 61.1748 37.1845 60.8373 37.188 60.4361C37.1915 60.0348 36.8791 59.7035 36.5008 59.7072C36.1225 59.7109 35.8043 60.0484 35.8007 60.4497Z" fill="#0A3B3C"/>
<path d="M22.1809 60.5825C22.1774 60.9837 22.4898 61.3151 22.8681 61.3113C23.2464 61.3076 23.5646 60.9701 23.5681 60.5689C23.5716 60.1676 23.2592 59.8363 22.8809 59.84C22.4389 59.9112 22.1844 60.1812 22.1809 60.5825Z" fill="#0A3B3C"/>
<path d="M26.7209 60.5375C26.7174 60.9388 27.0297 61.27 27.4081 61.2663C27.7864 61.2626 28.1046 60.9251 28.1081 60.5239C28.1116 60.1226 27.7993 59.7914 27.4209 59.7951C27.0426 59.7988 26.7244 60.1363 26.7209 60.5375Z" fill="#0A3B3C"/>
<path d="M19.8696 58.1313C19.8661 58.5325 20.1784 58.8638 20.5567 58.8601C20.9351 58.8563 21.2533 58.5189 21.2568 58.1176C21.2603 57.7164 20.948 57.3851 20.5696 57.3888C20.1277 57.4601 19.8731 57.73 19.8696 58.1313Z" fill="#0A3B3C"/>
<path d="M24.4719 58.1528C24.4684 58.554 24.7808 58.8854 25.1591 58.8816C25.5374 58.8779 25.8556 58.5404 25.8591 58.1392C25.8627 57.7379 25.5502 57.4066 25.1719 57.4103C24.7936 57.414 24.4754 57.7515 24.4719 58.1528Z" fill="#0A3B3C"/>
<path d="M29.0119 58.1079C29.0084 58.5091 29.3207 58.8404 29.6991 58.8366C30.0774 58.8329 30.3956 58.4954 30.3991 58.0942C30.4026 57.6929 30.0903 57.3617 29.712 57.3654C29.3336 57.3691 29.0154 57.7066 29.0119 58.1079Z" fill="#0A3B3C"/>
<path d="M12.9751 60.6723C12.9715 61.0736 13.2839 61.4048 13.6622 61.4011C14.0405 61.3974 14.3587 61.0599 14.3622 60.6586C14.3657 60.2574 14.0534 59.9261 13.6751 59.9298C13.2968 59.9336 12.9786 60.2711 12.9751 60.6723Z" fill="#0A3B3C"/>
<path d="M17.5149 60.6274C17.5113 61.0286 17.8237 61.3599 18.202 61.3562C18.5803 61.3524 18.8985 61.015 18.902 60.6137C18.9055 60.2125 18.5932 59.8812 18.2149 59.8849C17.8366 59.8887 17.5184 60.2261 17.5149 60.6274Z" fill="#0A3B3C"/>
<path d="M10.726 58.2875C10.7225 58.6888 11.0349 59.0201 11.4132 59.0163C11.7915 59.0126 12.1097 58.6751 12.1132 58.2739C12.1167 57.8726 11.8044 57.5414 11.4261 57.5451C11.0478 57.5488 10.7296 57.8863 10.726 58.2875Z" fill="#0A3B3C"/>
<path d="M15.2658 58.2426C15.2623 58.6439 15.5746 58.9751 15.953 58.9714C16.3313 58.9677 16.6495 58.6302 16.653 58.2289C16.6565 57.8277 16.3442 57.4964 15.9659 57.5002C15.5875 57.5039 15.2694 57.8414 15.2658 58.2426Z" fill="#0A3B3C"/>
<path d="M19.8696 58.1293C19.8661 58.5306 20.1784 58.8618 20.5567 58.8581C20.9351 58.8544 21.2533 58.5169 21.2568 58.1157C21.2603 57.7144 20.948 57.3832 20.5696 57.3869C20.1277 57.4581 19.8731 57.7281 19.8696 58.1293Z" fill="#0A3B3C"/>
<path d="M8.43502 60.7172C8.43151 61.1185 8.74383 61.4497 9.12216 61.446C9.50048 61.4423 9.81868 61.1048 9.8222 60.7035C9.82571 60.3023 9.51338 59.971 9.13506 59.9748C8.75674 59.9785 8.43854 60.316 8.43502 60.7172Z" fill="#0A3B3C"/>
<path d="M10.726 58.2875C10.7225 58.6888 11.0349 59.02 11.4132 59.0163C11.7915 59.0126 12.1097 58.6751 12.1132 58.2739C12.1167 57.8726 11.8044 57.5414 11.4261 57.5451C11.0478 57.5488 10.7296 57.8863 10.726 58.2875Z" fill="#0A3B3C"/>
<path d="M29.0119 58.1079C29.0084 58.5091 29.3207 58.8404 29.6991 58.8366C30.0774 58.8329 30.3956 58.4954 30.3991 58.0942C30.4026 57.6929 30.0903 57.3617 29.712 57.3654C29.3336 57.3691 29.0154 57.7066 29.0119 58.1079Z" fill="#0A3B3C"/>
<path d="M29.0539 53.2934C29.0504 53.6947 29.3628 54.026 29.7411 54.0223C30.1195 54.0185 30.4377 53.6811 30.4412 53.2798C30.4447 52.8785 30.1323 52.5472 29.754 52.5509C29.3756 52.5547 29.0574 52.8921 29.0539 53.2934Z" fill="#0A3B3C"/>
<path d="M33.5517 58.0629C33.5482 58.4642 33.8605 58.7954 34.2389 58.7917C34.6172 58.788 34.9354 58.4505 34.9389 58.0493C34.9424 57.648 34.6301 57.3167 34.2518 57.3205C33.8734 57.3242 33.5552 57.6617 33.5517 58.0629Z" fill="#0A3B3C"/>
<path d="M33.6577 53.1801C33.6542 53.5814 33.9665 53.9126 34.3448 53.9089C34.7231 53.9052 35.0413 53.5677 35.0449 53.1664C35.0484 52.7652 34.736 52.4339 34.3577 52.4377C33.9794 52.4414 33.6612 52.7789 33.6577 53.1801Z" fill="#0A3B3C"/>
<path d="M31.4087 50.7954C31.4051 51.1966 31.7175 51.5279 32.0959 51.5242C32.4742 51.5205 32.7924 51.183 32.7959 50.7818C32.7994 50.3805 32.487 50.0492 32.1087 50.0529C31.7304 50.0566 31.4122 50.3941 31.4087 50.7954Z" fill="#0A3B3C"/>
<path d="M31.3029 55.6782C31.2994 56.0794 31.6118 56.4107 31.9901 56.4069C32.3684 56.4032 32.6866 56.0657 32.6901 55.6645C32.6936 55.2632 32.3813 54.932 32.003 54.9357C31.6247 54.9394 31.3065 55.2769 31.3029 55.6782Z" fill="#0A3B3C"/>
<path d="M35.9065 55.5649C35.9029 55.9661 36.2153 56.2974 36.5936 56.2937C36.9719 56.2899 37.2901 55.9525 37.2936 55.5512C37.2971 55.15 36.9848 54.8187 36.6065 54.8224C36.2282 54.8262 35.91 55.1636 35.9065 55.5649Z" fill="#0A3B3C"/>
<path d="M29.0974 48.3442C29.0939 48.7454 29.4062 49.0767 29.7845 49.073C30.1628 49.0692 30.481 48.7318 30.4845 48.3305C30.4881 47.9292 30.1757 47.598 29.7974 47.6017C29.4191 47.6054 29.1009 47.9429 29.0974 48.3442Z" fill="#0A3B3C"/>
<path d="M19.8696 58.1293C19.8661 58.5306 20.1784 58.8618 20.5567 58.8581C20.9351 58.8544 21.2533 58.5169 21.2568 58.1157C21.2603 57.7144 20.948 57.3832 20.5696 57.3869C20.1277 57.4581 19.8731 57.7281 19.8696 58.1293Z" fill="#0A3B3C"/>
<path d="M19.9118 53.3149C19.9083 53.7161 20.2206 54.0474 20.599 54.0437C20.9773 54.0399 21.2955 53.7025 21.299 53.3012C21.3025 52.9 20.9902 52.5687 20.6119 52.5724C20.2335 52.5762 19.9153 52.9136 19.9118 53.3149Z" fill="#0A3B3C"/>
<path d="M24.4719 58.1508C24.4684 58.5521 24.7808 58.8834 25.1591 58.8797C25.5374 58.876 25.8556 58.5385 25.8591 58.1372C25.8627 57.736 25.5502 57.4046 25.1719 57.4084C24.7936 57.4121 24.4754 57.7496 24.4719 58.1508Z" fill="#0A3B3C"/>
<path d="M24.4519 53.27C24.4484 53.6712 24.7607 54.0025 25.139 53.9987C25.5173 53.995 25.8355 53.6575 25.839 53.2563C25.8426 52.855 25.5302 52.5238 25.1519 52.5275C24.7736 52.5312 24.4554 52.8687 24.4519 53.27Z" fill="#0A3B3C"/>
<path d="M22.2028 50.8852C22.1993 51.2864 22.5117 51.6177 22.89 51.614C23.2683 51.6103 23.5865 51.2728 23.59 50.8715C23.5935 50.4703 23.2812 50.139 22.9029 50.1427C22.5246 50.1465 22.2064 50.4839 22.2028 50.8852Z" fill="#0A3B3C"/>
<path d="M22.1609 55.6997C22.1573 56.1009 22.4697 56.4322 22.848 56.4284C23.2263 56.4247 23.5445 56.0872 23.548 55.686C23.5515 55.2847 23.2392 54.9535 22.8609 54.9572C22.4826 54.9609 22.1644 55.2984 22.1609 55.6997Z" fill="#0A3B3C"/>
<path d="M26.7426 50.8403C26.7391 51.2415 27.0515 51.5728 27.4298 51.5691C27.8081 51.5653 28.1263 51.2278 28.1298 50.8266C28.1333 50.4253 27.821 50.0941 27.4427 50.0978C27.0644 50.1015 26.7462 50.439 26.7426 50.8403Z" fill="#0A3B3C"/>
<path d="M26.7629 55.7211C26.7594 56.1224 27.0718 56.4537 27.4501 56.45C27.8284 56.4463 28.1466 56.1088 28.1502 55.7075C28.1537 55.3063 27.8413 54.9749 27.4629 54.9787C27.0846 54.9824 26.7664 55.3199 26.7629 55.7211Z" fill="#0A3B3C"/>
<path d="M19.9538 48.5004C19.9503 48.9017 20.2626 49.2329 20.641 49.2292C21.0193 49.2255 21.3375 48.888 21.341 48.4868C21.3445 48.0855 21.0322 47.7542 20.6539 47.758C20.2755 47.7617 19.9573 48.0992 19.9538 48.5004Z" fill="#0A3B3C"/>
<path d="M24.4936 48.4555C24.4901 48.8568 24.8024 49.188 25.1808 49.1843C25.5591 49.1806 25.8773 48.8431 25.8808 48.4418C25.8843 48.0406 25.572 47.7093 25.1937 47.713C24.8153 47.7168 24.4971 48.0543 24.4936 48.4555Z" fill="#0A3B3C"/>
<path d="M29.0119 58.1059C29.0084 58.5072 29.3207 58.8384 29.6991 58.8347C30.0774 58.831 30.3956 58.4935 30.3991 58.0922C30.4026 57.691 30.0903 57.3597 29.712 57.3634C29.3336 57.3672 29.0154 57.7046 29.0119 58.1059Z" fill="#0A3B3C"/>
<path d="M29.0539 53.2914C29.0504 53.6927 29.3628 54.024 29.7411 54.0203C30.1195 54.0166 30.4377 53.6791 30.4412 53.2778C30.4447 52.8766 30.1323 52.5453 29.754 52.549C29.3756 52.5527 29.0574 52.8902 29.0539 53.2914Z" fill="#0A3B3C"/>
<path d="M29.0974 48.3422C29.0939 48.7435 29.4062 49.0747 29.7845 49.071C30.1628 49.0673 30.481 48.7298 30.4845 48.3285C30.4881 47.9273 30.1757 47.596 29.7974 47.5998C29.4191 47.6035 29.1009 47.941 29.0974 48.3422Z" fill="#0A3B3C"/>
<path d="M10.726 58.2875C10.7225 58.6888 11.0349 59.02 11.4132 59.0163C11.7915 59.0126 12.1097 58.6751 12.1132 58.2739C12.1167 57.8726 11.8044 57.5414 11.4261 57.5451C11.0478 57.5488 10.7296 57.8863 10.726 58.2875Z" fill="#0A3B3C"/>
<path d="M15.2661 58.2426C15.2626 58.6439 15.5749 58.9751 15.9532 58.9714C16.3315 58.9677 16.6497 58.6302 16.6533 58.2289C16.6568 57.8277 16.3444 57.4964 15.9661 57.5002C15.5878 57.5039 15.2696 57.8414 15.2661 58.2426Z" fill="#0A3B3C"/>
<path d="M15.3718 53.3598C15.3683 53.7611 15.6806 54.0923 16.0589 54.0886C16.4373 54.0849 16.7555 53.7474 16.759 53.3461C16.7625 52.9449 16.4502 52.6136 16.0718 52.6173C15.6299 52.6886 15.3753 52.9586 15.3718 53.3598Z" fill="#0A3B3C"/>
<path d="M13.0171 55.8579C13.0135 56.2591 13.3259 56.5904 13.7042 56.5866C14.0825 56.5829 14.4007 56.2454 14.4042 55.8442C14.4077 55.4429 14.0954 55.1117 13.7171 55.1154C13.3388 55.1191 13.0206 55.4566 13.0171 55.8579Z" fill="#0A3B3C"/>
<path d="M17.6628 50.9301C17.6593 51.3314 17.9716 51.6626 18.3499 51.6589C18.7283 51.6552 19.0465 51.3177 19.05 50.9164C19.0535 50.5152 18.7412 50.1839 18.3628 50.1877C17.9845 50.1914 17.6663 50.5289 17.6628 50.9301Z" fill="#0A3B3C"/>
<path d="M17.6206 55.7446C17.6171 56.1458 17.9294 56.4771 18.3077 56.4734C18.686 56.4696 19.0042 56.1321 19.0077 55.7309C19.0113 55.3296 18.6989 54.9984 18.3206 55.0021C17.8786 55.0733 17.6241 55.3433 17.6206 55.7446Z" fill="#0A3B3C"/>
<path d="M19.8694 58.1293C19.8658 58.5306 20.1782 58.8618 20.5565 58.8581C20.9348 58.8544 21.253 58.5169 21.2565 58.1157C21.26 57.7144 20.9477 57.3832 20.5694 57.3869C20.1274 57.4581 19.8729 57.7281 19.8694 58.1293Z" fill="#0A3B3C"/>
<path d="M19.9116 53.3149C19.9081 53.7161 20.2204 54.0474 20.5987 54.0437C20.977 54.0399 21.2952 53.7025 21.2988 53.3012C21.3023 52.9 20.9899 52.5687 20.6116 52.5724C20.2333 52.5762 19.9151 52.9136 19.9116 53.3149Z" fill="#0A3B3C"/>
<path d="M19.9538 48.5004C19.9503 48.9017 20.2626 49.2329 20.641 49.2292C21.0193 49.2255 21.3375 48.888 21.341 48.4868C21.3445 48.0855 21.0322 47.7542 20.6539 47.758C20.2755 47.7617 19.9573 48.0992 19.9538 48.5004Z" fill="#0A3B3C"/>
<path d="M29.0974 48.3442C29.0939 48.7454 29.4062 49.0767 29.7845 49.073C30.1628 49.0692 30.481 48.7318 30.4845 48.3305C30.4881 47.9292 30.1757 47.598 29.7974 47.6017C29.4191 47.6054 29.1009 47.9429 29.0974 48.3442Z" fill="#0A3B3C"/>
<path d="M19.9538 48.5004C19.9503 48.9017 20.2626 49.2329 20.641 49.2292C21.0193 49.2255 21.3375 48.888 21.341 48.4868C21.3445 48.0855 21.0322 47.7542 20.6539 47.758C20.2755 47.7617 19.9573 48.0992 19.9538 48.5004Z" fill="#0A3B3C"/>
<path d="M24.4939 48.4555C24.4903 48.8568 24.8027 49.188 25.181 49.1843C25.5593 49.1806 25.8775 48.8431 25.881 48.4418C25.8845 48.0406 25.5722 47.7093 25.1939 47.713C24.8156 47.7168 24.4974 48.0543 24.4939 48.4555Z" fill="#0A3B3C"/>
<path d="M24.5996 43.5727C24.5961 43.9739 24.9084 44.3052 25.2867 44.3015C25.665 44.2978 25.9832 43.9603 25.9867 43.559C25.9903 43.1578 25.6779 42.8265 25.2996 42.8302C24.9213 42.834 24.6031 43.1714 24.5996 43.5727Z" fill="#0A3B3C"/>
<path d="M22.2448 46.0707C22.2413 46.472 22.5537 46.8033 22.932 46.7995C23.3103 46.7958 23.6285 46.4583 23.632 46.0571C23.6355 45.6558 23.3232 45.3246 22.9449 45.3283C22.5666 45.332 22.2484 45.6695 22.2448 46.0707Z" fill="#0A3B3C"/>
<path d="M26.8484 45.9575C26.8448 46.3587 27.1572 46.69 27.5355 46.6862C27.9138 46.6825 28.232 46.345 28.2355 45.9438C28.239 45.5425 27.9267 45.2113 27.5484 45.215C27.1701 45.2187 26.8519 45.5562 26.8484 45.9575Z" fill="#0A3B3C"/>
<path d="M29.0974 48.3422C29.0939 48.7435 29.4062 49.0747 29.7845 49.071C30.1628 49.0673 30.481 48.7298 30.4845 48.3285C30.4881 47.9273 30.1757 47.596 29.7974 47.5998C29.4191 47.6035 29.1009 47.941 29.0974 48.3422Z" fill="#0A3B3C"/>
<path d="M54.2976 50.5043C54.2941 50.9056 54.6064 51.2368 54.9847 51.2331C55.363 51.2294 55.6812 50.8919 55.6847 50.4907C55.6883 50.0894 55.3759 49.7582 54.9976 49.7619C54.6193 49.7656 54.3011 50.1031 54.2976 50.5043Z" fill="#0A3B3C"/>
<path d="M45.0705 60.2915C45.067 60.6927 45.3793 61.024 45.7577 61.0202C46.136 61.0165 46.4542 60.679 46.4577 60.2778C46.4612 59.8765 46.1489 59.5453 45.7706 59.549C45.3922 59.5527 45.074 59.8902 45.0705 60.2915Z" fill="#0A3B3C"/>
<path d="M45.1125 55.477C45.109 55.8782 45.4214 56.2096 45.7997 56.2059C46.1781 56.2021 46.4962 55.8646 46.4998 55.4634C46.5033 55.0621 46.1909 54.7308 45.8126 54.7345C45.4342 54.7383 45.116 55.0757 45.1125 55.477Z" fill="#0A3B3C"/>
<path d="M42.8017 53.0258C42.7982 53.4271 43.1106 53.7584 43.4889 53.7547C43.8673 53.751 44.1855 53.4135 44.189 53.0122C44.1925 52.611 43.8801 52.2796 43.5018 52.2834C43.1234 52.2871 42.8052 52.6246 42.8017 53.0258Z" fill="#0A3B3C"/>
<path d="M49.6525 55.4321C49.649 55.8333 49.9614 56.1646 50.3397 56.1609C50.718 56.1571 51.0362 55.8196 51.0397 55.4184C51.0432 55.0171 50.7309 54.6859 50.3526 54.6896C49.9743 54.6933 49.6561 55.0308 49.6525 55.4321Z" fill="#0A3B3C"/>
<path d="M47.4038 53.0454C47.4003 53.4466 47.7127 53.778 48.091 53.7742C48.4693 53.7705 48.7875 53.433 48.791 53.0318C48.7945 52.6305 48.4821 52.2992 48.1038 52.3029C47.7255 52.3066 47.4073 52.6441 47.4038 53.0454Z" fill="#0A3B3C"/>
<path d="M45.0927 50.5961C45.0892 50.9974 45.4016 51.3287 45.7799 51.325C46.1583 51.3213 46.4765 50.9838 46.48 50.5825C46.4835 50.1813 46.1711 49.8499 45.7928 49.8537C45.4145 49.8574 45.0962 50.1949 45.0927 50.5961Z" fill="#0A3B3C"/>
<path d="M47.3615 57.8618C47.358 58.263 47.6704 58.5943 48.0487 58.5905C48.427 58.5868 48.7452 58.2493 48.7487 57.8481C48.7522 57.4468 48.4399 57.1156 48.0616 57.1193C47.6832 57.123 47.3651 57.4605 47.3615 57.8618Z" fill="#0A3B3C"/>
<path d="M52.0073 52.934C52.0038 53.3353 52.3161 53.6665 52.6944 53.6628C53.0728 53.6591 53.3909 53.3216 53.3945 52.9203C53.398 52.5191 53.0857 52.1878 52.7073 52.1916C52.329 52.1953 52.0108 52.5328 52.0073 52.934Z" fill="#0A3B3C"/>
<path d="M49.7583 50.5493C49.7548 50.9505 50.0672 51.2818 50.4455 51.2781C50.8238 51.2744 51.142 50.9369 51.1455 50.5357C51.149 50.1344 50.8366 49.8031 50.4583 49.8068C50.08 49.8105 49.7618 50.148 49.7583 50.5493Z" fill="#0A3B3C"/>
<path d="M47.4475 48.0981C47.444 48.4993 47.7564 48.8307 48.1347 48.827C48.513 48.8232 48.8312 48.4857 48.8347 48.0845C48.8382 47.6832 48.5258 47.3519 48.1475 47.3556C47.7692 47.3594 47.451 47.6968 47.4475 48.0981Z" fill="#0A3B3C"/>
<path d="M54.2983 50.5043C54.2948 50.9056 54.6071 51.2368 54.9854 51.2331C55.3638 51.2294 55.682 50.8919 55.6855 50.4907C55.689 50.0894 55.3767 49.7582 54.9983 49.7619C54.62 49.7656 54.3018 50.1031 54.2983 50.5043Z" fill="#0A3B3C"/>
<path d="M38.2609 53.0688C38.2574 53.4701 38.5698 53.8013 38.9481 53.7976C39.3264 53.7939 39.6446 53.4564 39.6481 53.0551C39.6516 52.6539 39.3393 52.3226 38.961 52.3263C38.5827 52.3301 38.2645 52.6675 38.2609 53.0688Z" fill="#0A3B3C"/>
<path d="M42.821 57.9047C42.8175 58.306 43.1299 58.6373 43.5082 58.6336C43.8865 58.6299 44.2047 58.2924 44.2083 57.8911C44.2118 57.4899 43.8994 57.1585 43.521 57.1623C43.1427 57.166 42.8245 57.5035 42.821 57.9047Z" fill="#0A3B3C"/>
<path d="M40.5102 55.4536C40.5067 55.8548 40.8191 56.1862 41.1974 56.1824C41.5758 56.1787 41.894 55.8412 41.8975 55.44C41.901 55.0387 41.5886 54.7074 41.2103 54.7111C40.8319 54.7148 40.5137 55.0523 40.5102 55.4536Z" fill="#0A3B3C"/>
<path d="M36.0122 50.684C36.0087 51.0853 36.321 51.4165 36.6993 51.4128C37.0776 51.4091 37.3958 51.0716 37.3993 50.6703C37.4029 50.2691 37.0905 49.9378 36.7122 49.9416C36.3339 49.9453 36.0157 50.2828 36.0122 50.684Z" fill="#0A3B3C"/>
<path d="M40.552 50.6391C40.5485 51.0404 40.8608 51.3716 41.2391 51.3679C41.6174 51.3642 41.9356 51.0267 41.9391 50.6254C41.9427 50.2242 41.6303 49.8929 41.252 49.8966C40.8737 49.9004 40.5555 50.2378 40.552 50.6391Z" fill="#0A3B3C"/>
<path d="M45.07 60.2915C45.0665 60.6927 45.3788 61.024 45.7572 61.0202C46.1355 61.0165 46.4537 60.679 46.4572 60.2778C46.4607 59.8765 46.1484 59.5453 45.7701 59.549C45.3917 59.5527 45.0735 59.8902 45.07 60.2915Z" fill="#0A3B3C"/>
<path d="M45.112 55.477C45.1085 55.8782 45.4209 56.2096 45.7992 56.2058C46.1776 56.2021 46.4958 55.8646 46.4993 55.4634C46.5028 55.0621 46.1904 54.7308 45.8121 54.7345C45.4337 54.7383 45.1155 55.0757 45.112 55.477Z" fill="#0A3B3C"/>
<path d="M42.8012 53.0258C42.7977 53.4271 43.1101 53.7584 43.4885 53.7547C43.8668 53.751 44.185 53.4135 44.1885 53.0122C44.192 52.611 43.8796 52.2796 43.5013 52.2834C43.1229 52.2871 42.8048 52.6246 42.8012 53.0258Z" fill="#0A3B3C"/>
<path d="M54.2981 50.5043C54.2945 50.9056 54.6069 51.2368 54.9852 51.2331C55.3635 51.2294 55.6817 50.8919 55.6852 50.4907C55.6887 50.0894 55.3764 49.7582 54.9981 49.7619C54.6198 49.7656 54.3016 50.1031 54.2981 50.5043Z" fill="#0A3B3C"/>
<path d="M54.3401 45.6899C54.3365 46.0911 54.6489 46.4225 55.0273 46.4187C55.4056 46.415 55.7238 46.0775 55.7273 45.6763C55.7308 45.275 55.4184 44.9437 55.0401 44.9474C54.6618 44.9512 54.3436 45.2886 54.3401 45.6899Z" fill="#0A3B3C"/>
<path d="M52.0293 43.2387C52.0257 43.64 52.3382 43.9713 52.7165 43.9676C53.0948 43.9638 53.413 43.6264 53.4165 43.2251C53.42 42.8239 53.1076 42.4925 52.7293 42.4963C52.351 42.5 52.0328 42.8375 52.0293 43.2387Z" fill="#0A3B3C"/>
<path d="M56.6948 43.1918C56.6913 43.5931 57.0037 43.9244 57.382 43.9207C57.7603 43.917 58.0785 43.5795 58.082 43.1782C58.0856 42.777 57.7731 42.4457 57.3948 42.4494C56.9529 42.5206 56.6983 42.7906 56.6948 43.1918Z" fill="#0A3B3C"/>
<path d="M54.384 40.7407C54.3805 41.1419 54.6929 41.4733 55.0712 41.4695C55.4495 41.4658 55.7677 41.1283 55.7712 40.7271C55.7748 40.3258 55.4624 39.9945 55.084 39.9982C54.6421 40.0694 54.3875 40.3394 54.384 40.7407Z" fill="#0A3B3C"/>
<path d="M56.5891 48.0746C56.5856 48.4759 56.8979 48.8072 57.2762 48.8034C57.6545 48.7997 57.9727 48.4622 57.9762 48.061C57.9798 47.6597 57.6674 47.3285 57.2891 47.3322C56.9108 47.3359 56.5926 47.6734 56.5891 48.0746Z" fill="#0A3B3C"/>
<path d="M56.675 38.311C56.6715 38.7122 56.9839 39.0436 57.3622 39.0398C57.7406 39.0361 58.0587 38.6986 58.0623 38.2974C58.0658 37.8961 57.7534 37.5648 57.3751 37.5685C56.9967 37.5722 56.6785 37.9097 56.675 38.311Z" fill="#0A3B3C"/>
<path d="M45.1975 45.7114C45.194 46.1126 45.5063 46.4439 45.8846 46.4402C46.2629 46.4364 46.5811 46.0989 46.5846 45.6977C46.5882 45.2964 46.2758 44.9652 45.8975 44.9689C45.5192 44.9726 45.201 45.3101 45.1975 45.7114Z" fill="#0A3B3C"/>
<path d="M49.7575 50.5473C49.754 50.9486 50.0664 51.2799 50.4447 51.2762C50.8231 51.2724 51.1413 50.935 51.1448 50.5337C51.1483 50.1325 50.8359 49.8011 50.4576 49.8048C50.0792 49.8086 49.761 50.1461 49.7575 50.5473Z" fill="#0A3B3C"/>
<path d="M47.4467 48.0961C47.4432 48.4974 47.7556 48.8287 48.134 48.825C48.5123 48.8213 48.8305 48.4838 48.834 48.0825C48.8375 47.6813 48.5251 47.3499 48.1468 47.3537C47.7685 47.3574 47.4503 47.6949 47.4467 48.0961Z" fill="#0A3B3C"/>
<path d="M47.4885 43.2817C47.485 43.6829 47.7973 44.0142 48.1756 44.0105C48.554 44.0067 48.8722 43.6693 48.8757 43.268C48.8792 42.8668 48.5669 42.5355 48.1885 42.5392C47.8102 42.5429 47.492 42.8804 47.4885 43.2817Z" fill="#0A3B3C"/>
<path d="M52.0486 48.1176C52.045 48.5189 52.3574 48.8502 52.7358 48.8465C53.1141 48.8428 53.4323 48.5053 53.4358 48.104C53.4393 47.7028 53.1269 47.3714 52.7486 47.3752C52.3703 47.3789 52.0521 47.7164 52.0486 48.1176Z" fill="#0A3B3C"/>
<path d="M49.7378 45.6664C49.7342 46.0677 50.0466 46.399 50.425 46.3953C50.8033 46.3916 51.1215 46.0541 51.125 45.6528C51.1285 45.2516 50.8161 44.9203 50.4378 44.924C50.0595 44.9277 49.7413 45.2652 49.7378 45.6664Z" fill="#0A3B3C"/>
<path d="M45.2397 40.8969C45.2362 41.2982 45.5485 41.6294 45.9268 41.6257C46.3052 41.622 46.6234 41.2845 46.6269 40.8832C46.6304 40.482 46.3181 40.1507 45.9397 40.1545C45.5614 40.1582 45.2432 40.4957 45.2397 40.8969Z" fill="#0A3B3C"/>
<path d="M49.7795 40.852C49.776 41.2532 50.0883 41.5845 50.4666 41.5808C50.845 41.577 51.1632 41.2396 51.1667 40.8383C51.1702 40.4371 50.8579 40.1058 50.4795 40.1095C50.1012 40.1133 49.783 40.4507 49.7795 40.852Z" fill="#0A3B3C"/>
<path d="M54.2976 50.5043C54.2941 50.9056 54.6064 51.2368 54.9847 51.2331C55.363 51.2294 55.6812 50.8919 55.6847 50.4907C55.6883 50.0894 55.3759 49.7582 54.9976 49.7619C54.6193 49.7656 54.3011 50.1031 54.2976 50.5043Z" fill="#0A3B3C"/>
<path d="M54.3396 45.6899C54.3361 46.0911 54.6485 46.4225 55.0268 46.4187C55.4051 46.415 55.7233 46.0775 55.7268 45.6763C55.7303 45.275 55.4179 44.9437 55.0396 44.9474C54.6613 44.9511 54.3431 45.2886 54.3396 45.6899Z" fill="#0A3B3C"/>
<path d="M52.0288 43.2387C52.0253 43.64 52.3377 43.9713 52.716 43.9676C53.0943 43.9638 53.4125 43.6264 53.416 43.2251C53.4195 42.8239 53.1071 42.4925 52.7288 42.4963C52.3505 42.5 52.0323 42.8375 52.0288 43.2387Z" fill="#0A3B3C"/>
<path d="M36.0122 50.684C36.0087 51.0853 36.321 51.4165 36.6993 51.4128C37.0776 51.4091 37.3958 51.0716 37.3993 50.6703C37.4029 50.2691 37.0905 49.9378 36.7122 49.9416C36.3339 49.9453 36.0157 50.2828 36.0122 50.684Z" fill="#0A3B3C"/>
<path d="M36.0542 45.8696C36.0507 46.2708 36.3631 46.6022 36.7414 46.5984C37.1197 46.5947 37.4379 46.2572 37.4414 45.856C37.4449 45.4547 37.1325 45.1234 36.7542 45.1271C36.3759 45.1308 36.0577 45.4683 36.0542 45.8696Z" fill="#0A3B3C"/>
<path d="M40.552 50.6391C40.5485 51.0404 40.8608 51.3716 41.2391 51.3679C41.6174 51.3642 41.9356 51.0267 41.9391 50.6254C41.9427 50.2242 41.6303 49.8929 41.252 49.8966C40.8737 49.9004 40.5555 50.2378 40.552 50.6391Z" fill="#0A3B3C"/>
<path d="M40.5942 45.8247C40.5907 46.2259 40.903 46.5572 41.2813 46.5534C41.6597 46.5497 41.9779 46.2122 41.9814 45.811C41.9849 45.4097 41.6726 45.0785 41.2942 45.0822C40.9159 45.0859 40.5977 45.4234 40.5942 45.8247Z" fill="#0A3B3C"/>
<path d="M38.3452 43.4399C38.3417 43.8411 38.6541 44.1725 39.0324 44.1688C39.4107 44.165 39.7289 43.8275 39.7324 43.4263C39.7359 43.025 39.4235 42.6937 39.0452 42.6974C38.6669 42.7012 38.3487 43.0386 38.3452 43.4399Z" fill="#0A3B3C"/>
<path d="M38.3032 48.2543C38.2997 48.6556 38.612 48.9868 38.9903 48.9831C39.3687 48.9794 39.6868 48.6419 39.6904 48.2407C39.6939 47.8394 39.3815 47.5081 39.0032 47.5119C38.6249 47.5156 38.3067 47.8531 38.3032 48.2543Z" fill="#0A3B3C"/>
<path d="M42.9489 43.3266C42.9454 43.7279 43.2578 44.0591 43.6361 44.0554C44.0144 44.0517 44.3326 43.7142 44.3361 43.3129C44.3396 42.9117 44.0273 42.5804 43.649 42.5841C43.2707 42.5879 42.9525 42.9254 42.9489 43.3266Z" fill="#0A3B3C"/>
<path d="M42.843 48.2094C42.8395 48.6107 43.1518 48.9419 43.5301 48.9382C43.9084 48.9345 44.2266 48.597 44.2302 48.1957C44.2337 47.7945 43.9213 47.4632 43.543 47.467C43.1647 47.4707 42.8465 47.8082 42.843 48.2094Z" fill="#0A3B3C"/>
<path d="M36.0339 40.9887C36.0304 41.39 36.3427 41.7212 36.721 41.7175C37.0994 41.7138 37.4176 41.3763 37.4211 40.975C37.4246 40.5738 37.1123 40.2425 36.7339 40.2463C36.3556 40.25 36.0374 40.5875 36.0339 40.9887Z" fill="#0A3B3C"/>
<path d="M40.6999 40.9418C40.6964 41.3431 41.0088 41.6744 41.3871 41.6707C41.7655 41.667 42.0837 41.3295 42.0872 40.9282C42.0907 40.527 41.7783 40.1957 41.4 40.1994C41.0216 40.2031 40.7034 40.5406 40.6999 40.9418Z" fill="#0A3B3C"/>
<path d="M45.1977 45.7133C45.1942 46.1146 45.5065 46.4458 45.8849 46.4421C46.2632 46.4384 46.5814 46.1009 46.5849 45.6996C46.5884 45.2984 46.2761 44.9671 45.8978 44.9709C45.5194 44.9746 45.2012 45.3121 45.1977 45.7133Z" fill="#0A3B3C"/>
<path d="M45.24 40.8969C45.2364 41.2982 45.5488 41.6294 45.9271 41.6257C46.3054 41.622 46.6236 41.2845 46.6271 40.8832C46.6306 40.482 46.3183 40.1507 45.94 40.1545C45.5617 40.1582 45.2435 40.4957 45.24 40.8969Z" fill="#0A3B3C"/>
<path d="M31.4521 45.8461C31.4486 46.2474 31.7609 46.5786 32.1392 46.5749C32.5176 46.5712 32.8358 46.2337 32.8393 45.8325C32.8428 45.4312 32.5305 45.0999 32.1521 45.1037C31.7738 45.1074 31.4556 45.4449 31.4521 45.8461Z" fill="#0A3B3C"/>
<path d="M29.2031 43.4614C29.1996 43.8626 29.5119 44.1939 29.8902 44.1902C30.2685 44.1864 30.5867 43.8489 30.5903 43.4477C30.5938 43.0464 30.2815 42.7152 29.9031 42.7189C29.5248 42.7226 29.2066 43.0601 29.2031 43.4614Z" fill="#0A3B3C"/>
<path d="M33.7429 43.4164C33.7394 43.8177 34.0517 44.149 34.43 44.1452C34.8084 44.1415 35.1265 43.804 35.1301 43.4028C35.1336 43.0015 34.8212 42.6703 34.4429 42.674C34.0646 42.6777 33.7464 43.0152 33.7429 43.4164Z" fill="#0A3B3C"/>
<path d="M33.7631 48.2973C33.7596 48.6986 34.072 49.0299 34.4504 49.0262C34.8287 49.0224 35.1469 48.685 35.1504 48.2837C35.1539 47.8825 34.8415 47.5511 34.4632 47.5548C34.0849 47.5586 33.7667 47.8961 33.7631 48.2973Z" fill="#0A3B3C"/>
<path d="M26.9543 41.0766C26.9508 41.4779 27.2631 41.8091 27.6414 41.8054C28.0198 41.8017 28.338 41.4642 28.3415 41.0629C28.345 40.6617 28.0327 40.3304 27.6543 40.3341C27.276 40.3379 26.9578 40.6754 26.9543 41.0766Z" fill="#0A3B3C"/>
<path d="M31.4941 41.0317C31.4906 41.4329 31.8029 41.7642 32.1812 41.7605C32.5596 41.7567 32.8778 41.4193 32.8813 41.018C32.8848 40.6167 32.5725 40.2855 32.1941 40.2892C31.8158 40.2929 31.4976 40.6304 31.4941 41.0317Z" fill="#0A3B3C"/>
<path d="M36.0124 50.684C36.0089 51.0853 36.3212 51.4165 36.6995 51.4128C37.0779 51.4091 37.3961 51.0716 37.3996 50.6703C37.4031 50.2691 37.0908 49.9378 36.7125 49.9416C36.3341 49.9453 36.0159 50.2828 36.0124 50.684Z" fill="#0A3B3C"/>
<path d="M36.0544 45.8696C36.0509 46.2708 36.3633 46.6022 36.7416 46.5984C37.12 46.5947 37.4381 46.2572 37.4417 45.856C37.4452 45.4547 37.1328 45.1234 36.7544 45.1271C36.3761 45.1308 36.0579 45.4683 36.0544 45.8696Z" fill="#0A3B3C"/>
<path d="M36.0341 40.9868C36.0306 41.388 36.343 41.7193 36.7213 41.7155C37.0996 41.7118 37.4178 41.3743 37.4213 40.9731C37.4248 40.5718 37.1125 40.2406 36.7342 40.2443C36.3559 40.248 36.0377 40.5855 36.0341 40.9868Z" fill="#0A3B3C"/>
<path d="M54.4253 35.9243C54.4217 36.3255 54.7341 36.6568 55.1124 36.653C55.4907 36.6493 55.8089 36.3118 55.8124 35.9106C55.8159 35.5093 55.5036 35.1781 55.1253 35.1818C54.747 35.1855 54.4288 35.523 54.4253 35.9243Z" fill="#0A3B3C"/>
<path d="M56.6745 38.309C56.671 38.7103 56.9834 39.0416 57.3617 39.0379C57.7401 39.0342 58.0583 38.6967 58.0618 38.2954C58.0653 37.8942 57.7529 37.5628 57.3746 37.5666C56.9962 37.5703 56.678 37.9078 56.6745 38.309Z" fill="#0A3B3C"/>
<path d="M56.7163 33.4946C56.7128 33.8958 57.0251 34.2271 57.4034 34.2234C57.7817 34.2196 58.0999 33.8821 58.1034 33.4809C58.107 33.0796 57.7946 32.7484 57.4163 32.7521C57.038 32.7558 56.7198 33.0933 56.7163 33.4946Z" fill="#0A3B3C"/>
<path d="M54.4675 31.1098C54.464 31.5111 54.7763 31.8423 55.1546 31.8386C55.533 31.8349 55.8512 31.4974 55.8547 31.0961C55.8582 30.6949 55.5459 30.3636 55.1675 30.3673C54.7892 30.3711 54.471 30.7086 54.4675 31.1098Z" fill="#0A3B3C"/>
<path d="M45.24 40.8969C45.2364 41.2982 45.5488 41.6294 45.9271 41.6257C46.3054 41.622 46.6236 41.2845 46.6271 40.8832C46.6306 40.482 46.3183 40.1507 45.94 40.1545C45.5617 40.1582 45.2435 40.4957 45.24 40.8969Z" fill="#0A3B3C"/>
<path d="M45.282 36.0825C45.2784 36.4837 45.5908 36.8151 45.9692 36.8113C46.3475 36.8076 46.6657 36.4701 46.6692 36.0689C46.6727 35.6676 46.3603 35.3363 45.982 35.34C45.6037 35.3437 45.2855 35.6812 45.282 36.0825Z" fill="#0A3B3C"/>
<path d="M49.7798 40.852C49.7762 41.2532 50.0886 41.5845 50.4669 41.5808C50.8452 41.577 51.1634 41.2396 51.1669 40.8383C51.1704 40.4371 50.8581 40.1058 50.4798 40.1095C50.1015 40.1133 49.7833 40.4507 49.7798 40.852Z" fill="#0A3B3C"/>
<path d="M49.8857 35.9692C49.8822 36.3704 50.1945 36.7017 50.5728 36.698C50.9512 36.6942 51.2694 36.3568 51.2729 35.9555C51.2764 35.5542 50.9641 35.223 50.5857 35.2267C50.1438 35.2979 49.8892 35.5679 49.8857 35.9692Z" fill="#0A3B3C"/>
<path d="M47.6367 33.5844C47.6332 33.9857 47.9456 34.317 48.3239 34.3133C48.7022 34.3096 49.0204 33.9721 49.0239 33.5708C49.0274 33.1696 48.715 32.8382 48.3367 32.842C47.8948 32.9132 47.6402 33.1832 47.6367 33.5844Z" fill="#0A3B3C"/>
<path d="M47.531 38.4672C47.5275 38.8685 47.8398 39.1997 48.2181 39.196C48.5964 39.1923 48.9146 38.8548 48.9181 38.4535C48.9217 38.0523 48.6093 37.721 48.231 37.7248C47.8527 37.7285 47.5345 38.066 47.531 38.4672Z" fill="#0A3B3C"/>
<path d="M52.1767 33.5395C52.1732 33.9407 52.4855 34.272 52.8639 34.2683C53.2422 34.2645 53.5604 33.9271 53.5639 33.5258C53.5674 33.1246 53.2551 32.7933 52.8768 32.797C52.4984 32.8008 52.1802 33.1382 52.1767 33.5395Z" fill="#0A3B3C"/>
<path d="M52.1345 38.3559C52.131 38.7572 52.4433 39.0884 52.8216 39.0847C53.1999 39.081 53.5181 38.7435 53.5217 38.3422C53.5252 37.941 53.2128 37.6097 52.8345 37.6134C52.3926 37.6847 52.138 37.9546 52.1345 38.3559Z" fill="#0A3B3C"/>
<path d="M45.3254 31.1332C45.3219 31.5345 45.6342 31.8658 46.0125 31.862C46.3909 31.8583 46.7091 31.5208 46.7126 31.1196C46.7161 30.7183 46.4038 30.3871 46.0254 30.3908C45.5835 30.462 45.3289 30.732 45.3254 31.1332Z" fill="#0A3B3C"/>
<path d="M49.9277 31.1547C49.9242 31.556 50.2366 31.8873 50.6149 31.8836C50.9932 31.8799 51.3114 31.5424 51.3149 31.1411C51.3185 30.7399 51.0061 30.4085 50.6277 30.4123C50.2494 30.416 49.9312 30.7535 49.9277 31.1547Z" fill="#0A3B3C"/>
<path d="M54.4255 35.9262C54.422 36.3275 54.7343 36.6587 55.1126 36.655C55.491 36.6513 55.8092 36.3138 55.8127 35.9125C55.8162 35.5113 55.5039 35.18 55.1255 35.1838C54.7472 35.1875 54.429 35.525 54.4255 35.9262Z" fill="#0A3B3C"/>
<path d="M54.4677 31.1098C54.4642 31.5111 54.7766 31.8423 55.1549 31.8386C55.5332 31.8349 55.8514 31.4974 55.8549 31.0961C55.8584 30.6949 55.5461 30.3636 55.1678 30.3673C54.7895 30.3711 54.4713 30.7086 54.4677 31.1098Z" fill="#0A3B3C"/>
<path d="M36.0341 40.9868C36.0306 41.388 36.343 41.7193 36.7213 41.7155C37.0996 41.7118 37.4178 41.3743 37.4213 40.9731C37.4248 40.5718 37.1125 40.2406 36.7342 40.2443C36.3559 40.248 36.0377 40.5855 36.0341 40.9868Z" fill="#0A3B3C"/>
<path d="M36.1399 36.104C36.1363 36.5052 36.4487 36.8365 36.827 36.8327C37.2053 36.829 37.5235 36.4915 37.527 36.0903C37.5305 35.689 37.2182 35.3578 36.8399 35.3615C36.4616 35.3652 36.1434 35.7027 36.1399 36.104Z" fill="#0A3B3C"/>
<path d="M40.6999 40.9399C40.6964 41.3411 41.0088 41.6725 41.3871 41.6688C41.7655 41.665 42.0837 41.3275 42.0872 40.9263C42.0907 40.525 41.7783 40.1937 41.4 40.1974C41.0216 40.2012 40.7034 40.5386 40.6999 40.9399Z" fill="#0A3B3C"/>
<path d="M40.6797 36.059C40.6761 36.4603 40.9885 36.7915 41.3668 36.7878C41.7451 36.7841 42.0633 36.4466 42.0668 36.0453C42.0703 35.6441 41.758 35.3128 41.3797 35.3166C41.0014 35.3203 40.6832 35.6578 40.6797 36.059Z" fill="#0A3B3C"/>
<path d="M38.4309 33.6743C38.4274 34.0755 38.7397 34.4068 39.118 34.403C39.4963 34.3993 39.8145 34.0618 39.818 33.6606C39.8216 33.2593 39.5092 32.9281 39.1309 32.9318C38.7526 32.9355 38.4344 33.273 38.4309 33.6743Z" fill="#0A3B3C"/>
<path d="M38.3889 38.4887C38.3854 38.89 38.6977 39.2212 39.076 39.2175C39.4543 39.2138 39.7725 38.8763 39.7761 38.475C39.7796 38.0738 39.4672 37.7425 39.0889 37.7463C38.7106 37.75 38.3924 38.0875 38.3889 38.4887Z" fill="#0A3B3C"/>
<path d="M42.9707 33.6293C42.9672 34.0306 43.2795 34.3618 43.6578 34.3581C44.0361 34.3544 44.3543 34.0169 44.3578 33.6157C44.3614 33.2144 44.049 32.8832 43.6707 32.8869C43.2924 32.8906 42.9742 33.2281 42.9707 33.6293Z" fill="#0A3B3C"/>
<path d="M42.9909 38.5102C42.9874 38.9115 43.2998 39.2428 43.6781 39.2391C44.0565 39.2353 44.3747 38.8979 44.3782 38.4966C44.3817 38.0953 44.0693 37.764 43.691 37.7677C43.3126 37.7715 42.9944 38.1089 42.9909 38.5102Z" fill="#0A3B3C"/>
<path d="M36.1819 31.2895C36.1783 31.6907 36.4907 32.022 36.869 32.0183C37.2473 32.0145 37.5655 31.6771 37.569 31.2758C37.5725 30.8746 37.2602 30.5433 36.8819 30.547C36.5036 30.5508 36.1854 30.8882 36.1819 31.2895Z" fill="#0A3B3C"/>
<path d="M40.7216 31.2446C40.7181 31.6458 41.0305 31.9771 41.4088 31.9734C41.7871 31.9696 42.1053 31.6321 42.1088 31.2309C42.1123 30.8296 41.8 30.4984 41.4217 30.5021C41.0434 30.5058 40.7252 30.8433 40.7216 31.2446Z" fill="#0A3B3C"/>
<path d="M45.24 40.895C45.2364 41.2962 45.5488 41.6275 45.9271 41.6237C46.3054 41.62 46.6236 41.2825 46.6271 40.8813C46.6306 40.48 46.3183 40.1488 45.94 40.1525C45.5617 40.1562 45.2435 40.4937 45.24 40.895Z" fill="#0A3B3C"/>
<path d="M45.282 36.0805C45.2784 36.4818 45.5908 36.8131 45.9692 36.8094C46.3475 36.8056 46.6657 36.4682 46.6692 36.0669C46.6727 35.6657 46.3603 35.3343 45.982 35.338C45.6037 35.3418 45.2855 35.6793 45.282 36.0805Z" fill="#0A3B3C"/>
<path d="M45.3254 31.1313C45.3219 31.5325 45.6342 31.8638 46.0125 31.8601C46.3909 31.8563 46.7091 31.5189 46.7126 31.1176C46.7161 30.7164 46.4038 30.3851 46.0254 30.3888C45.5835 30.4601 45.3289 30.73 45.3254 31.1313Z" fill="#0A3B3C"/>
<path d="M26.9541 41.0766C26.9505 41.4779 27.2629 41.8091 27.6412 41.8054C28.0195 41.8017 28.3377 41.4642 28.3412 41.0629C28.3448 40.6617 28.0324 40.3304 27.6541 40.3341C27.2758 40.3379 26.9576 40.6754 26.9541 41.0766Z" fill="#0A3B3C"/>
<path d="M31.4941 41.0317C31.4906 41.4329 31.8029 41.7642 32.1812 41.7605C32.5596 41.7567 32.8778 41.4193 32.8813 41.018C32.8848 40.6167 32.5725 40.2855 32.1941 40.2892C31.8158 40.2929 31.4976 40.6304 31.4941 41.0317Z" fill="#0A3B3C"/>
<path d="M31.5361 36.2172C31.5326 36.6185 31.8449 36.9497 32.2232 36.946C32.6016 36.9423 32.9198 36.6048 32.9233 36.2035C32.9268 35.8023 32.6145 35.471 32.2361 35.4748C31.8578 35.4785 31.5396 35.816 31.5361 36.2172Z" fill="#0A3B3C"/>
<path d="M29.2451 38.6469C29.2416 39.0482 29.5539 39.3794 29.9322 39.3757C30.3105 39.372 30.6287 39.0345 30.6323 38.6332C30.6358 38.232 30.3234 37.9007 29.9451 37.9045C29.5668 37.9082 29.2486 38.2457 29.2451 38.6469Z" fill="#0A3B3C"/>
<path d="M33.8908 33.7192C33.8873 34.1204 34.1996 34.4517 34.578 34.448C34.9563 34.4442 35.2745 34.1068 35.278 33.7055C35.2815 33.3042 34.9692 32.973 34.5909 32.9767C34.2125 32.9804 33.8943 33.3179 33.8908 33.7192Z" fill="#0A3B3C"/>
<path d="M33.7851 38.602C33.7816 39.0033 34.0939 39.3345 34.4723 39.3308C34.8506 39.3271 35.1688 38.9896 35.1723 38.5883C35.1758 38.1871 34.8635 37.8558 34.4852 37.8595C34.1068 37.8633 33.7886 38.2007 33.7851 38.602Z" fill="#0A3B3C"/>
<path d="M36.0339 40.9868C36.0304 41.388 36.3427 41.7193 36.721 41.7155C37.0994 41.7118 37.4176 41.3743 37.4211 40.9731C37.4246 40.5718 37.1123 40.2406 36.7339 40.2443C36.3556 40.248 36.0374 40.5855 36.0339 40.9868Z" fill="#0A3B3C"/>
<path d="M36.1396 36.1039C36.1361 36.5052 36.4484 36.8365 36.8267 36.8327C37.2051 36.829 37.5233 36.4915 37.5268 36.0903C37.5303 35.689 37.218 35.3578 36.8396 35.3615C36.4613 35.3652 36.1431 35.7027 36.1396 36.1039Z" fill="#0A3B3C"/>
<path d="M36.1819 31.2895C36.1783 31.6907 36.4907 32.022 36.869 32.0183C37.2473 32.0145 37.5655 31.6771 37.569 31.2758C37.5725 30.8746 37.2602 30.5433 36.8819 30.547C36.5036 30.5508 36.1854 30.8882 36.1819 31.2895Z" fill="#0A3B3C"/>
<path d="M54.4677 31.1098C54.4642 31.5111 54.7766 31.8423 55.1549 31.8386C55.5332 31.8349 55.8514 31.4974 55.8549 31.0961C55.8584 30.6949 55.5461 30.3636 55.1678 30.3673C54.7895 30.3711 54.4713 30.7086 54.4677 31.1098Z" fill="#0A3B3C"/>
<path d="M45.3254 31.1313C45.3219 31.5325 45.6342 31.8638 46.0125 31.8601C46.3909 31.8563 46.7091 31.5189 46.7126 31.1176C46.7161 30.7164 46.4038 30.3851 46.0254 30.3888C45.5835 30.4601 45.3289 30.73 45.3254 31.1313Z" fill="#0A3B3C"/>
<path d="M49.9277 31.1528C49.9242 31.554 50.2366 31.8854 50.6149 31.8816C50.9932 31.8779 51.3114 31.5404 51.3149 31.1392C51.3185 30.7379 51.0061 30.4066 50.6277 30.4103C50.2494 30.414 49.9312 30.7515 49.9277 31.1528Z" fill="#0A3B3C"/>
<path d="M54.4677 31.1079C54.4642 31.5091 54.7766 31.8404 55.1549 31.8366C55.5332 31.8329 55.8514 31.4954 55.8549 31.0942C55.8584 30.6929 55.5461 30.3617 55.1678 30.3654C54.7895 30.3691 54.4713 30.7066 54.4677 31.1079Z" fill="#0A3B3C"/>
<path d="M36.1819 31.2895C36.1783 31.6907 36.4907 32.022 36.869 32.0183C37.2473 32.0145 37.5655 31.6771 37.569 31.2758C37.5725 30.8746 37.2602 30.5433 36.8819 30.547C36.5036 30.5508 36.1854 30.8882 36.1819 31.2895Z" fill="#0A3B3C"/>
<path d="M40.7219 31.2446C40.7184 31.6458 41.0307 31.9771 41.409 31.9734C41.7874 31.9696 42.1055 31.6321 42.1091 31.2309C42.1126 30.8296 41.8002 30.4984 41.4219 30.5021C41.0436 30.5058 40.7254 30.8433 40.7219 31.2446Z" fill="#0A3B3C"/>
<path d="M45.3252 31.1313C45.3216 31.5325 45.634 31.8638 46.0123 31.8601C46.3906 31.8563 46.7088 31.5189 46.7123 31.1176C46.7158 30.7164 46.4035 30.3851 46.0252 30.3888C45.5832 30.4601 45.3287 30.73 45.3252 31.1313Z" fill="#0A3B3C"/>
<path d="M55.4477 59.4243C55.4442 59.8255 55.7565 60.1568 56.1349 60.153C56.5132 60.1493 56.8314 59.8118 56.8349 59.4106C56.8384 59.0093 56.5261 58.6781 56.1478 58.6818C55.7694 58.6855 55.4512 59.023 55.4477 59.4243Z" fill="#0A3B3C"/>
<path d="M57.7387 56.9946C57.7352 57.3958 58.0475 57.7271 58.4259 57.7234C58.8042 57.7196 59.1224 57.3821 59.1259 56.9809C59.1294 56.5796 58.8171 56.2484 58.4388 56.2521C58.0604 56.2558 57.7423 56.5933 57.7387 56.9946Z" fill="#0A3B3C"/>
<path d="M57.6967 61.809C57.6932 62.2103 58.0056 62.5415 58.3839 62.5378C58.7622 62.5341 59.0804 62.1966 59.0839 61.7953C59.0874 61.3941 58.7751 61.0628 58.3968 61.0666C58.0185 61.0703 57.7003 61.4078 57.6967 61.809Z" fill="#0A3B3C"/>
<path d="M55.4897 54.6098C55.4862 55.0111 55.7985 55.3423 56.1769 55.3386C56.5552 55.3349 56.8734 54.9974 56.8769 54.5961C56.8804 54.1949 56.5681 53.8636 56.1897 53.8673C55.8114 53.8711 55.4932 54.2086 55.4897 54.6098Z" fill="#0A3B3C"/>
<path d="M50.9077 59.4692C50.9042 59.8704 51.2165 60.2017 51.5948 60.198C51.9731 60.1942 52.2913 59.8568 52.2949 59.4555C52.2984 59.0542 51.986 58.723 51.6077 58.7267C51.1658 58.7979 50.9112 59.0679 50.9077 59.4692Z" fill="#0A3B3C"/>
<path d="M48.5529 61.9672C48.5494 62.3685 48.8618 62.6997 49.2401 62.696C49.6184 62.6923 49.9366 62.3548 49.9401 61.9535C49.9436 61.5523 49.6313 61.221 49.253 61.2248C48.8747 61.2285 48.5565 61.566 48.5529 61.9672Z" fill="#0A3B3C"/>
<path d="M53.1987 57.0395C53.1952 57.4407 53.5075 57.772 53.8858 57.7683C54.2642 57.7645 54.5824 57.4271 54.5859 57.0258C54.5894 56.6246 54.2771 56.2933 53.8987 56.297C53.5204 56.3008 53.2022 56.6382 53.1987 57.0395Z" fill="#0A3B3C"/>
<path d="M53.1565 61.8539C53.1529 62.2552 53.4653 62.5865 53.8436 62.5827C54.2219 62.579 54.5401 62.2415 54.5436 61.8403C54.5471 61.439 54.2348 61.1078 53.8565 61.1115C53.4145 61.1827 53.16 61.4527 53.1565 61.8539Z" fill="#0A3B3C"/>
<path d="M55.4475 59.4243C55.444 59.8255 55.7563 60.1568 56.1346 60.153C56.5129 60.1493 56.8311 59.8118 56.8346 59.4106C56.8382 59.0093 56.5258 58.6781 56.1475 58.6818C55.7692 58.6855 55.451 59.023 55.4475 59.4243Z" fill="#0A3B3C"/>
<path d="M55.4897 54.6098C55.4862 55.0111 55.7985 55.3423 56.1768 55.3386C56.5552 55.3349 56.8734 54.9974 56.8769 54.5961C56.8804 54.1949 56.5681 53.8636 56.1897 53.8673C55.8114 53.8711 55.4932 54.2086 55.4897 54.6098Z" fill="#0A3B3C"/>
<path d="M55.4897 54.6098C55.4862 55.0111 55.7985 55.3423 56.1769 55.3386C56.5552 55.3349 56.8734 54.9974 56.8769 54.5961C56.8804 54.1949 56.5681 53.8636 56.1897 53.8673C55.8114 53.8711 55.4932 54.2086 55.4897 54.6098Z" fill="#0A3B3C"/>
<path d="M57.7807 52.1801C57.7772 52.5814 58.0895 52.9126 58.4679 52.9089C58.8462 52.9052 59.1644 52.5677 59.1679 52.1664C59.1714 51.7652 58.8591 51.4339 58.4808 51.4377C58.1024 51.4414 57.7842 51.7789 57.7807 52.1801Z" fill="#0A3B3C"/>
</g>
</svg>
