<svg width="22" height="24" viewBox="0 0 22 24" fill="none" xmlns="http://www.w3.org/2000/svg">
<path fill-rule="evenodd" clip-rule="evenodd" d="M17.4108 23.1998H4.58923C2.60769 23.1998 1 21.3992 1 19.1781V4.81802C1 2.60042 2.60769 0.799805 4.58923 0.799805H17.4108C19.3923 0.799805 21 2.60042 21 4.81802V19.1781C21 21.3992 19.3923 23.1998 17.4108 23.1998ZM16.2415 11.7393C16.2415 8.35301 13.7891 5.60839 10.7674 5.60839C7.74394 5.60839 5.29338 8.35301 5.29338 11.7393C5.29338 15.1236 7.74394 17.8703 10.7674 17.8703C13.7891 17.8703 16.2415 15.1236 16.2415 11.7393ZM18.8175 5.00732C18.8175 3.74575 17.9039 2.72324 16.7782 2.72324C15.6518 2.72324 14.7388 3.74575 14.7388 5.00732C14.7388 6.26813 15.6518 7.2914 16.7782 7.2914C17.9039 7.2914 18.8175 6.26813 18.8175 5.00732Z" fill="white" stroke="white" stroke-linejoin="round"/>
</svg>
