<svg width="172" height="33" viewBox="0 0 172 33" fill="none" xmlns="http://www.w3.org/2000/svg">
<path fill-rule="evenodd" clip-rule="evenodd" d="M43.3736 0.00159274L31.8604 32.1797H35.2735L38.4262 23.1712H51.2306L54.4156 32.1797H57.8287L46.3154 0.00159274H43.3736ZM44.7961 4.97094L49.7834 19.0779H39.8594L44.7961 4.97254V4.97094ZM132.832 0.00159274L121.318 32.1797H124.731L127.884 23.1712H140.688L143.873 32.1797H147.286L135.773 0.00159274H132.832ZM134.254 4.97094L139.242 19.0779H129.317L134.254 4.97254V4.97094ZM153.346 0.00159274V32.1797H172V27.9638H156.514V0.00159274H153.346ZM83.3008 0.00159274V25.9776L66.7412 0H63.8887V32.1797H66.9069V6.2977L83.4128 32.1797H86.319V0.00159274H83.3008ZM113.891 18.0601C113.891 25.5109 110.487 28.7904 105.928 28.7904C101.369 28.7904 97.9657 25.5093 97.9657 18.0601V0H94.7979V18.0059C94.7979 28.3699 99.4 33 105.928 33C112.456 33 117.058 28.3699 117.058 18.0059V0H113.891V18.0601ZM12.9002 16.3511L2.85248 0H0V32.1797H3.01819V6.2977L12.9002 22.3143L22.7811 6.29611V32.1797H25.8004V0.00159274H22.9479L12.9002 16.3511Z" fill="black"/>
</svg>
