<svg width="160" height="39" viewBox="0 0 160 39" fill="none" xmlns="http://www.w3.org/2000/svg">
<g clip-path="url(#clip0_2_1088)">
<path d="M42.0481 13.8223H58.2486V16.8223H51.8786V33.6868H48.3757V16.8223H42.0339V13.8223H42.0481ZM57.5565 19.3036H60.5509V22.0793H60.6074C60.7063 21.6868 60.8899 21.3082 61.1582 20.9438C61.4266 20.5793 61.7514 20.2288 62.1328 19.9344C62.5142 19.626 62.9379 19.3877 63.404 19.1914C63.8701 19.0092 64.3503 18.911 64.8305 18.911C65.1978 18.911 65.4661 18.9251 65.6074 18.9391C65.7486 18.9531 65.8899 18.9811 66.0452 18.9952V22.0512C65.8192 22.0092 65.5933 21.9811 65.3531 21.9531C65.113 21.9251 64.887 21.9111 64.6611 21.9111C64.1243 21.9111 63.6159 22.0232 63.1356 22.2335C62.6554 22.4438 62.2458 22.7662 61.8927 23.1727C61.5396 23.5933 61.2571 24.098 61.0452 24.7148C60.8334 25.3316 60.7345 26.0325 60.7345 26.8316V33.6727H57.5424V19.3036H57.5565ZM80.7204 33.6868H77.5848V31.6821H77.5283C77.1328 32.411 76.5537 32.9858 75.7769 33.4204C75 33.855 74.2091 34.0793 73.404 34.0793C71.4972 34.0793 70.113 33.6167 69.2656 32.6774C68.4181 31.7382 67.9944 30.3223 67.9944 28.4297V19.3036H71.1865V28.1213C71.1865 29.383 71.4266 30.2802 71.9209 30.7989C72.4012 31.3176 73.0933 31.5839 73.969 31.5839C74.6469 31.5839 75.1978 31.4858 75.6497 31.2755C76.1017 31.0653 76.469 30.7989 76.7373 30.4484C77.0198 30.112 77.2175 29.6914 77.3447 29.2148C77.4718 28.7382 77.5283 28.2195 77.5283 27.6587V19.3176H80.7204V33.6868ZM86.1582 29.0746C86.2571 29.9998 86.6102 30.6447 87.2175 31.0232C87.839 31.3877 88.5735 31.5839 89.4351 31.5839C89.7317 31.5839 90.0707 31.5559 90.452 31.5139C90.8334 31.4718 91.2006 31.3737 91.5255 31.2475C91.8644 31.1213 92.1328 30.9251 92.3588 30.6727C92.5707 30.4204 92.6695 30.098 92.6554 29.6914C92.6413 29.2849 92.4859 28.9484 92.2034 28.6961C91.9209 28.4297 91.5678 28.2335 91.13 28.0653C90.6921 27.911 90.1978 27.7709 89.6328 27.6587C89.0678 27.5466 88.5029 27.4204 87.9238 27.2942C87.3305 27.1681 86.7514 26.9998 86.2006 26.8176C85.6497 26.6353 85.1554 26.383 84.7175 26.0606C84.2797 25.7522 83.9266 25.3456 83.6724 24.855C83.404 24.3643 83.2769 23.7615 83.2769 23.0325C83.2769 22.2475 83.4746 21.6026 83.856 21.0699C84.2373 20.5372 84.7317 20.1167 85.3108 19.7942C85.904 19.4718 86.5537 19.2475 87.2741 19.1073C87.9944 18.9811 88.6865 18.911 89.3362 18.911C90.0848 18.911 90.8051 18.9952 91.4831 19.1494C92.1611 19.3036 92.7825 19.5559 93.3334 19.9204C93.8842 20.2709 94.3362 20.7335 94.7034 21.2942C95.0707 21.855 95.2966 22.5419 95.3955 23.341H92.0622C91.9068 22.5839 91.5678 22.0653 91.017 21.8129C90.4661 21.5466 89.8305 21.4204 89.1243 21.4204C88.8983 21.4204 88.63 21.4344 88.3192 21.4765C88.0085 21.5185 87.726 21.5886 87.4435 21.6868C87.1752 21.7849 86.9492 21.9391 86.7514 22.1353C86.5678 22.3316 86.469 22.5839 86.469 22.9064C86.469 23.2989 86.6102 23.6073 86.8786 23.8456C87.1469 24.0839 87.5 24.2802 87.9379 24.4484C88.3757 24.6026 88.8701 24.7428 89.4351 24.855C90 24.9671 90.5791 25.0933 91.1724 25.2195C91.7514 25.3456 92.3164 25.5139 92.8814 25.6961C93.4464 25.8783 93.9407 26.1307 94.3786 26.4531C94.8164 26.7755 95.1695 27.1681 95.4379 27.6447C95.7063 28.1213 95.8475 28.7241 95.8475 29.4251C95.8475 30.2802 95.6498 30.9952 95.2543 31.598C94.8588 32.1868 94.3503 32.6774 93.7288 33.0419C93.1074 33.4064 92.4012 33.6867 91.6385 33.855C90.8757 34.0232 90.113 34.1073 89.3644 34.1073C88.4464 34.1073 87.5989 34.0092 86.8221 33.7989C86.0452 33.5886 85.3673 33.2802 84.8023 32.8737C84.2373 32.4531 83.7854 31.9344 83.4605 31.3176C83.1356 30.7008 82.9661 29.9578 82.9379 29.1026H86.1582V29.0746ZM96.6949 19.3036H99.1102V14.9858H102.302V19.3036H105.184V21.6727H102.302V29.355C102.302 29.6914 102.316 29.9718 102.345 30.2241C102.373 30.4625 102.444 30.6727 102.542 30.841C102.641 31.0092 102.797 31.1353 103.009 31.2195C103.22 31.3036 103.489 31.3456 103.856 31.3456C104.082 31.3456 104.308 31.3456 104.534 31.3316C104.76 31.3176 104.986 31.2896 105.212 31.2335V33.6868C104.859 33.7288 104.506 33.7568 104.181 33.7989C103.842 33.841 103.503 33.855 103.15 33.855C102.302 33.855 101.624 33.7709 101.116 33.6167C100.607 33.4625 100.198 33.2241 99.9153 32.9157C99.6187 32.6073 99.4351 32.2288 99.3221 31.7662C99.2232 31.3036 99.1526 30.7709 99.1385 30.1821V21.7008H96.7232V19.3036H96.6949ZM107.444 19.3036H110.466V21.2522H110.523C110.975 20.4111 111.596 19.8223 112.401 19.4578C113.206 19.0933 114.068 18.911 115.014 18.911C116.158 18.911 117.147 19.1073 117.994 19.5139C118.842 19.9064 119.548 20.4531 120.113 21.154C120.678 21.855 121.088 22.6681 121.37 23.5933C121.653 24.5185 121.794 25.5139 121.794 26.5653C121.794 27.5325 121.667 28.4718 121.412 29.369C121.158 30.2802 120.777 31.0793 120.268 31.7802C119.76 32.4811 119.11 33.0279 118.319 33.4484C117.528 33.869 116.61 34.0793 115.537 34.0793C115.071 34.0793 114.605 34.0372 114.138 33.9531C113.672 33.869 113.22 33.7288 112.797 33.5466C112.373 33.3643 111.963 33.126 111.61 32.8316C111.243 32.5372 110.946 32.2008 110.692 31.8223H110.636V38.9998H107.444V19.3036ZM118.602 26.5092C118.602 25.8643 118.517 25.2335 118.348 24.6167C118.178 23.9998 117.924 23.4671 117.585 22.9905C117.246 22.5139 116.822 22.1353 116.328 21.855C115.819 21.5746 115.24 21.4204 114.59 21.4204C113.249 21.4204 112.232 21.883 111.554 22.8082C110.876 23.7335 110.537 24.9671 110.537 26.5092C110.537 27.2382 110.622 27.911 110.805 28.5279C110.989 29.1447 111.243 29.6774 111.61 30.126C111.963 30.5746 112.387 30.9251 112.881 31.1774C113.376 31.4438 113.955 31.5699 114.605 31.5699C115.339 31.5699 115.946 31.4157 116.455 31.1213C116.963 30.8269 117.373 30.4344 117.698 29.9718C118.023 29.4952 118.263 28.9625 118.404 28.3596C118.531 27.7568 118.602 27.14 118.602 26.5092ZM124.237 13.8223H127.429V16.8223H124.237V13.8223ZM124.237 19.3036H127.429V33.6868H124.237V19.3036ZM130.283 13.8223H133.475V33.6868H130.283V13.8223ZM143.263 34.0793C142.105 34.0793 141.073 33.883 140.17 33.5045C139.266 33.126 138.503 32.5933 137.867 31.9344C137.246 31.2615 136.766 30.4625 136.441 29.5372C136.116 28.612 135.946 27.5886 135.946 26.4811C135.946 25.3877 136.116 24.3783 136.441 23.4531C136.766 22.5279 137.246 21.7288 137.867 21.0559C138.489 20.383 139.266 19.8643 140.17 19.4858C141.073 19.1073 142.105 18.911 143.263 18.911C144.421 18.911 145.452 19.1073 146.356 19.4858C147.26 19.8643 148.023 20.397 148.658 21.0559C149.28 21.7288 149.76 22.5279 150.085 23.4531C150.41 24.3783 150.579 25.3877 150.579 26.4811C150.579 27.5886 150.41 28.612 150.085 29.5372C149.76 30.4625 149.28 31.2615 148.658 31.9344C148.037 32.6073 147.26 33.126 146.356 33.5045C145.452 33.883 144.421 34.0793 143.263 34.0793ZM143.263 31.5699C143.969 31.5699 144.59 31.4157 145.113 31.1213C145.636 30.8269 146.059 30.4344 146.398 29.9578C146.737 29.4811 146.977 28.9344 147.147 28.3316C147.302 27.7288 147.387 27.112 147.387 26.4811C147.387 25.8643 147.302 25.2615 147.147 24.6447C146.992 24.0279 146.737 23.4952 146.398 23.0185C146.059 22.5419 145.636 22.1634 145.113 21.869C144.59 21.5746 143.969 21.4204 143.263 21.4204C142.557 21.4204 141.935 21.5746 141.412 21.869C140.89 22.1634 140.466 22.5559 140.127 23.0185C139.788 23.4952 139.548 24.0279 139.379 24.6447C139.223 25.2615 139.138 25.8643 139.138 26.4811C139.138 27.112 139.223 27.7288 139.379 28.3316C139.534 28.9344 139.788 29.4811 140.127 29.9578C140.466 30.4344 140.89 30.8269 141.412 31.1213C141.935 31.4297 142.557 31.5699 143.263 31.5699ZM151.511 19.3036H153.927V14.9858H157.119V19.3036H160V21.6727H157.119V29.355C157.119 29.6914 157.133 29.9718 157.161 30.2241C157.189 30.4625 157.26 30.6727 157.359 30.841C157.458 31.0092 157.613 31.1353 157.825 31.2195C158.037 31.3036 158.305 31.3456 158.672 31.3456C158.898 31.3456 159.124 31.3456 159.35 31.3316C159.576 31.3176 159.802 31.2896 160.028 31.2335V33.6868C159.675 33.7288 159.322 33.7568 158.997 33.7989C158.658 33.841 158.319 33.855 157.966 33.855C157.119 33.855 156.441 33.7709 155.932 33.6167C155.424 33.4625 155.014 33.2241 154.732 32.9157C154.435 32.6073 154.251 32.2288 154.138 31.7662C154.04 31.3036 153.969 30.7709 153.955 30.1821V21.7008H151.54V19.3036H151.511Z" fill="#191919"/>
<path d="M38.3192 13.8224H23.6864L19.1667 0L14.6328 13.8224L0 13.8084L11.8503 22.3598L7.31638 36.1682L19.1667 27.6308L31.0028 36.1682L26.4831 22.3598L38.3192 13.8224Z" fill="#00B67A"/>
<path d="M27.5 25.486L26.483 22.3599L19.1666 27.6309L27.5 25.486Z" fill="#005128"/>
</g>
<defs>
<clipPath id="clip0_2_1088">
<rect width="160" height="39" fill="white"/>
</clipPath>
</defs>
</svg>
