<svg width="20" height="19" viewBox="0 0 20 19" fill="none" xmlns="http://www.w3.org/2000/svg">
<path fill-rule="evenodd" clip-rule="evenodd" d="M20 1.03411C20 1.03411 17.8814 1.29053 16.9421 1.50129C16.1879 0.600303 15.1168 0.0400391 13.9297 0.0400391C11.6497 0.0400391 9.80085 2.10897 9.80085 4.66265C9.80085 5.0227 9.83691 5.37923 9.90905 5.71468C6.47797 5.525 3.43578 3.68263 1.40191 0.884824C1.04595 1.57154 0.842089 2.36364 0.842089 3.21018C0.842089 4.81545 1.57127 6.22752 2.67838 7.05826C2.00251 7.03192 1.36585 6.82467 0.809158 6.47868V6.54015C0.809158 8.77769 2.23146 10.6482 4.11949 11.0697C3.51419 11.2558 2.87753 11.2804 2.25655 11.1505C2.78031 12.9858 4.30453 14.3224 6.11102 14.361C4.34687 15.9118 2.15462 16.5564 0 16.2736C1.82688 17.5856 3.99718 18.3531 6.32743 18.3531C13.9188 18.3531 18.0696 11.3068 18.0696 5.20008C18.0696 4.99811 18.0681 4.79964 18.0586 4.60118C18.8647 3.94783 19.448 1.9632 20 1.03411Z" fill="white"/>
</svg>
